<?xml version="1.0" standalone="no"?>
<!DOCTYPE svg PUBLIC "-//W3C//DTD SVG 1.1//EN" "http://www.w3.org/Graphics/SVG/1.1/DTD/svg11.dtd" >
<svg xmlns="http://www.w3.org/2000/svg">
<metadata>
This is a custom SVG webfont generated by Font Squirrel.
Copyright   : Linux Libertine by Philipp H Poll Open Font under Terms of following Free Software LicensesGPL General Public License with fontexception and OFL Open Font LicenseCreated with FontForge httpfontforgesfnet Sept 2003 2004 2005 2006 2007 2008
Designer    : Philipp H Poll
Foundry     : Philipp H Poll
Foundry URL : httplinuxlibertinesfnet
</metadata>
<defs>
<font id="webfont7nO8d0Uv" horiz-adv-x="0" >
<font-face units-per-em="2048" ascent="1638" descent="-410" />
<missing-glyph horiz-adv-x="512" />
<glyph unicode="&#x2e;&#x2e;&#x2e;" horiz-adv-x="1531" d="M117 88q0 45 33 78q31 31 75.5 31t75.5 -31q33 -33 33 -78q0 -43 -33 -75.5t-76 -32.5t-75.5 32.5t-32.5 75.5zM659 88q0 47 31 78t78 31t78 -31t31 -78q0 -45 -31 -76q-33 -33 -78 -32.5t-78 32.5q-31 31 -31 76zM1200 88q0 45 33 78q31 31 76 31q47 0 77.5 -31 t30.5 -78q0 -45 -31 -76q-33 -33 -77 -32q-43 0 -76 32.5t-33 75.5z" />
<glyph unicode="&#x21;&#x21;" horiz-adv-x="964" d="M186 88q0 47 31 78t78 31q45 0 76 -31q33 -33 32 -78q0 -43 -32.5 -75.5t-75.5 -32.5q-45 0 -78 32q-31 31 -31 76zM186 1198q0 78 33 113q35 37 76 37t76 -37q33 -35 32 -113q0 -41 -8 -115l-20 -137l-21 -143q-12 -92 -18 -185q-2 -33 -5 -78.5t-3 -54.5q-4 -53 -4 -55 q-4 -41 -29 -41q-27 0 -29 27q-2 12 -6 78q-2 25 -10 151q-4 72 -17 158q-6 74 -26 188q-21 121 -21 207zM563 92q0 45 33 78q31 31 76 31t76 -31q33 -33 32 -78q0 -43 -32.5 -75.5t-75.5 -32.5t-76 32.5t-33 75.5zM563 1202q0 78 33 113q35 37 76 37t76 -37q33 -35 32 -113 q0 -41 -8 -115l-20 -137l-21 -143q-12 -94 -18 -182l-5 -80t-3 -56q-4 -53 -5 -55q-4 -41 -28 -41q-27 0 -29 27q-2 12 -6 78l-6 76l-6 75q-8 106 -15 158q-6 74 -26 188q-21 121 -21 207z" />
<glyph unicode="&#x3f;&#x3f;" horiz-adv-x="1658" d="M94 1085q0 98 105 185q92 80 254 80q158 0 249 -84q94 -86 95 -226q0 -57 -19 -106q-16 -43 -59 -90t-68 -66q-61 -49 -78 -59q-86 -66 -106 -103q-29 -57 -29 -149v-90q0 -20 -35 -21q-33 0 -32 21v94q0 199 143 330q63 59 86 108q27 57 27 123q0 104 -54 176 q-55 74 -141 74q-84 0 -143 -33q-55 -31 -56 -78q0 -37 13 -53q12 -15 12 -49q0 -35 -24.5 -53.5t-55.5 -18.5q-37 0 -59 21q-25 21 -25 67zM295 88q0 47 30.5 78t78 31t78 -31t30.5 -78q0 -45 -31 -76q-33 -33 -78 -32.5t-77 32.5q-31 31 -31 76zM864 1085q0 98 105 185 q92 80 254 80q158 0 250 -84q94 -86 94 -226q0 -57 -19 -106q-16 -43 -59 -90t-68 -66q-61 -49 -78 -59q-86 -66 -106 -103q-29 -57 -29 -149v-90q0 -20 -34 -21q-33 0 -33 21v94q0 199 143 330q63 59 86 108q27 57 27 123q0 104 -54 176q-55 74 -141 74q-82 0 -141 -33 q-57 -33 -57 -78q0 -37 12 -53q12 -15 12 -49q0 -35 -24.5 -53.5t-55.5 -18.5q-37 0 -59 21q-25 21 -25 67zM1065 88q0 47 30.5 78t78 31t78 -31t30.5 -78q0 -45 -31 -76q-33 -33 -78 -32.5t-77 32.5q-31 31 -31 76z" />
<glyph unicode="&#x3f;&#x21;" horiz-adv-x="1380" d="M94 1085q0 98 105 185q92 80 254 80q158 0 249 -84q94 -86 95 -226q0 -57 -19 -106q-16 -43 -59 -90t-68 -66q-61 -49 -78 -59q-86 -66 -106 -103q-29 -57 -29 -149v-90q0 -20 -35 -21q-33 0 -32 21v94q0 199 143 330q63 59 86 108q27 57 27 123q0 104 -54 176 q-55 74 -141 74q-84 0 -143 -33q-55 -31 -56 -78q0 -37 13 -53q12 -15 12 -49q0 -35 -24.5 -53.5t-55.5 -18.5q-37 0 -59 21q-25 21 -25 67zM295 88q0 47 30.5 78t78 31t78 -31t30.5 -78q0 -45 -31 -76q-33 -33 -78 -32.5t-77 32.5q-31 31 -31 76zM979 92q0 47 30.5 78 t78 31t78 -31t30.5 -78q0 -45 -31 -76q-33 -33 -78 -32.5t-77 32.5q-31 31 -31 76zM979 1202q0 78 33 113q33 37 75.5 37t75.5 -37q33 -35 33 -113q0 -59 -6 -115q-2 -14 -21 -137q-2 -20 -10 -69.5l-12 -73.5q-12 -94 -19 -182l-5 -80t-3 -56q-4 -53 -4 -55q-4 -41 -29 -41 q-27 0 -28 27q-2 12 -6 78q-2 25 -11 151q-4 72 -16 158q-6 74 -27 188q-20 121 -20 207z" />
<glyph unicode="&#x21;&#x3f;" horiz-adv-x="1302" d="M186 88q0 47 31 78t78 31q45 0 76 -31q33 -33 32 -78q0 -43 -32.5 -75.5t-75.5 -32.5q-45 0 -78 32q-31 31 -31 76zM186 1198q0 78 33 113q35 37 76 37t76 -37q33 -35 32 -113q0 -41 -8 -115l-20 -137l-21 -143q-12 -92 -18 -185q-2 -33 -5 -78.5t-3 -54.5q-4 -53 -4 -55 q-4 -41 -29 -41q-27 0 -29 27q-2 12 -6 78q-2 25 -10 151q-4 72 -17 158q-6 74 -26 188q-21 121 -21 207zM508 1081q0 98 104 185q92 80 254 80q158 0 250 -84q94 -86 94 -226q0 -57 -18 -106q-16 -43 -59 -90t-68 -66q-61 -49 -78 -59q-86 -66 -106 -103q-29 -57 -29 -149 v-90q0 -20 -35 -21q-33 0 -33 21v94q0 199 144 330q63 59 86 108q27 57 26 123q0 102 -55 176t-139 74q-82 0 -141 -33q-57 -33 -58 -78q0 -37 12 -53q12 -15 13 -49q0 -35 -24.5 -53.5t-55.5 -18.5q-37 0 -60 21q-24 21 -24 67zM709 84q0 45 32 78q31 31 76 31q47 0 78 -31 t31 -78t-31 -78t-78 -31q-45 0 -76 31q-32 33 -32 78z" />
<glyph unicode="&#xb0;C" horiz-adv-x="1624" d="M90 1143q0 88 59.5 147.5t145.5 59.5t143 -60q59 -63 60 -147q0 -80 -60 -144q-57 -61 -143 -61q-84 0 -145 61q-60 60 -60 144zM160 1141q0 -55 36.5 -98.5t98.5 -43.5q59 0 96 43t37 98.5t-35 102.5q-33 45 -98 45q-61 0 -100 -45q-35 -41 -35 -102zM498 561 q0 293 164 457q166 166 417 166q121 0 209 -16.5t135 -37.5q45 -20 60 -24q33 -125 41 -307q-20 -14 -60 -8q-90 324 -381 323q-66 0 -133 -22q-57 -18 -127 -76q-61 -51 -102 -162q-39 -109 -39 -264q0 -221 113 -371q115 -152 303 -151q131 0 217 45q82 43 184 170 q39 -6 51 -31q-96 -141 -200 -207q-106 -66 -246 -65q-272 0 -440 174q-166 171 -166 407z" />
<glyph unicode="&#xb0;F" horiz-adv-x="1640" d="M90 1143q0 88 59.5 147.5t145.5 59.5t143 -60q59 -63 60 -147q0 -80 -60 -144q-57 -61 -143 -61q-84 0 -145 61q-60 60 -60 144zM160 1141q0 -55 36.5 -98.5t98.5 -43.5q59 0 96 43t37 98.5t-35 102.5q-33 45 -98 45q-61 0 -100 -45q-35 -41 -35 -102zM627 1122v39l8 4 l256 -4h659q16 -150 43 -317l-59 -10l-35 100q-18 43 -41 74q-29 41 -65 55q-43 16 -95 16h-249q-40 0 -56 -12t-16 -49v-391h268q51 0 71.5 20.5t33.5 69.5l14 61q0 12 14 13h45q6 0 7 -5q-16 -135 -17 -194q0 -84 17 -197l-5 -8h-47q-16 0 -16 16l-12 64q-8 41 -33 65 q-23 23 -72 23h-268v-403q0 -46 24.5 -68t85.5 -25l54 -4q16 -4 16 -16v-39l-4 -4l-256 4l-264 -4l-4 4v39q0 16 14 16l55 4q63 2 88 25q25 22 25 68v862q0 43 -22.5 65.5t-83.5 24.5l-62 4q-16 4 -16 14z" />
<glyph unicode="fb" horiz-adv-x="1591" d="M45 811v27q0 41 47 41h101v88q0 117 38 207q41 94 101 147q63 57 131 84q74 29 137 29q94 0 170 -52q68 14 117 48q25 0 24 -21q-6 -83 -6 -215v-377q0 -29 21 -10q102 92 229 92q141 0 252 -113q111 -115 111 -290q0 -229 -141.5 -372.5t-311.5 -143.5q-117 0 -180 51 q-14 12 -29 12q-12 0 -27 -18l-49 -50q-31 0 -45 25q8 39 8 145v1000q0 59 -2 65q-29 10 -45 35q-14 23 -26 53q-8 20 -39 45q-27 20 -70 21q-25 0 -61 -14q-29 -12 -68 -47q-35 -33 -57 -113q-20 -74 -21 -189v-122h221q16 0 17 -13v-41q0 -27 -47 -26h-191v-549 q0 -125 27 -152q29 -29 135 -35q8 -8 8 -34q0 -25 -8 -33q-233 4 -242 4q-12 0 -39.5 -1t-79 -2t-96.5 -1q-10 10 -10 33q0 25 10 34q88 6 111 35t23 152v549h-138q-10 0 -10 12zM905 145q78 -96 148 -96q141 0 214.5 112.5t73.5 297.5q0 147 -67 248q-68 102 -160 102 q-98 0 -174 -66q-35 -31 -35 -86v-512z" />
<glyph unicode="ffh" horiz-adv-x="2152" d="M37 811v27q0 41 47 41h104q0 190 45 305q47 117 150 178q66 39 145 39q111 0 182.5 -37t96.5 -84q47 74 127 119q74 41 141 41q150 0 207 -64q82 20 129 54q25 0 25 -21q-6 -70 -6 -205v-479q170 170 358 170q106 0 154 -78q45 -76 45 -239v-422q0 -45 18 -63.5t70 -24.5 l39 -5q18 -2 18 -16v-47l-4 -4q-188 4 -221 4l-211 -4l-4 4v47q0 14 14 16l41 5q45 2 68 24q20 20 20 64v405q0 123 -33 180.5t-104 57.5q-113 0 -268 -150v-493q0 -43 20 -64q23 -23 68 -24l38 -5q16 -4 17 -16v-47l-4 -4q-184 4 -219 4l-197 -4l-2 4v47q0 14 14 16l23 5 q53 8 72 26q16 16 16 62v1028v22h-12q-27 0 -47 15q-18 12 -27 30q-2 6 -8 16.5l-15 26.5q-14 27 -51 52q-35 23 -72 22q-113 0 -143 -172q-14 -78 -14 -203v-114h225q16 0 16 -13v-41q0 -27 -49 -26h-192v-643q0 -45 18.5 -63.5t69.5 -24.5l39 -5q16 -4 16 -16v-47l-4 -4 q-184 4 -219 4l-213 -4l-4 4v47q0 12 16 16l39 5q49 6 68 24q20 20 20 64v643h-391v-643q0 -45 18.5 -63.5t69.5 -24.5l39 -5q16 -4 16 -16v-47l-4 -4q-184 4 -219 4l-213 -4l-4 4v47q0 12 16 16l39 5q51 6 69.5 24.5t18.5 63.5v643h-141q-10 0 -10 12zM342 879h391v88 q6 147 21 194l-6 -4q-43 0 -66 31q-27 37 -41 72q-18 41 -45 59q-39 25 -72 24q-20 0 -45 -12q-27 -14 -59 -57q-33 -45 -55 -121q-23 -74 -23 -252v-22z" />
<glyph unicode="ffj" horiz-adv-x="1624" d="M37 811v27q0 41 47 41h104q0 193 45 307q47 119 150 176q66 39 145 39q111 0 182.5 -37t96.5 -84q43 57 131 106q84 47 178 48q100 0 182 -56q55 -37 103 -96q43 -55 43 -108q0 -31 -24.5 -55.5t-57.5 -24.5q-51 0 -78 36q-27 35 -45 125q-22 111 -147 111q-33 0 -62 -14 q-33 -16 -65.5 -49t-55 -113t-22.5 -189v-122h387q31 0 98 14q57 12 66 12h32v-682q0 -494 -149 -612q-76 -63 -186 -64q-33 0 -70 25t-37 66q0 25 20.5 43t41.5 18q53 0 90 -45q20 -33 47 -33q35 0 53 45t25 144q10 150 10 161q2 43 2 183v538q0 61 -10 86q-8 20 -50 21 h-370v-645q0 -43 20 -64q18 -18 68 -22l65 -5q16 0 17 -16v-47l-4 -4q-221 4 -246 4l-213 -4l-4 4v47q0 12 16 16l39 5q49 6 68 24q20 20 20 62v645h-391v-645q0 -43 18.5 -61.5t69.5 -24.5l39 -5q16 -4 16 -16v-47l-4 -4q-184 4 -219 4l-213 -4l-4 4v47q0 12 16 16l39 5 q51 6 69.5 24.5t18.5 61.5v645h-141q-10 0 -10 12zM342 879h391v88q6 147 21 194l-6 -4q-43 0 -66 31q-27 37 -41 72q-18 41 -45 59q-39 25 -72 24q-20 0 -45 -12q-27 -14 -59 -57q-33 -45 -55 -121q-23 -74 -23 -252v-22z" />
<glyph unicode="ffk" horiz-adv-x="2082" d="M37 811v27q0 41 47 41h104q0 193 45 303q45 113 150 174q66 39 145 39q111 0 183 -37q74 -39 96 -82q78 154 299 154q98 0 168 -41q55 12 108 34h45v-938q59 29 123 82q66 55 146 144q41 45 41 80q0 33 -60 32h-8q-16 0 -16 17v39l6 4q127 -4 170 -4l190 4l9 -4v-39 q0 -16 -23 -17h-14q-41 0 -101 -30q-66 -35 -96 -68l-156 -172q-10 -10 -10 -23q0 -10 10 -26l242 -346q63 -94 154 -95h6q25 0 24 -16v-45l-4 -6q-135 4 -182 4l-127 -4l-6 8v43q0 41 -47 111l-150 202q-4 6 -28 39q-4 4 -31 23q-18 12 -41 12q-12 0 -21 -2v-276 q0 -45 19 -64q23 -23 70 -24l38 -5q18 -2 19 -16v-47l-4 -4q-188 4 -221 4l-211 -4l-4 4v47q0 12 16 16l39 5q51 6 69.5 24.5t18.5 63.5v1022v22q-31 4 -45 17q-20 18 -27 28l-20 43q-33 70 -115 70q-29 0 -59 -10q-28 -9 -62 -50q-35 -41 -47 -108q-14 -78 -14 -197v-114 h225q16 0 16 -13v-41q0 -27 -49 -26h-192v-643q0 -45 18.5 -63.5t69.5 -24.5l39 -5q16 -4 16 -16v-47l-4 -4q-184 4 -219 4l-213 -4l-4 4v47q0 12 16 16l39 5q51 6 69.5 24.5t18.5 63.5v643h-391v-643q0 -45 18.5 -63.5t69.5 -24.5l39 -5q16 -4 16 -16v-47l-4 -4 q-184 4 -219 4l-213 -4l-4 4v47q0 12 16 16l39 5q51 6 69.5 24.5t18.5 63.5v643h-141q-10 0 -10 12zM342 879h391v88q6 147 21 194l-6 -4q-43 0 -66 29q-25 31 -41 67q-20 43 -45 60q-39 25 -72 24q-14 0 -32.5 -6t-42.5 -24q-18 -14 -46 -58q-25 -39 -38 -96 q-23 -74 -23 -252v-22z" />
<glyph unicode="fft" horiz-adv-x="1757" d="M37 811v27q0 41 47 41h100q0 184 47 301q47 115 152 176q66 39 145 39q113 0 181 -35q72 -37 96 -80q47 78 110 113q63 37 132 37q109 0 176 -62q53 -47 53 -94q0 -33 -16.5 -55.5t-55.5 -22.5q-78 0 -94 84t-78 84q-80 0 -110.5 -98.5t-30.5 -294.5v-92h403 q0 178 -4 235q0 8 2 10t15 11l12 6l119 53q27 0 26 -20q-8 -74 -8 -216v-79h246q16 0 16 -13v-41q0 -27 -49 -26h-213v-518q0 -102 14 -144q16 -45 54 -45q96 0 168 58q31 -4 37 -35q-120 -135 -277 -135q-158 0 -158 202v617h-403v-549q0 -125 27 -152q29 -29 135 -35 q8 -8 8 -34q0 -25 -8 -33q-233 4 -242 4q-6 0 -28.5 -1t-69.5 -2t-97 -1q-10 10 -10 33q0 25 10 34q72 6 92.5 35t20.5 152v549h-383v-549q0 -117 23 -150q22 -31 98 -37q8 -8 8 -34q0 -25 -8 -33q-49 0 -97 1t-73 2t-31 1q-12 0 -39.5 -1t-79 -2t-96.5 -1q-10 10 -10 33 q0 25 10 34q88 6 110.5 35t22.5 152v549h-137q-10 0 -10 12zM346 879h383v98q0 102 27 176l-2 2q-4 -4 -15 -4q-23 0 -43 14q-14 10 -24 27q-8 14 -21 41q-39 94 -127 94q-16 0 -32 -6q-14 -6 -41 -23q-20 -12 -48 -55q-25 -39 -38 -96q-18 -57 -19 -244v-24z" />
<glyph unicode="fh" horiz-adv-x="1615" d="M37 811v27q0 41 47 41h104v88q0 115 37 207q37 90 101 145q66 55 129 82q70 29 137 29q102 0 170 -48q45 16 86 41h45v-694q170 170 358 170q106 0 154 -78q45 -76 45 -239v-426q0 -45 18.5 -63.5t69.5 -24.5l39 -5q16 -4 16 -16v-47l-4 -4q-184 4 -219 4l-213 -4l-4 4 v47q0 12 16 16l39 5q51 6 69.5 24.5t18.5 63.5v409q0 129 -32 183q-34 55 -105 55q-111 0 -266 -150v-497q0 -43 20 -64q18 -18 68 -24l39 -5q16 -4 16 -16v-47l-4 -4q-184 4 -221 4l-211 -4l-4 4v47q0 12 16 16l39 5q51 6 69.5 24.5t18.5 63.5v1024q0 18 -2 24 q-35 12 -57 56q-39 100 -127 100q-25 0 -61 -14q-33 -12 -68 -46q-39 -35 -59 -110q-23 -80 -23 -189v-122h225q16 0 17 -13v-41q0 -27 -47 -26h-195v-643q0 -45 18.5 -63.5t69.5 -24.5l37 -5q16 -4 16 -16v-47l-4 -4q-184 4 -217 4l-213 -4l-4 4v47q0 12 16 16l39 5 q51 6 69.5 24.5t18.5 63.5v643h-141q-10 0 -10 12z" />
<glyph unicode="fj" horiz-adv-x="1081" d="M37 811v27q0 41 47 41h104v36q0 137 35 248q33 102 94 162q58 55 123 80q63 25 133 25q98 0 183 -56q61 -41 102 -96q41 -57 41 -111q0 -33 -25 -55q-27 -23 -57 -22q-88 0 -121 159q-25 113 -147 113q-25 0 -62 -14q-25 -10 -65 -48q-39 -35 -60 -110q-20 -74 -20 -189 v-122h387q39 0 100 16q55 14 66 14h31v-692q0 -487 -150 -606q-76 -63 -186 -64q-35 0 -72 25q-35 23 -35 66q0 25 20.5 43t41.5 18q53 0 90 -45q20 -33 47 -33q35 0 53 45q20 51 27 144q2 29 8 161q2 43 2 183v540q0 59 -10 84q-8 20 -49 21h-371v-643q0 -45 16 -66 q16 -18 72 -22l68 -5q16 0 16 -16v-47l-4 -4q-225 4 -248 4l-213 -4l-4 4v47q0 12 16 16l39 5q46 3 68 24q20 20 20 64v643h-141q-10 0 -10 12z" />
<glyph unicode="fk" horiz-adv-x="1556" d="M37 811v27q0 41 47 41h104v79q0 219 127 347q125 125 277 125q102 0 170 -48q14 6 41 21q25 14 45 20h45v-942q115 53 274 230q41 45 41 80q0 33 -59 32h-8q-18 0 -19 17v39l6 4q131 -4 170 -4l193 4l6 -4v-39q0 -16 -20 -17h-17q-40 0 -98 -30q-66 -35 -96 -68 l-158 -172q-8 -10 -8 -21q0 -12 10 -28l242 -346q29 -41 69.5 -68t81.5 -27h6q27 0 27 -16v-47l-4 -4q-70 4 -182 4q-45 0 -127 -4l-6 4v47q0 45 -48 111l-149 202q-4 6 -29 39q-4 4 -30 23q-18 12 -41 12q-6 0 -27 -4v-274q0 -43 20 -64q18 -18 68 -24l39 -5q16 -4 16 -16 v-47l-4 -4q-184 4 -221 4l-211 -4l-4 4v47q0 12 16 16l39 5q57 6 72 24q16 20 16 64v1024q0 18 -2 24q-35 12 -57 56q-39 100 -127 100q-33 0 -61 -14q-31 -15 -68 -50t-59 -112q-23 -80 -23 -189v-116h225q16 0 17 -13v-41q0 -27 -47 -26h-195v-643q0 -43 16 -64 q14 -18 72 -24l37 -5q16 -4 16 -16v-47l-4 -4q-184 4 -217 4l-213 -4l-4 4v47q0 12 16 16l39 5q49 6 68 24q20 20 20 64v643h-141q-10 0 -10 12z" />
<glyph unicode="ft" horiz-adv-x="1218" d="M45 811v27q0 41 47 41h105v82q0 264 77 370q31 41 95 72q55 27 108 27q117 0 180 -50q59 -47 60 -98q0 -33 -18.5 -53.5t-49.5 -20.5q-55 0 -80 58q-39 94 -110 94q-27 0 -53 -21q-25 -20 -39 -57q-4 -12 -9 -47q-2 -20 -2 -59v-89q0 -23 1 -53t1 -39v-116h398 q0 178 -4 235q0 8 2 10t14 11l12 6l119 53q27 0 27 -20q-8 -74 -8 -216v-79h245q16 0 17 -13v-41q0 -27 -50 -26h-212v-518q0 -102 14 -144q16 -45 53 -45q96 0 168 58q31 -4 37 -35q-120 -135 -277 -135q-158 0 -157 202v617h-398v-549q0 -125 27 -152q29 -29 135 -35 q8 -8 8 -34q0 -25 -8 -33q-233 4 -241 4q-12 0 -40 -1t-79 -2t-97 -1q-10 10 -10 33q0 25 10 34q88 6 111 35t23 152v549h-142q-10 0 -10 12z" />
<glyph unicode="tt" horiz-adv-x="1255" d="M53 811v27q0 41 37 41h94q0 154 -4 215q0 8 2 10t15 10l12 6l119 54q27 0 26 -21q-8 -74 -8 -215v-59h432q0 178 -4 235q0 8 2 10t15 11q6 2 9 5l3 1l119 53q27 0 26 -20q-8 -74 -8 -216v-79h246q16 0 16 -13v-41q0 -27 -49 -26h-213v-518q0 -102 14 -144q16 -45 54 -45 q96 0 168 58q31 -4 36 -35q-120 -135 -276 -135q-158 0 -158 202v617h-432v-518q0 -102 14 -144q16 -45 54 -45q82 0 145 58q23 -2 33 -31q-39 -59 -109 -101q-66 -39 -141 -38q-158 0 -158 202v617h-121q-10 0 -10 12z" />
<glyph unicode="&#x17f;i" horiz-adv-x="1093" d="M45 0v47q0 12 16 16l39 5q55 6 72 24q16 20 16 64v620q0 20 -6 26.5t-24 6.5h-90q-10 0 -11 10v19q0 41 47 41q83 0 86 98q14 238 123 346q106 106 252 107q90 0 174 -56q55 -37 103 -96q41 -53 41 -111q0 -33 -25 -55q-27 -23 -55 -22q-49 0 -78 38q-27 35 -45 121 q-25 113 -139 113q-31 0 -60 -14q-35 -16 -63 -50q-33 -37 -56 -114q-20 -74 -20 -189v-839q0 -45 18 -64q23 -23 70 -24l51 -5q16 -4 17 -16v-47l-4 -4q-201 4 -232 4l-213 -4zM606 29q0 25 10 34q100 10 123 35q25 29 25 152v399q0 88 -23 109q-25 22 -110 30 q-12 37 -4 58q188 25 280 59q27 0 27 -14q-8 -117 -8 -234v-407q0 -123 24.5 -151.5t122.5 -35.5q8 -8 8 -34q0 -25 -8 -33q-45 0 -99 1t-84 2t-44 1l-230 -4q-10 10 -10 33z" />
<glyph unicode="&#x17f;&#x17f;" horiz-adv-x="1142" d="M45 0v47q0 12 16 16l39 5q46 3 68 24q20 20 20 64v620q0 20 -6 26.5t-24 6.5h-90q-10 0 -11 10v19q0 41 47 41q80 0 89 98q8 141 53 233.5t131 145.5q63 39 141 39q170 0 270 -119q14 49 82 102q63 51 156 52q102 0 170 -62q53 -47 53 -94q0 -31 -18 -55q-16 -23 -53 -23 q-76 0 -95 84q-14 80 -69 80q-80 0 -115 -98q-33 -96 -33 -291v-815q0 -45 19 -66q16 -18 69 -22l68 -5q16 0 16 -16v-47l-4 -4q-225 4 -248 4l-211 -4l-4 4v47q0 14 17 16l39 5q51 6 69.5 24.5t18.5 63.5v620q0 23 -4 27q-6 6 -29 6h-88q-12 0 -12 10v19q0 16 12 28.5 t35 12.5q86 0 86 98q0 102 20 178l-12 -4q-70 0 -90 82q-28 104 -117 104q-29 0 -57 -18q-27 -18 -56 -66q-31 -51 -45 -141q-16 -102 -16 -233v-723q0 -41 20.5 -61.5t67.5 -26.5l29 -5q16 -4 16 -16v-47l-4 -4q-172 4 -209 4l-213 -4z" />
<glyph unicode="&#x17f;l" horiz-adv-x="1056" d="M45 0v39q0 12 16 16l39 4q51 6 69.5 24.5t18.5 63.5v629q0 20 -6 26.5t-24 6.5h-90q-10 0 -11 10v19q0 41 47 41q84 0 84 100q6 212 123 332q117 119 260 119q102 0 170 -48q63 14 113 48q25 0 25 -21q-6 -74 -7 -205v-1057q0 -47 18.5 -65.5t70.5 -22.5l47 -4 q16 -4 16 -16v-39l-2 -4q-201 4 -229 4l-193 -4l-2 4v39q0 14 14 16l19 2q51 6 69.5 24.5t18.5 65.5v1033v24q-35 10 -60 56q-39 100 -127 100q-27 0 -59 -14q-27 -12 -59.5 -47t-51.5 -115q-20 -86 -20 -189v-848q0 -45 18.5 -63t69.5 -25l37 -4q16 -4 16 -16v-39l-4 -4 q-123 8 -217 8l-213 -8z" />
<glyph unicode="&#x17f;&#x17f;i" horiz-adv-x="1617" d="M45 0v39q0 12 16 16l39 4q53 6 70 23q18 18 18 65v629q0 20 -6 26.5t-24 6.5h-90q-10 0 -11 10v19q0 41 47 41q80 0 89 98q8 141 53 233.5t131 145.5q63 39 141 39q170 0 270 -119q57 82 130 119q68 35 172 35q90 0 174 -56q55 -37 102 -96q43 -55 43 -111q0 -33 -25 -55 q-27 -23 -57 -22q-47 0 -75.5 38.5t-47.5 120.5q-20 113 -139 113q-33 0 -61 -14q-35 -16 -64 -50q-31 -33 -53 -114q-20 -74 -21 -189v-848q0 -45 19 -65q16 -18 69 -23l68 -4q16 0 16 -16v-39l-4 -4q-225 4 -248 4l-211 -4l-4 4v39q0 14 17 16l39 4q51 6 69.5 24.5 t18.5 63.5v629q0 23 -4 27q-6 6 -29 6h-88q-12 0 -12 10v19q0 16 12 28.5t35 12.5q86 0 86 98q0 102 20 178l-12 -4q-70 0 -90 82q-28 104 -117 104q-29 0 -57 -18q-27 -18 -56 -66q-31 -51 -45 -141q-16 -102 -16 -233v-732q0 -43 18 -61q16 -16 70 -27l29 -4q16 -4 16 -16 v-39l-4 -4q-172 4 -209 4l-213 -4zM1130 29q0 27 11 34q100 10 123 35q25 29 24 152v399q0 88 -24 109q-25 23 -109 30q-12 37 -4 58q182 25 281 59q27 0 26 -14q-8 -117 -8 -234v-407q0 -123 24.5 -151.5t122.5 -35.5q8 -8 9 -34q0 -25 -9 -33q-45 0 -99 1t-84 2t-44 1 l-229 -4q-11 10 -11 33z" />
<glyph unicode="&#x17f;s" horiz-adv-x="1204" d="M45 0v39q0 12 16 16l39 4q49 6 68 25q20 20 20 63v629q0 20 -6 26.5t-24 6.5h-90q-10 0 -11 10v19q0 41 47 41q83 0 86 98q16 246 115 348q101 104 240 105q131 0 215 -66q86 -68 86 -145q0 -70 -64 -70q-74 0 -123 141q-29 72 -139 72q-31 0 -57 -14q-31 -16 -57 -50 q-25 -29 -46 -114q-18 -78 -18 -189v-848q0 -45 16 -65q16 -18 72 -23l51 -4q16 -4 17 -16v-39l-4 -4q-201 4 -232 4l-213 -4zM575 287l56 2q15 -132 74 -197q53 -59 131 -59q53 0 106 47t53 110q0 71 -43 117t-159 99q-125 53 -170 104q-47 53 -48 160q0 98 78 166 q80 70 197 69q135 0 231 -51q16 -90 23 -209l-55 -2q-27 111 -88 156q-59 45 -111 45q-63 0 -105 -35q-43 -37 -43 -109q0 -63 29 -98q27 -33 111 -63q143 -53 217 -121t74 -180q0 -90 -55.5 -151.5t-117 -86.5t-118.5 -25q-80 0 -164 23q-37 4 -39 4q-18 0 -49 -6 q-1 127 -15 291z" />
<glyph unicode="&#x17f;h" horiz-adv-x="1595" d="M45 0v39q0 12 16 16l39 4q51 6 69.5 24.5t18.5 63.5v629q0 20 -6 26.5t-24 6.5h-90q-10 0 -11 10v19q0 41 47 41q84 0 84 100q6 212 123 332q117 119 260 119q104 0 170 -48q72 16 113 48q25 0 25 -21q-6 -70 -7 -205v-469q170 170 336 170q221 0 222 -323v-435 q0 -43 20 -63q18 -18 68 -25l38 -4q18 -2 19 -16v-39l-4 -4q-188 4 -221 4l-211 -4l-4 4v39q0 12 16 16l39 4q51 6 69.5 24.5t18.5 63.5v457q0 119 -35 164q-33 41 -125 41q-94 0 -246 -150v-512q0 -47 21 -65q23 -20 68 -23l47 -4q16 -4 16 -16v-39l-2 -4q-201 4 -229 4 l-193 -4l-2 4v39q0 14 14 16l19 4q49 12 69 29q18 14 19 59v1033v24q-35 10 -60 56q-39 100 -127 100q-27 0 -59 -14q-27 -12 -59.5 -47t-51.5 -115q-20 -86 -20 -189v-848q0 -43 16 -63q14 -18 72 -25l37 -4q16 -4 16 -16v-39l-4 -4q-184 4 -217 4l-213 -4z" />
<glyph unicode="Qu" horiz-adv-x="2560" d="M76 635q0 303 178 508t451 205q276 0 469 -189q190 -187 190 -485q0 -281 -145.5 -465t-393.5 -221q-120 -34 -245 -123l-21 -15q41 4 64 5q283 0 548 -105q131 -53 238 -78q96 -23 207 -22q86 0 192 33q115 35 209 88l35 -37q-102 -92 -244 -144q-147 -53 -305 -53 q-246 0 -473 94q-207 82 -297 109q-98 29 -205 29q-34 0 -86 -31q-53 -31 -77 -92l-82 41q90 125 237 233q53 39 105 66q-240 31 -394 204q-155 179 -155 445zM272 670q0 -285 143.5 -453t342.5 -168q181 0 295 160q115 162 114 426q0 307 -137 475t-352 168q-72 0 -143 -37 q-76 -39 -129 -104q-61 -74 -97 -193q-37 -122 -37 -274zM1532 847.5q0 24.5 8 35.5q201 -4 209 -4q43 0 72 4q16 0 16 -13q-8 -133 -8 -211v-372q0 -120 49 -166q47 -45 115 -45q82 0 192 98q33 27 33 80v395q0 98 -25 129q-27 35 -102 37q-10 10 -10 33q0 20 10 35 q201 -4 209 -4q43 0 72 4q16 0 16 -13q-8 -133 -8 -211v-393q0 -78 28 -110q27 -31 121 -39q10 -10 10.5 -28.5t-10.5 -27.5q-172 -23 -248 -81q-20 -6 -38 0q-23 78 -23 120q0 10 -8 11q-4 0 -17 -9q-151 -123 -264 -122q-141 0 -202.5 79.5t-61.5 198.5v393 q0 96 -24.5 127t-102.5 37q-8 8 -8 32.5z" />
<glyph unicode="Th" horiz-adv-x="2088" d="M14 1061q29 125 45 315l56 -8q0 -47 43 -47h815q123 0 178 18q61 20 186 91q25 0 25 -21q-6 -70 -6 -205l-2 -471q0 -23 16 -4l4 4q90 100 162 131q80 35 162 35q119 0 170 -70q55 -72 55 -274v-305q0 -125 23 -150q25 -27 114 -37q8 -8 8 -34q0 -25 -8 -33q-47 0 -99 1 t-79 2t-39 1q-10 0 -36.5 -1t-76 -2t-96.5 -1q-8 8 -8 33q0 27 8 34q83 9 105 37q23 29 22 150v311q0 109 -24 158q-37 74 -109 74q-113 0 -237 -121q-35 -39 -35 -86v-336q0 -82 10 -123q8 -33 33 -47q16 -10 80 -17q8 -8 8 -34q0 -25 -8 -33q-47 0 -96.5 1t-74 2t-32.5 1 l-225 -4q-8 8 -9 33q0 27 9 34q57 4 73 9q23 6 41 24q23 23 25 54q4 45 4 100v895q0 37 -4 47q-6 16 -39 31q-37 16 -100 16h-260q-52 0 -74 -25q-20 -23 -21 -81v-883q0 -121 35 -152q31 -29 164 -35q10 -10 10 -34q0 -23 -10 -33q-274 4 -285 4q-20 0 -286 -4q-8 8 -9 33 q0 27 9 34q131 4 163 33q35 31 35 154v889q0 53 -20 75q-22 25 -74 25h-172q-88 0 -119 -33q-31 -35 -61 -155z" />
<glyph unicode="&#xfb00;" horiz-adv-x="1189" d="M37 811v27q0 41 47 41h100q0 358 209 477q66 39 152 39q111 0 184.5 -37t97.5 -82q47 74 123 115q72 39 140 39q111 0 178 -43.5t67 -108.5q0 -31 -20.5 -51.5t-50.5 -20.5q-37 0 -56 21q-20 25 -41 61q-31 70 -110 70q-41 0 -76 -35q-33 -33 -51 -133q-14 -78 -15 -203 v-108h222q16 0 16 -13v-41q0 -27 -49 -26h-189v-549q0 -125 27 -152q29 -29 135 -35q8 -8 8 -34q0 -25 -8 -33q-233 4 -241 4q-6 0 -29 -1t-70 -2t-96 -1q-10 10 -10 33q0 25 10 34q72 6 92.5 35t20.5 152v549h-408v-549q0 -117 23 -150q22 -31 98 -37q8 -8 8 -34 q0 -25 -8 -33q-49 0 -97 1t-73 2t-31 1q-12 0 -39.5 -1t-79 -2t-96.5 -1q-10 10 -10 33q0 25 10 34q88 6 110.5 35t22.5 152v549h-137q-10 0 -10 12zM346 879h408v82q6 147 20 194l-12 -4q-20 0 -43 14q-18 12 -26.5 26.5t-20.5 41.5q-28 61 -56 80q-39 25 -75 24 q-20 0 -47 -12t-64 -57q-31 -39 -55 -121q-29 -92 -29 -250v-18z" />
<glyph unicode="&#xfb01;" horiz-adv-x="1144" d="M45 811v27q0 41 47 41h101v30q0 260 106 385q117 135 289 136q139 0 248 -66q115 -72 114 -160q0 -35 -26.5 -59.5t-59.5 -24.5q-104 0 -127 133q-10 53 -59 80q-51 27 -115 27q-96 0 -164 -119q-45 -78 -45 -246v-116h404q123 0 192 26q20 0 21 -12q-8 -117 -8 -211 v-432q0 -123 24.5 -151.5t122.5 -35.5q8 -8 8 -34q0 -25 -8 -33q-45 0 -99.5 1t-84 2t-44 1t-42 -1t-79.5 -2t-97 -1q-8 8 -9 33q0 27 9 34q90 6 114 35q23 25 23 152v403q0 76 -17 113q-14 33 -63 33h-367v-549q0 -123 25 -152q27 -29 127 -35q10 -10 10 -34q0 -23 -10 -33 q-43 0 -99.5 1t-86 2t-46.5 1q-12 0 -39.5 -1t-79 -2t-96.5 -1q-10 10 -10 33q0 25 10 34q88 6 111 35t23 152v549h-138q-10 0 -10 12z" />
<glyph unicode="&#xfb02;" horiz-adv-x="1103" d="M45 811v27q0 41 47 41h105v61q0 233 118 363q117 127 265 127q143 0 211 -48q22 3 43 13q29 12 40 20q16 10 27 15q27 0 27 -21q-2 -55 -2 -215v-944q0 -117 26 -150q25 -31 117 -37q8 -8 8 -34q0 -25 -8 -33q-45 0 -99.5 1t-82 2t-41.5 1q-8 0 -33 -1t-74 -2t-96 -1 q-8 8 -8 33q0 27 8 34q80 2 100 33q20 29 21 154v903l2 25q2 25 0 26q-35 12 -57 56q-18 45 -66 73q-45 27 -96 27q-33 0 -60 -17q-31 -18 -63 -57q-31 -37 -53 -121q-20 -76 -21 -190v-96h225q16 0 17 -13v-41q0 -27 -47 -26h-191v-549q0 -123 25 -150q25 -28 117 -37 q8 -8 8 -34q0 -25 -8 -33q-47 0 -99.5 1t-80 2t-42.5 1q-12 0 -39.5 -1t-79 -2t-96.5 -1q-10 10 -10 33q0 25 10 34q88 6 111 35t23 152v549h-138q-10 0 -10 12z" />
<glyph unicode="&#xfb03;" horiz-adv-x="1695" d="M37 811v27q0 41 47 41h104q0 193 45 303q45 113 150 174q63 39 170 39q117 0 184.5 -35t93.5 -84q47 63 131.5 108.5t178.5 45.5q121 0 200 -56q147 -100 148 -207q0 -33 -27 -57q-25 -23 -59 -23q-94 0 -121 162q-18 113 -166 113q-33 0 -61 -14q-35 -16 -64 -50 q-31 -33 -53 -114q-20 -74 -20 -189v-116h397q125 0 194 26q8 0 9 -6q-4 -160 -5 -182v-467q0 -119 25 -149.5t119 -37.5q10 -10 10 -34q0 -23 -10 -33q-45 0 -99.5 1t-82 2t-41.5 1q-8 0 -33 -1t-74 -2t-96 -1q-10 10 -10 33q0 25 10 34q80 2 100 33q20 29 21 154v444 q0 55 -2 66q-4 16 -13 28q-8 10 -37 11h-382v-549q0 -123 22.5 -151.5t108.5 -35.5q8 -8 8 -34q0 -25 -8 -33q-49 0 -99.5 1t-76 2t-35.5 1q-6 0 -29 -1t-70 -2t-96 -1q-8 8 -8 33q0 27 8 34q72 6 92.5 35t20.5 152v549h-410v-549q0 -117 23 -150q22 -31 98 -37q8 -8 8 -34 q0 -25 -8 -33q-49 0 -97 1t-73 2t-31 1q-12 0 -39.5 -1t-79 -2t-96.5 -1q-10 10 -10 33q0 25 10 34q88 6 110.5 35t22.5 152v549h-137q-10 0 -10 12zM342 879h414v82q6 127 22 196q-4 -4 -14 -4q-37 0 -55.5 20.5t-32.5 59.5q-33 104 -127 104q-8 0 -37 -8q-16 -4 -49 -24 q-31 -18 -57 -58q-25 -35 -41 -98q-23 -74 -23 -246v-24z" />
<glyph unicode="&#xfb04;" horiz-adv-x="1667" d="M37 811v27q0 41 47 41h100q0 223 54 321q39 78 120 137q78 57 177 58q115 0 186 -35q82 -39 104 -74q27 51 115 98q84 45 168 46q59 0 137 -13q76 -12 109 -35q22 3 43 13q29 12 41 20q16 10 26 15q27 0 27 -21q-2 -55 -2 -215v-944q0 -117 27 -150q25 -31 116 -37 q10 -10 10 -34q0 -23 -10 -33q-45 0 -99 1t-82 2t-42 1q-8 0 -32.5 -1t-74 -2t-96.5 -1q-10 10 -10 33q0 25 10 34q80 2 101 33q20 29 20 154v903l2 25q2 25 0 26q-35 12 -57 56q-18 46 -68 73q-47 27 -102 27q-49 0 -100.5 -45t-67.5 -125q-16 -98 -16 -203v-108h221 q16 0 16 -13v-41q0 -27 -49 -26h-188v-549q0 -123 22.5 -151.5t108.5 -35.5q8 -8 8 -34q0 -25 -8 -33q-49 0 -99.5 1t-76 2t-35.5 1q-6 0 -29 -1t-70 -2t-96 -1q-8 8 -8 33q0 27 8 34q72 6 92.5 35t20.5 152v549h-410v-549q0 -117 23 -150q22 -31 98 -37q8 -8 8 -34 q0 -25 -8 -33q-49 0 -97 1t-73 2t-31 1q-12 0 -39.5 -1t-79 -2t-96.5 -1q-10 10 -10 33q0 25 10 34q88 6 110.5 35t22.5 152v549h-137q-10 0 -10 12zM346 879h410v82q6 106 22 190h-4q-59 0 -84 59q-16 43 -61 78t-103 35q-53 0 -96 -43q-45 -43 -65 -133q-18 -57 -19 -250 v-18z" />
<glyph unicode="&#x17f;t" horiz-adv-x="1146" d="M29 29q0 27 8 34q96 4 121 33q27 33 26 154v526v4q0 4 -1 10.5t-1 8.5q0 4 -6 8q-4 2 -18 2h-90q-10 0 -11 10v19q0 41 47 41q80 0 82 98q16 240 125 346.5t248 106.5q307 0 307 -304v-247h226q16 0 16 -13v-41q0 -27 -49 -26h-193v-518q0 -102 15 -144q16 -45 53 -45 q74 0 145 58q31 -4 37 -35q-117 -135 -254 -135q-150 0 -149 202v617h-123q-10 0 -10 8v63q0 8 8 9h94q41 0 53.5 43t12.5 194q0 246 -201 246q-71 0 -135 -86q-66 -88 -66 -281v-745q0 -121 25 -152q23 -29 123 -35q10 -10 10 -34q0 -23 -10 -33q-45 0 -99.5 1t-84 2 t-44.5 1l-229 -4q-8 8 -8 33z" />
<glyph unicode=" "  horiz-adv-x="512" />
<glyph unicode="&#x09;" horiz-adv-x="512" />
<glyph unicode="&#xa0;" horiz-adv-x="512" />
<glyph unicode="!" horiz-adv-x="587" d="M186 88q0 47 31 78t78 31q45 0 76 -31q33 -33 32 -78q0 -43 -32.5 -75.5t-75.5 -32.5q-45 0 -78 32q-31 31 -31 76zM186 1198q0 78 33 113q35 37 76 37t76 -37q33 -35 32 -113q0 -41 -8 -115l-20 -137l-21 -143q-12 -92 -18 -185q-2 -33 -5 -78.5t-3 -54.5q-4 -53 -4 -55 q-4 -41 -29 -41q-27 0 -29 27q-2 12 -6 78q-2 25 -10 151q-4 72 -17 158q-6 74 -26 188q-21 121 -21 207z" />
<glyph unicode="&#x22;" horiz-adv-x="686" d="M129 1217q0 37 30.5 69.5t73.5 32.5q72 0 72 -68l-67 -370l-56 -9q-53 333 -53 345zM387 1219q0 35 31 69q31 33 74 33q72 0 71 -68l-67 -370l-56 -9q-53 333 -53 345z" />
<glyph unicode="#" horiz-adv-x="899" d="M51 373l15 102h182l35 223h-181l17 103h180l55 346h74l-57 -346h221l53 346h74l-55 -346h186l-16 -103h-185l-37 -223h185l-15 -102h-182l-57 -346h-74l53 346h-217l-57 -346h-72l55 346h-180zM319 475h222l34 223h-219z" />
<glyph unicode="$" horiz-adv-x="899" d="M86 299l59 6q25 -96 95 -170q68 -71 166 -86v492q-68 31 -82 37q-35 16 -78 47q-53 37 -78 63q-31 33 -51 82q-23 51 -23 109q0 125 94 202q90 76 218 88v115h69v-113q27 0 125 -8t113 -8q2 -63 41 -293l-60 -8l-10 37q-31 101 -80 153q-51 55 -129 64v-438l82 -33 q35 -14 88 -49q57 -37 88 -68q35 -35 60 -88q27 -57 26 -113q0 -18 -4 -59q-2 -27 -27 -82q-20 -47 -55 -88q-37 -43 -100 -72q-68 -31 -158 -36v-148h-69v146q-68 3 -136 24q-63 20 -81.5 20.5t-30.5 -10.5q-14 -12 -39 -12q0 74 -33 297zM225 897q0 -117 181 -199v410 q-76 -8 -130 -66q-51 -53 -51 -145zM475 49q35 4 64 14q33 12 63 35q33 23 51.5 66t18.5 96q0 55 -19 102q-20 49 -49 74q-49 41 -61 47q-18 10 -68 31v-465z" />
<glyph unicode="%" horiz-adv-x="1302" d="M117 844q0 131 82 229q80 96 190 96q37 0 80 -16q45 -16 57 -35q109 -51 219 -51q84 0 173 27q94 29 135 84l65 -33l-839 -1170l-70 31l735 1024q-96 -39 -219 -39q-90 0 -164 43q6 -23 6 -51q0 -117 -73.5 -239.5t-188.5 -122.5q-86 0 -137 69.5t-51 153.5zM227 815 q0 -70 29 -102q27 -29 61 -29q80 0 132 98q51 96 51 199q0 125 -88 125q-74 0 -129.5 -98.5t-55.5 -192.5zM774 201q0 127 80 225t195 98q74 0 125 -43t51 -143q0 -121 -72 -242t-188 -121q-88 0 -140 68q-51 66 -51 158zM887 170q0 -131 90 -131q76 0 129 100q51 96 51 197 q0 45 -16 78q-14 31 -33 39q-16 8 -37 8q-74 0 -129 -98.5t-55 -192.5z" />
<glyph unicode="&#x26;" horiz-adv-x="1441" d="M88 319q0 123 88 230q88 104 291 221q-104 181 -105 289q0 100 87 182q88 84 229 84q106 0 186 -63q76 -61 76 -158q0 -82 -86 -174t-219 -170l8 -17q76 -127 250 -360q88 129 158 262q35 68 39 84q10 33 -3 47q-14 16 -32 23q-8 2 -68 6q-8 8 -8 35q0 25 8 32 q111 -4 195 -4q61 0 172 4q10 -10 10 -32q0 -25 -10 -35q-94 -6 -129 -35q-37 -29 -105 -152q-115 -203 -182 -296l74 -103q45 -61 88 -94q45 -35 69 -35q96 0 156 111q23 0 43 -21q-33 -100 -92 -149q-61 -51 -119 -51q-43 0 -70 6q-33 8 -73 37q-47 35 -92 94l-60 76 q-158 -213 -381 -213q-180 0 -286.5 81.5t-106.5 257.5zM256 319q0 -143 66 -206q70 -66 174 -66q102 0 168 47q68 49 151 164l-184 254q-92 131 -119 180q-152 -84 -203 -168q-53 -88 -53 -205zM514 1063q0 -76 78 -225q98 68 151 137q55 74 56 129q0 68 -35 113 q-33 41 -96 40q-49 0 -101 -51q-53 -53 -53 -143z" />
<glyph unicode="'" horiz-adv-x="387" d="M109 1217q0 37 30.5 69.5t73.5 32.5q72 0 72 -68l-68 -370l-55 -9q-53 333 -53 345z" />
<glyph unicode="(" horiz-adv-x="608" d="M90 516q0 272 121 520q117 242 313 412q31 -3 43 -37q-307 -346 -307 -895q0 -545 307 -899q-10 -29 -43 -35q-131 115 -209 232q-88 131 -129 229q-39 90 -65 213q-27 117 -29 162q-2 32 -2 98z" />
<glyph unicode=")" horiz-adv-x="608" d="M43 -379q307 346 307 895q0 545 -307 899q10 29 43 35q125 -109 209 -231q86 -126 129 -228q39 -90 65 -213q23 -102 27 -162q4 -66 4 -100q0 -272 -121 -520q-120 -246 -313 -412q-31 3 -43 37z" />
<glyph unicode="*" horiz-adv-x="753" d="M92 1204q0 23 17 43q14 18 51 19q39 0 98 -45q55 -41 98 -60q-2 31 -26 101q-20 59 -21 88q0 35 16.5 57.5t45.5 22.5q68 0 67 -72q0 -28 -18 -98q-16 -61 -21 -101q40 15 99 62q57 45 96 45t53 -21q16 -23 17 -41q0 -76 -142 -76q-70 0 -112 -8q25 -29 71 -59 q49 -33 74 -57.5t25 -61.5q0 -28 -19 -43q-20 -16 -41 -16q-35 0 -59 32q-23 31 -47 93q-27 63 -39 88q-14 -27 -39 -90q-20 -55 -47 -93q-23 -31 -58 -30q-28 0 -43 18q-16 20 -16 39q0 39 27 66q18 18 73 55q47 31 72 59q-31 8 -86 8q-166 0 -166 76z" />
<glyph unicode="+" horiz-adv-x="1077" d="M135 426v100h352v357h105v-357h352v-100h-352v-356h-105v356h-352z" />
<glyph unicode="," horiz-adv-x="448" d="M88 -223q76 18 127 73q53 57 53 91q0 55 -73 63q-90 16 -91 90q0 45 31 72q33 29 78 29q61 0 98 -55.5t37 -147.5q0 -102 -71.5 -174t-170.5 -90q-18 18 -18 49z" />
<glyph unicode="-" horiz-adv-x="690" d="M82 496q0 29 16 57q14 27 35 27h449q29 0 28 -41q0 -20 -18.5 -51t-36.5 -31h-442q-31 0 -31 39z" />
<glyph unicode="." horiz-adv-x="448" d="M117 88q0 45 33 78q31 31 75.5 31t75.5 -31q33 -33 33 -78q0 -43 -33 -75.5t-76 -32.5t-75.5 32.5t-32.5 75.5z" />
<glyph unicode="/" horiz-adv-x="659" d="M31 -121l485 1444h84l-485 -1444h-84z" />
<glyph unicode="0" horiz-adv-x="899" d="M76 569q0 272 112 445q111 170 263 170q135 0 235 -135q131 -170 131 -461q0 -309 -119 -459q-121 -152 -256 -152q-160 0 -264 175q-102 171 -102 417zM244 549q0 -53 8 -152q6 -74 24 -159q18 -88 62 -140q43 -53 106 -53q20 0 52 10q25 8 63 54q35 41 57 116 q33 117 33 400q0 360 -112 456q-34 31 -86 31q-207 0 -207 -563z" />
<glyph unicode="1" horiz-adv-x="899" d="M182 979q281 129 402 205q12 0 12 -10q-6 -47 -6 -275v-649q0 -121 31 -152q29 -29 147 -35q10 -10 10 -34q0 -23 -10 -33q-55 0 -114.5 1t-91.5 2t-44 1q-18 0 -53 -1t-98.5 -2t-112.5 -1q-8 8 -8 33q0 27 8 34q119 4 147 33q31 31 31 154v606q0 119 -41 119 q-57 0 -178 -51q-25 15 -31 55z" />
<glyph unicode="2" horiz-adv-x="899" d="M100 -4q0 92 43 178q41 84 179 223l143 142q160 162 160 342q0 125 -60 180q-58 55 -129 55q-92 0 -133 -37q-39 -37 -39 -82q0 -4 8 -28l7 -19q8 -25 8 -39q0 -29 -31 -53t-59 -24q-31 0 -54 20q-25 23 -24 53q0 98 90 189q88 88 240 88q137 0 241.5 -74t104.5 -221 q0 -98 -47 -170q-47 -74 -148 -170l-194 -189q-143 -143 -144 -233h344q51 0 82 41q31 39 55 143q35 8 56 -8q-2 -127 -47 -307q-119 4 -152 4h-338z" />
<glyph unicode="3" horiz-adv-x="899" d="M92 109q0 23 25 45q27 23 57 22q51 0 84 -49q0 -4 8 -14q3 -4 7 -10q3 -4 3 -5l4 -4q3 -4 7 -8l12 -12q4 -2 16 -11q10 -8 23 -10q4 -2 12 -3t12 -1q10 -2 35 -2q33 0 68 14.5t78 44.5q37 27 67 101q27 66 27 158q0 254 -244 253q-39 0 -84 -4l-8 62q123 18 205 106 t82 166q0 88 -45 127q-47 41 -119 41q-31 0 -72 -10t-76 -45q-37 -37 -36 -94q0 -34 -19 -68q-18 -33 -57 -33q-35 0 -49 21q-16 23 -17 45q0 31 19 67q20 39 57 80q41 45 115 74q76 31 176 31q133 0 202.5 -65.5t69.5 -141.5q0 -49 -8 -76q-10 -35 -53 -86 q-47 -55 -133 -108l2 -5q104 -18 184 -91.5t80 -219.5q0 -186 -127 -298.5t-309 -112.5q-96 0 -188.5 37t-92.5 92z" />
<glyph unicode="4" horiz-adv-x="899" d="M47 395q0 2 4 6l539 762q14 20 28 21h54q6 0 10 -8q2 -6 0 -15l-516 -755h364v321q0 29 21 41q47 35 90 35q29 0 29 -64v-333h164q29 0 28 -31q0 -18 -18 -39q-18 -23 -37 -23h-137v-157q0 -25 4 -50q2 -16 22 -24l29 -12q2 0 53 -4q4 0 11.5 -1.5t9.5 -1.5q8 -8 8 -34 q0 -25 -8 -33q-164 4 -197 4q-63 0 -227 -4q-10 10 -10 33q0 25 10 34h24q6 0 14.5 2.5t10.5 2.5q6 0 20 2q20 4 21 4q2 0 18 4q10 2 16.5 8t12.5 10t10 17l6 18q2 8 2 25v157h-401q-68 0 -82 82z" />
<glyph unicode="5" horiz-adv-x="899" d="M104 125q0 29 23 51q20 20 51 21q53 0 98 -64l3 -2q2 -2 4 -5t4 -7q2 -2 5 -6t5 -8l2 -3l2 -2q2 -2 4 -5t4 -7q6 -8 15 -12q2 -2 8 -6t8 -7q12 -8 18 -10q4 -2 10.5 -3t10.5 -1q8 -2 27 -2q88 0 149 92q63 94 63 228q0 150 -61 223q-59 72 -164 72q-125 0 -246 -48 l66 560q127 -10 209 -11q143 0 319 21l13 -6l-31 -134q-113 -10 -203 -10q-98 0 -227 17l-39 -324q74 31 190 31q157 0 252 -105q94 -102 95 -252q0 -186 -115 -303q-117 -119 -295 -118q-88 0 -184 45q-93 43 -93 100z" />
<glyph unicode="6" horiz-adv-x="899" d="M86 451q0 123 45 243q45 123 133 226q80 94 185 159q98 61 241 105q23 -16 23 -49q-182 -70 -285 -193q-102 -125 -149 -276q94 51 204 51q184 0 265 -92q82 -94 81 -234q0 -88 -34.5 -180t-116.5 -160q-88 -72 -205 -71q-41 0 -96 10q-43 8 -103 41q-53 31 -96 82 q-35 43 -65 139q-27 82 -27 199zM246 444q0 -397 248 -397q78 0 127 80t49 229q0 47 -8 86q-8 37 -33 95q-23 51 -72 81.5t-115 30.5q-106 0 -182 -59q-14 -70 -14 -146z" />
<glyph unicode="7" horiz-adv-x="899" d="M98 874q35 219 39 310q0 6 8 6q12 -4 33 -14q25 -12 64 -13h399q88 0 150 21l30 -23q-255 -617 -442 -1179l-133 -7l-15 13q150 336 437 1048h-338q-39 0 -62 -8q-29 -10 -57 -47q-29 -39 -51 -113z" />
<glyph unicode="8" horiz-adv-x="899" d="M92 283q0 135 113 233q86 77 141 117l-35 20q-172 109 -172 262q0 117 92 193q90 76 236 76q137 0 217 -67.5t80 -176.5q0 -131 -219 -276l119 -78q150 -98 149 -273q0 -123 -100 -229q-98 -104 -275 -104q-157 0 -252 79q-94 81 -94 224zM223 283q0 -119 70 -177 q72 -59 149 -59q89 0 160 49q72 49 72 178q0 158 -168 258l-90 56q-109 -72 -152 -158q-41 -81 -41 -147zM276 952q0 -119 138 -207l59 -36q160 117 160 233q0 76 -43 125t-133 49q-82 0 -133 -47q-48 -45 -48 -117z" />
<glyph unicode="9" horiz-adv-x="899" d="M63 772q0 94 33 180q35 90 119 160q88 72 205 72q41 0 96 -10q37 -6 102 -44q53 -31 97 -81q35 -43 65 -138q27 -82 27 -198q0 -121 -45 -244q-43 -121 -133 -225q-74 -86 -185 -160q-98 -66 -241 -104q-23 16 -23 49q182 70 285 192q102 125 149 277q-94 -51 -204 -52 q-180 0 -265 93q-82 90 -82 233zM223 807q0 -39 10 -86q10 -51 31 -96q20 -49 72 -80q49 -31 115 -31q106 0 182 59q14 70 14 146q0 397 -248 397q-78 0 -127 -79.5t-49 -229.5z" />
<glyph unicode=":" horiz-adv-x="522" d="M184 188q0 45 31 76q33 33 78 33q43 0 75.5 -33t32.5 -76q0 -45 -32 -77q-31 -31 -76 -31q-47 0 -78 30.5t-31 77.5zM184 727q0 47 31 78t78 31q45 0 76 -31q33 -33 32.5 -78t-32.5 -78q-31 -31 -76 -31q-47 0 -78 31t-31 78z" />
<glyph unicode=";" horiz-adv-x="522" d="M162 -223q76 18 127 73q53 57 53 91q0 55 -74 63q-90 16 -90 90q0 45 31 72q33 29 78 29q61 0 98 -55.5t37 -147.5q0 -102 -71.5 -174t-170.5 -90q-18 18 -18 49zM184 727q0 47 31 78t78 31q45 0 76 -31q33 -33 32.5 -78t-32.5 -78q-31 -31 -76 -31q-47 0 -78 31t-31 78z " />
<glyph unicode="&#x3c;" horiz-adv-x="995" d="M100 440q-27 45 0 99l799 288q20 -8 20.5 -45t-20.5 -57l-649 -236l649 -237q20 -20 20.5 -57t-20.5 -45z" />
<glyph unicode="=" horiz-adv-x="1077" d="M135 295v100h809v-100h-809zM135 551v100h809v-100h-809z" />
<glyph unicode="&#x3e;" horiz-adv-x="995" d="M80 190.5q0 36.5 20 57.5l650 235l-650 238q-20 20 -20 57t20 45l799 -291q28 -46 0 -98l-799 -289q-20 9 -20 45.5z" />
<glyph unicode="?" horiz-adv-x="888" d="M94 1085q0 98 105 185q92 80 254 80q158 0 249 -84q94 -86 95 -226q0 -57 -19 -106q-16 -43 -59 -90t-68 -66q-61 -49 -78 -59q-86 -66 -106 -103q-29 -57 -29 -149v-90q0 -20 -35 -21q-33 0 -32 21v94q0 199 143 330q63 59 86 108q27 57 27 123q0 104 -54 176 q-55 74 -141 74q-84 0 -143 -33q-55 -31 -56 -78q0 -37 13 -53q12 -15 12 -49q0 -35 -24.5 -53.5t-55.5 -18.5q-37 0 -59 21q-25 21 -25 67zM295 88q0 47 30.5 78t78 31t78 -31t30.5 -78q0 -45 -31 -76q-33 -33 -78 -32.5t-77 32.5q-31 31 -31 76z" />
<glyph unicode="@" horiz-adv-x="1830" d="M121 457q0 330 246 563q244 231 594 231q330 0 542 -192q215 -195 215 -481q0 -94 -30 -181q-31 -88 -95 -166q-61 -78 -184 -127q-119 -49 -281 -49q-74 0 -73 84q0 34 30 129l-4 2q-63 -106 -139 -159q-72 -51 -133 -52q-74 0 -125 27q-53 29 -78 72q-23 39 -35 80 t-12 75q0 215 152 369q154 158 325 158q49 0 96.5 -24.5t61.5 -63.5l10 49l109 26l30 -10l-122 -528q-27 -115 -27 -137q0 -25 23 -25q168 0 253 98q84 96 84 338q0 150 -59 275q-57 121 -152 196q-92 74 -198 115q-102 39 -205 39q-127 0 -235 -41q-114 -43 -209 -123 q-94 -80 -154 -219q-57 -135 -57 -311q0 -88 20 -197q16 -90 70 -199q51 -106 123 -180q72 -76 196 -125q123 -49 275 -49q243 0 411 135l27 -37q-104 -80 -213 -125q-100 -41 -264 -41q-360 0 -584 224q-225 225 -225 557zM709 332q0 -188 159 -189q53 0 121 76 q70 80 115 191q61 147 61 237q0 55 -36.5 92t-96.5 37q-29 0 -90 -20q-53 -18 -94 -62q-139 -139 -139 -362z" />
<glyph unicode="A" horiz-adv-x="1421" d="M4 29q0 25 10 34q51 2 82 12.5t64 39.5q35 31 59 94l455 1065q18 43 33 57q16 16 36 17q34 0 56 -62l420 -1110q16 -41 32 -61q18 -25 47 -33q33 -10 45 -12q4 0 23.5 -2t36.5 -5q8 -8 8 -34q0 -25 -8 -33q-201 4 -234 4q-68 0 -268 -4q-8 8 -8 33q0 27 8 34 q4 0 15.5 1.5t19.5 1.5t18.5 1t14.5 1t28 4q4 0 10.5 1t10.5 2t6 1q12 4 18 8q10 6 13 14q4 12 4 19q0 12 -6 30l-125 347h-426q-39 0 -51 -7q-10 -6 -21 -28l-113 -297q-6 -18 -6 -31q0 -20 13 -33q14 -14 36 -20q35 -8 46 -10q8 -2 25.5 -3.5t27.5 -1.5q10 -10 10 -34 q0 -23 -10 -33q-201 4 -262 4q-8 0 -31 -1t-67 -2t-85 -1q-10 10 -10 33zM485 598q0 -18 54 -18h356l-199 546h-4l-205 -520q-2 -4 -2 -8z" />
<glyph unicode="B" horiz-adv-x="1202" d="M31 29q0 27 8 34q119 4 147 33q31 31 31 154v821q0 121 -30.5 151.5t-147.5 34.5q-8 8 -8 33q0 27 8 35q53 0 116.5 -1t97.5 -2t50 -1q74 0 133.5 2t122.5 2q440 0 440 -315q0 -78 -57 -154t-137 -115v-4q141 -39 229 -131q86 -90 86 -229q0 -71 -24 -135 q-23 -61 -80 -121q-55 -58 -160 -92q-100 -33 -252 -33q-129 0 -184 2t-115 2l-266 -4q-8 8 -8 33zM391 201q0 -137 170 -138q219 0 293 72q76 74 76 203q0 151 -99 246q-100 96 -299 96h-141v-479zM391 750h152q291 0 291 235q0 141 -80 205q-82 66 -185 65q-84 0 -125 -10 q-39 -10 -45 -24q-8 -20 -8 -54v-417z" />
<glyph unicode="C" horiz-adv-x="1320" d="M76 645q0 330 217 529q188 174 440 174q150 0 287 -45q131 -43 162 -48q39 -244 45 -317q-23 -14 -45 -14q-6 0 -23 4q-104 344 -448 344q-178 0 -326 -182q-123 -151 -123 -406q0 -157 49 -295q47 -133 158 -231q106 -94 260 -95q145 0 254 52q117 55 221 172 q33 0 47 -31q-211 -276 -520 -276q-207 0 -364 100q-150 96 -222 246q-69 145 -69 319z" />
<glyph unicode="D" horiz-adv-x="1433" d="M31 29q0 27 8 34q119 4 147 33q31 31 31 154v821q0 121 -30.5 151.5t-147.5 34.5q-8 8 -8 33q0 27 8 35q53 0 116.5 -1t97.5 -2t50 -1q72 0 149.5 2t188.5 2q297 0 502 -202.5t205 -491.5q0 -182 -61.5 -311.5t-166.5 -196.5q-106 -68 -213 -98q-102 -29 -229 -29 q-162 0 -237.5 2t-135.5 2l-266 -4q-8 8 -8 33zM391 170q0 -57 41 -80q43 -25 182 -24q119 0 207 24q96 27 168 78q78 57 121 160q41 100 41 254q0 126 -31 239q-31 111 -96 215q-65 101 -184 160q-123 59 -277 59q-172 0 -172 -100v-985z" />
<glyph unicode="E" horiz-adv-x="1122" d="M10 29q0 25 10 34q119 4 148 33q31 31 31 154v821q0 121 -31 151.5t-148 34.5q-10 10 -10 33q0 25 10 35l265 -4h522q59 0 100 8q8 0 8 -6q12 -59 46 -297q-25 -12 -50 -12q-12 0 -18 2q-41 127 -82 174q-43 49 -149 49h-216q-37 0 -55 -24.5t-18 -65.5v-410h186 q126 0 154 25q31 27 32 115q10 10 33 10q25 0 35 -10q-4 -164 -4 -177q0 -10 1 -32.5t2 -65.5t1 -82q-10 -10 -33 -10q-25 0 -35 10q-2 53 -12 78q-9 25 -49 43q-41 18 -125 19h-186v-494q0 -88 73 -88h279q195 0 268 268q8 2 25 2q27 0 47 -12q-25 -166 -76 -342 q-217 4 -262 4h-440q-47 0 -138.5 -1t-128.5 -3q-10 10 -10 33z" />
<glyph unicode="F" horiz-adv-x="974" d="M10 29q0 25 10 34q119 4 148 33q31 31 31 154v821q0 121 -31 151.5t-148 34.5q-10 10 -10 33q0 25 10 35l265 -4h524q55 0 94 8q8 0 8 -6q27 -145 45 -297l-63 -10q-41 127 -82 174q-43 49 -149 49h-216q-74 0 -73 -70v-430h190q126 0 154 25q27 25 33 115q10 10 34 10 q23 0 33 -10q-4 -164 -4 -177q0 -10 1 -32.5t2 -65.5t1 -82q-10 -10 -33 -10q-25 0 -34 10q-2 53 -13 78q-9 25 -49 43q-41 18 -125 19h-190v-412q0 -119 33 -152q29 -29 145 -35q8 -8 8 -34q0 -25 -8 -33q-53 0 -116.5 1t-97.5 2t-50 1l-267 -4q-10 10 -10 33z" />
<glyph unicode="G" horiz-adv-x="1421" d="M66 629q0 219 104 385q106 170 262 250q162 84 340 84q141 0 272 -48q127 -45 175 -45q18 -199 45 -315l-70 -12q-47 162 -147 252q-100 92 -304 92q-211 0 -352 -168q-139 -166 -139 -434q0 -104 37 -211t104 -199q66 -90 176 -149q106 -57 240 -58q193 0 297 99v305 q0 58 -37 73q-37 16 -131 25q-8 8 -8 37t8 37q49 0 109.5 -1t93.5 -2t51 -1t182 4q8 -8 8 -37t-8 -37q-51 -4 -71 -25q-23 -23 -23 -73v-230q0 -33 33 -57q-223 -190 -551 -190q-303 0 -499.5 190.5t-196.5 458.5z" />
<glyph unicode="H" horiz-adv-x="1492" d="M31 29q0 27 8 34q119 4 147 33q31 31 31 154v821q0 121 -30.5 151.5t-147.5 34.5q-8 8 -8 33q0 27 8 35q53 0 116.5 -1t97.5 -2t50 -1l266 4q8 -8 9 -33q0 -27 -9 -35q-117 -4 -147.5 -34.5t-30.5 -151.5v-328h701v328q0 121 -31 151.5t-148 34.5q-10 10 -10 33 q0 25 10 35q53 0 116 -1t96.5 -2t52.5 -1l266 4q8 -8 8 -33q0 -27 -8 -35q-113 -4 -146 -34q-33 -33 -32 -152v-821q0 -119 32 -152q29 -29 146 -35q8 -8 8 -34q0 -25 -8 -33q-53 0 -116.5 1t-97.5 2t-50 1l-267 -4q-10 10 -10 33q0 25 10 34q119 4 148 33q31 31 31 154v407 h-701v-407q0 -119 33 -152q29 -29 145 -35q8 -8 9 -34q0 -25 -9 -33q-53 0 -116.5 1t-97 2t-50.5 1l-266 -4q-8 8 -8 33z" />
<glyph unicode="I" horiz-adv-x="606" d="M31 29q0 27 8 34q119 4 147 33q31 31 31 154v821q0 121 -30.5 151.5t-147.5 34.5q-8 8 -8 33q0 27 8 35q53 0 116.5 -1t97.5 -2t50 -1l266 4q8 -8 9 -33q0 -27 -9 -35q-117 -4 -147.5 -34.5t-30.5 -151.5v-821q0 -119 33 -152q29 -29 145 -35q8 -8 9 -34q0 -25 -9 -33 q-53 0 -116.5 1t-97 2t-50.5 1l-266 -4q-8 8 -8 33z" />
<glyph unicode="J" horiz-adv-x="555" d="M-139 -242q0 33 33 60q35 29 57 28q25 0 39 -8q20 -12 22 -14q8 -8 16.5 -24.5t14.5 -22.5q27 -37 72 -37q43 0 75 27q37 29 66 127q33 109 33 272v905q0 121 -35 152q-35 33 -164 34q-8 8 -8 33q0 27 8 35q274 -4 285 -4q12 0 44 1t90 2t112 1q10 -10 10 -33 q0 -25 -10 -35q-94 -2 -127 -34q-31 -31 -31 -152v-860q0 -104 -19 -184q-18 -78 -55 -138q-39 -61 -63 -86q-41 -41 -72 -67q-100 -88 -240 -88q-45 0 -100 30q-53 29 -53 80z" />
<glyph unicode="K" horiz-adv-x="1302" d="M31 29q0 27 8 34q119 4 147 33q31 31 31 154v821q0 121 -30.5 151.5t-147.5 34.5q-8 8 -8 33q0 27 8 35q53 0 116.5 -1t97.5 -2t50 -1l266 4q8 -8 9 -33q0 -27 -9 -35q-117 -4 -147.5 -34.5t-30.5 -151.5v-360q88 6 156 80l344 360q45 47 45 74q0 10 -4 14q-8 8 -19 10 q-16 4 -20 4q-2 0 -12.5 1t-18.5 1t-17 1t-11 1q-8 8 -9 33q0 27 9 35q53 0 108 -1t84 -2t39 -1h8q8 0 24.5 1t38 1t54.5 1t70 1q10 -10 10 -33q0 -25 -10 -35q-10 0 -19 -2q-49 -6 -82 -12q-27 -6 -78 -31q-43 -23 -88 -69l-286 -309q-76 -82 -76 -101q0 -27 24 -51 l449 -532q27 -31 41 -41q25 -18 43 -25l35 -12q12 -3 37 -6l24 -3q8 -8 8 -34q0 -25 -8 -33q-55 0 -105.5 1t-74 2t-27.5 1q-27 0 -137 -4q-10 0 -10 12q0 90 -41 142l-334 405q-59 76 -164 78v-383q0 -119 33 -152q29 -29 145 -35q8 -8 9 -34q0 -25 -9 -33q-53 0 -116.5 1 t-97 2t-50.5 1l-266 -4q-8 8 -8 33z" />
<glyph unicode="L" horiz-adv-x="1075" d="M27 29q0 27 8 34q119 4 147 33q31 31 31 154v821q0 121 -30.5 151.5t-147.5 34.5q-8 8 -8 33q0 27 8 35q53 0 116.5 -1t97.5 -2t50 -1l266 4q8 -8 8 -33q0 -27 -8 -35q-117 -4 -147.5 -34.5t-30.5 -151.5v-889q0 -47 25 -76q25 -27 71 -26h232q102 0 159 70q55 68 93 198 h16q31 0 51 -10q-25 -205 -53 -342q-49 0 -107.5 1t-89 2t-47.5 1h-436q-47 0 -138 -1t-128 -3q-8 8 -8 33z" />
<glyph unicode="M" horiz-adv-x="1716" d="M33 29q0 27 8 34q84 6 115 48q29 39 39 137l81 844q4 33 5 73q0 55 -25 72q-23 14 -119 20q-10 10 -10 33q0 25 10 35l297 -4l420 -1040q12 -27 16 -27q6 0 19 29l434 1038l268 4q8 -8 8 -33q0 -27 -8 -35q-88 -6 -114.5 -26.5t-26.5 -75.5v-45l61 -862q3 -49 7 -74 q2 -12 10 -47q4 -18 14 -33q2 -4 27 -16q12 -6 41 -10q8 -2 28.5 -3.5t30.5 -1.5q8 -8 8 -34q0 -25 -8 -33q-180 4 -223 4q-8 0 -34 -1t-79 -2t-106 -1q-8 8 -8 33q0 27 8 34q90 4 110 19q23 16 23 80q0 41 -2 76l-53 856h-5l-460 -1084q-12 -23 -29 -22q-20 0 -31 22 l-424 1063h-4l-78 -821q-4 -45 -4 -55q0 -66 31 -96.5t109 -37.5q10 -10 10 -34q0 -23 -10 -33q-164 4 -193 4q-12 0 -176 -4q-8 8 -8 33z" />
<glyph unicode="N" horiz-adv-x="1429" d="M23 29q0 27 8 34q119 12 147 46q31 35 31 163v854q-9 46 -55 86q-49 43 -107 45q-8 8 -8 33q0 27 8 35l277 -4l702 -905l31 -41q20 -29 24 -33q4 -6 9.5 -10t9.5 -10q2 -2 5 -6.5t5 -6.5t4 -2q8 -4 10 -4q14 0 15 62v684q0 74 -6 110q-6 35 -31 58q-27 23 -51 28 q-29 6 -90 12q-8 8 -9 33q0 27 9 35q59 0 113 -1t81 -2t33 -1q8 0 35.5 1t82 2t111.5 1q8 -8 8 -33q0 -27 -8 -35q-119 -12 -147 -45q-31 -33 -31 -163v-1006q0 -63 -47 -63q-45 0 -82 49l-715 903q-51 68 -69 67q-16 0 -17 -100v-627q0 -74 6 -110q6 -35 31 -58 q27 -23 51 -28q29 -6 90 -13q8 -8 9 -34q0 -25 -9 -33q-59 0 -113.5 1t-81 2t-32.5 1q-8 0 -35.5 -1t-82 -2t-111.5 -1q-8 8 -8 33z" />
<glyph unicode="O" horiz-adv-x="1435" d="M76 635q0 303 178 508t451 205q276 0 469 -189q190 -187 190 -485q0 -309 -178 -501.5t-469 -192.5q-274 0 -457 180q-184 180 -184 475zM272 670q0 -285 143.5 -453t342.5 -168q181 0 295 160q115 162 114 426q0 307 -137 475t-352 168q-72 0 -143 -37 q-76 -39 -129 -104q-61 -74 -97 -193q-37 -122 -37 -274z" />
<glyph unicode="P" horiz-adv-x="1085" d="M27 29q0 27 8 34q119 4 147 33q31 31 31 154v821q0 121 -30.5 151.5t-147.5 34.5q-8 8 -8 33q0 27 8 35q53 0 116.5 -1t97.5 -2t50 -1q45 0 152 6l59.5 4l46.5 3t23 1q131 0 229 -35q96 -35 143 -90q47 -57 66 -108q20 -57 20 -107q0 -74 -24 -141q-27 -72 -76 -133.5 t-152 -102.5q-100 -41 -233 -40q-104 0 -166 20v-348q0 -119 39 -150q41 -31 170 -37q8 -8 8 -34q0 -25 -8 -33q-274 4 -295 4l-266 -4q-8 8 -8 33zM387 657q41 -10 156 -10q150 0 229 76q76 74 76 235q0 176 -78 242t-205 66q-178 0 -178 -131v-478z" />
<glyph unicode="Q" horiz-adv-x="1435" d="M76 635q0 303 178 508t451 205q276 0 469 -189q190 -187 190 -485q0 -274 -143 -461q-141 -184 -383 -223q-137 -41 -269 -135q14 2 41 2q117 0 303.5 -84t268.5 -84q115 0 178 75l35 -24q-117 -168 -295 -168q-90 0 -176 31q-96 35 -146 65q-58 37 -128.5 68t-135.5 31 q-35 0 -78 -29q-47 -31 -71 -92l-80 41q55 77 147 159q88 80 201 138q-242 27 -400 204q-157 177 -157 447zM272 670q0 -285 143.5 -453t342.5 -168q181 0 295 160q115 162 114 426q0 307 -137 475t-352 168q-72 0 -143 -37q-76 -39 -129 -104q-61 -74 -97 -193 q-37 -122 -37 -274z" />
<glyph unicode="R" horiz-adv-x="1200" d="M27 29q0 27 8 34q119 4 147 33q31 31 31 154v821q0 121 -30.5 151.5t-147.5 34.5q-8 8 -8 33q0 27 8 35q53 0 116.5 -1t97.5 -2t50 -1q41 0 137 6q25 2 53.5 4t44 3t21.5 1q121 0 205 -18q86 -18 149 -80q109 -102 109 -256q0 -141 -88 -229q-90 -90 -185 -121l259 -430 q45 -74 90 -117q45 -41 106 -41q6 -14 6 -28.5t-4 -20.5q-27 -14 -86 -14q-160 0 -270 182l-219 356q-27 43 -72 60q-49 18 -168 18v-346q0 -119 33 -152q29 -29 145 -35q8 -8 8 -34q0 -25 -8 -33q-53 0 -116.5 1t-97.5 2t-50 1l-266 -4q-8 8 -8 33zM387 666h98 q166 0 254 67q90 68 90 246q0 287 -272 287q-170 0 -170 -131v-469z" />
<glyph unicode="S" horiz-adv-x="991" d="M55 338q18 10 39 10q8 0 29 -4q63 -291 358 -291q123 0 189 64q68 63 67 188q0 55 -18 103q-20 53 -39 75q-18 25 -64 54q-41 27 -69 38q-51 23 -78 33q-66 25 -70 27q-137 61 -217 143q-78 80 -78 215q0 152 121 254q119 100 269 101q117 0 202 -25q104 -31 113 -31 q28 -141 37 -264q-15 -12 -55 -12h-5h-8q-18 58 -37 98q-16 37 -55 82q-34 40 -86 61q-49 20 -125 21q-94 0 -160 -68q-63 -66 -63 -161q0 -49 20 -91q23 -43 54 -71q35 -31 77 -56q66 -37 82 -43l82 -30q29 -10 43.5 -16.5t18.5 -8.5q125 -53 205 -139q76 -82 75 -217 q0 -160 -131 -278.5t-313 -118.5q-96 0 -205 24q-98 23 -164 23q-33 135 -41 311z" />
<glyph unicode="T" horiz-adv-x="1200" d="M14 1061q29 125 45 315h19q23 0 45 -8q0 -47 43 -47h891q45 0 45 47q25 8 61 8q0 -154 27 -315q-14 -6 -70 -10q-29 127 -53 157q-27 33 -109 33h-127q-53 0 -83.5 -37t-30.5 -90v-864q0 -121 35 -152q31 -29 163 -35q8 -8 9 -34q0 -25 -9 -33q-274 4 -284 4 q-20 0 -287 -4q-8 8 -8 33q0 27 8 34q131 4 164 33q35 31 35 154v870q0 52 -31 86q-31 35 -86 35h-162q-84 0 -116.5 -32.5t-63.5 -157.5h-6q-37 0 -64 10z" />
<glyph unicode="U" horiz-adv-x="1351" d="M10 1290q0 25 10 35q57 0 115 -1t88.5 -2t40.5 -1t277 4q10 -10 10 -33q0 -25 -10 -35q-121 -2 -156 -34q-33 -31 -33 -152v-520q0 -68 4 -141q2 -53 29 -127q25 -70 72 -117q109 -102 243 -103q101 0 172 31q70 31 111 78q39 45 61 121q20 70 27 133q6 61 6 141v504 q0 68 -6 100.5t-33 51.5q-25 16 -53 22q-27 6 -96 12q-8 8 -8 33q0 27 8 35q57 0 114.5 -1t86 -2t36.5 -1q2 0 26 1t74 2t109 1q8 -8 8 -33q0 -27 -8 -35q-78 -10 -100 -18q-27 -10 -41 -45q-16 -39 -16 -123v-467q0 -139 -23 -252q-20 -106 -78 -194q-55 -86 -162 -133 q-102 -45 -258 -45q-78 0 -155 22q-80 25 -152 72q-80 53 -125 157q-47 106 -47 252v588q0 123 -28 152q-33 33 -130 34q-10 10 -10 33z" />
<glyph unicode="V" horiz-adv-x="1333" d="M2 1294q0 23 8 31q55 0 106.5 -1t76 -2t30.5 -1q16 0 48 1t90.5 2t109.5 1q8 -8 8 -33q0 -27 -8 -35q-72 -6 -100.5 -22t-28.5 -47q0 -29 25 -94l325 -834h10l324 821q25 66 25 97q0 39 -29 55q-31 18 -104 24q-8 8 -9 33q0 27 9 35q55 0 108 -1t80 -2t35 -1q4 0 25.5 1 t64.5 2t90 1q8 -8 8 -33q0 -27 -8 -35q-39 -6 -70 -18q-18 -6 -47 -27q-18 -12 -37 -43q-20 -33 -24 -45q-6 -14 -23 -57l-424 -1044q-18 -47 -49 -48q-29 0 -47 48l-403 1048q-45 119 -74 150q-28 31 -111 36q-10 10 -10 37z" />
<glyph unicode="W" horiz-adv-x="1951" d="M2 1290q0 25 10 35q45 0 91.5 -1t69 -2t30.5 -1q51 0 231 4q8 -8 8 -33q0 -27 -8 -35q-57 -4 -82 -14q-27 -12 -26 -41q0 -12 6 -31l307 -944h4l258 678q14 37 14 78q0 23 -10 57l-31 95q-16 47 -59 82q-47 39 -119 40q-10 10 -10 33q0 25 10 35q43 0 92.5 -1t75 -2 t37.5 -1q16 0 49 1t92.5 2t108.5 1q8 -8 8 -33q0 -27 -8 -35q-28 -3 -43 -6q-20 -4 -35 -8q-18 -6 -28.5 -22.5t-10.5 -34.5q0 -20 10 -51l295 -912h4l326 934q6 18 6 35q0 23 -10 33q-12 12 -35 18q-37 10 -43 10q-6 2 -25.5 3t-27.5 1q-8 8 -8 33q0 27 8 35q217 -4 225 -4 t29.5 1t64.5 2t84 1q8 -8 9 -33q0 -27 -9 -35q-80 -4 -118 -34q-35 -29 -58 -90l-403 -1110q-16 -47 -55 -48q-45 0 -64 50l-240 727q-18 57 -28 57t-29 -51l-285 -733q-18 -49 -57 -50q-47 0 -63 50l-373 1114q-29 78 -53 96q-27 20 -99 22q-10 10 -10 33z" />
<glyph unicode="X" horiz-adv-x="1339" d="M6 0v41q0 10 23 14q125 6 235 158l281 383q20 27 20 47q0 27 -28 62l-295 419q-86 123 -183 142q-33 6 -32 14v39l6 6q41 0 92 -1t77.5 -2t41.5 -1q16 0 49 1t92 2t109 1q2 -6 4 -6v-39q0 -14 -11 -14l-65 -4q-45 -2 -45 -25q0 -14 35 -66l243 -360q16 -23 24.5 -23 t27.5 25l264 358q31 43 30 64q0 23 -43 27l-61 4q-14 2 -14 14v41l4 4q43 0 91 -1t73.5 -2t38.5 -1q10 0 34.5 1t71.5 2t92 1l6 -4v-41q0 -14 -18 -14q-86 -4 -129 -35t-96 -101l-269 -362q-27 -35 -26 -61q0 -23 32 -68l316 -430q102 -145 217 -154q14 0 14 -14v-41l-4 -4 q-41 0 -92 1t-78.5 2t-44.5 1q-18 0 -52 -1t-94.5 -2t-109.5 -1l-6 4v41q0 12 12 14l41 4q63 6 64 27q0 12 -37 64l-270 385q-16 23 -29 22q-8 0 -31 -29l-270 -370q-29 -41 -29 -62q0 -31 60 -37l38 -4q12 -2 13 -14v-41l-6 -4q-53 0 -107.5 1t-83.5 2t-39 1q-8 0 -172 -4z " />
<glyph unicode="Y" horiz-adv-x="1175" d="M2 1294q0 23 8 31q164 -4 209 -4q16 0 234 4q10 -10 10 -33q0 -25 -10 -35q-4 0 -14.5 -1t-16.5 -1h-27h-22q-4 0 -9.5 -1t-7.5 -1q-4 0 -12 -4l-6 -6q-2 -2 -2 -8q0 -14 22 -55l258 -455q16 -29 24.5 -29t21.5 25l243 459q16 27 17 49q0 6 -4 14q-2 4 -17 8q-8 2 -22 2 q-2 0 -13.5 1t-19.5 1t-20.5 1t-16.5 1q-8 8 -8 33t8 33q55 -2 186 -2q129 0 170 2q8 -8 8.5 -32.5t-8.5 -33.5q-2 0 -14 -1t-21 -1q-10 0 -20 -2l-10 -2q-4 0 -25 -4q-14 -2 -22 -10l-4 -4t-4.5 -3t-5.5 -3t-7 -6q-12 -8 -22 -27q-2 -2 -10.5 -15.5t-12.5 -21.5l-262 -473 q-2 -4 -4 -10t-6 -12q-6 -12 -10 -17q-3 -3 -7 -12q-2 -2 -2 -7l-2 -3l-1 -3q-1 -3 -1 -5.5t-1 -6.5t-1 -6v-14v-17v-22v-299q0 -121 35 -152q31 -29 164 -35q8 -8 8 -34q0 -25 -8 -33q-274 4 -285 4q-20 0 -287 -4q-10 10 -10 33q0 25 10 34q131 4 164 33q35 31 35 154v280 v27q0 14 -2 22.5t-2 18.5q0 4 -6 14q-2 6 -5 11l-3 4l-2 3q-2 3 -4.5 8l-4.5 9q-4 6 -9 12.5t-5 8.5l-268 452q-55 92 -84 113q-29 18 -90 22q-4 0 -10.5 1t-8.5 1q-10 10 -10 37z" />
<glyph unicode="Z" horiz-adv-x="1234" d="M84 31q0 25 16 47l797 1108q16 23 16 37q0 16 -20 16h-473q-104 0 -150 -57q-43 -55 -84 -187l-61 11q33 156 45 342q37 -4 72 -15q41 -12 94 -12h657q33 2 76 12q39 8 53 8q47 0 47 -20q0 -40 -49 -111l-768 -1063q-16 -29 -16 -41q0 -27 51 -26h477q106 0 164 70 q59 72 92 198l64 -10q-39 -156 -56 -342q-53 0 -115.5 1t-95 2t-49.5 1h-745q-39 0 -39 31z" />
<glyph unicode="[" horiz-adv-x="727" d="M221 -395v1835h434q8 -8 9 -31q0 -20 -9 -31q-139 -8 -204 -32q-61 -23 -76 -60q-16 -43 -17 -137v-1251q0 -77 7 -111q6 -31 38 -63q29 -29 86 -39q55 -9 166 -19q8 -8 8.5 -30.5t-8.5 -30.5h-434z" />
<glyph unicode="\" horiz-adv-x="585" d="M23 1430h90l471 -1528h-90z" />
<glyph unicode="]" horiz-adv-x="727" d="M66 -362.5q0 22.5 8 30.5q147 10 205 31q61 23 75 61q16 43 17 138v1251q0 77 -6 111q-6 31 -39 63q-29 29 -86 39q-55 9 -166 18q-8 8 -8 31t8 31h434v-1835h-434q-8 8 -8 30.5z" />
<glyph unicode="^" horiz-adv-x="1058" d="M229 709l260 622h86l259 -622h-93l-211 505l-208 -505h-93z" />
<glyph unicode="_" horiz-adv-x="993" d="M8 -270.5q0 32.5 12 45.5h955q12 -12 12 -45t-12 -45h-955q-12 12 -12 44.5z" />
<glyph unicode="`" horiz-adv-x="800" d="M197 1366l4 23q66 47 133 47q10 0 31 -4l143 -258q12 -25 12 -50q0 -8 -8 -14q-12 -8 -23 -8q-14 0 -59 41z" />
<glyph unicode="a" horiz-adv-x="933" d="M74 201q0 102 94 180q92 76 244 117l176 43q12 3 12 24q0 266 -166 266q-63 0 -119 -22q-51 -20 -51 -64q0 -25 4 -40q6 -12 6 -37t-24 -45q-27 -23 -66 -23q-72 0 -71 72q0 86 106 155q109 72 232 72q309 0 309 -346v-305q0 -49 4 -90q2 -29 22 -58q18 -27 56 -26 q23 0 43 16l20 16q8 0 17 -12q10 -14 10 -22q0 -6 -20.5 -26.5t-65.5 -43t-88 -22.5q-125 0 -158 118h-4l-41 -32q-72 -55 -111 -70q-45 -16 -112 -16q-115 0 -186.5 53t-71.5 168zM244 209q0 -53 37 -100q37 -45 110.5 -45.5t179.5 88.5q29 23 29 53v272l-162 -43 q-194 -53 -194 -225z" />
<glyph unicode="b" horiz-adv-x="1007" d="M14 1360q0 4 1 8t1 6q193 16 287 56q27 0 27 -21q-8 -74 -8 -215v-377q0 -29 20 -10q100 92 229 92q141 0 252 -113q111 -115 111 -290q0 -229 -141.5 -372.5t-311.5 -143.5q-117 0 -180 51q-14 12 -26.5 12t-28.5 -18l-49 -50q-29 0 -45 25q8 35 8 145v1000q0 76 -2 98 q-2 33 -27 49q-23 16 -35 17q-4 0 -12 1t-24.5 2t-30.5 1q-15 14 -15 47zM322 145q78 -96 147 -96q141 0 215 112.5t74 297.5q0 150 -66 248q-68 102 -162 102q-98 0 -174 -66q-35 -31 -34 -86v-512z" />
<glyph unicode="c" horiz-adv-x="864" d="M76 426q0 209 129 340q129 133 291 133q150 0 229 -53q84 -55 84 -141q0 -39 -33 -66q-31 -25 -67 -25q-70 0 -78 74q-2 45 -13 70q-9 25 -43 49q-35 25 -90 24q-104 0 -168 -98q-66 -100 -65 -262q0 -175 80 -283q80 -109 194 -108q141 0 246 135q33 -2 43 -29 q-72 -121 -151.5 -163.5t-182.5 -42.5q-190 0 -297 122q-108 125 -108 324z" />
<glyph unicode="d" horiz-adv-x="1034" d="M80 416q0 219 141 360q129 123 307 123q35 0 68 -8t63 -19q25 -8 29 -8q18 0 19 19v262q0 76 -2 98q-2 33 -27 49q-23 16 -35 17q-4 0 -12 1t-24.5 2t-31.5 1q-14 14 -14 47q0 4 1 8t1 6q193 16 287 56q27 0 27 -21q-8 -74 -9 -215v-928q0 -78 29 -110q27 -31 121 -39 q8 -8 8 -27q0 -20 -8 -29q-172 -23 -248 -81q-20 -4 -20 -5q-2 0 -19 5q-23 74 -22 120q0 10 -9 11q-4 0 -16 -9q-152 -123 -256 -122q-164 0 -256 120.5t-92 315.5zM256 453q0 -180 67.5 -278.5t157.5 -98.5q80 0 193 98q33 27 33 80v389q0 47 -7 66q-6 20 -28 45 q-66 74 -166 73q-123 0 -191 -102q-59 -84 -59 -272z" />
<glyph unicode="e" horiz-adv-x="913" d="M76 414q0 215 131 350q129 131 278 131q346 0 346 -356q0 -35 -38 -35l-545 4q0 -172 65 -281q88 -147 224 -147q86 0 141 24q53 25 113 86q35 -4 43 -32q-137 -178 -349 -178q-203 0 -313 131q-96 113 -96 303zM254 578l371 6q31 0 30 28q0 115 -51 166q-49 49 -119 49 q-20 0 -53 -8q-25 -6 -63.5 -28.5t-69.5 -77.5q-29 -53 -45 -135z" />
<glyph unicode="f" horiz-adv-x="632" d="M45 811v27q0 41 47 41h105v82q0 223 110.5 346t251.5 123q123 0 184 -44q66 -49 66 -104q0 -29 -29 -57q-27 -27 -55 -27q-53 0 -82 66q-25 57 -47 75q-27 20 -76 21q-162 0 -162 -365v-116h222q16 0 16 -13v-41q0 -27 -47 -26h-191v-549q0 -125 27 -152q29 -29 135 -35 q8 -8 8 -34q0 -25 -8 -33q-233 4 -241 4q-12 0 -40 -1t-79 -2t-97 -1q-10 10 -10 33q0 25 10 34q88 6 111 35t23 152v549h-142q-10 0 -10 12z" />
<glyph unicode="g" horiz-adv-x="1024" d="M66 -254q0 145 167 248q-94 45 -94 158q0 57 24.5 114.5t65.5 91.5q-106 100 -106 230q0 137 104 223q106 88 246 88q129 0 213 -57q35 47 98.5 75.5t106.5 28.5q39 0 67 -22q27 -20 27 -54q0 -35 -24 -55q-27 -23 -52 -22q-39 0 -57 36q-16 25 -41 25q-16 0 -43 -16 q-25 -16 -39 -33q88 -88 88 -213q0 -141 -102 -227q-100 -86 -244 -86q-113 0 -186 43q-37 -51 -37 -119q0 -61 39 -88q41 -29 92 -29l61 4q92 10 138 10q217 0 299 -67q90 -74 90 -166q0 -104 -86 -189q-88 -84 -219 -124q-133 -41 -270.5 -41t-231.5 55t-94 178zM207 -213 q0 -94 86 -145q88 -53 160 -54q96 0 186 25q88 25 151.5 78t63.5 123q0 37 -23 65q-20 25 -81 62q-66 35 -248 34q-2 0 -10.5 -1t-22.5 -2t-29 -1q-35 -2 -88 -2q-41 0 -82 11q-63 -76 -63 -193zM291 618q0 -57 6 -100t24.5 -86t59.5 -67q37 -23 100 -23q172 0 172 229 q0 131 -51 197q-52 68 -147 68q-164 -1 -164 -218z" />
<glyph unicode="h" horiz-adv-x="1087" d="M29 29q0 27 8 34q57 4 74 9q23 6 41 24q23 23 24 54q4 45 4 100v895q0 53 -4 98q-3 34 -24 49q-23 16 -35 17q-4 0 -12.5 1t-25 2t-30.5 1q-14 14 -14 47q0 10 2 14q193 16 287 56q27 0 26 -21q-8 -74 -8 -215l-2 -461q0 -23 16 -4l4 4q152 166 336 166q119 0 170 -70 q55 -72 56 -274v-305q0 -123 24 -150q25 -29 113 -37q8 -8 8 -34q0 -20 -8 -33q-47 0 -99.5 1t-79 2t-38.5 1q-10 0 -37 -1t-76 -2t-96 -1q-8 8 -8 33q0 27 8 34q86 10 106.5 37t20.5 150v311q0 109 -25 158q-37 74 -108 74q-125 0 -250 -121q-35 -39 -35 -86v-336 q0 -82 10 -123q8 -33 33 -47q16 -10 80 -17q8 -8 8 -34q0 -25 -8 -33q-47 0 -96.5 1t-74 2t-32.5 1l-225 -4q-8 8 -8 33z" />
<glyph unicode="i" horiz-adv-x="552" d="M51 29q0 25 10 34q100 10 123 35q25 29 25 152v399q0 88 -23 109q-25 22 -110 30q-12 37 -4 58q188 25 280 59q27 0 27 -14q-8 -117 -8 -234v-407q0 -123 24.5 -151.5t122.5 -35.5q8 -8 8 -34q0 -25 -8 -33q-45 0 -99 1t-84 2t-44 1l-230 -4q-10 10 -10 33zM184 1227 q0 37 35 67.5t72 30.5q39 0 69 -35q29 -31 29 -71q0 -37 -33 -68q-34 -31 -73 -31q-37 0 -68 33q-31 34 -31 74z" />
<glyph unicode="j" horiz-adv-x="555" d="M-98 -369q0 27 24 52q27 27 41 26q8 0 21 -4q2 0 8 -1t8 -3q4 -2 16.5 -10t14.5 -10l4 -6q4 -5 8 -9l10 -10q23 -23 64 -23q68 0 90 136q20 129 20 387v493q0 88 -24 109q-25 23 -109 30q-12 37 -4 58q190 25 281 59q27 0 26 -14q-8 -117 -8 -234v-432q0 -270 -39 -413 q-37 -133 -114 -199q-82 -70 -226 -70q-43 0 -75 23q-37 24 -37 65zM203 1227q0 37 35 67q33 31 71.5 31t69.5 -35q29 -31 29 -71q0 -37 -33 -68q-34 -31 -74 -31q-37 0 -68 33q-30 34 -30 74z" />
<glyph unicode="k" horiz-adv-x="985" d="M31 29q0 27 8 34q86 6 113 35q25 29 24 152v895q0 53 -4 98q-3 34 -25 49q-23 16 -34 17q-4 0 -12.5 1t-25 2t-30.5 1q-14 14 -14 47q0 10 2 14q193 16 286 56q27 0 27 -21q-8 -74 -8 -215v-709q78 20 264 226q37 37 37 63q0 37 -74 41q-10 10 -10 33q0 25 10 35 q41 0 85 -1t68.5 -2t35.5 -1q8 0 29.5 1t64.5 2t84 1q8 -8 8 -33q0 -27 -8 -35q-141 -6 -225 -90l-156 -172q-8 -8 -8 -20.5t10 -28.5l240 -354q31 -45 71 -62q40 -15 105 -25q10 -10 10 -34q0 -23 -10 -33q-164 4 -168 4q-31 0 -142 -4q-8 0 -8 10v33q0 41 -47 111 l-149 210q-27 41 -53.5 57.5t-63.5 16.5v-184q0 -115 20 -150q18 -31 86 -37q8 -8 9 -34q0 -25 -9 -33q-51 0 -96 1t-66.5 2t-23.5 1q-14 0 -42 -1t-80 -2t-97 -1q-8 8 -8 33z" />
<glyph unicode="l" horiz-adv-x="538" d="M39 29q0 27 8 34q98 4 123 33q25 31 25 154v895q0 76 -2 98q-2 33 -27 49q-23 16 -35 17q-4 0 -12 1t-24.5 2t-31.5 1q-14 14 -14 47q0 4 1 8t1 6q193 16 287 56q27 0 27 -21q-8 -74 -9 -215v-944q0 -119 27 -152q23 -29 121 -35q8 -8 8 -34q0 -25 -8 -33q-45 0 -99.5 1 t-84 2t-44.5 1l-229 -4q-8 8 -8 33z" />
<glyph unicode="m" horiz-adv-x="1595" d="M43 29q0 25 10 34q92 6 115 35q25 31 25 152v399q0 88 -23 109q-25 22 -111 30q-12 37 -4 58q190 25 283 59q25 0 24 -16q-10 -106 -10 -156q0 -27 17 -4l4 4q156 166 299 166q80 0 135 -43t70 -106q6 -18 22 -2q145 152 326 151q123 0 170 -86q45 -84 45 -240v-323 q0 -123 22.5 -151.5t108.5 -35.5q8 -8 8 -34q0 -20 -8 -33q-49 0 -99.5 1t-76 2t-35.5 1t-37 -1t-76 -2t-96 -1q-8 8 -8 33q0 27 8 34q86 6 106.5 35t20.5 152v360q0 182 -127 183q-135 0 -258 -136q2 -16 2 -82v-325q0 -125 20 -152q23 -29 101 -35q8 -8 8 -34 q0 -20 -8 -33q-49 0 -97.5 1t-73 2t-30.5 1q-10 0 -36.5 -1t-76 -2t-96.5 -1q-8 8 -8 33q0 23 8 34q84 6 107 35q20 27 20 152v356q0 186 -135 187q-84 0 -209 -121q-35 -39 -35 -86v-336q0 -82 11 -123q8 -33 32 -47q16 -10 80 -17q8 -8 8 -34q0 -25 -8 -33q-47 0 -96 1 t-73.5 2t-33.5 1q-16 0 -43.5 -1t-81 -2t-96.5 -1q-10 10 -10 33z" />
<glyph unicode="n" horiz-adv-x="1095" d="M43 29q0 25 10 34q96 10 119 35q25 29 25 152v399q0 88 -23 109q-25 22 -111 30q-12 37 -4 58q193 27 283 59q25 0 25 -16q-10 -106 -11 -156q0 -27 21 0q90 100 162 131q80 35 161 35q119 0 170 -70q55 -74 56 -274v-305q0 -123 24 -150q25 -29 113 -37q8 -8 8 -34 q0 -25 -8 -33q-47 0 -99.5 1t-79 2t-38.5 1q-10 0 -37 -1t-76 -2t-96 -1q-8 8 -8 33q0 27 8 34q86 10 106.5 37t20.5 150v311q0 109 -25 158q-39 74 -108 74q-111 0 -238 -121q-35 -41 -35 -86v-336q0 -123 21 -150q23 -29 102 -37q8 -8 8 -34q0 -25 -8 -33q-47 0 -96 1 t-73.5 2t-32.5 1l-226 -4q-10 10 -10 33z" />
<glyph unicode="o" horiz-adv-x="1030" d="M84 420q0 203 117 342q117 137 317 137q113 0 201 -41q82 -39 135 -110q43 -57 70 -148q25 -80 24 -162q0 -111 -43 -211q-41 -98 -145 -174q-101 -74 -246 -73q-203 0 -317 135q-113 133 -113 305zM260 467q0 -57 16 -133q14 -68 48 -135q31 -63 92 -109q58 -43 135 -43 q90 0 155.5 71.5t65.5 254.5q0 221 -71.5 339.5t-204.5 118.5q-119 0 -177 -106q-59 -108 -59 -258z" />
<glyph unicode="p" horiz-adv-x="1060" d="M6 -446q0 25 10 34q96 4 121 33q27 33 27 154v874q0 88 -23 109q-25 22 -110 30q-12 37 -4 58q182 25 276 59q27 0 27 -14q-8 -51 -8 -131q0 -10 8 -10q10 0 12 4q63 63 145 106q76 39 136 39q154 0 258 -125q104 -127 104 -293q0 -240 -151 -387q-121 -115 -302 -114 q-101 0 -178 30q-16 10 -22 6t-6 -20v-221q0 -123 28.5 -152t139.5 -35q10 -10 10 -34q0 -23 -10 -33q-233 4 -248 4l-230 -4q-10 10 -10 33zM326 215q0 -55 8 -74q8 -20 41 -49q49 -43 145 -43q82 0 142 35q61 35 90 90q31 57 43 121q14 72 14 131q0 172 -70 274 q-72 104 -174 105q-94 0 -207 -119q-33 -33 -32 -90v-381z" />
<glyph unicode="q" horiz-adv-x="1028" d="M72 424q0 205 122.5 340t311.5 135q141 0 231 -59q10 -8 21 -9q14 0 39 35q27 39 43 39q31 0 30 -51v-1081q0 -125 25 -152q27 -31 123 -33q8 -8 8 -34q0 -25 -8 -33q-45 0 -99.5 1t-84 2t-43.5 1l-230 -4q-8 8 -8 33q0 27 8 34q96 2 123 33q25 27 25 152v227 q0 33 -13 33q-4 0 -43 -23q-55 -31 -157 -30q-203 0 -313.5 139t-110.5 305zM248 465q0 -109 28 -191q27 -78 76 -122q45 -43 97 -62q55 -20 96 -20q84 0 135 26q18 8 25 23q4 8 4 39v471q0 35 -11 65q-6 20 -39 60q-70 76 -161 75q-121 0 -185 -100q-65 -102 -65 -264z" />
<glyph unicode="r" horiz-adv-x="759" d="M43 29q0 25 10 34q100 6 125 35q27 31 27 152v399q0 82 -25 107q-23 23 -108 32q-8 12 -9 29q0 23 5 29q190 25 280 59q27 0 27 -14q-10 -109 -10 -164q0 -12 6 -12t12 14q41 72 102.5 121t124.5 49q59 0 90 -31q33 -33 33 -67q0 -43 -28 -72q-31 -31 -68 -31 q-14 0 -29 7q-6 2 -20 16q-2 2 -8.5 9l-10.5 11l-16 17q-14 14 -43 14q-27 0 -94 -100q-49 -74 -49 -137v-285q0 -121 28.5 -149.5t139.5 -37.5q10 -10 10 -34q0 -23 -10 -33q-233 4 -248 4q-4 0 -234 -4q-10 10 -10 33z" />
<glyph unicode="s" horiz-adv-x="782" d="M98 283q10 10 35 10q20 0 29 -8q35 -145 80 -189q45 -49 145 -49q66 0 121 37q53 35 53 106q0 68 -43 109q-45 43 -166 92q-121 51 -174 111q-51 57 -51 168q0 94 86 161.5t203 67.5q47 0 96 -6t104 -19q37 -8 68 -14q0 -29 -6 -102.5t-6 -114.5q-10 -10 -35 -10 q-23 0 -31 8q-10 66 -32.5 102.5t-57.5 57.5q-31 18 -55.5 24t-44.5 6q-55 0 -99 -36q-45 -39 -45 -95q0 -41 13 -69q14 -31 45 -51q39 -25 61 -35q41 -18 86 -35q240 -92 240 -272q0 -72 -35 -125q-35 -55 -86 -82q-49 -27 -104 -39q-53 -12 -101 -12q-96 0 -186 22 q-20 4 -41 4t-51 -6q-1 119 -15 283z" />
<glyph unicode="t" horiz-adv-x="645" d="M51 811v27q0 41 37 41h94v41q0 137 -4 194q0 8 2 10q6 6 15 11l12 6l119 53q27 0 26 -20q-8 -74 -8 -216v-79h246q16 0 16 -13v-41q0 -27 -49 -26h-213v-518q0 -102 14 -144q16 -45 54 -45q96 0 168 58q31 -4 36 -35q-121 -135 -276 -135q-158 0 -158 202v617h-121 q-10 0 -10 12z" />
<glyph unicode="u" horiz-adv-x="1073" d="M43 848q0 25 10 35q201 -4 209 -4q43 0 72 4q16 0 16 -13q-8 -133 -8 -211v-372q0 -120 49 -166q47 -45 115 -45q82 0 192 98q33 27 33 80v395q0 98 -24 129q-27 35 -103 37q-8 8 -8 33q0 27 8 35q201 -4 209 -4q43 0 72 4q16 0 16 -13q-8 -133 -8 -211v-393 q0 -82 26.5 -110.5t122.5 -38.5q8 -8 9 -27q0 -20 -9 -29q-176 -23 -247 -81q-16 -4 -21 -5q-12 0 -18 5q-23 78 -23 120q0 10 -8 11q-4 0 -16 -9q-151 -123 -265 -122q-141 0 -202.5 79.5t-61.5 198.5v393q0 94 -26 127q-25 31 -101 37q-10 10 -10 33z" />
<glyph unicode="v" horiz-adv-x="1015" d="M14 848q0 27 9 35q41 0 84 -1t65.5 -2t30.5 -1q16 0 217 4q8 -8 8 -33q0 -27 -8 -35q-55 -6 -74 -14q-20 -8 -20 -31q0 -12 30 -92l148 -395q25 -66 39 -66q12 0 37 59l165 402q23 57 23 82q0 27 -22.5 39t-79.5 16q-8 8 -9 33q0 27 9 35q39 0 86 -1t72.5 -2t37.5 -1 q16 0 135 4q8 -8 9 -33q0 -27 -9 -35q-78 -6 -110 -39q-31 -31 -66 -112l-272 -641q-23 -47 -49 -48q-37 0 -51 43l-263 648q-3 6 -6 18q-27 70 -55 98q-23 23 -102 33q-9 8 -9 33z" />
<glyph unicode="w" horiz-adv-x="1527" d="M14 848q0 27 9 35q143 -4 180 -4q12 0 213 4q10 -10 10 -33q0 -25 -10 -35q-49 -4 -66 -14q-18 -12 -18 -37t22 -86l164 -422q18 -47 29 -47q8 0 28 51l144 363l-12 32q0 2 -3.5 7.5t-5.5 11.5q-14 35 -24 57q-12 25 -25 39q-23 27 -41 33q-25 8 -59 12q-8 8 -8 33 q0 27 8 35q41 0 84 -1t65.5 -2t30.5 -1q4 0 205 4q8 -8 8 -33q0 -27 -8 -35q-49 -2 -76 -14q-20 -8 -20 -33t20 -78l178 -448q16 -37 23 -37q4 0 22 45l172 426q20 49 21 74q0 59 -125 65q-8 8 -8 33q0 27 8 35q201 -4 213 -4q8 0 143 4q8 -8 8 -33q0 -27 -8 -35 q-74 -4 -108 -39q-33 -33 -66 -108l-266 -650q-16 -43 -47 -43t-49 41l-211 508l-207 -504q-20 -45 -49 -45q-31 0 -49 41l-269 662q-35 84 -61 106q-27 25 -100 31q-9 8 -9 33z" />
<glyph unicode="x" horiz-adv-x="1001" d="M35 29q0 27 8 34q57 4 66 7q25 6 57 30q37 27 76 78l172 221q10 12 -2 31l-179 260q-82 117 -184 125q-8 8 -8 33q0 27 8 35q43 0 85 -1t63.5 -2t27.5 -1t207 4q8 -8 8 -33q0 -27 -8 -35q-2 0 -8 -1t-10 -1t-9.5 -1t-7.5 -1t-6 -1t-6 -1t-7 -1l-5 -1l-4 -1q-4 -1 -6.5 -1 t-4.5 -1l-2 -1q-2 0 -6 -4l-4 -4v-7q0 -14 27 -55l125 -184q20 -27 39 -4l133 186q25 37 24 53q0 14 -14 21q-6 2 -59 10q-8 8 -9 33q0 27 9 35q43 0 83.5 -1t61 -2t27.5 -1q14 0 149 4q8 -8 8 -33q0 -27 -8 -35q-68 -6 -104 -27q-39 -20 -95 -86l-172 -219q-9 -15 0 -30 l185 -260q20 -29 59 -72q20 -23 55 -37q10 -4 41 -14q2 0 8.5 -1t18.5 -2t23 -4q10 -10 10 -34q0 -23 -10 -33q-43 0 -84 1t-61.5 2t-27.5 1q-12 0 -213 -4q-10 10 -10 33q0 25 10 34q2 0 7.5 1.5t9.5 1.5t8 1t6 1q6 0 12 2q8 0 13 4l2 2q2 2 4 2l2 2q4 2 4 4v8q0 25 -41 80 l-119 164q-10 10 -14 12q-6 2 -10 -2q-6 -6 -13 -14l-129 -187q-18 -25 -18 -47q0 -27 63 -35q8 -8 9 -34q0 -25 -9 -33q-43 0 -83.5 1t-61 2t-27.5 1h-51q-6 0 -20.5 -1t-22.5 -1t-25.5 -1t-27.5 -1q-8 8 -8 33z" />
<glyph unicode="y" horiz-adv-x="1060" d="M33 848q0 27 8 35q111 -4 166 -4q31 0 231 4q8 -8 8 -33q0 -27 -8 -35q-96 -6 -96 -47q0 -16 29 -86l182 -426q12 -29 24.5 -29t24.5 27l203 469q8 16 8 35q0 29 -29 41q-20 10 -77 16q-8 8 -9 33q0 27 9 35q41 0 85 -1t67.5 -2t33.5 -1t145 4q8 -8 9 -33q0 -27 -9 -35 q-55 -4 -98 -43q-43 -41 -68 -88q-120 -252 -362 -836q-41 -98 -84 -176q-82 -147 -199 -147q-41 0 -69 22q-27 20 -27 54q0 27 24.5 57.5t65.5 30.5q14 0 27 -2q25 -4 33 -4q72 0 102 59q51 106 80 188q6 18 6 45q0 70 -35 148l-231 539q-45 102 -68 122q-29 25 -94 31 q-8 8 -8 33z" />
<glyph unicode="z" horiz-adv-x="866" d="M76 25q0 12 18 41l504 743h-283q-115 0 -165 -193q-8 -2 -23 -2q-27 0 -45 9q28 175 31 270q0 12 12 12l35 -14q29 -12 65 -12h416q16 0 57 4q35 4 54 6q8 1 18 3q5 1 6 1q25 0 25 -14q0 -16 -45 -86l-492 -723h273q83 0 122 36q41 39 80 127l27 60q39 0 61 -14 q-41 -141 -65 -279h-639q-47 0 -47 25z" />
<glyph unicode="{" horiz-adv-x="565" d="M70 489v31q147 43 147 238v377q0 172 66 241q66 68 225 72q8 -8 8 -24.5t-8 -24.5q-70 -20 -106.5 -69.5t-36.5 -178.5v-360q0 -137 -29 -193q-31 -57 -109 -92q84 -37 111 -102.5t27 -208.5v-326q0 -115 38.5 -184.5t104.5 -69.5q8 -8 8 -24.5t-8 -24.5q-162 2 -227 72 q-63 66 -64 262v348q0 206 -147 241z" />
<glyph unicode="|" horiz-adv-x="417" d="M166 -475v1905h90v-1905h-90z" />
<glyph unicode="}" horiz-adv-x="565" d="M41 -411.5q0 14.5 10 24.5q70 20 107 69.5t37 178.5v360q0 135 30 193q31 59 107 92q-83 37 -111 104q-27 66 -26 207v326q0 115 -39 184.5t-105 69.5q-10 10 -10 24.5t10 24.5q160 -2 225.5 -71.5t65.5 -262.5v-348q0 -207 147 -242v-30q-147 -43 -147 -238v-377 q0 -170 -66 -239q-68 -72 -225 -74q-10 10 -10 24.5z" />
<glyph unicode="~" horiz-adv-x="917" d="M53 428q23 104 97 182q77 80 165 80q63 0 154 -65q92 -68 147 -68q53 0 112.5 35t90.5 102q25 0 35 -12q-27 -98 -82 -159.5t-90 -73.5q-37 -12 -74 -13q-68 0 -155 68q-90 66 -150 65q-55 0 -117 -43q-68 -47 -98 -106q-21 0 -35 8z" />
<glyph unicode="&#xa1;" horiz-adv-x="587" d="M186 -319q0 61 7 116q0 8 20 135q4 20 11 69.5t12 74.5q12 94 18 182l5 80t3 55q4 53 4 56q4 41 29 40q23 0 29 -26q2 -12 6 -78l6 -78t6 -76q8 -106 14 -155q6 -74 27 -189q20 -121 20 -206q0 -78 -32 -113q-35 -37 -76 -37t-76 37q-33 35 -33 113zM186 790.5 q0 47.5 31 78t78 30.5q45 0 76 -31q33 -33 32.5 -78t-32.5 -77q-31 -31 -76 -31q-47 0 -78 30.5t-31 78z" />
<glyph unicode="&#xa2;" horiz-adv-x="899" d="M133 571q0 164 94 281q92 115 224 139v193h69v-187q131 -4 201 -49q74 -49 74 -127q0 -37 -29 -59q-27 -20 -64 -21q-59 0 -69 68q-2 10 -5 26.5t-3 18.5q-2 16 -15 37q-8 16 -35 31q-18 10 -55 14v-676h19q126 0 221 123q29 -4 39 -27q-61 -101 -129 -141 q-72 -43 -150 -45v-195h-69v197q-150 14 -234 125q-84 108 -84 274zM293 612q0 -123 43 -209t115 -122v649q-70 -20 -115 -107q-43 -82 -43 -211z" />
<glyph unicode="&#xa3;" horiz-adv-x="899" d="M31 33q0 45 98 96q137 100 137 416v33h-123q-12 0 -12 12v26q0 14 12 27q14 14 35 14h88v39q0 121 37 207q37 88 121 168q106 113 258 113q47 0 102 -25q53 -25 54 -69q0 -35 -22.5 -57.5t-57.5 -22.5q-29 0 -70 37q-47 45 -96 45q-68 0 -115 -86q-47 -88 -47 -211v-138 h242q14 0 14 -12v-43q0 -25 -47 -24h-209q-4 -268 -145 -402q100 0 164 -22q53 -18 98 -45q39 -23 90 -23q139 0 201 84q27 -4 34 -20q-37 -76 -108.5 -123t-161.5 -47q-92 0 -176 57t-170 57q-78 0 -78 -47q0 -31 -22 -49t-56 -18q-27 0 -49 16q-20 14 -20 37z" />
<glyph unicode="&#xa4;" horiz-adv-x="899" d="M55 279l111 88q-80 96 -80 223q0 133 80 225l-107 84l76 82l94 -104q100 72 220 71q129 0 223 -76l94 113l80 -84l-113 -90q78 -96 78 -221q0 -123 -76 -219l107 -90l-74 -78l-94 104q-100 -76 -225 -76q-123 0 -222 74l-88 -108zM209 592q0 -115 67.5 -195t172.5 -80 q102 0 169.5 80t67.5 193q0 115 -68 194q-66 78 -165 78q-104 0 -174 -80q-70 -77 -70 -190z" />
<glyph unicode="&#xa5;" horiz-adv-x="899" d="M-8 1135q0 -27 8 -35q98 -8 156 -125l206 -424h-231q-45 0 -45 -41v-29q0 -12 10 -12h275v-129h-240q-45 0 -45 -41v-27q0 -12 10 -12h275v-10q0 -121 -35 -152q-31 -29 -164 -35q-8 -8 -8 -34q0 -25 8 -33q266 4 283 4q8 0 278 -4q8 8 8 33q0 27 -8 34q-131 4 -164 33 q-35 31 -34 154v10h237q47 0 47 27v41q0 12 -14 12h-270v129h237q47 0 47 27v43q0 12 -14 12h-250l176 393q49 106 72 129q20 20 96 27q10 10 10 33q0 29 -6 34q-37 0 -67.5 -1t-45 -2t-16.5 -1q-8 0 -27.5 1t-56.5 2t-69 1q-10 -10 -11 -32q0 -27 11 -35q72 -6 73 -25 q3 -18 -37 -110q-2 -4 -5 -11.5t-3 -9.5l-149 -342h-4l-207 428q-20 49 -10 59.5t67 10.5q10 10 10 35q0 23 -10 32q-164 -4 -172 -4q-10 0 -174 4q-8 -7 -8 -32z" />
<glyph unicode="&#xa6;" horiz-adv-x="430" d="M166 330h100v-742h-100v742zM166 639v741h100v-741h-100z" />
<glyph unicode="&#xa7;" horiz-adv-x="966" d="M102 547q0 180 154 303q-92 92 -92 227q0 111 86 191t233 80q135 0 209 -68q76 -70 76 -139q0 -78 -74 -78q-61 0 -84 84q-18 70 -49 102q-31 35 -90 35q-72 0 -119 -47t-47 -119q0 -143 187 -244q2 0 9 -4l21.5 -12l28.5 -16q53 -27 67 -35l60 -37q47 -29 61 -45 q35 -33 49 -51q31 -33 43 -66q8 -18 23 -71q12 -43 12 -88q0 -180 -153 -304q92 -92 92 -227q0 -113 -84 -190q-86 -80 -236 -80q-135 0 -209 67q-76 70 -75 140q0 78 73 77q61 0 84 -84q20 -72 48 -102q31 -35 92 -35q72 0 119 47t47 119q0 143 -187 244l-59 31 q-52 28 -68 36l-59 37q-45 27 -62 47q-6 8 -11 13.5t-14 13.5t-22 23q-33 37 -45 65q-12 31 -24 74q-11 35 -11 86zM213 645q0 -55 20 -102q23 -51 41 -78q23 -33 72 -70q43 -33 76 -53q4 -2 92 -53q92 -53 156 -105q86 77 86 166q0 55 -21 103q-25 57 -41 79q-16 25 -73 68 q-43 33 -76 53l-90 54q-102 59 -156 104q-86 -77 -86 -166z" />
<glyph unicode="&#xa8;" horiz-adv-x="774" d="M102 1178q0 41 29 69.5t68 28.5t67.5 -28.5t28.5 -69.5q0 -39 -28.5 -68t-67.5 -29t-68 29t-29 68zM449 1178q0 41 28.5 69.5t67.5 28.5t67.5 -28.5t28.5 -69.5t-27 -68q-29 -29 -69 -29q-39 0 -67.5 29t-28.5 68z" />
<glyph unicode="&#xa9;" horiz-adv-x="1312" d="M70 627q0 242 174 409.5t413 167.5q238 0 414 -170q174 -168 174 -407q0 -242 -174 -410q-176 -170 -414 -170q-246 0 -415 170q-172 172 -172 410zM152 627q0 -212 147 -363q147 -152 358 -151.5t359 151.5q147 151 147 363q0 217 -147.5 364.5t-358.5 147.5 q-215 0 -360 -148q-145 -149 -145 -364zM338 616q0 129 94 224q96 96 230 96q65 0 104 -6q47 -6 65 -15q8 -2 37 -10q25 -68 21 -160q-14 -8 -41 -8q-29 78 -72 115t-123 37q-78 0 -133 -57.5t-55 -194.5q0 -117 55 -191q57 -76 156 -75q117 0 184 102q20 -6 39 -31 q-33 -49 -100 -92q-63 -39 -142 -39q-135 0 -227 92t-92 213z" />
<glyph unicode="&#xaa;" horiz-adv-x="626" d="M63 877q0 121 211 176l119 30q0 170 -110 170q-47 0 -80 -16q-31 -16 -31 -39q0 -14 4 -26.5t4 -24.5t-12 -29q-12 -14 -41 -14q-25 0 -39 14.5t-14 36.5q0 57 71 105q70 45 142 45q217 0 217 -234v-153q0 -117 28 -117q10 0 25 10q23 -10 21 -33q-43 -45 -97 -45 q-35 0 -57 25q-23 27 -29 55q-55 -49 -90 -63q-39 -16 -84 -17q-68 0 -113 39t-45 105zM170 883q0 -84 92 -84q53 0 131 67v162q-129 -33 -176 -65q-47 -31 -47 -80z" />
<glyph unicode="&#xab;" horiz-adv-x="948" d="M94 424v33l41 32q141 115 334 345l51 -50q-150 -227 -268 -344q119 -117 268 -344l-51 -49q-188 229 -334 344q-6 6 -20.5 17.5t-20.5 15.5zM430 424v33l41 32q141 115 334 345l51 -50q-150 -227 -268 -344q119 -117 268 -344l-51 -49q-188 229 -334 344q-6 6 -20.5 17.5 t-20.5 15.5z" />
<glyph unicode="&#xac;" horiz-adv-x="1224" d="M82 662q-14 51 0 90h1051v-549q-61 -22 -111 0v459h-940z" />
<glyph unicode="&#xad;" horiz-adv-x="690" d="M82 496q0 29 16 57q14 27 35 27h449q29 0 28 -41q0 -20 -18.5 -51t-36.5 -31h-442q-31 0 -31 39z" />
<glyph unicode="&#xae;" horiz-adv-x="1312" d="M70 627q0 242 174 409.5t413 167.5q238 0 414 -170q174 -168 174 -407q0 -242 -174 -410q-176 -170 -414 -170q-246 0 -415 170q-172 172 -172 410zM152 627q0 -212 147 -363q147 -152 358 -151.5t359 151.5q147 151 147 363q0 217 -147.5 364.5t-358.5 147.5 q-215 0 -360 -148q-145 -149 -145 -364zM401 366.5q0 18.5 7 24.5q49 2 65 18.5t16 65.5v303q0 47 -16 64q-18 18 -65 20q-6 6 -6.5 24.5t6.5 24.5q98 -4 130.5 -4t69.5 2t78 2q100 0 147.5 -47t47.5 -106q0 -57 -33 -96q-31 -37 -84 -56l98 -168q35 -59 88 -49 q12 -12 8 -35q-31 -14 -73 -14q-78 0 -125 78l-98 164q-8 8 -76 8v-115q0 -51 14 -65q15 -15 68 -19q6 -6 6 -24.5t-6 -24.5q-98 4 -129 4q-33 0 -131 -4q-7 6 -7 24.5zM586 639h86q49 0 73.5 24.5t24.5 94.5q0 104 -102 104q-39 0 -60 -20q-23 -23 -22 -49v-154z" />
<glyph unicode="&#xaf;" horiz-adv-x="811" d="M121 1114q0 16 12 39q12 20 33 21h500q29 0 28 -29q0 -18 -16 -41q-14 -20 -33 -21h-500q-24 0 -24 31z" />
<glyph unicode="&#xb0;" horiz-adv-x="544" d="M70 1075q0 86 59 146q61 61 145 61q86 0 144 -61q59 -63 59 -145.5t-59 -145.5q-57 -59 -143.5 -59.5t-145.5 59t-59 145.5zM139 1073q0 -55 37 -98t98 -43q59 0 96.5 43t37.5 98t-35 103q-33 45 -99 45q-63 0 -100 -43q-35 -42 -35 -105z" />
<glyph unicode="&#xb1;" horiz-adv-x="1077" d="M135 39v100h809v-100h-809zM135 600v100h352v357h105v-357h352v-100h-352v-356h-105v356h-352z" />
<glyph unicode="&#xb2;" horiz-adv-x="626" d="M92 745q0 125 176 261q86 74 111 108q31 46 31 123q0 111 -103 111q-80 0 -98 -43q-4 -12 -4 -31v-29q-9 -43 -55 -43q-18 0 -35 15q-18 16 -19 34q0 52 56 105q57 53 163 53q90 0 156 -41t66 -129q0 -66 -43 -121q-41 -53 -140 -123q-104 -77 -135 -184h170q23 0 41 12 q20 12 33 37l22 41q14 37 19 47q33 0 49 -10q-16 -119 -39 -193h-422z" />
<glyph unicode="&#xb3;" horiz-adv-x="626" d="M78 821q0 20 16.5 32.5t34.5 12.5q43 0 61 -35q18 -37 95 -36q57 0 104 34q45 33 45 123q0 125 -153 125h-6.5t-8.5 -1t-11 -2t-15 -1q-14 16 -4 55q145 23 145 150q0 39 -23 53q-27 16 -55.5 16.5t-62.5 -12.5q-33 -12 -43 -37q-3 -3 -7 -18q-2 -6 -8 -20 q-6 -10 -12 -15q-12 -6 -29 -6q-20 0 -30 8q-12 8 -15 17q-2 6 -2 12q0 23 19 51q16 25 77 55q53 27 138 27q82 0 127 -31q47 -31 47 -90q0 -80 -105 -139q61 -6 112.5 -51t51.5 -129q0 -104 -80 -170q-82 -66 -205 -66q-55 0 -129 23q-69 20 -69 65z" />
<glyph unicode="&#xb4;" horiz-adv-x="696" d="M180 1139q0 20 25 57l153 244q16 4 29 4q61 0 113 -47l6 -23l-236 -223q-39 -39 -61 -39q-10 0 -19 8q-10 11 -10 19z" />
<glyph unicode="&#xb5;" horiz-adv-x="993" d="M90 879q23 0 90 10q16 2 34.5 4t29 4t14.5 2q6 -132 6 -197v-401q0 -229 142 -229q76 0 147 45q76 47 111 102v660q20 0 86 10l32.5 4t24.5 4t10 2v-651q0 -70 2 -90q2 -31 23 -60q18 -29 57 -28q27 0 47 16l21 16q4 0 14 -10q8 -8 8 -20q0 -8 -20 -29 q-18 -18 -63.5 -40.5t-86.5 -22.5q-141 0 -155 143h-5q-119 -143 -282 -143q-86 0 -127 47q-25 0 -25 -19q0 -76 33 -198.5t33 -165.5q0 -61 -23 -90q-27 -33 -61 -33q-29 0 -72 39q-39 37 -39 94q0 41 16.5 155.5t16.5 174.5q0 39 -8 127q-10 109 -10 163v385z" />
<glyph unicode="&#xb6;" horiz-adv-x="1230" d="M117 985q0 137 100 238q102 102 289 102q125 0 200.5 -2t129.5 -2q236 0 362 4l4 -4v-39q0 -12 -16 -16l-53 -4q-61 -2 -89 -23q-25 -18 -24 -63v-1506q0 -45 24 -63q27 -20 89 -23l53 -4q16 -4 16 -16v-39l-4 -4q-131 4 -362 4q-227 0 -363 -4l-4 4v39q0 14 14 16l56 4 q59 2 86 23q25 18 24 63v914q-27 -6 -65 -6q-225 0 -346 102t-121 305zM752 -330q0 -78 82 -78q84 0 84 78v1506q0 78 -84 77q-82 0 -82 -77v-1506z" />
<glyph unicode="&#xb7;" horiz-adv-x="512" d="M145 528q0 43 33 76q35 35 78 35t78 -35q33 -33 33 -76q0 -45 -33 -77.5t-78 -32.5t-78 32.5t-33 77.5z" />
<glyph unicode="&#xb8;" horiz-adv-x="1105" d="M442 -375q0 33 21 53q80 -29 119 -28q47 0 75.5 22.5t28.5 59.5q0 72 -68 71q-52 0 -92 -12l-12 12l82 197h70l-52 -137q25 6 54 6q63 0 104 -35t41 -92q0 -63 -63 -109q-61 -43 -156 -43q-70 0 -152 35z" />
<glyph unicode="&#xb9;" horiz-adv-x="626" d="M139 1294q125 45 240 115q22 12 37 0v-489q0 -33 8 -62q6 -20 25 -33q16 -10 32 -14q14 -2 47 -6q16 -31 0 -60q-41 2 -172 3q-156 0 -196 -3q-18 29 0 60q55 4 76 8q27 6 47 31q23 27 22 76v266q0 52 -6 67q-6 16 -23 17q-31 0 -116 -31q-21 14 -21 55z" />
<glyph unicode="&#xba;" horiz-adv-x="712" d="M80 879q0 125 78 202.5t209 77.5q127 0 198.5 -77.5t71.5 -190.5q0 -106 -76 -188t-209 -82q-113 0 -194 75q-78 72 -78 183zM199 899q0 -86 45 -155.5t131 -69.5q52 0 98 43q45 43 45 141q0 121 -45 184.5t-123 63.5q-72 0 -112 -59q-39 -58 -39 -148z" />
<glyph unicode="&#xbb;" horiz-adv-x="948" d="M94 96q150 227 268 344q-119 117 -268 344l51 50q188 -229 334 -345q6 -6 20.5 -17t20.5 -15v-33l-41 -33q-141 -115 -334 -344zM430 96q150 227 268 344q-119 117 -268 344l51 50q188 -229 334 -345q6 -6 20.5 -17t20.5 -15v-33l-41 -33q-141 -115 -334 -344z" />
<glyph unicode="&#xbc;" horiz-adv-x="1349" d="M133 1194q125 45 240 115q22 12 37 0v-490q0 -33 8 -61q6 -20 24 -33q16 -10 33 -14q14 -2 47 -6q16 -31 0 -60q-41 2 -172 2q-156 0 -196 -2q-18 29 0 60q59 4 77 8q20 6 45 32q23 27 23 74v266q0 52 -6 68t-23 16q-31 0 -116 -30q-21 14 -21 55zM201 -111l940 1342 l84 -17l-938 -1341zM780 61l316 447l63 -21q-55 -86 -149 -217l-55.5 -76.5l-42 -59l-19.5 -28.5h188v117q0 14 17 37q35 41 53 41q29 0 29 -20v-175h114l-12 -69h-102v-49q0 -57 22 -74q25 -18 82 -20q16 -31 0 -60q-41 2 -155.5 2t-155.5 -2q-18 29 0 60q63 2 88 20 q20 14 20 74v49h-293z" />
<glyph unicode="&#xbd;" horiz-adv-x="1349" d="M137 1194q125 45 240 115q22 12 37 0v-490q0 -33 8 -61q6 -20 24 -33q16 -10 33 -14q14 -2 47 -6q16 -31 0 -60q-41 2 -172 2q-156 0 -196 -2q-18 29 0 60q59 4 78 8q20 6 45 32q23 27 22 74v266q0 52 -6 68t-23 16q-31 0 -116 -30q-21 14 -21 55zM152 -111l938 1342 l86 -17l-940 -1341zM825 -162q0 125 176 260q82 70 109 109q33 49 33 123q0 111 -103 110q-80 0 -98 -43q-4 -12 -4 -30v-29q-9 -43 -55 -43q-14 0 -35 16q-18 16 -19 33q0 52 56 105q57 53 164 53q92 0 155 -39q66 -41 66 -131q0 -66 -43 -121q-41 -53 -140 -123 q-104 -77 -135 -184h170q25 0 41 10q18 12 33 39q8 14 12 24.5t9 16.5q0 2 8 18.5t12 28.5q33 0 49 -10q-16 -119 -39 -193h-422z" />
<glyph unicode="&#xbe;" horiz-adv-x="1349" d="M74 717q0 20 16 32.5t35 12.5q43 0 61 -35q18 -37 95 -37q57 0 104 35q45 33 45 123q0 125 -154 125l-40 -4q-14 16 -5 55q145 20 146 150q0 39 -23 53q-27 16 -55.5 16t-62.5 -12q-33 -12 -43 -37q-3 -3 -7 -18q-2 -6 -8 -21q-4 -8 -12 -12q-16 -8 -29 -8q-20 0 -31 8 q-12 8 -14 16q-2 6 -2 12q0 22 19 50q18 29 77 57q53 27 138 27q82 0 127 -31q47 -31 47 -90q0 -82 -105 -140q59 -6 113 -53q51 -45 51 -127q0 -106 -80 -170q-82 -66 -205 -65q-55 0 -129 22q-69 21 -69 66zM211 -111l940 1342l84 -17l-938 -1341zM788 66l316 446l63 -20 q-55 -86 -149 -218l-117 -163h189v116q0 10 16 37q35 41 53 41q29 0 29 -20v-174h115l-13 -70h-102v-49q0 -57 22 -74q25 -18 82 -20q16 -31 0 -60q-41 2 -155.5 2t-155.5 -2q-18 29 0 60q63 2 88 20q20 14 21 74v49h-293z" />
<glyph unicode="&#xbf;" horiz-adv-x="888" d="M94 -162q0 57 19 107q18 47 59 92q37 39 68 63q61 49 77 60q86 66 107 102q29 57 29 150v90q0 20 34 20q33 0 33 -20v-94q0 -199 -143 -330q-63 -59 -86 -109q-27 -57 -27 -123q0 -102 55.5 -175.5t139.5 -73.5q82 0 141 32q57 33 57 78q0 39 -12 53q-12 15 -12 50 t24.5 53t55.5 18q37 0 59 -20q25 -22 25 -68q0 -101 -105 -184q-92 -80 -254 -80q-156 0 -250 86t-94 223zM379 790.5q0 47.5 30.5 78t77.5 30.5q45 0 76 -31q33 -33 33 -78t-33 -77q-31 -31 -76 -31q-47 0 -77.5 30.5t-30.5 78z" />
<glyph unicode="&#xc0;" horiz-adv-x="1421" d="M4 29q0 25 10 34q51 2 82 12.5t64 39.5q35 31 59 94l455 1065q18 43 33 57q16 16 36 17q34 0 56 -62l420 -1110q16 -41 32 -61q18 -25 47 -33q33 -10 45 -12q4 0 23.5 -2t36.5 -5q10 -10 10 -34q0 -23 -10 -33q-201 4 -234 4q-68 0 -268 -4q-8 8 -8 33q0 27 8 34h31 q6 0 16 2.5t15 2.5q18 0 28 2q4 0 12.5 1t12.5 3l18 6q10 4 15 10q0 2 4 7t4 7q4 8 2 19l-2 9q-2 9 -4 15l-125 347h-426q-39 0 -51 -7q-10 -6 -21 -28l-113 -297q-2 -14 -6 -35q-4 -18 11 -27q16 -10 24 -16q4 -2 35 -10q25 -6 39 -6q6 0 39 -5q8 -8 8 -34q0 -25 -8 -33 q-201 4 -262 4q-8 0 -31 -1t-67 -2t-85 -1q-10 10 -10 33zM426 1583q66 61 156 92l247 -172q31 -22 31 -43q0 -12 -8 -20q-10 -10 -23 -10q-31 0 -88 24zM487 606q-6 -16 5 -20q12 -6 47 -6h356l-199 546h-4z" />
<glyph unicode="&#xc1;" horiz-adv-x="1421" d="M4 29q0 25 10 34q51 2 82 12.5t64 39.5q35 31 59 94l455 1065q18 43 33 57q16 16 36 17q34 0 56 -62l420 -1110q16 -41 32 -61q18 -25 47 -33q33 -10 45 -12q4 0 23.5 -2t36.5 -5q10 -10 10 -34q0 -23 -10 -33q-201 4 -234 4q-68 0 -268 -4q-8 8 -8 33q0 27 8 34h31 q6 0 16 2.5t15 2.5q18 0 28 2q4 0 12.5 1t12.5 3l18 6q10 4 15 10q0 2 4 7t4 7q4 8 2 19l-2 9q-2 9 -4 15l-125 347h-426q-39 0 -51 -7q-10 -6 -21 -28l-113 -297q-2 -14 -6 -35q-4 -18 11 -27q16 -10 24 -16q4 -2 35 -10q25 -6 39 -6q6 0 39 -5q8 -8 8 -34q0 -25 -8 -33 q-201 4 -262 4q-8 0 -31 -1t-67 -2t-85 -1q-10 10 -10 33zM487 606q-6 -16 5 -20q12 -6 47 -6h356l-199 546h-4zM569 1460q0 22 31 43l254 176q84 -37 127 -106l-295 -119q-58 -25 -86 -24q-31 -1 -31 30z" />
<glyph unicode="&#xc2;" horiz-adv-x="1421" d="M4 29q0 25 10 34q51 2 82 12.5t64 39.5q35 31 59 94l455 1065q18 43 33 57q16 16 36 17q34 0 56 -62l420 -1110q16 -41 32 -61q18 -25 47 -33q33 -10 45 -12q4 0 23.5 -2t36.5 -5q10 -10 10 -34q0 -23 -10 -33q-201 4 -234 4q-68 0 -268 -4q-8 8 -8 33q0 27 8 34h31 q6 0 16 2.5t15 2.5q18 0 28 2q4 0 12.5 1t12.5 3l18 6q10 4 15 10q0 2 4 7t4 7q4 8 2 19l-2 9q-2 9 -4 15l-125 347h-426q-39 0 -51 -7q-10 -6 -21 -28l-113 -297q-2 -14 -6 -35q-4 -18 11 -27q16 -10 24 -16q4 -2 35 -10q25 -6 39 -6q6 0 39 -5q8 -8 8 -34q0 -25 -8 -33 q-201 4 -262 4q-8 0 -31 -1t-67 -2t-85 -1q-10 10 -10 33zM485 1456q90 70 207 199q37 22 80 0q90 -109 211 -199q-8 -33 -33 -43q-141 66 -217 125q-90 -68 -219 -125q-23 16 -29 43zM487 606q-6 -16 5 -20q12 -6 47 -6h356l-199 546h-4z" />
<glyph unicode="&#xc3;" horiz-adv-x="1421" d="M4 29q0 25 10 34q51 2 82 12.5t64 39.5q35 31 59 94l455 1065q18 43 33 57q16 16 36 17q34 0 56 -62l420 -1110q16 -41 32 -61q18 -25 47 -33q33 -10 45 -12q4 0 23.5 -2t36.5 -5q10 -10 10 -34q0 -23 -10 -33q-201 4 -234 4q-68 0 -268 -4q-8 8 -8 33q0 27 8 34h31 q6 0 16 2.5t15 2.5q18 0 28 2q4 0 12.5 1t12.5 3l18 6q10 4 15 10q0 2 4 7t4 7q4 8 2 19l-2 9q-2 9 -4 15l-125 347h-426q-39 0 -51 -7q-10 -6 -21 -28l-113 -297q-2 -14 -6 -35q-4 -18 11 -27q16 -10 24 -16q4 -2 35 -10q25 -6 39 -6q6 0 39 -5q8 -8 8 -34q0 -25 -8 -33 q-201 4 -262 4q-8 0 -31 -1t-67 -2t-85 -1q-10 10 -10 33zM446 1438q47 201 164 200q12 0 33 -4q16 -4 35 -12q20 -10 27 -14l28 -21q22 -15 25 -18q51 -39 106 -39q33 0 56 22q18 20 41 84q34 3 55 -12q-40 -203 -178 -203q-16 0 -25 2q-14 4 -29 13q-4 2 -12 7t-12 7 q-2 2 -11.5 9t-15.5 11q-23 14 -26 17q-63 39 -111 39q-41 0 -59 -23q-20 -25 -35 -76q-40 -5 -56 11zM487 606q-6 -16 5 -20q12 -6 47 -6h356l-199 546h-4z" />
<glyph unicode="&#xc4;" horiz-adv-x="1421" d="M4 29q0 25 10 34q51 2 82 12.5t64 39.5q35 31 59 94l455 1065q18 43 33 57q16 16 36 17q34 0 56 -62l420 -1110q16 -41 32 -61q18 -25 47 -33q33 -10 45 -12q4 0 23.5 -2t36.5 -5q10 -10 10 -34q0 -23 -10 -33q-201 4 -234 4q-68 0 -268 -4q-8 8 -8 33q0 27 8 34h31 q6 0 16 2.5t15 2.5q18 0 28 2q4 0 12.5 1t12.5 3l18 6q10 4 15 10q0 2 4 7t4 7q4 8 2 19l-2 9q-2 9 -4 15l-125 347h-426q-39 0 -51 -7q-10 -6 -21 -28l-113 -297q-2 -14 -6 -35q-4 -18 11 -27q16 -10 24 -16q4 -2 35 -10q25 -6 39 -6q6 0 39 -5q8 -8 8 -34q0 -25 -8 -33 q-201 4 -262 4q-8 0 -31 -1t-67 -2t-85 -1q-10 10 -10 33zM395 1446q0 41 31 70q33 29 67.5 28.5t67.5 -28.5q31 -29 31 -70t-31 -70q-33 -29 -67.5 -28.5t-67.5 28.5q-31 29 -31 70zM487 606q-6 -16 5 -20q12 -6 47 -6h356l-199 546h-4zM881 1446q0 41 28.5 69.5t69.5 28.5 t69.5 -28.5t28.5 -69.5t-28.5 -69.5t-69.5 -28.5t-69.5 28.5t-28.5 69.5z" />
<glyph unicode="&#xc5;" horiz-adv-x="1421" d="M4 29q0 25 10 34q51 2 82 12.5t64 39.5q35 31 59 94l455 1065l5 10t5 12q-57 18 -92 64q-37 45 -37 102q0 70 55 121q57 53 125 53q72 0 125 -51q55 -52 55 -123q0 -53 -34 -100q-33 -45 -86 -64l4 -12l420 -1110q16 -41 32 -61q18 -25 47 -33q33 -10 45 -12q4 0 23.5 -2 t36.5 -5q10 -10 10 -34q0 -23 -10 -33q-201 4 -234 4q-68 0 -268 -4q-8 8 -8 33q0 27 8 34h31q6 0 16 2.5t15 2.5q18 0 28 2q4 0 12.5 1t12.5 3l18 6q10 4 15 10q0 2 4 7t4 7q4 8 2 19l-2 9q-2 9 -4 15l-125 347h-426q-39 0 -51 -7q-10 -6 -21 -28l-113 -297q-2 -14 -6 -35 q-4 -18 11 -27q16 -10 24 -16q4 -2 35 -10q25 -6 39 -6q6 0 39 -5q8 -8 8 -34q0 -25 -8 -33q-201 4 -262 4q-8 0 -31 -1t-67 -2t-85 -1q-10 10 -10 33zM487 606q-6 -16 5 -20q12 -6 47 -6h356l-199 546h-4zM637 1462q0 -47 27 -76q29 -33 71.5 -32.5t71.5 32.5q27 29 27 76 q0 49 -27 78q-29 31 -72 31q-49 0 -73.5 -31t-24.5 -78z" />
<glyph unicode="&#xc6;" horiz-adv-x="1769" d="M4 0v39q0 14 21 16l47 4q59 6 80 25q23 18 59 90l528 1008q16 35 -4 57q-16 18 -53 23l-64 4q-16 4 -16 14v41l4 2l361 -2h157h455q12 -143 43 -315l-59 -11q-25 80 -35 101q-16 37 -41 71q-29 41 -66 56q-43 16 -94 16h-205q-37 0 -55 -27q-18 -29 -18 -63v-406h208 q49 0 70 21q23 23 35 70l12 61q4 16 17 16h45q6 0 6 -8q-16 -147 -17 -194q0 -74 17 -197l-4 -6h-47q-12 0 -19 14l-10 64q-10 47 -33 69q-20 20 -72 21h-208v-522q0 -72 73 -72h269q104 0 163 72q57 68 95 200l61 -10q-45 -213 -53 -342h-692l-265 -4l-4 4v37q0 16 17 18 l53 4q63 2 88 25q25 22 25 68v393h-365l-211 -406q-29 -57 -22 -65q8 -12 61 -15l59 -4q12 0 13 -12v-43l-2 -4q-184 4 -219 4l-185 -4zM555 625h324v553q0 45 -11 47z" />
<glyph unicode="&#xc7;" horiz-adv-x="1320" d="M76 645q0 330 217 529q188 174 440 174q150 0 287 -45q131 -43 162 -48q39 -244 45 -317q-37 -20 -68 -10q-104 344 -448 344q-178 0 -326 -182q-123 -151 -123 -406q0 -157 49 -295q47 -133 158 -231q106 -94 260 -95q145 0 254 52q117 55 221 172q33 0 47 -31 q-186 -244 -458 -272l-45 -121q25 6 53 6q63 0 104 -35t41 -92q0 -63 -63 -109q-61 -43 -156 -43q-70 0 -152 35q0 33 21 53q80 -29 119 -28q47 0 75.5 22.5t28.5 59.5q0 72 -67 71q-52 0 -93 -12l-12 12l74 177q-162 4 -283 59q-126 58 -202 154q-82 100 -119 210 q-41 119 -41 242z" />
<glyph unicode="&#xc8;" horiz-adv-x="1122" d="M12 29q0 27 8 34q119 4 148 33q31 31 31 154v821q0 121 -31 151.5t-148 34.5q-8 8 -8 33q0 27 8 35l265 -4h522q59 0 100 8q8 0 8 -6q12 -59 46 -297q-35 -16 -68 -10q-41 127 -82 174q-43 49 -149 49h-216q-37 0 -55 -24.5t-18 -65.5v-410h186q126 0 154 25 q31 27 32 115q10 10 33 10q25 0 35 -10q-4 -164 -4 -177q0 -10 1 -32.5t2 -65.5t1 -82q-10 -10 -35 -10q-23 0 -33 10q-2 53 -12 78q-9 25 -49 43q-41 18 -125 19h-186v-494q0 -88 73 -88h279q195 0 268 268q41 10 72 -10q-25 -166 -76 -342q-217 4 -262 4h-440 q-47 0 -138.5 -1t-128.5 -3q-8 8 -8 33zM346 1581q66 61 156 92l248 -172q31 -22 30 -43q0 -12 -10 -22q-8 -8 -20 -9q-29 0 -88 25z" />
<glyph unicode="&#xc9;" horiz-adv-x="1122" d="M12 29q0 27 8 34q119 4 148 33q31 31 31 154v821q0 121 -31 151.5t-148 34.5q-8 8 -8 33q0 27 8 35l265 -4h522q59 0 100 8q8 0 8 -6q12 -59 46 -297q-35 -16 -68 -10q-41 127 -82 174q-43 49 -149 49h-216q-37 0 -55 -24.5t-18 -65.5v-410h186q126 0 154 25 q31 27 32 115q10 10 33 10q25 0 35 -10q-4 -164 -4 -177q0 -10 1 -32.5t2 -65.5t1 -82q-10 -10 -35 -10q-23 0 -33 10q-2 53 -12 78q-9 25 -49 43q-41 18 -125 19h-186v-494q0 -88 73 -88h279q195 0 268 268q41 10 72 -10q-25 -166 -76 -342q-217 4 -262 4h-440 q-47 0 -138.5 -1t-128.5 -3q-8 8 -8 33zM432 1460q0 22 31 43l254 176q84 -37 127 -106l-295 -119q-58 -25 -86 -24q-31 -1 -31 30z" />
<glyph unicode="&#xca;" horiz-adv-x="1122" d="M12 29q0 27 8 34q119 4 148 33q31 31 31 154v821q0 121 -31 151.5t-148 34.5q-8 8 -8 33q0 27 8 35l265 -4h522q59 0 100 8q8 0 8 -6q12 -59 46 -297q-35 -16 -68 -10q-41 127 -82 174q-43 49 -149 49h-216q-37 0 -55 -24.5t-18 -65.5v-410h186q126 0 154 25 q31 27 32 115q10 10 33 10q25 0 35 -10q-4 -164 -4 -177q0 -10 1 -32.5t2 -65.5t1 -82q-10 -10 -35 -10q-23 0 -33 10q-2 53 -12 78q-9 25 -49 43q-41 18 -125 19h-186v-494q0 -88 73 -88h279q195 0 268 268q41 10 72 -10q-25 -166 -76 -342q-217 4 -262 4h-440 q-47 0 -138.5 -1t-128.5 -3q-8 8 -8 33zM358 1456q90 70 207 199q37 22 80 0q90 -109 211 -199q-8 -33 -33 -43q-141 66 -217 125q-90 -68 -219 -125q-23 16 -29 43z" />
<glyph unicode="&#xcb;" horiz-adv-x="1122" d="M12 29q0 27 8 34q119 4 148 33q31 31 31 154v821q0 121 -31 151.5t-148 34.5q-8 8 -8 33q0 27 8 35l265 -4h522q59 0 100 8q8 0 8 -6q12 -59 46 -297q-35 -16 -68 -10q-41 127 -82 174q-43 49 -149 49h-216q-37 0 -55 -24.5t-18 -65.5v-410h186q126 0 154 25 q31 27 32 115q10 10 33 10q25 0 35 -10q-4 -164 -4 -177q0 -10 1 -32.5t2 -65.5t1 -82q-10 -10 -35 -10q-23 0 -33 10q-2 53 -12 78q-9 25 -49 43q-41 18 -125 19h-186v-494q0 -88 73 -88h279q195 0 268 268q41 10 72 -10q-25 -166 -76 -342q-217 4 -262 4h-440 q-47 0 -138.5 -1t-128.5 -3q-8 8 -8 33zM276 1538q0 39 29 68q31 31 70 30.5t69 -30.5q29 -29 29 -68t-29 -68q-31 -31 -69.5 -30.5t-69.5 30.5q-29 29 -29 68zM664 1538q0 35 28 68q29 31 70 30.5t69 -30.5q29 -33 29 -68t-29 -68q-29 -31 -69.5 -30.5t-69.5 30.5 q-28 33 -28 68z" />
<glyph unicode="&#xcc;" horiz-adv-x="606" d="M29 29q0 25 10 34q119 4 147 33q31 31 31 154v821q0 121 -30.5 151.5t-147.5 34.5q-10 10 -10 33q0 25 10 35q53 0 116.5 -1t97.5 -2t50 -1l266 4q8 -8 9 -35q0 -25 -9 -33q-117 -4 -147.5 -34.5t-30.5 -151.5v-821q0 -119 33 -152q29 -29 145 -35q8 -8 9 -34 q0 -25 -9 -33q-53 0 -116.5 1t-97 2t-50.5 1l-266 -4q-10 10 -10 33zM47 1581q66 61 156 92l248 -172q31 -22 30 -43q0 -12 -10 -22q-8 -8 -20 -9q-29 0 -89 25z" />
<glyph unicode="&#xcd;" horiz-adv-x="606" d="M29 29q0 25 10 34q119 4 147 33q31 31 31 154v821q0 121 -30.5 151.5t-147.5 34.5q-10 10 -10 33q0 25 10 35q53 0 116.5 -1t97.5 -2t50 -1l266 4q8 -8 9 -35q0 -25 -9 -33q-117 -4 -147.5 -34.5t-30.5 -151.5v-821q0 -119 33 -152q29 -29 145 -35q8 -8 9 -34 q0 -25 -9 -33q-53 0 -116.5 1t-97 2t-50.5 1l-266 -4q-10 10 -10 33zM145 1458q0 22 31 43l254 176q84 -37 127 -106l-295 -119q-58 -25 -86 -25q-31 0 -31 31z" />
<glyph unicode="&#xce;" horiz-adv-x="606" d="M29 29q0 25 10 34q119 4 147 33q31 31 31 154v821q0 121 -30.5 151.5t-147.5 34.5q-10 10 -10 33q0 25 10 35q53 0 116.5 -1t97.5 -2t50 -1l266 4q8 -8 9 -35q0 -25 -9 -33q-117 -4 -147.5 -34.5t-30.5 -151.5v-821q0 -119 33 -152q29 -29 145 -35q8 -8 9 -34 q0 -25 -9 -33q-53 0 -116.5 1t-97 2t-50.5 1l-266 -4q-10 10 -10 33zM51 1456q90 70 207 199q37 22 80 0q90 -109 211 -199q-8 -33 -33 -43q-141 66 -217 125q-90 -68 -219 -125q-23 16 -29 43z" />
<glyph unicode="&#xcf;" horiz-adv-x="606" d="M12 1561q0 41 29 69.5t70 28.5t69.5 -28.5t28.5 -69.5t-28.5 -70t-69.5 -29t-70 29t-29 70zM29 29q0 25 10 34q119 4 147 33q31 31 31 154v821q0 121 -30.5 151.5t-147.5 34.5q-10 10 -10 33q0 25 10 35q53 0 116.5 -1t97.5 -2t50 -1l266 4q8 -8 9 -35q0 -25 -9 -33 q-117 -4 -147.5 -34.5t-30.5 -151.5v-821q0 -119 33 -152q29 -29 145 -35q8 -8 9 -34q0 -25 -9 -33q-53 0 -116.5 1t-97 2t-50.5 1l-266 -4q-10 10 -10 33zM399 1561q0 43 29 69q33 29 70 29t69 -29q29 -27 29 -69.5t-29 -69.5q-33 -29 -69.5 -29t-69.5 29q-29 27 -29 70z " />
<glyph unicode="&#xd0;" horiz-adv-x="1433" d="M16 616q0 14 12.5 33t26.5 19h162v403q0 121 -30.5 151.5t-147.5 34.5q-10 10 -10 33q0 25 10 35q53 0 116.5 -1t97.5 -2t50 -1q72 0 149.5 2t188.5 2q297 0 502 -202.5t205 -491.5q0 -182 -61.5 -311.5t-166.5 -196.5q-106 -68 -213 -98q-102 -29 -229 -29 q-162 0 -237.5 2t-135.5 2l-266 -4q-10 10 -10 33q0 25 10 34q119 4 147 33q31 31 31 154v338h-178q-23 -1 -23 28zM391 170q0 -57 41 -80q43 -25 182 -24q119 0 207 24q96 27 168 78q78 57 121 160q41 100 41 254q0 126 -31 239q-31 111 -96 215q-65 101 -184 160 q-123 59 -277 59q-172 0 -172 -100v-487h199q25 0 24 -27q0 -16 -12 -34.5t-31 -18.5h-180v-418z" />
<glyph unicode="&#xd1;" horiz-adv-x="1429" d="M20 29q0 27 11 34q119 12 147 46q31 35 31 163v854q-9 46 -55 86q-49 43 -107 45q-10 10 -10 33q0 25 10 35l277 -4l702 -905l31 -41q20 -29 24 -33q4 -6 9.5 -10t9.5 -10q2 -2 5 -6.5t5 -6.5t4 -2q8 -4 10 -4q14 0 15 62v684q0 74 -6 110q-6 35 -31 58q-27 23 -51 28 q-29 6 -90 12q-10 10 -11 33q0 27 11 35q59 0 113 -1t81 -2t33 -1q8 0 35.5 1t82 2t111.5 1q8 -8 8 -35q0 -25 -8 -33q-119 -12 -147 -45q-31 -33 -31 -163v-1006q0 -63 -47 -63q-45 0 -82 49l-715 903q-51 68 -69 67q-16 0 -17 -100v-627q0 -74 6 -110q6 -35 31 -58 q27 -23 51 -28q29 -6 90 -13q8 -8 9 -34q0 -25 -9 -33q-59 0 -113.5 1t-81 2t-32.5 1q-8 0 -35.5 -1t-82 -2t-111.5 -1q-11 10 -11 33zM436 1434q47 201 164 200q12 0 33 -4q16 -4 35 -12q8 -4 26 -16l29 -21q18 -14 25 -16q51 -39 106 -39q33 0 55 22q20 20 41 84 q34 3 56 -12q-40 -203 -179 -203q-18 0 -26 2q-14 4 -29 13q-4 2 -12 7t-12 7q-2 2 -10.5 9t-14.5 11q-23 14 -27 17q-63 39 -110 39q-39 0 -58 -23q-23 -27 -36 -76q-40 -5 -56 11z" />
<glyph unicode="&#xd2;" horiz-adv-x="1435" d="M76 635q0 303 178 508t451 205q276 0 469 -189q190 -187 190 -485q0 -309 -178 -501.5t-469 -192.5q-274 0 -457 180q-184 180 -184 475zM272 670q0 -285 143.5 -453t342.5 -168q181 0 295 160q115 162 114 426q0 307 -137 475t-352 168q-72 0 -143 -37 q-76 -39 -129 -104q-61 -74 -97 -193q-37 -122 -37 -274zM467 1585q66 61 156 92l247 -172q31 -22 31 -43q0 -12 -8 -20q-10 -10 -23 -10q-31 0 -88 24z" />
<glyph unicode="&#xd3;" horiz-adv-x="1435" d="M76 635q0 303 178 508t451 205q276 0 469 -189q190 -187 190 -485q0 -309 -178 -501.5t-469 -192.5q-274 0 -457 180q-184 180 -184 475zM272 670q0 -285 143.5 -453t342.5 -168q181 0 295 160q115 162 114 426q0 307 -137 475t-352 168q-72 0 -143 -37 q-76 -39 -129 -104q-61 -74 -97 -193q-37 -122 -37 -274zM508 1460q0 22 31 43l254 176q84 -37 127 -106l-295 -119q-58 -25 -86 -24q-31 -1 -31 30z" />
<glyph unicode="&#xd4;" horiz-adv-x="1435" d="M76 635q0 303 178 508t451 205q276 0 469 -189q190 -187 190 -485q0 -309 -178 -501.5t-469 -192.5q-274 0 -457 180q-184 180 -184 475zM272 670q0 -285 143.5 -453t342.5 -168q181 0 295 160q115 162 114 426q0 307 -137 475t-352 168q-72 0 -143 -37 q-76 -39 -129 -104q-61 -74 -97 -193q-37 -122 -37 -274zM463 1456q90 70 207 199q37 22 80 0q90 -109 211 -199q-8 -33 -33 -43q-141 66 -217 125q-90 -68 -219 -125q-23 16 -29 43z" />
<glyph unicode="&#xd5;" horiz-adv-x="1435" d="M76 635q0 303 178 508t451 205q276 0 469 -189q190 -187 190 -485q0 -309 -178 -501.5t-469 -192.5q-274 0 -457 180q-184 180 -184 475zM272 670q0 -285 143.5 -453t342.5 -168q181 0 295 160q115 162 114 426q0 307 -137 475t-352 168q-72 0 -143 -37 q-76 -39 -129 -104q-61 -74 -97 -193q-37 -122 -37 -274zM422 1434q47 201 164 200q12 0 32 -4q16 -4 35 -12q8 -4 27 -16l29 -21q8 -6 18 -12l6 -4q51 -39 107 -39q33 0 55 22q18 20 41 84q34 3 55 -12q-40 -203 -178 -203q-16 0 -25 2q-18 4 -30 13q-4 2 -12.5 7t-12.5 7 q-2 2 -11 9t-15 11q-4 2 -8.5 5.5t-6.5 5.5t-5 4t-5 2q-63 39 -111 39q-41 0 -59 -23q-16 -18 -35 -76q-41 -5 -55 11z" />
<glyph unicode="&#xd6;" horiz-adv-x="1435" d="M76 635q0 303 178 508t451 205q276 0 469 -189q190 -187 190 -485q0 -309 -178 -501.5t-469 -192.5q-274 0 -457 180q-184 180 -184 475zM199 1446q0 41 30 70q33 29 68 28.5t68 -28.5q31 -29 30.5 -70t-30.5 -70q-33 -29 -68 -28.5t-68 28.5q-30 29 -30 70zM272 670 q0 -285 143.5 -453t342.5 -168q181 0 295 160q115 162 114 426q0 307 -137 475t-352 168q-72 0 -143 -37q-76 -39 -129 -104q-61 -74 -97 -193q-37 -122 -37 -274zM1036 1446q0 41 29 69.5t70 28.5t69.5 -28.5t28.5 -69.5t-28.5 -69.5t-69.5 -28.5t-70 28.5t-29 69.5z" />
<glyph unicode="&#xd7;" horiz-adv-x="1077" d="M217 221l252 250l-252 252l74 72l250 -252l250 252l71 -72l-252 -252l252 -250l-71 -71l-250 249l-250 -249z" />
<glyph unicode="&#xd8;" horiz-adv-x="1435" d="M76 635q0 303 178 508t451 205q225 0 401 -129l104 129q28 0 49.5 -18.5t24.5 -43.5l-106 -133q186 -188 186 -479q0 -309 -178 -501.5t-469 -192.5q-221 0 -391 122l-105 -129q-29 0 -49 21q-18 18 -25 45l105 129q-176 178 -176 467zM272 670q0 -213 88 -369l664 817 q-131 160 -346 160q-72 0 -143 -37q-76 -39 -129 -104q-61 -74 -97 -193q-37 -122 -37 -274zM420 217q141 -168 338 -168q181 0 295 160q115 162 114 426q0 240 -86 399z" />
<glyph unicode="&#xd9;" horiz-adv-x="1351" d="M12 1290q0 27 8 35q57 0 115 -1t88.5 -2t40.5 -1t277 4q8 -8 8 -35q0 -25 -8 -33q-121 -2 -156 -34q-33 -31 -33 -152v-520q0 -68 4 -141q2 -53 29 -127q25 -70 72 -117q109 -102 243 -103q101 0 172 31q70 31 111 78q39 45 61 121q20 70 27 133q6 61 6 141v504 q0 68 -6 100.5t-33 51.5q-25 16 -53 22q-27 6 -96 12q-8 8 -8 33q0 27 8 35q57 0 114.5 -1t86 -2t36.5 -1q2 0 26 1t74 2t109 1q8 -8 8 -35q0 -25 -8 -33q-78 -10 -100 -18q-27 -10 -41 -45q-16 -39 -16 -123v-467q0 -139 -23 -252q-20 -106 -78 -194q-55 -86 -162 -133 q-102 -45 -258 -45q-78 0 -155 22q-80 25 -152 72q-80 53 -125 157q-47 106 -47 252v588q0 123 -28 152q-33 33 -130 34q-8 8 -8 33zM410 1583q66 61 155 92l248 -172q31 -22 31 -43q0 -10 -10.5 -20t-20.5 -10q-31 0 -88 24z" />
<glyph unicode="&#xda;" horiz-adv-x="1351" d="M12 1290q0 27 8 35q57 0 115 -1t88.5 -2t40.5 -1t277 4q8 -8 8 -35q0 -25 -8 -33q-121 -2 -156 -34q-33 -31 -33 -152v-520q0 -68 4 -141q2 -53 29 -127q25 -70 72 -117q109 -102 243 -103q101 0 172 31q70 31 111 78q39 45 61 121q20 70 27 133q6 61 6 141v504 q0 68 -6 100.5t-33 51.5q-25 16 -53 22q-27 6 -96 12q-8 8 -8 33q0 27 8 35q57 0 114.5 -1t86 -2t36.5 -1q2 0 26 1t74 2t109 1q8 -8 8 -35q0 -25 -8 -33q-78 -10 -100 -18q-27 -10 -41 -45q-16 -39 -16 -123v-467q0 -139 -23 -252q-20 -106 -78 -194q-55 -86 -162 -133 q-102 -45 -258 -45q-78 0 -155 22q-80 25 -152 72q-80 53 -125 157q-47 106 -47 252v588q0 123 -28 152q-33 33 -130 34q-8 8 -8 33zM545 1458q0 22 30 43l254 176q84 -37 127 -106l-294 -119q-59 -25 -87 -25q-30 0 -30 31z" />
<glyph unicode="&#xdb;" horiz-adv-x="1351" d="M12 1290q0 27 8 35q57 0 115 -1t88.5 -2t40.5 -1t277 4q8 -8 8 -35q0 -25 -8 -33q-121 -2 -156 -34q-33 -31 -33 -152v-520q0 -68 4 -141q2 -53 29 -127q25 -70 72 -117q109 -102 243 -103q101 0 172 31q70 31 111 78q39 45 61 121q20 70 27 133q6 61 6 141v504 q0 68 -6 100.5t-33 51.5q-25 16 -53 22q-27 6 -96 12q-8 8 -8 33q0 27 8 35q57 0 114.5 -1t86 -2t36.5 -1q2 0 26 1t74 2t109 1q8 -8 8 -35q0 -25 -8 -33q-78 -10 -100 -18q-27 -10 -41 -45q-16 -39 -16 -123v-467q0 -139 -23 -252q-20 -106 -78 -194q-55 -86 -162 -133 q-102 -45 -258 -45q-78 0 -155 22q-80 25 -152 72q-80 53 -125 157q-47 106 -47 252v588q0 123 -28 152q-33 33 -130 34q-8 8 -8 33zM467 1456q90 70 207 199q37 22 80 0q90 -109 211 -199q-8 -33 -33 -43q-141 66 -217 125q-90 -68 -219 -125q-23 16 -29 43z" />
<glyph unicode="&#xdc;" horiz-adv-x="1363" d="M16 1290q0 27 9 35q201 -4 245 -4q39 0 174 4q20 0 21 -31q0 -33 -12 -37q-47 -8 -72 -51t-25 -135v-520q0 -109 2 -141q2 -43 29 -121q23 -72 76 -123q102 -102 244 -103q123 0 202 43q74 41 115 127q33 74 47 154q12 74 12 180v504q0 96 -22.5 137t-75.5 49 q-23 16 -18 41q4 27 32 27q41 0 70 -2t68 -2q35 0 198 4q8 -8 8 -35q0 -25 -8 -33q-96 -2 -125 -34q-27 -29 -26 -152v-467q0 -305 -113 -463q-115 -162 -409 -161q-59 0 -121 12t-127 45q-59 31 -115 88q-49 51 -84 147q-33 90 -33 211v588q0 121 -30 152q-33 33 -127 34 q-9 8 -9 33zM475 1448q0 39 28.5 67.5t67.5 28.5t68 -28.5t29 -67.5t-29 -67.5t-68 -28.5t-67.5 28.5t-28.5 67.5zM770 1448q0 39 28.5 67.5t67.5 28.5t68 -28.5t29 -67.5t-29 -67.5t-68 -28.5t-67.5 28.5t-28.5 67.5z" />
<glyph unicode="&#xdd;" horiz-adv-x="1175" d="M2 1290q0 27 8 35q164 -4 209 -4q16 0 234 4q10 -10 10 -35q0 -23 -10 -33q-4 0 -14.5 -1t-16.5 -1h-29q-2 0 -9 -1t-11 -1t-10.5 -1t-8.5 -1q-6 0 -10 -2q-6 -3 -6 -6l-1 -3q-1 -3 -1 -5q0 -8 2 -14q2 -4 4 -9.5t4 -9.5t12 -22l258 -455q8 -16 17 -25q4 -4 12 0.5 t17 20.5l243 459q12 27 15 30q4 14 2 21l-7 12q-2 4 -18 8q-8 2 -23 2q-2 0 -12 1t-18 1t-19.5 1t-15.5 1q-10 10 -10 33t10 33q55 -2 186 -2q129 0 170 2q10 -10 11 -33q0 -25 -11 -33q-2 0 -14 -1t-21 -1q-10 0 -20 -2l-10 -2q-4 0 -25 -4q-14 -2 -22 -10l-4 -4t-4.5 -3 t-5.5 -3t-7 -6q-12 -8 -22 -27q-2 -2 -10.5 -15.5t-12.5 -21.5l-262 -473q-27 -49 -33 -66q-2 -6 -2 -69v-299q0 -121 35 -152q31 -29 164 -35q8 -8 8 -34q0 -25 -8 -33q-274 4 -285 4q-20 0 -287 -4q-10 10 -10 33q0 25 10 34q131 4 164 33q35 31 35 154v280v27 q0 14 -2 22.5t-2 18.5q0 4 -6 14q-2 6 -5 11l-3 4l-2 3q-2 3 -4.5 8l-4.5 9q-4 6 -9 12.5t-5 8.5l-268 452q-55 92 -84 113q-29 18 -90 22q-4 0 -10.5 1t-8.5 1q-10 10 -10 33zM453 1460q0 22 30 43l254 176q84 -37 127 -106l-295 -119q-58 -25 -86 -24q-30 -1 -30 30z" />
<glyph unicode="&#xde;" horiz-adv-x="1077" d="M12 29q0 27 11 34q119 4 147 33q31 31 31 154v821q0 121 -31 151.5t-147 34.5q-10 10 -11 33q0 27 11 35q53 0 116.5 -1t97 -2t50.5 -1l266 4q8 -8 8 -35q0 -25 -8 -33q-117 -4 -147.5 -34.5t-30.5 -151.5v-8q131 8 184 8q133 0 229 -37q94 -37 140 -94q45 -55 63 -117 q18 -57 18.5 -120.5t-24.5 -127.5q-27 -68 -76 -126q-53 -61 -151 -103q-96 -39 -228 -39q-100 0 -155 19v-76q0 -121 31 -152q29 -29 147 -35q8 -8 8 -34q0 -25 -8 -33q-53 0 -116.5 1t-97.5 2t-50 1l-266 -4q-11 10 -11 33zM375 385q35 -10 145 -10q299 0 299 327 q0 168 -76 236q-74 66 -186 66q-98 0 -182 -23v-596z" />
<glyph unicode="&#xdf;" horiz-adv-x="1105" d="M37 29q0 25 10 34q92 4 117 33q25 31 24 154v541q0 25 -24 24h-105q-10 10 2.5 39t28.5 29q59 0 78 18q20 20 20 76q0 125 41 213q43 90 109 141q63 49 133 74q68 25 135 25q145 0 230 -72q82 -70 82 -156q0 -78 -39 -143.5t-88 -108.5q-55 -49 -136 -108v-4 q78 -49 129 -90q59 -47 113 -99q66 -61 96 -137q31 -74 31 -158q0 -162 -88 -268t-231 -106q-115 0 -164 57t-49 139q0 23 20 49q16 23 43 23q57 0 57 -62q0 -20 -8 -42.5t-8 -34.5q0 -27 20 -43q14 -12 37 -17q12 -2 52 -2q53 0 100 72q45 70 45 200q0 250 -318 492v27 q121 96 166 161q49 74 50 177q0 90 -39 137q-41 49 -121 49q-74 0 -125 -39q-53 -39 -73.5 -108.5t-31.5 -143.5q-8 -63 -8 -166v-655q0 -117 19 -148q18 -29 80 -39q10 -10 10 -34q0 -23 -10 -33q-33 0 -63 1t-50.5 1t-35.5 1t-22 1h-8q-14 0 -43.5 -1t-82 -2t-97.5 -1 q-10 10 -10 33z" />
<glyph unicode="&#xe0;" horiz-adv-x="933" d="M74 201q0 102 94 180q92 76 244 117l176 43q12 3 12 24q0 266 -166 266q-63 0 -119 -22q-51 -20 -51 -64q0 -25 4 -40q6 -12 6 -37t-24 -45q-27 -23 -66 -23q-72 0 -71 72q0 86 106 155q109 72 232 72q309 0 309 -346v-305q0 -49 4 -90q2 -29 22 -58q18 -27 56 -26 q23 0 43 16l20 16q8 0 17 -12q10 -14 10 -22q0 -6 -20.5 -26.5t-65.5 -43t-88 -22.5q-125 0 -158 118h-4l-41 -32q-72 -55 -111 -70q-45 -16 -112 -16q-115 0 -186.5 53t-71.5 168zM233 1309l5 22q66 47 133 47q10 0 30 -4l144 -258q12 -25 12 -49q0 -10 -8 -16.5 t-22.5 -6.5t-59.5 41zM244 209q0 -53 37 -100q37 -45 110.5 -45.5t179.5 88.5q29 23 29 53v272l-162 -43q-194 -53 -194 -225z" />
<glyph unicode="&#xe1;" horiz-adv-x="933" d="M74 201q0 102 94 180q92 76 244 117l176 43q12 3 12 24q0 266 -166 266q-63 0 -119 -22q-51 -20 -51 -64q0 -25 4 -40q6 -12 6 -37t-24 -45q-27 -23 -66 -23q-72 0 -71 72q0 86 106 155q109 72 232 72q309 0 309 -346v-305q0 -49 4 -90q2 -29 22 -58q18 -27 56 -26 q23 0 43 16l20 16q8 0 17 -12q10 -14 10 -22q0 -6 -20.5 -26.5t-65.5 -43t-88 -22.5q-125 0 -158 118h-4l-41 -32q-72 -55 -111 -70q-45 -16 -112 -16q-115 0 -186.5 53t-71.5 168zM244 209q0 -53 37 -100q37 -45 110.5 -45.5t179.5 88.5q29 23 29 53v272l-162 -43 q-194 -53 -194 -225zM322 1073q0 18 22 57l156 244q16 4 28 4q61 0 113 -47l6 -22l-235 -224q-39 -39 -62 -38q-10 0 -18 8q-10 10 -10 18z" />
<glyph unicode="&#xe2;" horiz-adv-x="933" d="M74 201q0 102 94 180q92 76 244 117l176 43q12 3 12 24q0 266 -166 266q-63 0 -119 -22q-51 -20 -51 -64q0 -25 4 -40q6 -12 6 -37t-24 -45q-27 -23 -66 -23q-72 0 -71 72q0 86 106 155q109 72 232 72q309 0 309 -346v-305q0 -49 4 -90q2 -29 22 -58q18 -27 56 -26 q23 0 43 16l20 16q8 0 17 -12q10 -14 10 -22q0 -6 -20.5 -26.5t-65.5 -43t-88 -22.5q-125 0 -158 118h-4l-41 -32q-72 -55 -111 -70q-45 -16 -112 -16q-115 0 -186.5 53t-71.5 168zM180 1065q156 170 228 287q37 10 65 0q82 -129 223 -287q-23 -29 -47 -35q-123 78 -211 170 q-115 -115 -213 -170q-27 6 -45 35zM244 209q0 -53 37 -100q37 -45 110.5 -45.5t179.5 88.5q29 23 29 53v272l-162 -43q-194 -53 -194 -225z" />
<glyph unicode="&#xe3;" horiz-adv-x="933" d="M74 201q0 102 94 180q92 76 244 117l176 43q12 3 12 24q0 266 -166 266q-63 0 -119 -22q-51 -20 -51 -64q0 -25 4 -40q6 -12 6 -37t-24 -45q-27 -23 -66 -23q-72 0 -71 72q0 86 106 155q109 72 232 72q309 0 309 -346v-305q0 -49 4 -90q2 -29 22 -58q18 -27 56 -26 q23 0 43 16l20 16q8 0 17 -12q10 -14 10 -22q0 -6 -20.5 -26.5t-65.5 -43t-88 -22.5q-125 0 -158 118h-4l-41 -32q-72 -55 -111 -70q-45 -16 -112 -16q-115 0 -186.5 53t-71.5 168zM162 1081q47 201 164 201q14 0 34 -4q6 -2 33 -14q20 -10 27 -15l29 -20q8 -6 18 -12l6 -5 q55 -39 107 -38q33 0 55 22q20 20 41 84q34 3 55 -12q-40 -203 -178 -203q-16 0 -25 2q-18 4 -30 12q-4 2 -12.5 7.5t-12.5 7.5l-7 5q-7 5 -17 13q-4 4 -10.5 8t-10.5 7t-6 3q-63 39 -111 39q-41 0 -59.5 -22.5t-34.5 -75.5q-39 -6 -55 10zM244 209q0 -53 37 -100 q37 -45 110.5 -45.5t179.5 88.5q29 23 29 53v272l-162 -43q-194 -53 -194 -225z" />
<glyph unicode="&#xe4;" horiz-adv-x="933" d="M74 201q0 102 94 180q92 76 244 117l176 43q12 3 12 24q0 266 -166 266q-63 0 -119 -22q-51 -20 -51 -64q0 -25 4 -40q6 -12 6 -37t-24 -45q-27 -23 -66 -23q-72 0 -71 72q0 86 106 155q109 72 232 72q309 0 309 -346v-305q0 -49 4 -90q2 -29 22 -58q18 -27 56 -26 q23 0 43 16l20 16q8 0 17 -12q10 -14 10 -22q0 -6 -20.5 -26.5t-65.5 -43t-88 -22.5q-125 0 -158 118h-4l-41 -32q-72 -55 -111 -70q-45 -16 -112 -16q-115 0 -186.5 53t-71.5 168zM170 1178q0 41 28.5 69.5t67.5 28.5t67.5 -28.5t28.5 -69.5q0 -39 -28.5 -68t-67.5 -29 q-41 0 -69 29q-27 27 -27 68zM244 209q0 -53 37 -100q37 -45 110.5 -45.5t179.5 88.5q29 23 29 53v272l-162 -43q-194 -53 -194 -225zM516 1178q0 41 28.5 69.5t67.5 28.5t68 -28.5t29 -69.5q0 -39 -29 -68t-68 -29t-67.5 29t-28.5 68z" />
<glyph unicode="&#xe5;" horiz-adv-x="933" d="M74 201q0 102 94 180q92 76 244 117l176 43q12 3 12 24q0 266 -166 266q-63 0 -119 -22q-51 -20 -51 -64q0 -25 4 -40q6 -12 6 -37t-24 -45q-27 -23 -66 -23q-72 0 -71 72q0 86 106 155q109 72 232 72q309 0 309 -346v-305q0 -49 4 -90q2 -29 22 -58q18 -27 56 -26 q23 0 43 16l20 16q8 0 17 -12q10 -14 10 -22q0 -6 -20.5 -26.5t-65.5 -43t-88 -22.5q-125 0 -158 118h-4l-41 -32q-72 -55 -111 -70q-45 -16 -112 -16q-115 0 -186.5 53t-71.5 168zM244 209q0 -53 37 -100q37 -45 110.5 -45.5t179.5 88.5q29 23 29 53v272l-162 -43 q-194 -53 -194 -225zM250 1192q0 72 53 123t127 51q72 0 125 -51q55 -52 55 -123q0 -70 -53 -123q-51 -51 -127 -51q-74 0 -127 51t-53 123zM332 1192q0 -49 26 -78q27 -31 72 -31t72 31q27 29 26.5 78t-26.5 78q-27 31 -72 30q-47 0 -72 -30q-26 -33 -26 -78z" />
<glyph unicode="&#xe6;" horiz-adv-x="1404" d="M80 209q0 61 37 119t92 92q123 72 401 92q0 203 -67 274q-43 45 -133 45q-61 0 -111 -22q-47 -23 -47 -66q0 -31 6 -41q6 -12 6 -36.5t-22 -47.5q-20 -20 -58 -20q-82 0 -82 92q0 86 98.5 147.5t229.5 61.5q203 0 283 -143q104 143 291 143q157 0 239 -68q84 -68 84 -137 q0 -90 -43 -139q-45 -51 -166 -78q-127 -29 -358 -31q0 -137 82 -253q80 -113 192 -113q139 0 244 123q23 -4 41 -33q-47 -88 -129 -137q-88 -53 -184 -53q-82 0 -156 28q-66 25 -94 51q-29 25 -60 62q-14 12 -20 8q-12 -6 -29 -23q-127 -127 -274 -126q-127 0 -193 36 q-100 58 -100 193zM227 219q0 -70 43 -113q41 -41 127 -40q49 0 115 53q68 55 88 112q10 55 10 209q-203 -15 -307 -92q-76 -55 -76 -129zM762 518q240 4 323 39q86 37 86 131q0 49 -51 96t-119 47q-100 0 -163.5 -88t-75.5 -225z" />
<glyph unicode="&#xe7;" horiz-adv-x="864" d="M76 426q0 209 129 340q129 133 291 133q150 0 229 -53q84 -55 84 -141q0 -39 -33 -66q-31 -25 -67 -25q-70 0 -78 74q-2 45 -13 70q-9 25 -43 49q-35 25 -90 24q-104 0 -168 -98q-66 -100 -65 -262q0 -175 80 -283q80 -109 194 -108q141 0 246 135q33 -2 43 -29 q-68 -109 -141 -155q-78 -49 -166 -51l-45 -117q25 6 53 6q59 0 105 -35q41 -33 41 -92q0 -66 -61.5 -109t-158.5 -43q-70 0 -151 35q0 33 20 53q80 -29 119 -28q47 0 76 22.5t29 59.5q0 72 -68 71q-52 0 -92 -12l-13 12l74 179q-169 15 -264 135q-96 121 -96 309z" />
<glyph unicode="&#xe8;" horiz-adv-x="913" d="M76 414q0 215 131 350q129 131 278 131q346 0 346 -356q0 -35 -38 -35l-545 4q0 -172 65 -281q88 -147 224 -147q86 0 141 24q53 25 113 86q35 -4 43 -32q-137 -178 -349 -178q-203 0 -313 131q-96 113 -96 303zM254 578l371 6q31 0 30 28q0 115 -51 166q-49 49 -119 49 q-20 0 -53 -8q-25 -6 -63.5 -28.5t-69.5 -77.5q-29 -53 -45 -135zM262 1309l4 22q66 47 133 47q10 0 31 -4l143 -258q12 -25 13 -49q0 -10 -10.5 -16.5t-20.5 -6.5q-14 0 -59 41z" />
<glyph unicode="&#xe9;" horiz-adv-x="913" d="M76 414q0 215 131 350q129 131 278 131q346 0 346 -356q0 -35 -38 -35l-545 4q0 -172 65 -281q88 -147 224 -147q86 0 141 24q53 25 113 86q35 -4 43 -32q-137 -178 -349 -178q-203 0 -313 131q-96 113 -96 303zM254 578l371 6q31 0 30 28q0 115 -51 166q-49 49 -119 49 q-20 0 -53 -8q-25 -6 -63.5 -28.5t-69.5 -77.5q-29 -53 -45 -135zM375 1073q0 18 22 57l156 244q16 4 29 4q61 0 112 -47l6 -22l-235 -224q-39 -39 -62 -38q-10 0 -18 8q-10 10 -10 18z" />
<glyph unicode="&#xea;" horiz-adv-x="913" d="M76 414q0 215 131 350q129 131 278 131q346 0 346 -356q0 -35 -38 -35l-545 4q0 -172 65 -281q88 -147 224 -147q86 0 141 24q53 25 113 86q35 -4 43 -32q-137 -178 -349 -178q-203 0 -313 131q-96 113 -96 303zM217 1065q156 170 227 287q37 10 66 0q82 -129 223 -287 q-23 -29 -47 -35q-123 78 -211 170q-115 -115 -213 -170q-27 6 -45 35zM254 578l371 6q31 0 30 28q0 115 -51 166q-49 49 -119 49q-20 0 -53 -8q-25 -6 -63.5 -28.5t-69.5 -77.5q-29 -53 -45 -135z" />
<glyph unicode="&#xeb;" horiz-adv-x="913" d="M76 414q0 215 131 350q129 131 278 131q346 0 346 -356q0 -35 -38 -35l-545 4q0 -172 65 -281q88 -147 224 -147q86 0 141 24q53 25 113 86q35 -4 43 -32q-137 -178 -349 -178q-203 0 -313 131q-96 113 -96 303zM203 1178q0 41 28.5 69.5t67.5 28.5t67.5 -28.5 t28.5 -69.5q0 -39 -28.5 -68t-67.5 -29t-67.5 29t-28.5 68zM254 578l371 6q31 0 30 28q0 115 -51 166q-49 49 -119 49q-20 0 -53 -8q-25 -6 -63.5 -28.5t-69.5 -77.5q-29 -53 -45 -135zM549 1178q0 41 28.5 69.5t67.5 28.5t67.5 -28.5t28.5 -69.5q0 -39 -28.5 -68t-67.5 -29 t-67.5 29t-28.5 68z" />
<glyph unicode="&#xec;" horiz-adv-x="552" d="M35 1309l4 22q66 47 133 47q10 0 31 -4l143 -258q12 -25 12 -49q0 -10 -10 -16q-8 -6 -20 -7q-14 0 -60 41zM53 29q0 27 8 34q100 10 123 35q25 29 25 152v399q0 88 -23 109q-25 22 -110 30q-12 37 -4 58q188 25 280 59q27 0 27 -14q-8 -117 -8 -234v-407 q0 -123 24.5 -151.5t122.5 -35.5q10 -10 10 -34q0 -23 -10 -33q-45 0 -99 1t-84 2t-44 1l-230 -4q-8 8 -8 33z" />
<glyph unicode="&#xed;" horiz-adv-x="552" d="M53 29q0 27 8 34q100 10 123 35q25 29 25 152v399q0 88 -23 109q-25 22 -110 30q-12 37 -4 58q188 25 280 59q27 0 27 -14q-8 -117 -8 -234v-407q0 -123 24.5 -151.5t122.5 -35.5q10 -10 10 -34q0 -23 -10 -33q-45 0 -99 1t-84 2t-44 1l-230 -4q-8 8 -8 33zM156 1073 q0 18 22 57l156 244q16 4 28 4q61 0 113 -47l6 -22l-235 -224q-39 -39 -62 -38q-10 0 -18 8q-10 10 -10 18z" />
<glyph unicode="&#xee;" horiz-adv-x="552" d="M-4 1065q156 170 227 287q37 10 66 0q82 -129 223 -287q-23 -29 -47 -35q-123 78 -211 170q-115 -115 -213 -170q-27 6 -45 35zM53 29q0 27 8 34q100 10 123 35q25 29 25 152v399q0 88 -23 109q-25 22 -110 30q-12 37 -4 58q188 25 280 59q27 0 27 -14q-8 -117 -8 -234 v-407q0 -123 24.5 -151.5t122.5 -35.5q10 -10 10 -34q0 -23 -10 -33q-45 0 -99 1t-84 2t-44 1l-230 -4q-8 8 -8 33z" />
<glyph unicode="&#xef;" horiz-adv-x="552" d="M-8 1178q0 41 28.5 69.5t67.5 28.5t67.5 -28.5t28.5 -69.5q0 -39 -28.5 -68t-67.5 -29t-67.5 29t-28.5 68zM53 29q0 27 8 34q100 10 123 35q25 29 25 152v399q0 88 -23 109q-25 22 -110 30q-12 37 -4 58q188 25 280 59q27 0 27 -14q-8 -117 -8 -234v-407 q0 -123 24.5 -151.5t122.5 -35.5q10 -10 10 -34q0 -23 -10 -33q-45 0 -99 1t-84 2t-44 1l-230 -4q-8 8 -8 33zM338 1178q0 41 28.5 69.5t67.5 28.5t67.5 -28.5t28.5 -69.5q0 -39 -28.5 -68t-67.5 -29q-41 0 -69 29q-27 27 -27 68z" />
<glyph unicode="&#xf0;" horiz-adv-x="993" d="M70 426q0 119 45 221q43 98 112 150q74 53 142 77q70 25 139 25q82 0 156 -29q-68 160 -183 301l-223 -149l-45 65l215 146l-33 33q-66 68 -139 120l33 44q104 -55 217 -146l217 146l45 -66l-199 -133l37 -37q309 -309 309 -709q0 -248 -129 -376.5t-313 -128.5 q-180 0 -291 137q-112 141 -112 309zM246 461q0 -176 76 -291q76 -117 186 -117q92 0 163.5 90t71.5 314q0 147 -32 272q-76 98 -207 98q-74 0 -127 -34q-51 -33 -80 -91q-25 -49 -39 -116q-12 -57 -12 -125z" />
<glyph unicode="&#xf1;" horiz-adv-x="1095" d="M45 29q0 27 8 34q96 10 119 35q25 29 25 152v399q0 88 -23 109q-25 22 -111 30q-12 37 -4 58q193 27 283 59q25 0 25 -16q-10 -106 -11 -156q0 -27 21 0q90 100 162 131q80 35 161 35q119 0 170 -70q55 -74 56 -274v-305q0 -123 24 -150q25 -29 113 -37q8 -8 8 -34 q0 -25 -8 -33q-47 0 -99.5 1t-79 2t-38.5 1q-10 0 -37 -1t-76 -2t-96 -1q-8 8 -8 35q0 25 8 32q86 10 106.5 37t20.5 150v311q0 109 -25 158q-39 74 -108 74q-111 0 -238 -121q-35 -41 -35 -86v-336q0 -123 21 -150q23 -29 102 -37q10 -10 10.5 -34.5t-10.5 -32.5 q-47 0 -96 1t-73.5 2t-32.5 1l-226 -4q-8 8 -8 33zM291 1081q47 201 164 201q14 0 34 -4q6 -2 33 -14q20 -10 27 -15l29 -20q8 -6 18 -12l6 -5q55 -39 107 -38q33 0 55 22q18 20 41 84q34 3 55 -12q-40 -203 -178 -203q-16 0 -25 2q-18 4 -30 12q-4 2 -12.5 7.5t-12.5 7.5 q-8 6 -27 18q-6 4 -13 10t-11 8q-63 39 -111 39q-41 0 -59.5 -22.5t-34.5 -75.5q-39 -6 -55 10z" />
<glyph unicode="&#xf2;" horiz-adv-x="1030" d="M84 420q0 203 117 342q117 137 317 137q113 0 201 -41q82 -39 135 -110q43 -57 70 -148q25 -80 24 -162q0 -111 -43 -211q-41 -98 -145 -174q-101 -74 -246 -73q-203 0 -317 135q-113 133 -113 305zM260 467q0 -57 16 -133q14 -68 48 -135q31 -63 92 -109q58 -43 135 -43 q90 0 155.5 71.5t65.5 254.5q0 221 -71.5 339.5t-204.5 118.5q-119 0 -177 -106q-59 -108 -59 -258zM291 1309l4 22q66 47 133 47q10 0 31 -4l143 -258q12 -25 12 -49q0 -10 -10 -16.5t-20 -6.5q-14 0 -60 41z" />
<glyph unicode="&#xf3;" horiz-adv-x="1030" d="M84 420q0 203 117 342q117 137 317 137q113 0 201 -41q82 -39 135 -110q43 -57 70 -148q25 -80 24 -162q0 -111 -43 -211q-41 -98 -145 -174q-101 -74 -246 -73q-203 0 -317 135q-113 133 -113 305zM260 467q0 -57 16 -133q14 -68 48 -135q31 -63 92 -109q58 -43 135 -43 q90 0 155.5 71.5t65.5 254.5q0 221 -71.5 339.5t-204.5 118.5q-119 0 -177 -106q-59 -108 -59 -258zM375 1073q0 18 22 57l156 244q16 4 29 4q61 0 112 -47l6 -22l-235 -224q-39 -39 -62 -38q-10 0 -18 8q-10 10 -10 18z" />
<glyph unicode="&#xf4;" horiz-adv-x="1030" d="M84 420q0 203 117 342q117 137 317 137q113 0 201 -41q82 -39 135 -110q43 -57 70 -148q25 -80 24 -162q0 -111 -43 -211q-41 -98 -145 -174q-101 -74 -246 -73q-203 0 -317 135q-113 133 -113 305zM256 1065q156 170 227 287q37 10 66 0q82 -129 223 -287 q-23 -29 -47 -35q-123 78 -211 170q-115 -115 -213 -170q-27 6 -45 35zM260 467q0 -57 16 -133q14 -68 48 -135q31 -63 92 -109q58 -43 135 -43q90 0 155.5 71.5t65.5 254.5q0 221 -71.5 339.5t-204.5 118.5q-119 0 -177 -106q-59 -108 -59 -258z" />
<glyph unicode="&#xf5;" horiz-adv-x="1030" d="M84 420q0 203 117 342q117 137 317 137q113 0 201 -41q82 -39 135 -110q43 -57 70 -148q25 -80 24 -162q0 -111 -43 -211q-41 -98 -145 -174q-101 -74 -246 -73q-203 0 -317 135q-113 133 -113 305zM205 1081q47 201 164 201q14 0 34 -4q6 -2 33 -14q20 -10 27 -15 l29 -20q8 -6 18 -12l6 -5q55 -39 107 -38q33 0 55 22q18 20 41 84q34 3 55 -12q-40 -203 -178 -203q-16 0 -25 2q-18 4 -30 12q-4 2 -12.5 7.5t-12.5 7.5l-7 5q-7 5 -17 13q-4 4 -10.5 8t-10.5 7t-6 3q-63 39 -111 39q-41 0 -59.5 -22.5t-34.5 -75.5q-39 -6 -55 10zM260 467 q0 -57 16 -133q14 -68 48 -135q31 -63 92 -109q58 -43 135 -43q90 0 155.5 71.5t65.5 254.5q0 221 -71.5 339.5t-204.5 118.5q-119 0 -177 -106q-59 -108 -59 -258z" />
<glyph unicode="&#xf6;" horiz-adv-x="1030" d="M84 420q0 203 117 342q117 137 317 137q113 0 201 -41q82 -39 135 -110q43 -57 70 -148q25 -80 24 -162q0 -111 -43 -211q-41 -98 -145 -174q-101 -74 -246 -73q-203 0 -317 135q-113 133 -113 305zM248 1178q0 41 28.5 69.5t67.5 28.5t67.5 -28.5t28.5 -69.5 q0 -39 -28.5 -68t-67.5 -29t-67.5 29t-28.5 68zM260 467q0 -57 16 -133q14 -68 48 -135q31 -63 92 -109q58 -43 135 -43q90 0 155.5 71.5t65.5 254.5q0 221 -71.5 339.5t-204.5 118.5q-119 0 -177 -106q-59 -108 -59 -258zM594 1178q0 41 28.5 69.5t67.5 28.5t67.5 -28.5 t28.5 -69.5q0 -39 -28.5 -68t-67.5 -29t-67.5 29t-28.5 68z" />
<glyph unicode="&#xf7;" horiz-adv-x="1077" d="M135 426v100h809v-100h-809zM453 201q0 37 26 63q29 29 64 29t63.5 -28.5t28.5 -63.5t-29 -64q-27 -27 -63.5 -26.5t-63 27t-26.5 63.5zM453 749.5q0 36.5 26.5 63.5t63.5 27t63 -27q29 -29 29 -63.5t-29 -63.5q-27 -27 -63.5 -27t-63 27t-26.5 63.5z" />
<glyph unicode="&#xf8;" horiz-adv-x="1030" d="M78 -4l108 131q-102 125 -102 293q0 203 117 342q117 137 317 137q143 0 248 -70l82 101q47 0 63 -47l-86 -105q123 -129 123 -340q0 -111 -43 -211q-41 -98 -145 -174q-101 -74 -246 -73q-158 0 -270 90l-105 -127q-27 0 -41 14q-16 19 -20 39zM260 467q0 -102 37 -205 l389 473q-72 96 -190.5 96t-176.5 -106q-59 -108 -59 -258zM336 180q78 -133 215 -133q90 0 155.5 71.5t65.5 254.5q0 170 -45 286z" />
<glyph unicode="&#xf9;" horiz-adv-x="1073" d="M45 847.5q0 24.5 8 35.5q201 -4 209 -4q43 0 72 4q16 0 16 -13q-8 -133 -8 -211v-372q0 -120 49 -166q47 -45 115 -45q82 0 192 98q33 27 33 80v395q0 98 -24 129q-27 35 -103 37q-10 10 -10 33q0 20 10 35q201 -4 209 -4q43 0 72 4q16 0 16 -13q-8 -133 -8 -211v-393 q0 -82 26.5 -110.5t122.5 -38.5q10 -10 10.5 -28.5t-10.5 -27.5q-176 -23 -247 -81q-20 -6 -39 0q-23 78 -23 120q0 10 -8 11q-4 0 -16 -9q-151 -123 -265 -122q-141 0 -202.5 79.5t-61.5 198.5v393q0 94 -26 127q-25 31 -101 37q-8 8 -8 32.5zM281 1309l4 22q66 47 133 47 q10 0 31 -4l143 -258q12 -25 12 -49q0 -10 -8 -16q-10 -6 -23 -7q-14 0 -59 41z" />
<glyph unicode="&#xfa;" horiz-adv-x="1073" d="M45 847.5q0 24.5 8 35.5q201 -4 209 -4q43 0 72 4q16 0 16 -13q-8 -133 -8 -211v-372q0 -120 49 -166q47 -45 115 -45q82 0 192 98q33 27 33 80v395q0 98 -24 129q-27 35 -103 37q-10 10 -10 33q0 20 10 35q201 -4 209 -4q43 0 72 4q16 0 16 -13q-8 -133 -8 -211v-393 q0 -82 26.5 -110.5t122.5 -38.5q10 -10 10.5 -28.5t-10.5 -27.5q-176 -23 -247 -81q-20 -6 -39 0q-23 78 -23 120q0 10 -8 11q-4 0 -16 -9q-151 -123 -265 -122q-141 0 -202.5 79.5t-61.5 198.5v393q0 94 -26 127q-25 31 -101 37q-8 8 -8 32.5zM430 1073q0 18 23 57l155 244 q16 4 29 4q61 0 113 -47l6 -22l-236 -224q-39 -39 -61 -38q-10 0 -19 8q-10 10 -10 18z" />
<glyph unicode="&#xfb;" horiz-adv-x="1073" d="M45 847.5q0 24.5 8 35.5q201 -4 209 -4q43 0 72 4q16 0 16 -13q-8 -133 -8 -211v-372q0 -120 49 -166q47 -45 115 -45q82 0 192 98q33 27 33 80v395q0 98 -24 129q-27 35 -103 37q-10 10 -10 33q0 20 10 35q201 -4 209 -4q43 0 72 4q16 0 16 -13q-8 -133 -8 -211v-393 q0 -82 26.5 -110.5t122.5 -38.5q10 -10 10.5 -28.5t-10.5 -27.5q-176 -23 -247 -81q-20 -6 -39 0q-23 78 -23 120q0 10 -8 11q-4 0 -16 -9q-151 -123 -265 -122q-141 0 -202.5 79.5t-61.5 198.5v393q0 94 -26 127q-25 31 -101 37q-8 8 -8 32.5zM246 1065q156 170 227 287 q37 10 66 0q82 -129 223 -287q-23 -29 -47 -35q-123 78 -211 170q-115 -115 -213 -170q-27 6 -45 35z" />
<glyph unicode="&#xfc;" horiz-adv-x="1073" d="M45 847.5q0 24.5 8 35.5q201 -4 209 -4q43 0 72 4q16 0 16 -13q-8 -133 -8 -211v-372q0 -120 49 -166q47 -45 115 -45q82 0 192 98q33 27 33 80v395q0 98 -24 129q-27 35 -103 37q-10 10 -10 33q0 20 10 35q201 -4 209 -4q43 0 72 4q16 0 16 -13q-8 -133 -8 -211v-393 q0 -82 26.5 -110.5t122.5 -38.5q10 -10 10.5 -28.5t-10.5 -27.5q-176 -23 -247 -81q-20 -6 -39 0q-23 78 -23 120q0 10 -8 11q-4 0 -16 -9q-151 -123 -265 -122q-141 0 -202.5 79.5t-61.5 198.5v393q0 94 -26 127q-25 31 -101 37q-8 8 -8 32.5zM252 1178q0 41 28.5 69.5 t67.5 28.5t67.5 -28.5t28.5 -69.5q0 -39 -28.5 -68t-67.5 -29q-41 0 -69 29q-27 27 -27 68zM598 1178q0 41 28.5 69.5t67.5 28.5t68 -28.5t29 -69.5q0 -39 -29 -68t-68 -29t-67.5 29t-28.5 68z" />
<glyph unicode="&#xfd;" horiz-adv-x="1060" d="M33 847.5q0 24.5 8 35.5q111 -4 166 -4q31 0 231 4q8 -8 8 -35q0 -25 -8 -33q-31 -2 -57 -10q-16 -4 -31 -14q-10 -8 -8 -25q2 -8 5 -18.5t3 -12.5q4 -14 17 -43q4 -8 4 -10l182 -426q25 -57 49 -2l203 469q23 51 -6 68q-31 18 -92 24q-10 10 -11 33q0 25 11 35 q41 0 85 -1t67.5 -2t33.5 -1t145 4q10 -10 10.5 -35t-10.5 -33q-55 -4 -98 -43q-43 -41 -68 -88q-120 -252 -362 -836q-41 -98 -84 -176q-82 -147 -199 -147q-41 0 -69 22q-27 20 -27 54q0 27 24.5 57.5t65.5 30.5q14 0 27 -2q25 -4 33 -4q72 0 102 59q51 106 80 188 q25 72 -29 193l-231 539q-45 102 -68 122q-29 25 -94 31q-8 8 -8 32.5zM467 1073q0 18 22 57l156 244q16 4 29 4q61 0 112 -47l7 -22l-236 -224q-39 -39 -61 -38q-10 0 -19 8q-10 10 -10 18z" />
<glyph unicode="&#xfe;" horiz-adv-x="1026" d="M16 -446q0 27 9 34q98 4 122 33q25 31 25 154v1370q0 76 -2 98q-2 33 -27 49q-23 16 -34 17q-4 0 -12.5 1t-25 2t-30.5 1q-25 25 -12 61q193 16 286 56q27 0 27 -21q-8 -74 -8 -215v-391q0 -33 6 -35q8 -4 29 20q106 111 235 111q143 0 245.5 -127t102.5 -291 q0 -236 -147 -383q-119 -119 -287 -118q-76 0 -145 26q-2 2 -5 2q-3 2 -6 2q-8 4 -10 6t-8 2q-2 0 -6 -4q-2 -2 -2 -12q0 -2 -1 -9t-1 -13v-205q0 -123 28.5 -152t139.5 -35q10 -10 10 -34q0 -23 -10 -33q-233 4 -248 4l-229 -4q-9 8 -9 33zM330 201q0 -39 8 -64 q6 -16 27 -35q63 -53 143 -53q145 0 206.5 108.5t61.5 268.5q0 223 -106 330q-49 49 -119 49q-66 0 -143.5 -59.5t-77.5 -155.5v-389z" />
<glyph unicode="&#xff;" horiz-adv-x="1060" d="M33 847.5q0 24.5 8 35.5q111 -4 166 -4q31 0 231 4q8 -8 8 -35q0 -25 -8 -33q-31 -2 -57 -10q-16 -4 -31 -14q-10 -8 -8 -25q2 -8 5 -18.5t3 -12.5q4 -14 17 -43q4 -8 4 -10l182 -426q25 -57 49 -2l203 469q23 51 -6 68q-31 18 -92 24q-10 10 -11 33q0 25 11 35 q41 0 85 -1t67.5 -2t33.5 -1t145 4q10 -10 10.5 -35t-10.5 -33q-55 -4 -98 -43q-43 -41 -68 -88q-120 -252 -362 -836q-41 -98 -84 -176q-82 -147 -199 -147q-41 0 -69 22q-27 20 -27 54q0 27 24.5 57.5t65.5 30.5q14 0 27 -2q25 -4 33 -4q72 0 102 59q51 106 80 188 q25 72 -29 193l-231 539q-45 102 -68 122q-29 25 -94 31q-8 8 -8 32.5zM287 1178q0 41 28.5 69.5t67.5 28.5t67.5 -28.5t28.5 -69.5q0 -39 -28.5 -68t-67.5 -29t-67.5 29t-28.5 68zM633 1178q0 41 28.5 69.5t67.5 28.5t67.5 -28.5t28.5 -69.5q0 -39 -28.5 -68t-67.5 -29 t-67.5 29t-28.5 68z" />
<glyph unicode="&#x100;" horiz-adv-x="1421" d="M4 29q0 25 10 34q51 2 82 12.5t64 39.5q35 31 59 94l455 1065q18 43 33 57q16 16 36 17q34 0 56 -62l420 -1110q16 -41 32 -61q18 -25 47 -33q33 -10 45 -12q4 0 23.5 -2t36.5 -5q10 -10 10 -34q0 -23 -10 -33q-201 4 -234 4q-68 0 -268 -4q-8 8 -8 33q0 27 8 34h31 q6 0 16 2.5t15 2.5q18 0 28 2q4 0 12.5 1t12.5 3l18 6q10 4 15 10q0 2 4 7t4 7q4 8 2 19l-2 9q-2 9 -4 15l-125 347h-426q-39 0 -51 -7q-10 -6 -21 -28l-113 -297q-2 -14 -6 -35q-4 -18 11 -27q16 -10 24 -16q4 -2 35 -10q25 -6 39 -6q6 0 39 -5q8 -8 8 -34q0 -25 -8 -33 q-201 4 -262 4q-8 0 -31 -1t-67 -2t-85 -1q-10 10 -10 33zM461 1548q0 23 14 43q16 23 31 23h461q29 0 28 -35q0 -16 -16 -43q-16 -25 -33 -25h-459q-26 0 -26 37zM487 606q-6 -16 5 -20q12 -6 47 -6h356l-199 546h-4z" />
<glyph unicode="&#x101;" horiz-adv-x="933" d="M74 201q0 102 94 180q92 76 244 117l176 43q12 3 12 24q0 266 -166 266q-63 0 -119 -22q-51 -20 -51 -64q0 -25 4 -40q6 -12 6 -37t-24 -45q-27 -23 -66 -23q-72 0 -71 72q0 86 106 155q109 72 232 72q309 0 309 -346v-305q0 -49 4 -90q2 -29 22 -58q18 -27 56 -26 q23 0 43 16l20 16q8 0 17 -12q10 -14 10 -22q0 -6 -20.5 -26.5t-65.5 -43t-88 -22.5q-125 0 -158 118h-4l-41 -32q-72 -55 -111 -70q-45 -16 -112 -16q-115 0 -186.5 53t-71.5 168zM174 1098q0 23 14 43q16 23 31 22h461q29 0 29 -35q0 -16 -17 -43q-16 -25 -33 -24h-458 q-27 0 -27 37zM244 209q0 -53 37 -100q37 -45 110.5 -45.5t179.5 88.5q29 23 29 53v272l-162 -43q-194 -53 -194 -225z" />
<glyph unicode="&#x102;" horiz-adv-x="1421" d="M4 29q0 25 10 34q51 2 82 12.5t64 39.5q35 31 59 94l455 1065q18 43 33 57q16 16 36 17q34 0 56 -62l420 -1110q16 -41 32 -61q18 -25 47 -33q33 -10 45 -12q4 0 23.5 -2t36.5 -5q10 -10 10 -34q0 -23 -10 -33q-201 4 -234 4q-68 0 -268 -4q-8 8 -8 33q0 27 8 34h31 q6 0 16 2.5t15 2.5q18 0 28 2q4 0 12.5 1t12.5 3l18 6q10 4 15 10q0 2 4 7t4 7q4 8 2 19l-2 9q-2 9 -4 15l-125 347h-426q-39 0 -51 -7q-10 -6 -21 -28l-113 -297q-2 -14 -6 -35q-4 -18 11 -27q16 -10 24 -16q4 -2 35 -10q25 -6 39 -6q6 0 39 -5q8 -8 8 -34q0 -25 -8 -33 q-201 4 -262 4q-8 0 -31 -1t-67 -2t-85 -1q-10 10 -10 33zM455 1647h57q12 -55 74 -91q63 -35 147 -34q80 0 146 34q68 35 75 91h58q-10 -104 -90 -168q-82 -63 -189 -64q-115 0 -192 62q-76 61 -86 170zM487 606q-6 -16 5 -20q12 -6 47 -6h356l-199 546h-4z" />
<glyph unicode="&#x103;" horiz-adv-x="933" d="M74 201q0 102 94 180q92 76 244 117l176 43q12 3 12 24q0 266 -166 266q-63 0 -119 -22q-51 -20 -51 -64q0 -25 4 -40q6 -12 6 -37t-24 -45q-27 -23 -66 -23q-72 0 -71 72q0 86 106 155q109 72 232 72q309 0 309 -346v-305q0 -49 4 -90q2 -29 22 -58q18 -27 56 -26 q23 0 43 16l20 16q8 0 17 -12q10 -14 10 -22q0 -6 -20.5 -26.5t-65.5 -43t-88 -22.5q-125 0 -158 118h-4l-41 -32q-72 -55 -111 -70q-45 -16 -112 -16q-115 0 -186.5 53t-71.5 168zM145 1300l56 25q14 -80 78 -133q59 -51 143 -51t145 49q59 49 76 135l55 -25 q-18 -127 -100 -202q-80 -74 -176 -74q-111 0 -182.5 71.5t-94.5 204.5zM244 209q0 -53 37 -100q37 -45 110.5 -45.5t179.5 88.5q29 23 29 53v272l-162 -43q-194 -53 -194 -225z" />
<glyph unicode="&#x104;" horiz-adv-x="1421" d="M4 29q0 25 10 34q51 2 82 12.5t64 39.5q35 31 59 94l455 1065q18 43 33 57q16 16 36 17q34 0 56 -62l420 -1110q16 -41 32 -61q18 -25 47 -33q33 -10 45 -12q4 0 23.5 -2t36.5 -5q10 -10 10 -34q0 -23 -10 -33q-102 0 -174 -78t-72 -154q0 -96 103 -96q43 0 69 19 q25 16 68 59q27 0 39 -22q-86 -133 -226 -134q-180 0 -180 152q0 72 53 143q57 76 144 115h-58q-68 0 -268 -4q-8 8 -8 33q0 27 8 34h31q6 0 16 2.5t15 2.5q18 0 28 2q4 0 12.5 1t12.5 3l18 6q10 4 15 10q0 2 4 7t4 7q4 8 2 19l-2 9q-2 9 -4 15l-125 347h-426q-39 0 -51 -7 q-10 -6 -21 -28l-113 -297q-2 -14 -6 -35q-4 -18 11 -27q16 -10 24 -16q4 -2 35 -10q25 -6 39 -6q6 0 39 -5q8 -8 8 -34q0 -25 -8 -33q-201 4 -262 4q-8 0 -31 -1t-67 -2t-85 -1q-10 10 -10 33zM487 606q-6 -16 5 -20q12 -6 47 -6h356l-199 546h-4z" />
<glyph unicode="&#x105;" horiz-adv-x="933" d="M74 201q0 102 94 180q92 76 244 117l176 43q12 3 12 24q0 266 -166 266q-63 0 -119 -22q-51 -20 -51 -64q0 -25 4 -40q6 -12 6 -37t-24 -45q-27 -23 -66 -23q-72 0 -71 72q0 86 106 155q109 72 232 72q309 0 309 -346v-305q0 -49 4 -90q2 -29 22 -58q18 -27 56 -26 q23 0 43 16l20 16q8 0 17 -12q10 -14 10 -22q0 -6 -14 -21q-20 -18 -46 -35q-37 -23 -61 -28q-76 -63 -113 -117q-35 -51 -34 -107q0 -96 102 -96q29 0 53 13q29 14 39 22t45 43q27 0 39 -22q-86 -133 -225 -134q-180 0 -180 152q0 113 176 242q-86 20 -113 114h-4l-41 -32 q-72 -55 -111 -70q-45 -16 -112 -16q-115 0 -186.5 53t-71.5 168zM244 209q0 -53 37 -100q37 -45 110.5 -45.5t179.5 88.5q29 23 29 53v272l-162 -43q-194 -53 -194 -225z" />
<glyph unicode="&#x106;" horiz-adv-x="1320" d="M76 645q0 330 217 529q188 174 440 174q150 0 287 -45q131 -43 162 -48q39 -244 45 -317q-37 -20 -68 -10q-104 344 -448 344q-178 0 -326 -182q-123 -151 -123 -406q0 -157 49 -295q47 -133 158 -231q106 -94 260 -95q145 0 254 52q117 55 221 172q33 0 47 -31 q-211 -276 -520 -276q-207 0 -364 100q-150 96 -222 246q-69 145 -69 319zM518 1458q0 22 31 43l254 176q84 -37 127 -106l-295 -119q-58 -25 -86 -25q-31 0 -31 31z" />
<glyph unicode="&#x107;" horiz-adv-x="864" d="M76 426q0 209 129 340q129 133 291 133q150 0 229 -53q84 -55 84 -141q0 -39 -33 -66q-31 -25 -67 -25q-70 0 -78 74q-2 45 -13 70q-9 25 -43 49q-35 25 -90 24q-104 0 -168 -98q-66 -100 -65 -262q0 -175 80 -283q80 -109 194 -108q141 0 246 135q33 -2 43 -29 q-72 -121 -151.5 -163.5t-182.5 -42.5q-190 0 -297 122q-108 125 -108 324zM342 1073q0 18 23 57l155 244q16 4 29 4q61 0 113 -47l6 -22l-236 -224q-39 -39 -61 -38q-10 0 -19 8q-10 10 -10 18z" />
<glyph unicode="&#x108;" horiz-adv-x="1320" d="M76 645q0 330 217 529q188 174 440 174q150 0 287 -45q131 -43 162 -48q39 -244 45 -317q-37 -20 -68 -10q-104 344 -448 344q-178 0 -326 -182q-123 -151 -123 -406q0 -157 49 -295q47 -133 158 -231q106 -94 260 -95q145 0 254 52q117 55 221 172q33 0 47 -31 q-211 -276 -520 -276q-207 0 -364 100q-150 96 -222 246q-69 145 -69 319zM483 1458q90 70 207 199q37 22 80 0q90 -109 211 -199q-8 -33 -33 -43q-141 66 -217 125q-90 -68 -219 -125q-23 16 -29 43z" />
<glyph unicode="&#x109;" horiz-adv-x="864" d="M76 426q0 209 129 340q129 133 291 133q150 0 229 -53q84 -55 84 -141q0 -39 -33 -66q-31 -25 -67 -25q-70 0 -78 74q-2 45 -13 70q-9 25 -43 49q-35 25 -90 24q-104 0 -168 -98q-66 -100 -65 -262q0 -175 80 -283q80 -109 194 -108q141 0 246 135q33 -2 43 -29 q-72 -121 -151.5 -163.5t-182.5 -42.5q-190 0 -297 122q-108 125 -108 324zM197 1065q156 170 227 287q37 10 65 0q82 -129 224 -287q-23 -29 -47 -35q-123 78 -211 170q-115 -115 -213 -170q-27 6 -45 35z" />
<glyph unicode="&#x10a;" horiz-adv-x="1320" d="M76 645q0 330 217 529q188 174 440 174q150 0 287 -45q131 -43 162 -48q39 -244 45 -317q-37 -20 -68 -10q-104 344 -448 344q-178 0 -326 -182q-123 -151 -123 -406q0 -157 49 -295q47 -133 158 -231q106 -94 260 -95q145 0 254 52q117 55 221 172q33 0 47 -31 q-211 -276 -520 -276q-207 0 -364 100q-150 96 -222 246q-69 145 -69 319zM623 1532q0 41 32.5 73.5t73.5 32.5q43 0 76 -32q31 -31 31 -74q0 -45 -31 -76t-76 -31q-43 0 -74 31q-32 33 -32 76z" />
<glyph unicode="&#x10b;" horiz-adv-x="864" d="M76 426q0 209 129 340q129 133 291 133q150 0 229 -53q84 -55 84 -141q0 -39 -33 -66q-31 -25 -67 -25q-70 0 -78 74q-2 45 -13 70q-9 25 -43 49q-35 25 -90 24q-104 0 -168 -98q-66 -100 -65 -262q0 -175 80 -283q80 -109 194 -108q141 0 246 135q33 -2 43 -29 q-72 -121 -151.5 -163.5t-182.5 -42.5q-190 0 -297 122q-108 125 -108 324zM367 1229q0 37 34 67q33 31 72 31q37 0 68 -33q31 -34 30 -73q0 -37 -32 -68q-34 -31 -74 -31q-37 0 -68 33q-30 34 -30 74z" />
<glyph unicode="&#x10c;" horiz-adv-x="1320" d="M76 645q0 330 217 529q188 174 440 174q150 0 287 -45q131 -43 162 -48q39 -244 45 -317q-37 -20 -68 -10q-104 344 -448 344q-178 0 -326 -182q-123 -151 -123 -406q0 -157 49 -295q47 -133 158 -231q106 -94 260 -95q145 0 254 52q117 55 221 172q33 0 47 -31 q-211 -276 -520 -276q-207 0 -364 100q-150 96 -222 246q-69 145 -69 319zM475 1622l33 41q115 -49 217 -125q113 80 219 125l31 -41q-96 -72 -205 -195h-88q-68 84 -207 195z" />
<glyph unicode="&#x10d;" horiz-adv-x="864" d="M76 426q0 209 129 340q129 133 291 133q150 0 229 -53q84 -55 84 -141q0 -39 -33 -66q-31 -25 -67 -25q-70 0 -78 74q-2 45 -13 70q-9 25 -43 49q-35 25 -90 24q-104 0 -168 -98q-66 -100 -65 -262q0 -175 80 -283q80 -109 194 -108q141 0 246 135q33 -2 43 -29 q-72 -121 -151.5 -163.5t-182.5 -42.5q-190 0 -297 122q-108 125 -108 324zM207 1294l41 27q152 -113 217 -184q77 80 221 184l39 -27q-133 -150 -209 -266h-102q-78 129 -207 266z" />
<glyph unicode="&#x10e;" horiz-adv-x="1433" d="M29 29q0 25 10 34q119 4 147 33q31 31 31 154v821q0 121 -30.5 151.5t-147.5 34.5q-10 10 -10 33q0 25 10 35q53 0 116.5 -1t97.5 -2t50 -1q72 0 149.5 2t188.5 2q297 0 502 -202.5t205 -491.5q0 -182 -61.5 -311.5t-166.5 -196.5q-106 -68 -213 -98q-102 -29 -229 -29 q-162 0 -237.5 2t-135.5 2l-266 -4q-10 10 -10 33zM389 1622l33 41q115 -49 217 -125q113 80 219 125l31 -41q-96 -72 -205 -195h-88q-68 84 -207 195zM391 170q0 -57 41 -80q43 -25 182 -24q119 0 207 24q96 27 168 78q78 57 121 160q41 100 41 254q0 126 -31 239 q-31 111 -96 215q-65 101 -184 160q-123 59 -277 59q-172 0 -172 -100v-985z" />
<glyph unicode="&#x10f;" horiz-adv-x="1079" d="M80 416q0 219 141 360q129 123 307 123q35 0 68 -8t63 -19q25 -8 29 -8q18 0 19 19v262q0 76 -2 98q-2 33 -27 49q-23 16 -35 17q-4 0 -12 1t-24.5 2t-31.5 1q-25 25 -12 61q193 16 287 56q27 0 27 -21q-8 -74 -9 -215v-928q0 -78 29 -110q27 -31 121 -39q10 -10 10 -29 q0 -16 -10 -27q-172 -23 -248 -81q-23 -6 -39 0q-23 74 -22 120q0 10 -9 11q-4 0 -16 -9q-152 -123 -256 -122q-164 0 -256 120.5t-92 315.5zM256 453q0 -180 67.5 -278.5t157.5 -98.5q80 0 193 98q33 27 33 80v389q0 47 -7 66q-6 20 -28 45q-66 74 -166 73 q-123 0 -191 -102q-59 -84 -59 -272zM934 1098q61 12 94 55q35 45 35 86q0 43 -29 43q-94 0 -94 78q0 29 22.5 49.5t67.5 20.5q55 0 88 -46q35 -47 35 -104q0 -68 -55 -137q-55 -71 -154 -80z" />
<glyph unicode="&#x110;" horiz-adv-x="1433" d="M29 29q0 25 10 34q119 4 147 33q31 31 31 154v338h-182v82h182v401q0 121 -30.5 151.5t-147.5 34.5q-10 10 -10 33q0 25 10 35q53 0 116.5 -1t97.5 -2t50 -1q72 0 149.5 2t188.5 2q297 0 502 -202.5t205 -491.5q0 -182 -61.5 -311.5t-166.5 -196.5q-106 -68 -213 -98 q-102 -29 -229 -29q-162 0 -237.5 2t-135.5 2l-266 -4q-10 10 -10 33zM391 170q0 -57 41 -80q43 -25 182 -24q119 0 207 24q96 27 168 78q78 57 121 160q41 100 41 254q0 126 -31 239q-31 111 -96 215q-65 101 -184 160q-123 59 -277 59q-172 0 -172 -100v-485h314v-82h-314 v-418z" />
<glyph unicode="&#x111;" horiz-adv-x="1034" d="M80 416q0 219 141 360q129 123 307 123q35 0 68 -8t63 -19q25 -8 29 -8q18 0 19 19v209h-318v79h318q0 23 -7 78q-2 27 -20 41q-16 14 -31 17t-55 6h-19q-25 25 -12 61q193 16 287 56q27 0 27 -21q-8 -74 -9 -215v-23h127l2 -79h-129v-826q0 -78 29 -110q27 -31 121 -39 q10 -10 10 -29q0 -16 -10 -27q-172 -23 -248 -81q-23 -6 -39 0q-23 74 -22 120q0 10 -9 11q-4 0 -16 -9q-152 -123 -256 -122q-164 0 -256 120.5t-92 315.5zM256 453q0 -180 67.5 -278.5t157.5 -98.5q80 0 193 98q33 27 33 80v389q0 47 -7 66q-6 20 -28 45q-66 74 -166 73 q-123 0 -191 -102q-59 -84 -59 -272z" />
<glyph unicode="&#x112;" horiz-adv-x="1122" d="M12 29q0 27 8 34q119 4 148 33q31 31 31 154v821q0 121 -31 151.5t-148 34.5q-8 8 -8 33q0 27 8 35l265 -4h522q59 0 100 8q8 0 8 -6q12 -59 46 -297q-35 -16 -68 -10q-41 127 -82 174q-43 49 -149 49h-216q-37 0 -55 -24.5t-18 -65.5v-410h186q126 0 154 25 q31 27 32 115q10 10 33 10q25 0 35 -10q-4 -164 -4 -177q0 -10 1 -32.5t2 -65.5t1 -82q-10 -10 -35 -10q-23 0 -33 10q-2 53 -12 78q-9 25 -49 43q-41 18 -125 19h-186v-494q0 -88 73 -88h279q195 0 268 268q41 10 72 -10q-25 -166 -76 -342q-217 4 -262 4h-440 q-47 0 -138.5 -1t-128.5 -3q-8 8 -8 33zM283 1563q0 23 14 43q16 23 31 22h460q29 0 29 -35q0 -16 -16 -43q-14 -25 -33 -24h-459q-26 0 -26 37z" />
<glyph unicode="&#x113;" horiz-adv-x="913" d="M76 414q0 215 131 350q129 131 278 131q346 0 346 -356q0 -35 -38 -35l-545 4q0 -172 65 -281q88 -147 224 -147q86 0 141 24q53 25 113 86q35 -4 43 -32q-137 -178 -349 -178q-203 0 -313 131q-96 113 -96 303zM205 1098q0 23 14 43q16 23 31 22h461q29 0 28 -35 q0 -16 -16 -43q-14 -25 -33 -24h-459q-26 0 -26 37zM254 578l371 6q31 0 30 28q0 115 -51 166q-49 49 -119 49q-20 0 -53 -8q-25 -6 -63.5 -28.5t-69.5 -77.5q-29 -53 -45 -135z" />
<glyph unicode="&#x114;" horiz-adv-x="1122" d="M12 29q0 27 8 34q119 4 148 33q31 31 31 154v821q0 121 -31 151.5t-148 34.5q-8 8 -8 33q0 27 8 35l265 -4h522q59 0 100 8q8 0 8 -6q12 -59 46 -297q-35 -16 -68 -10q-41 127 -82 174q-43 49 -149 49h-216q-37 0 -55 -24.5t-18 -65.5v-410h186q126 0 154 25 q31 27 32 115q10 10 33 10q25 0 35 -10q-4 -164 -4 -177q0 -10 1 -32.5t2 -65.5t1 -82q-10 -10 -35 -10q-23 0 -33 10q-2 53 -12 78q-9 25 -49 43q-41 18 -125 19h-186v-494q0 -88 73 -88h279q195 0 268 268q41 10 72 -10q-25 -166 -76 -342q-217 4 -262 4h-440 q-47 0 -138.5 -1t-128.5 -3q-8 8 -8 33zM295 1645h57q12 -55 74 -91q63 -35 147 -34q80 0 146 34q63 33 76 91h57q-10 -104 -90 -168q-82 -63 -189 -64q-115 0 -192 62q-76 61 -86 170z" />
<glyph unicode="&#x115;" horiz-adv-x="913" d="M76 414q0 215 131 350q129 131 278 131q346 0 346 -356q0 -35 -38 -35l-545 4q0 -172 65 -281q88 -147 224 -147q86 0 141 24q53 25 113 86q35 -4 43 -32q-137 -178 -349 -178q-203 0 -313 131q-96 113 -96 303zM190 1303l56 24q14 -80 78 -133q59 -51 143 -51t145 49 q59 49 76 135l55 -24q-18 -125 -100 -201t-176 -76q-111 0 -182 72q-72 74 -95 205zM254 578l371 6q31 0 30 28q0 115 -51 166q-49 49 -119 49q-20 0 -53 -8q-25 -6 -63.5 -28.5t-69.5 -77.5q-29 -53 -45 -135z" />
<glyph unicode="&#x116;" horiz-adv-x="1122" d="M12 29q0 27 8 34q119 4 148 33q31 31 31 154v821q0 121 -31 151.5t-148 34.5q-8 8 -8 33q0 27 8 35l265 -4h522q59 0 100 8q8 0 8 -6q12 -59 46 -297q-35 -16 -68 -10q-41 127 -82 174q-43 49 -149 49h-216q-37 0 -55 -24.5t-18 -65.5v-410h186q126 0 154 25 q31 27 32 115q10 10 33 10q25 0 35 -10q-4 -164 -4 -177q0 -10 1 -32.5t2 -65.5t1 -82q-10 -10 -35 -10q-23 0 -33 10q-2 53 -12 78q-9 25 -49 43q-41 18 -125 19h-186v-494q0 -88 73 -88h279q195 0 268 268q41 10 72 -10q-25 -166 -76 -342q-217 4 -262 4h-440 q-47 0 -138.5 -1t-128.5 -3q-8 8 -8 33zM467 1516q0 45 30.5 75.5t75.5 30.5q43 0 74 -31q33 -33 33 -75q0 -41 -33 -74t-74 -33q-43 0 -75 33q-31 31 -31 74z" />
<glyph unicode="&#x117;" horiz-adv-x="913" d="M76 414q0 215 131 350q129 131 278 131q346 0 346 -356q0 -35 -38 -35l-545 4q0 -172 65 -281q88 -147 224 -147q86 0 141 24q53 25 113 86q35 -4 43 -32q-137 -178 -349 -178q-203 0 -313 131q-96 113 -96 303zM254 578l371 6q31 0 30 28q0 115 -51 166q-49 49 -119 49 q-20 0 -53 -8q-25 -6 -63.5 -28.5t-69.5 -77.5q-29 -53 -45 -135zM369 1227q0 37 34.5 67.5t71.5 30.5t68 -35q31 -33 30 -71q0 -37 -32 -68q-34 -31 -74 -31q-37 0 -68 33q-30 34 -30 74z" />
<glyph unicode="&#x118;" horiz-adv-x="1122" d="M12 29q0 27 8 34q119 4 148 33q31 31 31 154v821q0 121 -31 151.5t-148 34.5q-8 8 -8 33q0 27 8 35l265 -4h522q59 0 100 8q8 0 8 -6q12 -59 46 -297q-35 -16 -68 -10q-41 127 -82 174q-43 49 -149 49h-216q-37 0 -55 -24.5t-18 -65.5v-410h186q126 0 154 25 q31 27 32 115q10 10 33 10q25 0 35 -10q-4 -164 -4 -177q0 -10 1 -32.5t2 -65.5t1 -82q-10 -10 -35 -10q-23 0 -33 10q-2 53 -12 78q-9 25 -49 43q-41 18 -125 19h-186v-494q0 -88 73 -88h279q195 0 268 268q41 10 72 -10q-23 -143 -76 -338l4 -4q-102 0 -173.5 -78 t-71.5 -154q0 -96 102 -96q29 0 53 13q29 14 39 22t45 43q27 0 39 -22q-86 -133 -225 -134q-180 0 -180 152q0 66 53 141q55 78 141 117h-88h-440q-47 0 -138.5 -1t-128.5 -3q-8 8 -8 33z" />
<glyph unicode="&#x119;" horiz-adv-x="913" d="M76 414q0 215 131 350q129 131 278 131q346 0 346 -356q0 -35 -38 -35l-545 4q0 -172 65 -281q88 -147 224 -147q86 0 141 24q47 20 113 86q35 -4 43 -32q-68 -88 -160 -135q-104 -89 -148 -142q-41 -49 -41 -117q0 -96 103 -96q29 0 53 13q35 16 41 22l43 43 q27 0 39 -22q-86 -133 -225 -134q-180 0 -181 152q0 111 172 240q-14 -2 -45 -2q-203 0 -313 131q-96 113 -96 303zM254 578l371 6q31 0 30 28q0 115 -51 166q-49 49 -119 49q-20 0 -53 -8q-25 -6 -63.5 -28.5t-69.5 -77.5q-29 -53 -45 -135z" />
<glyph unicode="&#x11a;" horiz-adv-x="1122" d="M12 29q0 27 8 34q119 4 148 33q31 31 31 154v821q0 121 -31 151.5t-148 34.5q-8 8 -8 33q0 27 8 35l265 -4h522q59 0 100 8q8 0 8 -6q12 -59 46 -297q-35 -16 -68 -10q-41 127 -82 174q-43 49 -149 49h-216q-37 0 -55 -24.5t-18 -65.5v-410h186q126 0 154 25 q31 27 32 115q10 10 33 10q25 0 35 -10q-4 -164 -4 -177q0 -10 1 -32.5t2 -65.5t1 -82q-10 -10 -35 -10q-23 0 -33 10q-2 53 -12 78q-9 25 -49 43q-41 18 -125 19h-186v-494q0 -88 73 -88h279q195 0 268 268q41 10 72 -10q-25 -166 -76 -342q-217 4 -262 4h-440 q-47 0 -138.5 -1t-128.5 -3q-8 8 -8 33zM342 1622l33 41q115 -49 217 -125q113 80 219 125l31 -41q-96 -72 -205 -195h-88q-68 84 -207 195z" />
<glyph unicode="&#x11b;" horiz-adv-x="913" d="M76 414q0 215 131 350q129 131 278 131q346 0 346 -356q0 -35 -38 -35l-545 4q0 -172 65 -281q88 -147 224 -147q86 0 141 24q53 25 113 86q35 -4 43 -32q-137 -178 -349 -178q-203 0 -313 131q-96 113 -96 303zM201 1292l41 27q152 -113 217 -184q77 80 221 184l39 -27 q-133 -150 -209 -266h-102q-78 129 -207 266zM254 578l371 6q31 0 30 28q0 115 -51 166q-49 49 -119 49q-20 0 -53 -8q-25 -6 -63.5 -28.5t-69.5 -77.5q-29 -53 -45 -135z" />
<glyph unicode="&#x11c;" horiz-adv-x="1421" d="M66 629q0 219 104 385q106 170 262 250q162 84 340 84q141 0 272 -48q127 -45 175 -45q18 -199 45 -315l-70 -12q-47 162 -147 252q-100 92 -304 92q-211 0 -352 -168q-139 -166 -139 -434q0 -104 37 -211t104 -199q66 -90 176 -149q106 -57 240 -58q193 0 297 99v305 q0 58 -37 73q-37 16 -131 25q-8 8 -8 37q0 27 8 37q49 0 109.5 -1t93.5 -2t51 -1t182 4q10 -10 10 -37t-10 -37q-51 -4 -71 -25q-23 -23 -23 -73v-230q0 -33 33 -57q-223 -190 -551 -190q-303 0 -499.5 190.5t-196.5 458.5zM498 1456q90 70 207 199q37 22 79 0 q90 -109 211 -199q-8 -33 -32 -43q-133 61 -218 125q-90 -68 -219 -125q-22 16 -28 43z" />
<glyph unicode="&#x11d;" horiz-adv-x="1024" d="M66 -254q0 145 167 248q-94 45 -94 158q0 57 24.5 114.5t65.5 91.5q-106 100 -106 230q0 137 104 223q106 88 246 88q129 0 213 -57q35 47 98.5 75.5t106.5 28.5q39 0 67 -22q27 -20 27 -54q0 -35 -24 -55q-27 -23 -52 -22q-39 0 -57 36q-16 25 -41 25q-16 0 -43 -16 q-25 -16 -39 -33q88 -88 88 -213q0 -141 -102 -227q-100 -86 -244 -86q-113 0 -186 43q-37 -51 -37 -119q0 -61 39 -88q41 -29 92 -29l61 4q92 10 138 10q217 0 299 -67q90 -74 90 -166q0 -104 -86 -189q-88 -84 -219 -124q-133 -41 -270.5 -41t-231.5 55t-94 178zM207 -213 q0 -94 86 -145q88 -53 160 -54q96 0 186 25q88 25 151.5 78t63.5 123q0 37 -23 65q-20 25 -81 62q-66 35 -248 34q-2 0 -10.5 -1t-22.5 -2t-29 -1q-35 -2 -88 -2q-41 0 -82 11q-63 -76 -63 -193zM211 1063q156 170 227 287q37 10 66 0q82 -129 223 -287q-23 -29 -47 -35 q-123 78 -211 170q-115 -115 -213 -170q-27 6 -45 35zM291 618q0 -57 6 -100t24.5 -86t59.5 -67q37 -23 100 -23q172 0 172 229q0 131 -51 197q-52 68 -147 68q-164 -1 -164 -218z" />
<glyph unicode="&#x11e;" horiz-adv-x="1421" d="M66 629q0 219 104 385q106 170 262 250q162 84 340 84q141 0 272 -48q127 -45 175 -45q18 -199 45 -315l-70 -12q-47 162 -147 252q-100 92 -304 92q-211 0 -352 -168q-139 -166 -139 -434q0 -104 37 -211t104 -199q66 -90 176 -149q106 -57 240 -58q193 0 297 99v305 q0 58 -37 73q-37 16 -131 25q-8 8 -8 37q0 27 8 37q49 0 109.5 -1t93.5 -2t51 -1t182 4q10 -10 10 -37t-10 -37q-51 -4 -71 -25q-23 -23 -23 -73v-230q0 -33 33 -57q-223 -190 -551 -190q-303 0 -499.5 190.5t-196.5 458.5zM483 1651h58q12 -55 75.5 -90t145.5 -35t145 33 q68 35 76 92h57q-10 -104 -90 -168q-82 -63 -188 -64q-115 0 -193 62q-76 61 -86 170z" />
<glyph unicode="&#x11f;" horiz-adv-x="1024" d="M66 -254q0 145 167 248q-94 45 -94 158q0 57 24.5 114.5t65.5 91.5q-106 100 -106 230q0 137 104 223q106 88 246 88q129 0 213 -57q35 47 98.5 75.5t106.5 28.5q39 0 67 -22q27 -20 27 -54q0 -35 -24 -55q-27 -23 -52 -22q-39 0 -57 36q-16 25 -41 25q-16 0 -43 -16 q-25 -16 -39 -33q88 -88 88 -213q0 -141 -102 -227q-100 -86 -244 -86q-113 0 -186 43q-37 -51 -37 -119q0 -61 39 -88q41 -29 92 -29l61 4q92 10 138 10q217 0 299 -67q90 -74 90 -166q0 -104 -86 -189q-88 -84 -219 -124q-133 -41 -270.5 -41t-231.5 55t-94 178zM174 1294 l55 25q14 -80 78 -133q59 -51 144 -51q82 0 143 49q63 49 78 135l55 -25q-18 -129 -98 -202.5t-178 -73.5q-111 0 -183 72q-71 73 -94 204zM207 -213q0 -94 86 -145q88 -53 160 -54q96 0 186 25q88 25 151.5 78t63.5 123q0 37 -23 65q-20 25 -81 62q-66 35 -248 34 q-2 0 -10.5 -1t-22.5 -2t-29 -1q-35 -2 -88 -2q-41 0 -82 11q-63 -76 -63 -193zM291 618q0 -57 6 -100t24.5 -86t59.5 -67q37 -23 100 -23q172 0 172 229q0 131 -51 197q-52 68 -147 68q-164 -1 -164 -218z" />
<glyph unicode="&#x120;" horiz-adv-x="1421" d="M66 629q0 219 104 385q106 170 262 250q162 84 340 84q141 0 272 -48q127 -45 175 -45q18 -199 45 -315l-70 -12q-47 162 -147 252q-100 92 -304 92q-211 0 -352 -168q-139 -166 -139 -434q0 -104 37 -211t104 -199q66 -90 176 -149q106 -57 240 -58q193 0 297 99v305 q0 58 -37 73q-37 16 -131 25q-8 8 -8 37q0 27 8 37q49 0 109.5 -1t93.5 -2t51 -1t182 4q10 -10 10 -37t-10 -37q-51 -4 -71 -25q-23 -23 -23 -73v-230q0 -33 33 -57q-223 -190 -551 -190q-303 0 -499.5 190.5t-196.5 458.5zM664 1540q0 43 32 76q31 31 74 31q45 0 76 -31 t31 -76q0 -43 -31 -74q-33 -33 -76 -32q-41 0 -73.5 32.5t-32.5 73.5z" />
<glyph unicode="&#x121;" horiz-adv-x="1024" d="M66 -254q0 145 167 248q-94 45 -94 158q0 57 24.5 114.5t65.5 91.5q-106 100 -106 230q0 137 104 223q106 88 246 88q129 0 213 -57q35 47 98.5 75.5t106.5 28.5q39 0 67 -22q27 -20 27 -54q0 -35 -24 -55q-27 -23 -52 -22q-39 0 -57 36q-16 25 -41 25q-16 0 -43 -16 q-25 -16 -39 -33q88 -88 88 -213q0 -141 -102 -227q-100 -86 -244 -86q-113 0 -186 43q-37 -51 -37 -119q0 -61 39 -88q41 -29 92 -29l61 4q92 10 138 10q217 0 299 -67q90 -74 90 -166q0 -104 -86 -189q-88 -84 -219 -124q-133 -41 -270.5 -41t-231.5 55t-94 178zM207 -213 q0 -94 86 -145q88 -53 160 -54q96 0 186 25q88 25 151.5 78t63.5 123q0 37 -23 65q-20 25 -81 62q-66 35 -248 34q-2 0 -10.5 -1t-22.5 -2t-29 -1q-35 -2 -88 -2q-41 0 -82 11q-63 -76 -63 -193zM291 618q0 -57 6 -100t24.5 -86t59.5 -67q37 -23 100 -23q172 0 172 229 q0 131 -51 197q-52 68 -147 68q-164 -1 -164 -218zM369 1227q0 37 34.5 67.5t71.5 30.5t68 -35q31 -33 30 -71q0 -37 -32 -68q-34 -31 -74 -31q-37 0 -68 33q-30 34 -30 74z" />
<glyph unicode="&#x122;" horiz-adv-x="1421" d="M66 629q0 219 104 385q106 170 262 250q162 84 340 84q141 0 272 -48q127 -45 175 -45q18 -199 45 -315l-70 -12q-47 162 -147 252q-100 92 -304 92q-211 0 -352 -168q-139 -166 -139 -434q0 -104 37 -211t104 -199q66 -90 176 -149q106 -57 240 -58q193 0 297 99v305 q0 58 -37 73q-37 16 -131 25q-8 8 -8 37q0 27 8 37q49 0 109.5 -1t93.5 -2t51 -1t182 4q10 -10 10 -37t-10 -37q-51 -4 -71 -25q-23 -23 -23 -73v-230q0 -33 33 -57q-223 -190 -551 -190q-303 0 -499.5 190.5t-196.5 458.5zM662 -414q72 16 112.5 47t40.5 62q0 47 -63 53 q-86 15 -86 80q0 39 28 63q28 25 74 25q59 0 92 -47q35 -51 35 -129q0 -84 -61 -137q-59 -49 -156 -66q-16 16 -16 49z" />
<glyph unicode="&#x123;" horiz-adv-x="1024" d="M66 -254q0 145 167 248q-94 45 -94 158q0 57 24.5 114.5t65.5 91.5q-106 100 -106 230q0 137 104 223q106 88 246 88q129 0 213 -57q35 47 98.5 75.5t106.5 28.5q39 0 67 -22q27 -20 27 -54q0 -35 -24 -55q-27 -23 -52 -22q-39 0 -57 36q-16 25 -41 25q-16 0 -43 -16 q-25 -16 -39 -33q88 -88 88 -213q0 -141 -102 -227q-100 -86 -244 -86q-113 0 -186 43q-37 -51 -37 -119q0 -61 39 -88q41 -29 92 -29l61 4q92 10 138 10q217 0 299 -67q90 -74 90 -166q0 -104 -86 -189q-88 -84 -219 -124q-133 -41 -270.5 -41t-231.5 55t-94 178zM207 -213 q0 -94 86 -145q88 -53 160 -54q96 0 186 25q88 25 151.5 78t63.5 123q0 37 -23 65q-20 25 -81 62q-66 35 -248 34q-2 0 -10.5 -1t-22.5 -2t-29 -1q-35 -2 -88 -2q-41 0 -82 11q-63 -76 -63 -193zM291 618q0 -57 6 -100t24.5 -86t59.5 -67q37 -23 100 -23q172 0 172 229 q0 131 -51 197q-52 68 -147 68q-164 -1 -164 -218zM340 1196q0 76 47 135q57 72 170 88q10 -10 10 -41q-78 -14 -118 -55q-39 -39 -39 -82q0 -4 1 -10t1 -8q0 -6 6 -9q4 -2 8 -2h18q4 0 12.5 1t12.5 1q51 0 78 -26q25 -25 24 -58q0 -29 -28 -57q-27 -27 -76 -26 q-59 0 -92 45q-35 47 -35 104z" />
<glyph unicode="&#x124;" horiz-adv-x="1492" d="M29 29q0 25 10 34q119 4 147 33q31 31 31 154v821q0 121 -30.5 151.5t-147.5 34.5q-10 10 -10 33q0 25 10 35q53 0 116.5 -1t97.5 -2t50 -1l266 4q8 -8 9 -35q0 -25 -9 -33q-117 -4 -147.5 -34.5t-30.5 -151.5v-328h701v328q0 121 -31 151.5t-148 34.5q-8 8 -8 33 q0 27 8 35q53 0 116 -1t96.5 -2t52.5 -1l266 4q10 -10 10 -35q0 -23 -10 -33q-113 -4 -146 -34q-33 -33 -32 -152v-821q0 -119 32 -152q29 -29 146 -35q10 -10 10 -34q0 -23 -10 -33q-53 0 -116.5 1t-97.5 2t-50 1l-267 -4q-8 8 -8 33q0 27 8 34q119 4 148 33q31 31 31 154 v407h-701v-407q0 -119 33 -152q29 -29 145 -35q8 -8 9 -34q0 -25 -9 -33q-53 0 -116.5 1t-97 2t-50.5 1l-266 -4q-10 10 -10 33zM504 1452q90 70 207 199q37 22 80 0q90 -109 210 -199q-8 -33 -32 -43q-141 66 -217 125q-90 -68 -220 -125q-22 16 -28 43z" />
<glyph unicode="&#x125;" horiz-adv-x="1087" d="M29 29q0 27 8 34q57 4 74 9q23 6 41 24q23 23 24 54q4 45 4 100v895q0 53 -4 98q-3 34 -24 49q-23 16 -35 17q-4 0 -12.5 1t-25 2t-30.5 1q-25 25 -12 61q193 16 287 56q27 0 26 -21q-8 -74 -8 -215l-2 -461q0 -23 16 -4l4 4q152 166 336 166q119 0 170 -70 q55 -72 56 -274v-305q0 -123 24 -150q25 -29 113 -37q8 -8 8 -34q0 -25 -8 -33q-47 0 -99.5 1t-79 2t-38.5 1q-10 0 -37 -1t-76 -2t-96 -1q-8 8 -8 35q0 25 8 32q86 10 106.5 37t20.5 150v311q0 109 -25 158q-37 74 -108 74q-125 0 -250 -121q-35 -39 -35 -86v-336 q0 -82 10 -123q8 -33 33 -47q16 -10 80 -17q8 -8 8 -34q0 -25 -8 -33q-47 0 -96.5 1t-74 2t-32.5 1l-225 -4q-8 8 -8 33zM295 1511q90 70 207 199q37 22 80 0q90 -109 211 -199q-8 -33 -33 -43q-141 66 -217 125q-90 -68 -219 -125q-23 16 -29 43z" />
<glyph unicode="&#x126;" horiz-adv-x="1492" d="M29 29q0 25 10 34q119 4 147 33q31 31 31 154v799h-133v69h131q-6 92 -39 113q-37 25 -137 26q-10 10 -10 33q0 25 10 35q53 0 116.5 -1t97.5 -2t50 -1l266 4q8 -8 9 -35q0 -25 -9 -33q-102 -2 -139 -26q-33 -20 -39 -113h699q-6 92 -39 113q-37 25 -138 26q-8 8 -8 33 q0 27 8 35q53 0 116 -1t96.5 -2t52.5 -1l266 4q10 -10 10 -35q0 -23 -10 -33q-100 -2 -137 -26q-33 -20 -39 -113h116v-69h-118v-799q0 -119 32 -152q29 -29 146 -35q10 -10 10 -34q0 -23 -10 -33q-53 0 -116.5 1t-97.5 2t-50 1l-267 -4q-8 8 -8 33q0 27 8 34q119 4 148 33 q31 31 31 154v407h-701v-407q0 -119 33 -152q29 -29 145 -35q8 -8 9 -34q0 -25 -9 -33q-53 0 -116.5 1t-97 2t-50.5 1l-266 -4q-10 10 -10 33zM391 743h701v306h-701v-306z" />
<glyph unicode="&#x127;" horiz-adv-x="1087" d="M29 29q0 27 8 34q57 4 74 9q23 6 41 24q23 23 24 54q4 45 4 100v835h-127v80h127q0 27 -6 82q-3 28 -18 43q-12 12 -33 17q-15 3 -55 6h-19q-25 25 -12 61q193 16 287 56q27 0 26 -21q-8 -74 -8 -215v-29h356v-80h-356l-2 -352q0 -23 16 -4l4 4q152 166 336 166 q119 0 170 -70q55 -72 56 -274v-305q0 -123 24 -150q25 -29 113 -37q8 -8 8 -34q0 -25 -8 -33q-47 0 -99.5 1t-79 2t-38.5 1q-10 0 -37 -1t-76 -2t-96 -1q-8 8 -8 35q0 25 8 32q86 10 106.5 37t20.5 150v311q0 109 -25 158q-37 74 -108 74q-125 0 -250 -121q-35 -39 -35 -86 v-336q0 -82 10 -123q8 -33 33 -47q16 -10 80 -17q8 -8 8 -34q0 -25 -8 -33q-47 0 -96.5 1t-74 2t-32.5 1l-225 -4q-8 8 -8 33z" />
<glyph unicode="&#x128;" horiz-adv-x="606" d="M18 1432q47 201 164 200q12 0 33 -4q16 -4 35 -12q8 -4 26 -17l29 -20q8 -6 19 -12l6 -4q51 -39 106 -39q33 0 56 22q20 18 40 84q34 3 56 -12q-40 -203 -178 -203q-16 0 -25 2q-14 4 -29 13q-4 2 -12 7t-12 7q-2 2 -11.5 9t-15.5 11q-23 14 -26 17q-63 39 -111 39 q-41 0 -59 -23q-20 -25 -35 -76q-40 -5 -56 11zM29 29q0 25 10 34q119 4 147 33q31 31 31 154v821q0 121 -30.5 151.5t-147.5 34.5q-10 10 -10 33q0 25 10 35q53 0 116.5 -1t97.5 -2t50 -1l266 4q8 -8 9 -35q0 -25 -9 -33q-117 -4 -147.5 -34.5t-30.5 -151.5v-821 q0 -119 33 -152q29 -29 145 -35q8 -8 9 -34q0 -25 -9 -33q-53 0 -116.5 1t-97 2t-50.5 1l-266 -4q-10 10 -10 33z" />
<glyph unicode="&#x129;" horiz-adv-x="552" d="M0 1081q43 201 147 201q10 0 31 -4q15 -3 31 -12q8 -4 14 -8.5t10 -6.5q10 -6 27 -20q12 -10 21 -19q49 -39 96 -38q31 0 49 22q23 27 39 84q27 2 47 -12q-18 -96 -57 -149.5t-103 -53.5q-6 0 -22.5 4t-24.5 10q-4 4 -12 9.5t-10 5.5q-4 2 -10.5 8t-14.5 12 q-16 14 -22 16q-57 39 -101 39q-33 0 -51 -22q-16 -20 -33 -76q-37 -6 -51 10zM53 29q0 27 8 34q100 10 123 35q25 29 25 152v399q0 88 -23 109q-25 22 -110 30q-12 37 -4 58q188 25 280 59q27 0 27 -14q-8 -117 -8 -234v-407q0 -123 24.5 -151.5t122.5 -35.5q10 -10 10 -34 q0 -23 -10 -33q-45 0 -99 1t-84 2t-44 1l-230 -4q-8 8 -8 33z" />
<glyph unicode="&#x12a;" horiz-adv-x="606" d="M29 29q0 25 10 34q119 4 147 33q31 31 31 154v821q0 121 -30.5 151.5t-147.5 34.5q-10 10 -10 33q0 25 10 35q53 0 116.5 -1t97.5 -2t50 -1l266 4q8 -8 9 -35q0 -25 -9 -33q-117 -4 -147.5 -34.5t-30.5 -151.5v-821q0 -119 33 -152q29 -29 145 -35q8 -8 9 -34 q0 -25 -9 -33q-53 0 -116.5 1t-97 2t-50.5 1l-266 -4q-10 10 -10 33zM37 1563q0 23 14 43q16 23 31 22h461q29 0 28 -35q0 -16 -16 -43q-14 -25 -33 -24h-459q-26 0 -26 37z" />
<glyph unicode="&#x12b;" horiz-adv-x="552" d="M14 1098q0 22 13 43q12 23 26 22h416q12 0 18 -12q8 -16 9 -23q0 -20 -15 -43q-14 -25 -30 -24h-414q-10 0 -16.5 12.5t-6.5 24.5zM53 29q0 27 8 34q100 10 123 35q25 29 25 152v399q0 88 -23 109q-25 22 -110 30q-12 37 -4 58q188 25 280 59q27 0 27 -14 q-8 -117 -8 -234v-407q0 -123 24.5 -151.5t122.5 -35.5q10 -10 10 -34q0 -23 -10 -33q-45 0 -99 1t-84 2t-44 1l-230 -4q-8 8 -8 33z" />
<glyph unicode="&#x12c;" horiz-adv-x="606" d="M27 1649h57q12 -55 74 -90q63 -35 147 -35q82 0 146 32q68 35 75 93h58q-10 -104 -90 -168q-82 -63 -189 -64q-117 0 -192.5 61.5t-85.5 170.5zM29 29q0 25 10 34q119 4 147 33q31 31 31 154v821q0 121 -30.5 151.5t-147.5 34.5q-10 10 -10 33q0 25 10 35q53 0 116.5 -1 t97.5 -2t50 -1l266 4q8 -8 9 -35q0 -25 -9 -33q-117 -4 -147.5 -34.5t-30.5 -151.5v-821q0 -119 33 -152q29 -29 145 -35q8 -8 9 -34q0 -25 -9 -33q-53 0 -116.5 1t-97 2t-50.5 1l-266 -4q-10 10 -10 33z" />
<glyph unicode="&#x12d;" horiz-adv-x="552" d="M8 1307l49 24q14 -82 70 -133q53 -51 129 -51t131 49q53 47 70 135l49 -24q-14 -123 -90 -201q-74 -76 -160 -76q-94 0 -162 74t-86 203zM53 29q0 27 8 34q100 10 123 35q25 29 25 152v399q0 88 -23 109q-25 22 -110 30q-12 37 -4 58q188 25 280 59q27 0 27 -14 q-8 -117 -8 -234v-407q0 -123 24.5 -151.5t122.5 -35.5q10 -10 10 -34q0 -23 -10 -33q-45 0 -99 1t-84 2t-44 1l-230 -4q-8 8 -8 33z" />
<glyph unicode="&#x12e;" horiz-adv-x="606" d="M29 29q0 25 10 34q119 4 147 33q31 31 31 154v821q0 121 -30.5 151.5t-147.5 34.5q-10 10 -10 33q0 25 10 35q53 0 116.5 -1t97.5 -2t50 -1l266 4q8 -8 9 -35q0 -25 -9 -33q-117 -4 -147.5 -34.5t-30.5 -151.5v-821q0 -119 33 -152q29 -29 145 -35q8 -8 9 -34 q0 -25 -9 -33h-24q-6 0 -14.5 1t-10.5 1q-98 0 -172 -80q-72 -78 -72 -154q0 -96 103 -96q43 0 70 19q25 16 67 59q27 0 39 -22q-86 -133 -225 -134q-180 0 -180 152q0 70 55 143q57 78 141 115h-18h-23l-266 -4q-10 10 -10 33z" />
<glyph unicode="&#x12f;" horiz-adv-x="552" d="M53 29q0 27 8 34q100 10 123 35q25 29 25 152v399q0 88 -23 109q-25 22 -110 30q-12 37 -4 58q188 25 280 59q27 0 27 -14q-8 -117 -8 -234v-407q0 -123 24.5 -151.5t122.5 -35.5q10 -10 10 -34q0 -23 -10 -33h-20q-102 0 -174 -78t-72 -154q0 -96 102 -96q43 0 70 19 q25 16 68 59q27 0 38 -22q-86 -133 -225 -134q-180 0 -180 152q0 70 53 143.5t144 114.5h-31l-230 -4q-8 8 -8 33zM184 1227q0 37 35 67.5t72 30.5q39 0 69 -35q29 -31 29 -71q0 -37 -33 -68q-34 -31 -73 -31q-37 0 -68 33q-31 34 -31 74z" />
<glyph unicode="&#x130;" horiz-adv-x="606" d="M29 29q0 25 10 34q119 4 147 33q31 31 31 154v821q0 121 -30.5 151.5t-147.5 34.5q-10 10 -10 33q0 25 10 35q53 0 116.5 -1t97.5 -2t50 -1l266 4q8 -8 9 -35q0 -25 -9 -33q-117 -4 -147.5 -34.5t-30.5 -151.5v-821q0 -119 33 -152q29 -29 145 -35q8 -8 9 -34 q0 -25 -9 -33q-53 0 -116.5 1t-97 2t-50.5 1l-266 -4q-10 10 -10 33zM193 1536q0 41 32.5 73.5t73.5 32.5q43 0 76 -32q31 -31 31 -74t-31 -74q-33 -33 -76 -32q-41 0 -73.5 32.5t-32.5 73.5z" />
<glyph unicode="&#x131;" horiz-adv-x="552" d="M53 29q0 27 8 34q100 10 123 35q25 29 25 152v399q0 88 -23 109q-25 22 -110 30q-12 37 -4 58q188 25 280 59q27 0 27 -14q-8 -117 -8 -234v-407q0 -123 24.5 -151.5t122.5 -35.5q10 -10 10 -34q0 -23 -10 -33q-45 0 -99 1t-84 2t-44 1l-230 -4q-8 8 -8 33z" />
<glyph unicode="&#x132;" horiz-adv-x="1222" d="M29 29q0 25 10 34q119 4 147 33q31 31 31 154v821q0 121 -30.5 151.5t-147.5 34.5q-10 10 -10 33q0 25 10 35q53 0 116.5 -1t97.5 -2t50 -1l266 4q8 -8 9 -35q0 -25 -9 -33q-117 -4 -147.5 -34.5t-30.5 -151.5v-821q0 -119 33 -152q29 -29 145 -35q8 -8 9 -34 q0 -25 -9 -33q-53 0 -116.5 1t-97 2t-50.5 1l-266 -4q-10 10 -10 33zM440 -242q0 33 33 60q35 29 57 28q25 0 39 -8l12 -6q10 -5 13 -8q4 -4 14 -24.5t15 -22.5q29 -37 71.5 -37t75.5 27q37 29 66 127q33 109 32 272v905q0 121 -34 152q-35 33 -164 34q-10 10 -11 33 q0 27 11 35q274 -4 284 -4q12 0 44 1t90.5 2t111.5 1q8 -8 8 -35q0 -25 -8 -33q-96 -2 -129 -34q-29 -29 -29 -152v-860q0 -104 -18 -184q-18 -78 -55 -138q-39 -61 -64 -86q-41 -41 -71 -67q-100 -88 -240 -88q-45 0 -100 30q-54 29 -54 80z" />
<glyph unicode="&#x133;" horiz-adv-x="1107" d="M53 29q0 27 8 34q100 10 123 35q25 29 25 152v399q0 88 -23 109q-25 22 -110 30q-12 37 -4 58q188 25 280 59q27 0 27 -14q-8 -117 -8 -234v-407q0 -123 24.5 -151.5t122.5 -35.5q10 -10 10 -34q0 -23 -10 -33q-45 0 -99 1t-84 2t-44 1l-230 -4q-8 8 -8 33zM184 1227 q0 37 35 67.5t72 30.5q39 0 69 -35q29 -31 29 -71q0 -37 -33 -68q-34 -31 -73 -31q-37 0 -68 33q-31 34 -31 74zM455 -369q0 27 24 52q27 27 41 26q8 0 21 -4q2 0 8 -1t8 -3q12 -6 18.5 -10t12.5 -10l4 -6q4 -5 8 -9l10 -10q23 -23 64 -23q68 0 90 136q20 129 20 387v493 q0 88 -24 109q-25 23 -109 30q-12 37 -4 58q190 25 281 59q27 0 26 -14q-8 -117 -8 -234v-432q0 -270 -39 -413q-37 -133 -114 -199q-82 -70 -226 -70q-43 0 -75 23q-37 24 -37 65zM756 1237q0 37 35 68q33 31 71.5 30.5t69.5 -35.5q29 -31 29 -71q0 -37 -33 -68 q-34 -31 -74 -31q-37 0 -68 33q-30 34 -30 74z" />
<glyph unicode="&#x134;" horiz-adv-x="555" d="M-139 -242q0 33 33 60q35 29 57 28q25 0 39 -8q20 -12 22 -14q8 -8 16.5 -24.5t14.5 -22.5q27 -37 72 -37q43 0 75 27q37 29 66 127q33 109 33 272v905q0 121 -35 152q-35 33 -164 34q-8 8 -8 33q0 27 8 35q274 -4 285 -4q12 0 44 1t90 2t112 1q10 -10 10 -35 q0 -23 -10 -33q-94 -2 -127 -34q-31 -31 -31 -152v-860q0 -104 -19 -184q-18 -78 -55 -138q-39 -61 -63 -86q-41 -41 -72 -67q-100 -88 -240 -88q-45 0 -100 30q-53 29 -53 80zM117 1456q90 70 207 199q37 22 79 0q90 -109 211 -199q-8 -33 -32 -43q-141 66 -217 125 q-90 -68 -220 -125q-22 16 -28 43z" />
<glyph unicode="&#x135;" horiz-adv-x="555" d="M-98 -369q0 27 24 52q27 27 41 26q8 0 21 -4q2 0 8 -1t8 -3q4 -2 16.5 -10t14.5 -10l4 -6q4 -5 8 -9l10 -10q23 -23 64 -23q68 0 90 136q20 129 20 387v493q0 88 -24 109q-25 23 -109 30q-12 37 -4 58q190 25 281 59q27 0 26 -14q-8 -117 -8 -234v-432q0 -270 -39 -413 q-37 -133 -114 -199q-82 -70 -226 -70q-43 0 -75 23q-37 24 -37 65zM49 1061q156 170 227 287q37 10 66 0q82 -129 223 -287q-23 -29 -47 -35q-123 78 -211 170q-115 -115 -213 -170q-27 6 -45 35z" />
<glyph unicode="&#x136;" horiz-adv-x="1302" d="M29 29q0 25 10 34q119 4 147 33q31 31 31 154v821q0 121 -30.5 151.5t-147.5 34.5q-10 10 -10 33q0 25 10 35q53 0 116.5 -1t97.5 -2t50 -1l266 4q8 -8 9 -35q0 -25 -9 -33q-117 -4 -147.5 -34.5t-30.5 -151.5v-360q88 6 156 80l344 360q29 31 35 45q8 16 12 29 q4 10 -12.5 16t-20.5 10l-37 4q-23 2 -34 2q-10 10 -11 33q0 27 11 35q53 0 108 -1t84 -2t39 -1h8q8 0 24.5 1t38 1t54.5 1t70 1q10 -10 10 -35q0 -23 -10 -33q-10 0 -19 -2q-49 -6 -82 -12q-27 -6 -78 -31q-43 -23 -88 -69l-286 -309q-76 -82 -76 -101q0 -27 24 -51 l449 -532q27 -31 41 -41q25 -18 43 -25l35 -12q12 -3 37 -6l24 -3q10 -10 10 -34q0 -23 -10 -33q-55 0 -105.5 1t-74 2t-27.5 1q-27 0 -137 -4q-10 0 -10 12q0 90 -41 142l-334 405q-59 76 -164 78v-383q0 -119 33 -152q29 -29 145 -35q8 -8 9 -34q0 -25 -9 -33 q-53 0 -116.5 1t-97 2t-50.5 1l-266 -4q-10 10 -10 33zM614 -414q72 16 113 47t41 62q0 47 -63 53q-86 15 -87 80q0 39 29 63q28 25 74 25q59 0 92 -47q35 -51 35 -129q0 -86 -60 -137q-57 -49 -157 -66q-17 16 -17 49z" />
<glyph unicode="&#x137;" horiz-adv-x="985" d="M29 29q0 25 10 34q86 6 113 35q25 29 24 152v895q0 53 -4 98q-3 34 -25 49q-23 16 -34 17q-4 0 -12.5 1t-25 2t-30.5 1q-25 25 -12 61q193 16 286 56q27 0 27 -21q-8 -74 -8 -215v-709q78 20 264 226q2 2 21 26q10 14 16 31q6 18 -12 31q-20 14 -62 16q-8 8 -8 32.5 t8 35.5q41 0 85 -1t68.5 -2t35.5 -1q8 0 29.5 1t64.5 2t84 1q10 -10 10 -35q0 -23 -10 -33q-141 -6 -225 -90l-156 -172q-8 -8 -8 -20.5t10 -28.5l240 -354q31 -45 71 -62q40 -15 105 -25q10 -10 10 -34q0 -23 -10 -33q-164 4 -168 4q-31 0 -142 -4q-8 0 -8 10v33 q0 41 -47 111l-149 210q-27 41 -53.5 57.5t-63.5 16.5v-184q0 -115 20 -150q18 -31 86 -37q10 -10 10.5 -34.5t-10.5 -32.5q-51 0 -96 1t-66.5 2t-23.5 1q-14 0 -42 -1t-80 -2t-97 -1q-10 10 -10 33zM438 -414q72 16 113 47t41 62q0 47 -64 53q-86 15 -86 80q0 39 29 63 q28 25 74 25q59 0 92 -47q35 -51 35 -129q0 -86 -60 -137q-57 -49 -157 -66q-17 16 -17 49z" />
<glyph unicode="&#x138;" horiz-adv-x="999" d="M41 29q0 27 8 34q100 10 123 35q25 29 25 152v399q0 88 -23 109q-25 22 -111 30q-12 37 -4 58q182 25 281 59q27 0 27 -14q-8 -117 -9 -234v-170q84 31 258 224q2 2 21 26q10 14 16 31q6 18 -12 31q-20 14 -61 16q-10 10 -11 33q0 25 11 35q41 0 85 -1t68.5 -2t34.5 -1 q8 0 29.5 1t64.5 2t84 1q8 -8 8 -35q0 -25 -8 -33q-141 -6 -225 -90l-156 -172q-8 -8 -8 -20.5t10 -28.5l240 -354q31 -45 72 -62q40 -15 104 -25q8 -8 8 -34q0 -25 -8 -33q-164 4 -168 4q-31 0 -141 -4q-8 0 -8 10v33q0 45 -48 111l-149 210q-29 41 -51 56q-25 14 -60 18 v-184q0 -123 19 -150q18 -29 88 -37q10 -10 10 -34q0 -23 -10 -33q-51 0 -96 1t-66.5 2t-23.5 1l-230 -4q-8 8 -8 33z" />
<glyph unicode="&#x139;" horiz-adv-x="1075" d="M25 29q0 25 10 34q119 4 147 33q31 31 31 154v821q0 121 -30.5 151.5t-147.5 34.5q-10 10 -10 33q0 25 10 35q53 0 116.5 -1t97.5 -2t50 -1l266 4q8 -8 8 -35q0 -25 -8 -33q-117 -4 -147.5 -34.5t-30.5 -151.5v-889q0 -47 25 -76q25 -27 71 -26h232q102 0 159 70 q55 68 93 198q35 6 67 -10q-25 -205 -53 -342q-49 0 -107.5 1t-89 2t-47.5 1h-436q-47 0 -138 -1t-128 -3q-10 10 -10 33zM109 1458q0 22 30 43l254 176q84 -37 127 -106l-295 -119q-58 -25 -86 -25q-30 0 -30 31z" />
<glyph unicode="&#x13a;" horiz-adv-x="538" d="M37 29q0 25 10 34q98 4 123 33q25 31 25 154v895q0 76 -2 98q-2 33 -27 49q-23 16 -35 17q-4 0 -12 1t-24.5 2t-31.5 1q-25 25 -12 61q193 16 287 56q27 0 27 -21q-8 -74 -9 -215v-944q0 -119 27 -152q23 -29 121 -35q8 -8 8 -34q0 -25 -8 -33q-45 0 -99.5 1t-84 2 t-44.5 1l-229 -4q-10 10 -10 33zM131 1516q0 22 31 43l254 176q84 -37 127 -107l-295 -119q-58 -25 -86 -24q-31 0 -31 31z" />
<glyph unicode="&#x13b;" horiz-adv-x="1075" d="M25 29q0 25 10 34q119 4 147 33q31 31 31 154v821q0 121 -30.5 151.5t-147.5 34.5q-10 10 -10 33q0 25 10 35q53 0 116.5 -1t97.5 -2t50 -1l266 4q8 -8 8 -35q0 -25 -8 -33q-117 -4 -147.5 -34.5t-30.5 -151.5v-889q0 -47 25 -76q25 -27 71 -26h232q102 0 159 70 q55 68 93 198q35 6 67 -10q-25 -205 -53 -342q-49 0 -107.5 1t-89 2t-47.5 1h-436q-47 0 -138 -1t-128 -3q-10 10 -10 33zM461 -414q72 16 112.5 47t40.5 62q0 47 -63 53q-86 15 -86 80q0 39 29 63q28 25 73 25q59 0 92 -47q35 -51 35 -129q0 -84 -61 -137q-59 -49 -156 -66 q-16 16 -16 49z" />
<glyph unicode="&#x13c;" horiz-adv-x="538" d="M37 29q0 25 10 34q98 4 123 33q25 31 25 154v895q0 76 -2 98q-2 33 -27 49q-23 16 -35 17q-4 0 -12 1t-24.5 2t-31.5 1q-25 25 -12 61q193 16 287 56q27 0 27 -21q-8 -74 -9 -215v-944q0 -119 27 -152q23 -29 121 -35q8 -8 8 -34q0 -25 -8 -33q-45 0 -99.5 1t-84 2 t-44.5 1l-229 -4q-10 10 -10 33zM164 -414q72 16 112.5 47t40.5 62q0 47 -63 53q-86 15 -86 80q0 39 29 63q28 25 73 25q59 0 92 -47q35 -51 35 -129q0 -84 -61 -137q-59 -49 -156 -66q-16 16 -16 49z" />
<glyph unicode="&#x13d;" horiz-adv-x="1075" d="M25 29q0 25 10 34q119 4 147 33q31 31 31 154v821q0 121 -30.5 151.5t-147.5 34.5q-10 10 -10 33q0 25 10 35q53 0 116.5 -1t97.5 -2t50 -1l266 4q8 -8 8 -35q0 -25 -8 -33q-117 -4 -147.5 -34.5t-30.5 -151.5v-889q0 -47 25 -76q25 -27 71 -26h232q102 0 159 70 q55 68 93 198q35 6 67 -10q-25 -205 -53 -342q-49 0 -107.5 1t-89 2t-47.5 1h-436q-47 0 -138 -1t-128 -3q-10 10 -10 33zM723 1098q61 12 94 55q35 45 35 86q0 43 -29 43q-94 0 -94 78q0 29 22.5 49.5t67.5 20.5q55 0 88 -46q35 -47 35 -104q0 -68 -55 -137 q-55 -71 -154 -80z" />
<glyph unicode="&#x13e;" horiz-adv-x="591" d="M37 29q0 25 10 34q98 4 123 33q25 31 25 154v895q0 76 -2 98q-2 33 -27 49q-23 16 -35 17q-4 0 -12 1t-24.5 2t-31.5 1q-25 25 -12 61q193 16 287 56q27 0 27 -21q-8 -74 -9 -215v-944q0 -119 27 -152q23 -29 121 -35q8 -8 8 -34q0 -25 -8 -33q-45 0 -99.5 1t-84 2 t-44.5 1l-229 -4q-10 10 -10 33zM446 1098q61 12 95 55q35 45 34 86q0 43 -28 43q-94 0 -94 78q0 28 24 49q23 20 66 21q57 0 90 -45.5t33 -104.5q0 -68 -56 -137q-55 -71 -153 -80z" />
<glyph unicode="&#x13f;" horiz-adv-x="1075" d="M25 29q0 25 10 34q119 4 147 33q31 31 31 154v821q0 121 -30.5 151.5t-147.5 34.5q-10 10 -10 33q0 25 10 35q53 0 116.5 -1t97.5 -2t50 -1l266 4q8 -8 8 -35q0 -25 -8 -33q-117 -4 -147.5 -34.5t-30.5 -151.5v-889q0 -47 25 -76q25 -27 71 -26h232q102 0 159 70 q55 68 93 198q35 6 67 -10q-25 -205 -53 -342q-49 0 -107.5 1t-89 2t-47.5 1h-436q-47 0 -138 -1t-128 -3q-10 10 -10 33zM592 686q0 45 30.5 76t75.5 31q43 0 74 -31q33 -33 33 -76q0 -41 -33 -73.5t-74 -32.5q-43 0 -75 32q-31 31 -31 74z" />
<glyph unicode="&#x140;" horiz-adv-x="538" d="M37 29q0 25 10 34q98 4 123 33q25 31 25 154v895q0 76 -2 98q-2 33 -27 49q-23 16 -35 17q-4 0 -12 1t-24.5 2t-31.5 1q-25 25 -12 61q193 16 287 56q27 0 27 -21q-8 -74 -9 -215v-944q0 -119 27 -152q23 -29 121 -35q8 -8 8 -34q0 -25 -8 -33q-45 0 -99.5 1t-84 2 t-44.5 1l-229 -4q-10 10 -10 33zM436 737q0 37 29 70q27 31 70 31q39 0 67.5 -29t28.5 -72q0 -39 -29 -67.5t-67 -28.5q-43 0 -72 29q-27 26 -27 67z" />
<glyph unicode="&#x141;" horiz-adv-x="1075" d="M10 563l203 117v391q0 121 -30.5 151.5t-147.5 34.5q-10 10 -10 33q0 25 10 35q53 0 116.5 -1t97.5 -2t50 -1l266 4q8 -8 8 -35q0 -25 -8 -33q-117 -4 -147.5 -34.5t-30.5 -151.5v-293l248 142l37 -62l-285 -164v-512q0 -47 25 -76q25 -27 71 -26h232q102 0 159 70 q55 68 93 198q35 6 67 -10q-25 -205 -53 -342q-49 0 -107.5 1t-89 2t-47.5 1h-436q-47 0 -138 -1t-128 -3q-10 10 -10 33q0 25 10 34q119 4 147 33q31 31 31 154v346l-166 -96z" />
<glyph unicode="&#x142;" horiz-adv-x="538" d="M12 612l183 107v426q0 76 -2 98q-2 33 -27 49q-23 16 -35 17q-4 0 -12 1t-24.5 2t-31.5 1q-25 25 -12 61q193 16 287 56q27 0 27 -21q-8 -74 -9 -215v-381l142 84l34 -61l-176 -103v-483q0 -119 27 -152q23 -29 121 -35q8 -8 8 -34q0 -25 -8 -33q-45 0 -99.5 1t-84 2 t-44.5 1l-229 -4q-10 10 -10 33q0 25 10 34q98 4 123 33q25 31 25 154v389l-148 -86z" />
<glyph unicode="&#x143;" horiz-adv-x="1429" d="M20 29q0 27 11 34q119 12 147 46q31 35 31 163v854q-9 46 -55 86q-49 43 -107 45q-10 10 -10 33q0 25 10 35l277 -4l702 -905l31 -41q20 -29 24 -33q4 -6 9.5 -10t9.5 -10q2 -2 5 -6.5t5 -6.5t4 -2q8 -4 10 -4q14 0 15 62v684q0 74 -6 110q-6 35 -31 58q-27 23 -51 28 q-29 6 -90 12q-10 10 -11 33q0 27 11 35q59 0 113 -1t81 -2t33 -1q8 0 35.5 1t82 2t111.5 1q8 -8 8 -35q0 -25 -8 -33q-119 -12 -147 -45q-31 -33 -31 -163v-1006q0 -63 -47 -63q-45 0 -82 49l-715 903q-51 68 -69 67q-16 0 -17 -100v-627q0 -74 6 -110q6 -35 31 -58 q27 -23 51 -28q29 -6 90 -13q8 -8 9 -34q0 -25 -9 -33q-59 0 -113.5 1t-81 2t-32.5 1q-8 0 -35.5 -1t-82 -2t-111.5 -1q-11 10 -11 33zM500 1460q0 22 30 43l254 176q84 -37 127 -106l-295 -119q-58 -25 -86 -24q-30 -1 -30 30z" />
<glyph unicode="&#x144;" horiz-adv-x="1095" d="M45 29q0 27 8 34q96 10 119 35q25 29 25 152v399q0 88 -23 109q-25 22 -111 30q-12 37 -4 58q193 27 283 59q25 0 25 -16q-10 -106 -11 -156q0 -27 21 0q90 100 162 131q80 35 161 35q119 0 170 -70q55 -74 56 -274v-305q0 -123 24 -150q25 -29 113 -37q8 -8 8 -34 q0 -25 -8 -33q-47 0 -99.5 1t-79 2t-38.5 1q-10 0 -37 -1t-76 -2t-96 -1q-8 8 -8 35q0 25 8 32q86 10 106.5 37t20.5 150v311q0 109 -25 158q-39 74 -108 74q-111 0 -238 -121q-35 -41 -35 -86v-336q0 -123 21 -150q23 -29 102 -37q10 -10 10.5 -34.5t-10.5 -32.5 q-47 0 -96 1t-73.5 2t-32.5 1l-226 -4q-8 8 -8 33zM465 1073q0 18 22 57l156 244q16 4 29 4q61 0 112 -47l7 -22l-236 -224q-39 -39 -61 -38q-10 0 -19 8q-10 10 -10 18z" />
<glyph unicode="&#x145;" horiz-adv-x="1429" d="M20 29q0 27 11 34q119 12 147 46q31 35 31 163v854q-9 46 -55 86q-49 43 -107 45q-10 10 -10 33q0 25 10 35l277 -4l702 -905l31 -41q20 -29 24 -33q4 -6 9.5 -10t9.5 -10q2 -2 5 -6.5t5 -6.5t4 -2q8 -4 10 -4q14 0 15 62v684q0 74 -6 110q-6 35 -31 58q-27 23 -51 28 q-29 6 -90 12q-10 10 -11 33q0 27 11 35q59 0 113 -1t81 -2t33 -1q8 0 35.5 1t82 2t111.5 1q8 -8 8 -35q0 -25 -8 -33q-119 -12 -147 -45q-31 -33 -31 -163v-1006q0 -63 -47 -63q-45 0 -82 49l-715 903q-51 68 -69 67q-16 0 -17 -100v-627q0 -74 6 -110q6 -35 31 -58 q27 -23 51 -28q29 -6 90 -13q8 -8 9 -34q0 -25 -9 -33q-59 0 -113.5 1t-81 2t-32.5 1q-8 0 -35.5 -1t-82 -2t-111.5 -1q-11 10 -11 33zM627 -414q72 16 112.5 47t40.5 62q0 47 -63 53q-86 15 -86 80q0 39 28 63q28 25 74 25q59 0 92 -47q35 -51 35 -129q0 -84 -61 -137 q-59 -49 -156 -66q-16 16 -16 49z" />
<glyph unicode="&#x146;" horiz-adv-x="1095" d="M45 29q0 27 8 34q96 10 119 35q25 29 25 152v399q0 88 -23 109q-25 22 -111 30q-12 37 -4 58q193 27 283 59q25 0 25 -16q-10 -106 -11 -156q0 -27 21 0q90 100 162 131q80 35 161 35q119 0 170 -70q55 -74 56 -274v-305q0 -123 24 -150q25 -29 113 -37q8 -8 8 -34 q0 -25 -8 -33q-47 0 -99.5 1t-79 2t-38.5 1q-10 0 -37 -1t-76 -2t-96 -1q-8 8 -8 35q0 25 8 32q86 10 106.5 37t20.5 150v311q0 109 -25 158q-39 74 -108 74q-111 0 -238 -121q-35 -41 -35 -86v-336q0 -123 21 -150q23 -29 102 -37q10 -10 10.5 -34.5t-10.5 -32.5 q-47 0 -96 1t-73.5 2t-32.5 1l-226 -4q-8 8 -8 33zM428 -414q72 16 113 47t41 62q0 47 -64 53q-86 15 -86 80q0 39 29 63q28 25 74 25q59 0 92 -47q35 -51 35 -129q0 -86 -60 -137q-59 -49 -158 -66q-16 16 -16 49z" />
<glyph unicode="&#x147;" horiz-adv-x="1429" d="M20 29q0 27 11 34q119 12 147 46q31 35 31 163v854q-9 46 -55 86q-49 43 -107 45q-10 10 -10 33q0 25 10 35l277 -4l702 -905l31 -41q20 -29 24 -33q4 -6 9.5 -10t9.5 -10q2 -2 5 -6.5t5 -6.5t4 -2q8 -4 10 -4q14 0 15 62v684q0 74 -6 110q-6 35 -31 58q-27 23 -51 28 q-29 6 -90 12q-10 10 -11 33q0 27 11 35q59 0 113 -1t81 -2t33 -1q8 0 35.5 1t82 2t111.5 1q8 -8 8 -35q0 -25 -8 -33q-119 -12 -147 -45q-31 -33 -31 -163v-1006q0 -63 -47 -63q-45 0 -82 49l-715 903q-51 68 -69 67q-16 0 -17 -100v-627q0 -74 6 -110q6 -35 31 -58 q27 -23 51 -28q29 -6 90 -13q8 -8 9 -34q0 -25 -9 -33q-59 0 -113.5 1t-81 2t-32.5 1q-8 0 -35.5 -1t-82 -2t-111.5 -1q-11 10 -11 33zM471 1622l33 41q115 -49 217 -125q113 80 219 125l31 -41q-96 -72 -205 -195h-88q-68 84 -207 195z" />
<glyph unicode="&#x148;" horiz-adv-x="1095" d="M45 29q0 27 8 34q96 10 119 35q25 29 25 152v399q0 88 -23 109q-25 22 -111 30q-12 37 -4 58q193 27 283 59q25 0 25 -16q-10 -106 -11 -156q0 -27 21 0q90 100 162 131q80 35 161 35q119 0 170 -70q55 -74 56 -274v-305q0 -123 24 -150q25 -29 113 -37q8 -8 8 -34 q0 -25 -8 -33q-47 0 -99.5 1t-79 2t-38.5 1q-10 0 -37 -1t-76 -2t-96 -1q-8 8 -8 35q0 25 8 32q86 10 106.5 37t20.5 150v311q0 109 -25 158q-39 74 -108 74q-111 0 -238 -121q-35 -41 -35 -86v-336q0 -123 21 -150q23 -29 102 -37q10 -10 10.5 -34.5t-10.5 -32.5 q-47 0 -96 1t-73.5 2t-32.5 1l-226 -4q-8 8 -8 33zM297 1296l41 27q152 -113 217 -184q77 80 221 184l39 -27q-133 -150 -209 -266h-102q-78 129 -207 266z" />
<glyph unicode="&#x149;" horiz-adv-x="1095" d="M51 1098q61 12 94 55q35 45 35 86q0 43 -28 43q-94 0 -95 78q0 29 22.5 49.5t67.5 20.5q55 0 89 -46q35 -47 34 -104q0 -68 -55 -137q-55 -71 -154 -80zM70 29q0 25 10 34q96 10 119 35q25 29 24 152v399q0 88 -24 109q-25 23 -109 30q-12 37 -4 58q193 27 283 59 q25 0 24 -16q-10 -106 -10 -156q0 -27 20 0q90 100 162 131q80 35 162 35q119 0 170 -70q55 -74 55 -274v-305q0 -125 23 -150q25 -29 115 -37q8 -8 8 -34q0 -25 -8 -33q-47 0 -98.5 1t-79 2t-40.5 1q-10 0 -36.5 -1t-75.5 -2t-96 -1q-8 8 -9 35q0 25 9 32q86 10 106.5 37 t20.5 150v311q0 109 -25 158q-41 74 -109 74q-113 0 -237 -121q-35 -41 -35 -86v-336q0 -123 21 -150q23 -29 102 -37q8 -8 8 -34q0 -25 -8 -33q-47 0 -96.5 1t-74 2t-32.5 1l-225 -4q-10 10 -10 33z" />
<glyph unicode="&#x14a;" horiz-adv-x="1421" d="M23 0v37q0 14 26 18l53 4q111 10 111 121v946q-8 45 -51 91q-43 47 -88 49q-35 4 -35 16v37l6 4h279l702 -907q88 -113 102.5 -113t14.5 62v776q0 113 -111 121l-53 4q-29 4 -29 16v39l8 2q102 -2 228 -2l227 2l4 -2v-39q0 -12 -16 -16l-55 -4q-111 -8 -111 -121v-942 q-4 -190 -45 -299q-43 -113 -137 -185q-94 -80 -234 -80q-40 0 -86 31q-45 31 -45 80q0 33 26.5 53.5t51.5 20.5q66 0 106 -56q29 -37 58 -36q23 0 47 14q20 12 40.5 47t33.5 111q8 55 16 182l-672 850q-51 68 -69 67q-20 0 -21 -100v-719q0 -113 113 -121l53 -4 q16 -4 16 -16v-39l-4 -4q-193 4 -227 4l-229 -4z" />
<glyph unicode="&#x14b;" horiz-adv-x="1052" d="M43 0v39q0 12 16 16l39 4q51 6 69.5 24.5t18.5 63.5v510q0 68 -10 99q-8 25 -35 28l-88 9l-4 49q190 29 283 63q8 0 8 -6l-6 -182h6q90 104 170 143q82 39 164 39q129 0 178 -86q47 -82 47 -238v-350q0 -510 -129 -614q-76 -63 -186 -64q-35 0 -72 25q-35 23 -35 66 q0 25 21 43q23 18 41 18q53 0 90 -45q20 -33 47 -33q18 0 30.5 16.5t22.5 51.5q8 33 12 71q6 74 7 93v98v106q0 25 -1.5 57.5t-1.5 41.5v434q0 111 -28 162q-28 49 -105 49q-139 0 -272 -158v-496q0 -41 20.5 -61t67.5 -27l29 -4q16 -4 16 -16v-39l-4 -4q-168 4 -209 4 t-213 -4z" />
<glyph unicode="&#x14c;" horiz-adv-x="1435" d="M76 635q0 303 178 508t451 205q276 0 469 -189q190 -187 190 -485q0 -309 -178 -501.5t-469 -192.5q-274 0 -457 180q-184 180 -184 475zM272 670q0 -285 143.5 -453t342.5 -168q181 0 295 160q115 162 114 426q0 307 -137 475t-352 168q-72 0 -143 -37 q-76 -39 -129 -104q-61 -74 -97 -193q-37 -122 -37 -274zM453 1563q0 23 14 43q16 23 31 22h460q29 0 29 -35q0 -16 -16 -43q-16 -25 -33 -24h-459q-26 0 -26 37z" />
<glyph unicode="&#x14d;" horiz-adv-x="1030" d="M84 420q0 203 117 342q117 137 317 137q113 0 201 -41q82 -39 135 -110q43 -57 70 -148q25 -80 24 -162q0 -111 -43 -211q-41 -98 -145 -174q-101 -74 -246 -73q-203 0 -317 135q-113 133 -113 305zM252 1098q0 23 14 43q16 23 31 22h461q29 0 28 -35q0 -16 -16 -43 q-16 -25 -33 -24h-458q-27 0 -27 37zM260 467q0 -57 16 -133q14 -68 48 -135q31 -63 92 -109q58 -43 135 -43q90 0 155.5 71.5t65.5 254.5q0 221 -71.5 339.5t-204.5 118.5q-119 0 -177 -106q-59 -108 -59 -258z" />
<glyph unicode="&#x14e;" horiz-adv-x="1435" d="M76 635q0 303 178 508t451 205q276 0 469 -189q190 -187 190 -485q0 -309 -178 -501.5t-469 -192.5q-274 0 -457 180q-184 180 -184 475zM272 670q0 -285 143.5 -453t342.5 -168q181 0 295 160q115 162 114 426q0 307 -137 475t-352 168q-72 0 -143 -37 q-76 -39 -129 -104q-61 -74 -97 -193q-37 -122 -37 -274zM446 1649h58q12 -55 74 -90q63 -35 147 -35q82 0 145 32q68 35 76 93h58q-10 -104 -91 -168q-82 -63 -188 -64q-115 0 -193 62q-76 61 -86 170z" />
<glyph unicode="&#x14f;" horiz-adv-x="1030" d="M84 420q0 203 117 342q117 137 317 137q113 0 201 -41q82 -39 135 -110q43 -57 70 -148q25 -80 24 -162q0 -111 -43 -211q-41 -98 -145 -174q-101 -74 -246 -73q-203 0 -317 135q-113 133 -113 305zM213 1296l55 25q14 -80 78 -133q59 -51 143 -51q82 0 144 49 q63 49 78 135l55 -25q-18 -129 -98 -202.5t-179 -73.5q-111 0 -182 72q-74 71 -94 204zM260 467q0 -57 16 -133q14 -68 48 -135q31 -63 92 -109q58 -43 135 -43q90 0 155.5 71.5t65.5 254.5q0 221 -71.5 339.5t-204.5 118.5q-119 0 -177 -106q-59 -108 -59 -258z" />
<glyph unicode="&#x150;" horiz-adv-x="1435" d="M76 635q0 303 178 508t451 205q276 0 469 -189q190 -187 190 -485q0 -309 -178 -501.5t-469 -192.5q-274 0 -457 180q-184 180 -184 475zM272 670q0 -285 143.5 -453t342.5 -168q181 0 295 160q115 162 114 426q0 307 -137 475t-352 168q-72 0 -143 -37 q-76 -39 -129 -104q-61 -74 -97 -193q-37 -122 -37 -274zM512 1438q0 16 4 22l113 226q15 25 55 24q27 0 53 -22q25 -22 25 -56q0 -27 -14 -39l-181 -166q-16 -14 -28 -14q-27 0 -27 25zM770 1430q0 12 8 22l121 223q14 25 47 25q40 0 62 -25q23 -27 22.5 -53.5t-14.5 -40.5 l-203 -172q-6 -6 -16 -6q-6 0 -16.5 6.5t-10.5 20.5z" />
<glyph unicode="&#x151;" horiz-adv-x="1030" d="M84 420q0 203 117 342q117 137 317 137q113 0 201 -41q82 -39 135 -110q43 -57 70 -148q25 -80 24 -162q0 -111 -43 -211q-41 -98 -145 -174q-101 -74 -246 -73q-203 0 -317 135q-113 133 -113 305zM260 467q0 -57 16 -133q14 -68 48 -135q31 -63 92 -109q58 -43 135 -43 q90 0 155.5 71.5t65.5 254.5q0 221 -71.5 339.5t-204.5 118.5q-119 0 -177 -106q-59 -108 -59 -258zM279 1004q0 4 2 6l131 299q12 29 53 28q35 0 55 -20q23 -23 23 -53q0 -23 -11 -33l-208 -248q-6 -6 -17 -6q-28 0 -28 27zM524 1010q0 6 2 8l160 285q15 25 49 24 q29 0 53.5 -24.5t24.5 -51.5q0 -25 -14 -39l-234 -225q-4 -4 -12 -4q-10 0 -18 8q-11 11 -11 19z" />
<glyph unicode="&#x152;" horiz-adv-x="1777" d="M86 651q0 286 172 479t453 193q96 -2 233 -2h160h526l29 -285l-55 -6q-12 78 -63.5 143.5t-127.5 65.5h-309q-74 0 -74 -65v-424h211q51 0 71.5 20.5t33.5 69.5l14 61q0 16 14 17h45q6 0 6 -9l-10 -90q-6 -65 -6 -104q0 -10 16 -197l-4 -6h-47q-16 0 -16 14l-12 64 q-10 45 -33 69q-20 20 -72 21h-211v-533q0 -68 74 -67h317q168 0 224 258l55 -10l-53 -328h-705l-209 -4q-287 4 -467 188q-180 186 -180 467zM279 670q0 -293 137 -448.5t313 -155.5h27q58 0 80 18q20 18 20 63v1029q0 47 -20.5 61t-79.5 14h-72q-170 0 -287 -139 q-118 -141 -118 -442z" />
<glyph unicode="&#x153;" horiz-adv-x="1591" d="M70 422q0 229 123 352q125 125 305 125q145 0 215 -47q74 -49 125 -137q51 78 143 133q84 51 186 51q176 0 263 -102q88 -104 88 -289h-594q-2 -12 -2 -62q0 -95 30 -172q31 -78 76 -116q47 -41 88 -61.5t76 -20.5q63 0 143 28q77 28 123 74q27 -2 45 -31 q-123 -168 -334 -167q-236 0 -344 182q-121 -182 -336 -182q-186 0 -302.5 127t-116.5 315zM246 485q0 -180 69 -309q68 -125 203 -125q94 0 164 82t70 277q0 209 -84 315t-172 106q-98 0 -158 -61q-61 -66 -76 -131q-16 -76 -16 -154zM930 588h411q-6 242 -178 241 q-80 0 -137 -57q-53 -53 -73.5 -106t-22.5 -78z" />
<glyph unicode="&#x154;" horiz-adv-x="1200" d="M25 29q0 25 10 34q119 4 147 33q31 31 31 154v821q0 121 -30.5 151.5t-147.5 34.5q-10 10 -10 33q0 25 10 35q53 0 116.5 -1t97.5 -2t50 -1q41 0 137 6q25 2 53.5 4t44 3t21.5 1q121 0 205 -18q86 -18 149 -80q109 -102 109 -256q0 -141 -88 -229q-90 -90 -185 -121 l259 -430q45 -74 90 -117q45 -41 106 -41q14 -27 2 -49q-27 -14 -86 -14q-160 0 -270 182l-219 356q-27 43 -72 60q-49 18 -168 18v-346q0 -119 33 -152q29 -29 145 -35q8 -8 8 -34q0 -25 -8 -33q-53 0 -116.5 1t-97.5 2t-50 1l-266 -4q-10 10 -10 33zM354 1460q0 22 31 43 l254 176q84 -37 127 -106l-295 -119q-58 -25 -86 -24q-31 -1 -31 30zM387 666h98q166 0 254 67q90 68 90 246q0 287 -272 287q-170 0 -170 -131v-469z" />
<glyph unicode="&#x155;" horiz-adv-x="759" d="M45 29q0 27 8 34q100 6 125 35q27 31 27 152v399q0 82 -25 107q-23 23 -108 32q-8 12 -9 29q0 23 5 29q190 25 280 59q27 0 27 -14q-10 -109 -10 -164q0 -12 6 -12t12 14q41 72 102.5 121t124.5 49q59 0 90 -31q33 -33 33 -67q0 -43 -28 -72q-31 -31 -68 -31q-14 0 -29 7 q-6 2 -20 16q-2 2 -8.5 9l-10.5 11l-16 17q-14 14 -43 14q-27 0 -94 -100q-49 -74 -49 -137v-285q0 -121 28.5 -149.5t139.5 -37.5q10 -10 10 -34q0 -23 -10 -33q-233 4 -248 4q-4 0 -234 -4q-8 8 -8 33zM315 1073q0 20 25 57l154 244q16 4 28 4q61 0 113 -47l6 -22 l-235 -224q-39 -39 -62 -38q-12 0 -20.5 8t-8.5 18z" />
<glyph unicode="&#x156;" horiz-adv-x="1200" d="M25 29q0 25 10 34q119 4 147 33q31 31 31 154v821q0 121 -30.5 151.5t-147.5 34.5q-10 10 -10 33q0 25 10 35q53 0 116.5 -1t97.5 -2t50 -1q41 0 137 6q25 2 53.5 4t44 3t21.5 1q121 0 205 -18q86 -18 149 -80q109 -102 109 -256q0 -141 -88 -229q-90 -90 -185 -121 l259 -430q45 -74 90 -117q45 -41 106 -41q14 -27 2 -49q-27 -14 -86 -14q-160 0 -270 182l-219 356q-27 43 -72 60q-49 18 -168 18v-346q0 -119 33 -152q29 -29 145 -35q8 -8 8 -34q0 -25 -8 -33q-53 0 -116.5 1t-97.5 2t-50 1l-266 -4q-10 10 -10 33zM387 666h98 q166 0 254 67q90 68 90 246q0 287 -272 287q-170 0 -170 -131v-469zM528 -414q72 16 113 47t41 62q0 47 -64 53q-86 15 -86 80q0 39 29 63q28 25 74 25q59 0 92 -47q35 -51 35 -129q0 -86 -60 -137q-57 -49 -157 -66q-17 16 -17 49z" />
<glyph unicode="&#x157;" horiz-adv-x="759" d="M45 29q0 27 8 34q100 6 125 35q27 31 27 152v399q0 82 -25 107q-23 23 -108 32q-8 12 -9 29q0 23 5 29q190 25 280 59q27 0 27 -14q-10 -109 -10 -164q0 -12 6 -12t12 14q41 72 102.5 121t124.5 49q59 0 90 -31q33 -33 33 -67q0 -43 -28 -72q-31 -31 -68 -31q-14 0 -29 7 q-6 2 -20 16q-2 2 -8.5 9l-10.5 11l-16 17q-14 14 -43 14q-27 0 -94 -100q-49 -74 -49 -137v-285q0 -121 28.5 -149.5t139.5 -37.5q10 -10 10 -34q0 -23 -10 -33q-233 4 -248 4q-4 0 -234 -4q-8 8 -8 33zM174 -414q72 16 113 47t41 62q0 47 -64 53q-86 15 -86 80q0 39 29 63 q28 25 74 25q59 0 92 -47q35 -51 35 -129q0 -86 -60 -137q-59 -49 -158 -66q-16 16 -16 49z" />
<glyph unicode="&#x158;" horiz-adv-x="1200" d="M25 29q0 25 10 34q119 4 147 33q31 31 31 154v821q0 121 -30.5 151.5t-147.5 34.5q-10 10 -10 33q0 25 10 35q53 0 116.5 -1t97.5 -2t50 -1q41 0 137 6q25 2 53.5 4t44 3t21.5 1q121 0 205 -18q86 -18 149 -80q109 -102 109 -256q0 -141 -88 -229q-90 -90 -185 -121 l259 -430q45 -74 90 -117q45 -41 106 -41q14 -27 2 -49q-27 -14 -86 -14q-160 0 -270 182l-219 356q-27 43 -72 60q-49 18 -168 18v-346q0 -119 33 -152q29 -29 145 -35q8 -8 8 -34q0 -25 -8 -33q-53 0 -116.5 1t-97.5 2t-50 1l-266 -4q-10 10 -10 33zM293 1622l33 41 q115 -49 217 -125q113 80 219 125l31 -41q-96 -72 -205 -195h-88q-68 84 -207 195zM387 666h98q166 0 254 67q90 68 90 246q0 287 -272 287q-170 0 -170 -131v-469z" />
<glyph unicode="&#x159;" horiz-adv-x="759" d="M45 29q0 27 8 34q100 6 125 35q27 31 27 152v399q0 82 -25 107q-23 23 -108 32q-8 12 -9 29q0 23 5 29q190 25 280 59q27 0 27 -14q-10 -109 -10 -164q0 -12 6 -12t12 14q41 72 102.5 121t124.5 49q59 0 90 -31q33 -33 33 -67q0 -43 -28 -72q-31 -31 -68 -31q-14 0 -29 7 q-6 2 -20 16q-2 2 -8.5 9l-10.5 11l-16 17q-14 14 -43 14q-27 0 -94 -100q-49 -74 -49 -137v-285q0 -121 28.5 -149.5t139.5 -37.5q10 -10 10 -34q0 -23 -10 -33q-233 4 -248 4q-4 0 -234 -4q-8 8 -8 33zM152 1296l41 27q152 -113 217 -184q77 80 221 184l39 -27 q-133 -150 -209 -266h-103q-77 129 -206 266z" />
<glyph unicode="&#x15a;" horiz-adv-x="991" d="M55 338q33 18 68 6q63 -291 358 -291q123 0 189 64q68 63 67 188q0 55 -18 103q-20 53 -39 75q-18 25 -64 54q-41 27 -69 38q-51 23 -78 33q-66 25 -70 27q-137 61 -217 143q-78 80 -78 215q0 152 121 254q119 100 269 101q117 0 202 -25q104 -31 113 -31 q28 -141 37 -264q-15 -12 -68 -12q-18 58 -37 98q-16 37 -55 82q-34 40 -86 61q-49 20 -125 21q-94 0 -160 -68q-63 -66 -63 -161q0 -49 20 -91q23 -43 54 -71q35 -31 77 -56q66 -37 82 -43l82 -30q29 -10 43.5 -16.5t18.5 -8.5q125 -53 205 -139q76 -82 75 -217 q0 -158 -131 -279q-127 -119 -313 -118q-96 0 -205 24q-98 23 -164 23q-33 135 -41 311zM293 1460q0 22 31 43l254 176q84 -37 127 -106l-295 -119q-58 -25 -86 -24q-31 -1 -31 30z" />
<glyph unicode="&#x15b;" horiz-adv-x="782" d="M98 283q10 10 31 10q25 0 33 -8q35 -145 80 -189q45 -49 145 -49q66 0 121 37q53 35 53 106q0 68 -43 109q-45 43 -166 92q-121 51 -174 111q-51 57 -51 168q0 94 86 161.5t203 67.5q47 0 96 -6t104 -19q37 -8 68 -14q0 -29 -6 -102.5t-6 -114.5q-10 -10 -33 -10 q-25 0 -33 8q-10 66 -32.5 102.5t-57.5 57.5q-31 18 -55.5 24t-44.5 6q-55 0 -99 -36q-45 -39 -45 -95q0 -41 13 -69q14 -31 45 -51q39 -25 61 -35q41 -18 86 -35q240 -92 240 -272q0 -72 -35 -125q-35 -55 -86 -82q-49 -27 -104 -39q-53 -12 -101 -12q-96 0 -186 22 q-20 4 -41 4t-51 -6q-1 119 -15 283zM287 1073q0 18 22 57l156 244q16 4 29 4q61 0 112 -47l6 -22l-235 -224q-39 -39 -62 -38q-10 0 -18 8q-10 10 -10 18z" />
<glyph unicode="&#x15c;" horiz-adv-x="991" d="M55 338q33 18 68 6q63 -291 358 -291q123 0 189 64q68 63 67 188q0 55 -18 103q-20 53 -39 75q-18 25 -64 54q-41 27 -69 38q-51 23 -78 33q-66 25 -70 27q-137 61 -217 143q-78 80 -78 215q0 152 121 254q119 100 269 101q117 0 202 -25q104 -31 113 -31 q28 -141 37 -264q-15 -12 -68 -12q-18 58 -37 98q-16 37 -55 82q-34 40 -86 61q-49 20 -125 21q-94 0 -160 -68q-63 -66 -63 -161q0 -49 20 -91q23 -43 54 -71q35 -31 77 -56q66 -37 82 -43l82 -30q29 -10 43.5 -16.5t18.5 -8.5q125 -53 205 -139q76 -82 75 -217 q0 -158 -131 -279q-127 -119 -313 -118q-96 0 -205 24q-98 23 -164 23q-33 135 -41 311zM221 1470q90 70 207 199q37 22 80 0q90 -109 211 -199q-8 -33 -33 -43q-141 66 -217 125q-90 -68 -219 -125q-23 16 -29 43z" />
<glyph unicode="&#x15d;" horiz-adv-x="782" d="M98 283q10 10 31 10q25 0 33 -8q35 -145 80 -189q45 -49 145 -49q66 0 121 37q53 35 53 106q0 68 -43 109q-45 43 -166 92q-121 51 -174 111q-51 57 -51 168q0 94 86 161.5t203 67.5q47 0 96 -6t104 -19q37 -8 68 -14q0 -29 -6 -102.5t-6 -114.5q-10 -10 -33 -10 q-25 0 -33 8q-10 66 -32.5 102.5t-57.5 57.5q-31 18 -55.5 24t-44.5 6q-55 0 -99 -36q-45 -39 -45 -95q0 -41 13 -69q14 -31 45 -51q39 -25 61 -35q41 -18 86 -35q240 -92 240 -272q0 -72 -35 -125q-35 -55 -86 -82q-49 -27 -104 -39q-53 -12 -101 -12q-96 0 -186 22 q-20 4 -41 4t-51 -6q-1 119 -15 283zM139 1065q156 170 228 287q37 10 65 0q82 -129 223 -287q-23 -29 -47 -35q-123 78 -211 170q-115 -115 -213 -170q-27 6 -45 35z" />
<glyph unicode="&#x15e;" horiz-adv-x="991" d="M55 338q33 18 68 6q63 -291 358 -291q123 0 189 64q68 63 67 188q0 55 -18 103q-20 53 -39 75q-18 25 -64 54q-41 27 -69 38q-51 23 -78 33q-66 25 -70 27q-137 61 -217 143q-78 80 -78 215q0 152 121 254q119 100 269 101q117 0 202 -25q104 -31 113 -31 q28 -141 37 -264q-15 -12 -68 -12q-18 58 -37 98q-16 37 -55 82q-34 40 -86 61q-49 20 -125 21q-94 0 -160 -68q-63 -66 -63 -161q0 -49 20 -91q23 -43 54 -71q35 -31 77 -56q66 -37 82 -43l82 -30q29 -10 43.5 -16.5t18.5 -8.5q125 -53 205 -139q76 -82 75 -217 q0 -154 -123 -271q-125 -119 -297 -126l-43 -117q25 6 54 6q63 0 104 -35t41 -92q0 -63 -63 -109q-61 -43 -156 -43q-70 0 -152 35q0 33 21 53q80 -29 119 -28q47 0 75.5 22.5t28.5 59.5q0 72 -67 71q-52 0 -93 -12l-12 12l74 179q-76 4 -170 24q-90 20 -154 21 q-33 135 -41 311z" />
<glyph unicode="&#x15f;" horiz-adv-x="782" d="M98 283q10 10 31 10q25 0 33 -8q35 -145 80 -189q45 -49 145 -49q66 0 121 37q53 35 53 106q0 68 -43 109q-45 43 -166 92q-121 51 -174 111q-51 57 -51 168q0 94 86 161.5t203 67.5q47 0 96 -6t104 -19q37 -8 68 -14q0 -29 -6 -102.5t-6 -114.5q-10 -10 -33 -10 q-25 0 -33 8q-10 66 -32.5 102.5t-57.5 57.5q-31 18 -55.5 24t-44.5 6q-55 0 -99 -36q-45 -39 -45 -95q0 -41 13 -69q14 -31 45 -51q39 -25 61 -35q41 -18 86 -35q240 -92 240 -272q0 -70 -29 -119q-31 -51 -78 -78q-51 -29 -96 -43q-49 -16 -96 -18l-45 -117q25 6 53 6 q63 0 104 -35t41 -92q0 -63 -63 -109q-61 -43 -156 -43q-70 0 -151 35q0 33 20 53q80 -29 119 -28q47 0 75.5 22.5t28.5 59.5q0 72 -67 71q-52 0 -92 -12l-13 12l74 179q-76 4 -141 20q-20 4 -41 4t-51 -6q-1 119 -15 283z" />
<glyph unicode="&#x160;" horiz-adv-x="991" d="M55 338q33 18 68 6q63 -291 358 -291q123 0 189 64q68 63 67 188q0 55 -18 103q-20 53 -39 75q-18 25 -64 54q-41 27 -69 38q-51 23 -78 33q-66 25 -70 27q-137 61 -217 143q-78 80 -78 215q0 152 121 254q119 100 269 101q117 0 202 -25q104 -31 113 -31 q28 -141 37 -264q-15 -12 -68 -12q-18 58 -37 98q-16 37 -55 82q-34 40 -86 61q-49 20 -125 21q-94 0 -160 -68q-63 -66 -63 -161q0 -49 20 -91q23 -43 54 -71q35 -31 77 -56q66 -37 82 -43l82 -30q29 -10 43.5 -16.5t18.5 -8.5q125 -53 205 -139q76 -82 75 -217 q0 -158 -131 -279q-127 -119 -313 -118q-96 0 -205 24q-98 23 -164 23q-33 135 -41 311zM233 1622l33 41q115 -49 217 -125q113 80 219 125l31 -41q-96 -72 -205 -195h-88q-68 84 -207 195z" />
<glyph unicode="&#x161;" horiz-adv-x="782" d="M98 283q10 10 31 10q25 0 33 -8q35 -145 80 -189q45 -49 145 -49q66 0 121 37q53 35 53 106q0 68 -43 109q-45 43 -166 92q-121 51 -174 111q-51 57 -51 168q0 94 86 161.5t203 67.5q47 0 96 -6t104 -19q37 -8 68 -14q0 -29 -6 -102.5t-6 -114.5q-10 -10 -33 -10 q-25 0 -33 8q-10 66 -32.5 102.5t-57.5 57.5q-31 18 -55.5 24t-44.5 6q-55 0 -99 -36q-45 -39 -45 -95q0 -41 13 -69q14 -31 45 -51q39 -25 61 -35q41 -18 86 -35q240 -92 240 -272q0 -72 -35 -125q-35 -55 -86 -82q-49 -27 -104 -39q-53 -12 -101 -12q-96 0 -186 22 q-20 4 -41 4t-51 -6q-1 119 -15 283zM139 1294l41 27q152 -113 217 -184q77 80 221 184l39 -27q-133 -150 -208 -266h-103q-78 129 -207 266z" />
<glyph unicode="&#x162;" horiz-adv-x="1200" d="M14 1061q29 125 45 315q33 4 64 -8q0 -47 43 -47h891q45 0 45 47q25 8 61 8q0 -154 27 -315q-14 -6 -70 -10q-29 127 -53 157q-27 33 -109 33h-127q-53 0 -83.5 -37t-30.5 -90v-864q0 -121 35 -152q31 -29 163 -35q10 -10 10.5 -34.5t-10.5 -32.5q-53 0 -109 1t-85 2 t-41 1l-51 -137q25 6 53 6q63 0 104 -35t41 -92q0 -63 -63 -109q-61 -43 -156 -43q-70 0 -151 35q0 33 20 53q80 -29 119 -28q47 0 75.5 22.5t28.5 59.5q0 72 -67 71q-52 0 -92 -12l-13 12l82 197q-18 0 -53 -1t-98.5 -2t-114.5 -1q-8 8 -8 33q0 27 8 34q131 4 164 33 q35 31 35 154v870q0 52 -31 86q-31 35 -86 35h-162q-84 0 -116.5 -32.5t-63.5 -157.5q-39 0 -70 10z" />
<glyph unicode="&#x163;" horiz-adv-x="645" d="M51 811v27q0 41 37 41h94q0 178 -4 235q0 8 2 10q6 6 15 11l12 6l119 53q27 0 26 -20q-8 -74 -8 -216v-79h246q16 0 16 -13v-41q0 -27 -49 -26h-213v-518q0 -102 14 -144q16 -45 54 -45q96 0 168 58q31 -4 36 -35q-100 -113 -231 -131l-45 -121q25 6 53 6q59 0 105 -35 q41 -33 41 -92q0 -66 -61.5 -109t-158.5 -43q-70 0 -151 35q0 33 20 53q80 -29 119 -28q47 0 76 22.5t29 59.5q0 72 -68 71q-52 0 -92 -12l-12 12l73 179q-131 18 -131 200v617h-121q-10 0 -10 12z" />
<glyph unicode="&#x164;" horiz-adv-x="1200" d="M14 1061q29 125 45 315q33 4 64 -8q0 -47 43 -47h891q45 0 45 47q25 8 61 8q0 -154 27 -315q-14 -6 -70 -10q-29 127 -53 157q-27 33 -109 33h-127q-53 0 -83.5 -37t-30.5 -90v-864q0 -121 35 -152q31 -29 163 -35q10 -10 10.5 -34.5t-10.5 -32.5q-274 4 -284 4 q-20 0 -287 -4q-8 8 -8 33q0 27 8 34q131 4 164 33q35 31 35 154v870q0 52 -31 86q-31 35 -86 35h-162q-84 0 -116.5 -32.5t-63.5 -157.5q-39 0 -70 10zM360 1622l33 41q115 -49 217 -125q113 80 219 125l31 -41q-96 -72 -205 -195h-88q-68 84 -207 195z" />
<glyph unicode="&#x165;" horiz-adv-x="638" d="M51 811v27q0 41 37 41h94q0 178 -4 235q0 8 2 10q6 6 15 11l12 6l119 53q27 0 26 -20q-8 -74 -8 -216v-79h246q16 0 16 -13v-41q0 -27 -49 -26h-213v-518q0 -102 14 -144q16 -45 54 -45q96 0 168 58q31 -4 36 -35q-121 -135 -276 -135q-158 0 -158 202v617h-121 q-10 0 -10 12zM446 1098q61 12 95 55q35 45 34 86q0 43 -28 43q-94 0 -94 78q0 28 24 49q23 20 66 21q57 0 90 -45.5t33 -104.5q0 -68 -56 -137q-55 -71 -153 -80z" />
<glyph unicode="&#x166;" horiz-adv-x="1200" d="M14 1061q29 125 45 315q33 4 64 -8q0 -47 43 -47h891q45 0 45 47q25 8 61 8q0 -154 27 -315q-14 -6 -70 -10q-29 127 -53 157q-27 33 -109 33h-127q-53 0 -83.5 -37t-30.5 -90v-360h256q25 0 24 -27q0 -16 -12 -34.5t-31 -18.5h-237v-424q0 -121 35 -152q31 -29 163 -35 q10 -10 10.5 -34.5t-10.5 -32.5q-274 4 -284 4q-20 0 -287 -4q-8 8 -8 33q0 27 8 34q131 4 164 33q35 31 35 154v424h-277q-23 0 -22 28q0 14 12 33t27 19h260v366q0 52 -31 86q-31 35 -86 35h-162q-84 0 -116.5 -32.5t-63.5 -157.5q-39 0 -70 10z" />
<glyph unicode="&#x167;" horiz-adv-x="645" d="M39 530q0 14 12 33t27 19h104v217h-121q-10 0 -10 12v27q0 41 37 41h94q0 178 -4 235q0 8 2 10q6 6 15 11l12 6l119 53q27 0 26 -20q-8 -74 -8 -216v-79h246q16 0 16 -13v-41q0 -27 -49 -26h-213v-217h205q25 0 24 -27q0 -16 -12 -34.5t-31 -18.5h-186v-221 q0 -102 14 -144q16 -45 54 -45q96 0 168 58q31 -4 36 -35q-121 -135 -276 -135q-158 0 -158 202v320h-121q-22 -1 -22 28z" />
<glyph unicode="&#x168;" horiz-adv-x="1351" d="M12 1290q0 27 8 35q57 0 115 -1t88.5 -2t40.5 -1t277 4q8 -8 8 -35q0 -25 -8 -33q-121 -2 -156 -34q-33 -31 -33 -152v-520q0 -68 4 -141q2 -53 29 -127q25 -70 72 -117q109 -102 243 -103q101 0 172 31q70 31 111 78q39 45 61 121q20 70 27 133q6 61 6 141v504 q0 68 -6 100.5t-33 51.5q-25 16 -53 22q-27 6 -96 12q-8 8 -8 33q0 27 8 35q57 0 114.5 -1t86 -2t36.5 -1q2 0 26 1t74 2t109 1q8 -8 8 -35q0 -25 -8 -33q-78 -10 -100 -18q-27 -10 -41 -45q-16 -39 -16 -123v-467q0 -139 -23 -252q-20 -106 -78 -194q-55 -86 -162 -133 q-102 -45 -258 -45q-78 0 -155 22q-80 25 -152 72q-80 53 -125 157q-47 106 -47 252v588q0 123 -28 152q-33 33 -130 34q-8 8 -8 33zM428 1434q47 201 164 200q12 0 33 -4q16 -4 34 -12q8 -4 27 -16l29 -21q8 -6 18 -12l6 -4q51 -39 107 -39q33 0 55 22q20 20 41 84 q34 3 55 -12q-40 -203 -178 -203q-18 0 -26 2q-10 2 -27 13q-4 2 -12.5 7t-12.5 7q-2 2 -12 9l-16 11q-4 2 -8.5 5.5t-6.5 5.5t-5 4t-5 2q-63 39 -110 39q-39 0 -57.5 -22.5t-37.5 -76.5q-41 -5 -55 11z" />
<glyph unicode="&#x169;" horiz-adv-x="1073" d="M45 847.5q0 24.5 8 35.5q201 -4 209 -4q43 0 72 4q16 0 16 -13q-8 -133 -8 -211v-372q0 -120 49 -166q47 -45 115 -45q82 0 192 98q33 27 33 80v395q0 98 -24 129q-27 35 -103 37q-10 10 -10 33q0 20 10 35q201 -4 209 -4q43 0 72 4q16 0 16 -13q-8 -133 -8 -211v-393 q0 -82 26.5 -110.5t122.5 -38.5q10 -10 10.5 -28.5t-10.5 -27.5q-176 -23 -247 -81q-20 -6 -39 0q-23 78 -23 120q0 10 -8 11q-4 0 -16 -9q-151 -123 -265 -122q-141 0 -202.5 79.5t-61.5 198.5v393q0 94 -26 127q-25 31 -101 37q-8 8 -8 32.5zM246 1081q47 201 164 201 q14 0 34 -4q6 -2 33 -14q20 -10 27 -15l28 -20q8 -6 19 -12l6 -5q55 -39 107 -38q33 0 55 22q18 20 41 84q34 3 55 -12q-40 -203 -178 -203q-16 0 -25 2q-18 4 -30 12q-4 2 -12.5 7.5t-12.5 7.5l-7 5l-18 13q-4 4 -10 8t-10 7t-6 3q-63 39 -111 39q-41 0 -59.5 -22.5 t-34.5 -75.5q-39 -6 -55 10z" />
<glyph unicode="&#x16a;" horiz-adv-x="1351" d="M12 1290q0 27 8 35q57 0 115 -1t88.5 -2t40.5 -1t277 4q8 -8 8 -35q0 -25 -8 -33q-121 -2 -156 -34q-33 -31 -33 -152v-520q0 -68 4 -141q2 -53 29 -127q25 -70 72 -117q109 -102 243 -103q101 0 172 31q70 31 111 78q39 45 61 121q20 70 27 133q6 61 6 141v504 q0 68 -6 100.5t-33 51.5q-25 16 -53 22q-27 6 -96 12q-8 8 -8 33q0 27 8 35q57 0 114.5 -1t86 -2t36.5 -1q2 0 26 1t74 2t109 1q8 -8 8 -35q0 -25 -8 -33q-78 -10 -100 -18q-27 -10 -41 -45q-16 -39 -16 -123v-467q0 -139 -23 -252q-20 -106 -78 -194q-55 -86 -162 -133 q-102 -45 -258 -45q-78 0 -155 22q-80 25 -152 72q-80 53 -125 157q-47 106 -47 252v588q0 123 -28 152q-33 33 -130 34q-8 8 -8 33zM442 1561q0 23 15 43q16 23 30 22h461q29 0 29 -35q0 -16 -16 -43q-14 -25 -33 -24h-459q-27 0 -27 37z" />
<glyph unicode="&#x16b;" horiz-adv-x="1073" d="M45 847.5q0 24.5 8 35.5q201 -4 209 -4q43 0 72 4q16 0 16 -13q-8 -133 -8 -211v-372q0 -120 49 -166q47 -45 115 -45q82 0 192 98q33 27 33 80v395q0 98 -24 129q-27 35 -103 37q-10 10 -10 33q0 20 10 35q201 -4 209 -4q43 0 72 4q16 0 16 -13q-8 -133 -8 -211v-393 q0 -82 26.5 -110.5t122.5 -38.5q10 -10 10.5 -28.5t-10.5 -27.5q-176 -23 -247 -81q-20 -6 -39 0q-23 78 -23 120q0 10 -8 11q-4 0 -16 -9q-151 -123 -265 -122q-141 0 -202.5 79.5t-61.5 198.5v393q0 94 -26 127q-25 31 -101 37q-8 8 -8 32.5zM258 1098q0 23 14 43 q16 23 31 22h461q29 0 29 -35q0 -16 -17 -43q-14 -25 -33 -24h-458q-27 0 -27 37z" />
<glyph unicode="&#x16c;" horiz-adv-x="1351" d="M12 1290q0 27 8 35q57 0 115 -1t88.5 -2t40.5 -1t277 4q8 -8 8 -35q0 -25 -8 -33q-121 -2 -156 -34q-33 -31 -33 -152v-520q0 -68 4 -141q2 -53 29 -127q25 -70 72 -117q109 -102 243 -103q101 0 172 31q70 31 111 78q39 45 61 121q20 70 27 133q6 61 6 141v504 q0 68 -6 100.5t-33 51.5q-25 16 -53 22q-27 6 -96 12q-8 8 -8 33q0 27 8 35q57 0 114.5 -1t86 -2t36.5 -1q2 0 26 1t74 2t109 1q8 -8 8 -35q0 -25 -8 -33q-78 -10 -100 -18q-27 -10 -41 -45q-16 -39 -16 -123v-467q0 -139 -23 -252q-20 -106 -78 -194q-55 -86 -162 -133 q-102 -45 -258 -45q-78 0 -155 22q-80 25 -152 72q-80 53 -125 157q-47 106 -47 252v588q0 123 -28 152q-33 33 -130 34q-8 8 -8 33zM434 1647h58q12 -55 75.5 -90t145.5 -35q80 0 145 34q68 35 76 91h57q-10 -104 -90 -168q-82 -63 -188 -64q-115 0 -193 62q-76 61 -86 170 z" />
<glyph unicode="&#x16d;" horiz-adv-x="1073" d="M45 847.5q0 24.5 8 35.5q201 -4 209 -4q43 0 72 4q16 0 16 -13q-8 -133 -8 -211v-372q0 -120 49 -166q47 -45 115 -45q82 0 192 98q33 27 33 80v395q0 98 -24 129q-27 35 -103 37q-10 10 -10 33q0 20 10 35q201 -4 209 -4q43 0 72 4q16 0 16 -13q-8 -133 -8 -211v-393 q0 -82 26.5 -110.5t122.5 -38.5q10 -10 10.5 -28.5t-10.5 -27.5q-176 -23 -247 -81q-20 -6 -39 0q-23 78 -23 120q0 10 -8 11q-4 0 -16 -9q-151 -123 -265 -122q-141 0 -202.5 79.5t-61.5 198.5v393q0 94 -26 127q-25 31 -101 37q-8 8 -8 32.5zM233 1298l56 25 q14 -80 78 -133q59 -51 143 -51t145 49q59 49 76 135l55 -25q-18 -127 -100 -202q-80 -74 -176 -74q-111 0 -182 72q-75 73 -95 204z" />
<glyph unicode="&#x16e;" horiz-adv-x="1351" d="M12 1290q0 27 8 35q57 0 115 -1t88.5 -2t40.5 -1t277 4q8 -8 8 -35q0 -25 -8 -33q-121 -2 -156 -34q-33 -31 -33 -152v-520q0 -68 4 -141q2 -53 29 -127q25 -70 72 -117q109 -102 243 -103q101 0 172 31q70 31 111 78q39 45 61 121q20 70 27 133q6 61 6 141v504 q0 68 -6 100.5t-33 51.5q-25 16 -53 22q-27 6 -96 12q-8 8 -8 33q0 27 8 35q57 0 114.5 -1t86 -2t36.5 -1q2 0 26 1t74 2t109 1q8 -8 8 -35q0 -25 -8 -33q-78 -10 -100 -18q-27 -10 -41 -45q-16 -39 -16 -123v-467q0 -139 -23 -252q-20 -106 -78 -194q-55 -86 -162 -133 q-102 -45 -258 -45q-78 0 -155 22q-80 25 -152 72q-80 53 -125 157q-47 106 -47 252v588q0 123 -28 152q-33 33 -130 34q-8 8 -8 33zM530 1480.5q0 69.5 54 121.5q57 53 127 53q72 0 125 -51q55 -52 55 -123q0 -68 -53.5 -121t-126.5 -53q-70 0 -127 53q-54 51 -54 120.5z M612 1481q0 -47 27 -76q29 -33 72 -33t71 33q27 29 27 76q0 49 -27 78q-29 31 -71 30q-47 0 -72 -30q-27 -33 -27 -78z" />
<glyph unicode="&#x16f;" horiz-adv-x="1073" d="M45 847.5q0 24.5 8 35.5q201 -4 209 -4q43 0 72 4q16 0 16 -13q-8 -133 -8 -211v-372q0 -120 49 -166q47 -45 115 -45q82 0 192 98q33 27 33 80v395q0 98 -24 129q-27 35 -103 37q-10 10 -10 33q0 20 10 35q201 -4 209 -4q43 0 72 4q16 0 16 -13q-8 -133 -8 -211v-393 q0 -82 26.5 -110.5t122.5 -38.5q10 -10 10.5 -28.5t-10.5 -27.5q-176 -23 -247 -81q-20 -6 -39 0q-23 78 -23 120q0 10 -8 11q-4 0 -16 -9q-151 -123 -265 -122q-141 0 -202.5 79.5t-61.5 198.5v393q0 94 -26 127q-25 31 -101 37q-8 8 -8 32.5zM315 1194q0 72 53.5 123 t127.5 51q72 0 125 -51q55 -52 55 -123q0 -70 -53 -123q-51 -51 -127 -51q-74 0 -127.5 51t-53.5 123zM397 1194q0 -49 27 -78q27 -31 72 -31t71 31q27 29 27 78q0 51 -26.5 80t-71.5 29q-47 0 -72 -31q-27 -33 -27 -78z" />
<glyph unicode="&#x170;" horiz-adv-x="1351" d="M12 1290q0 27 8 35q57 0 115 -1t88.5 -2t40.5 -1t277 4q8 -8 8 -35q0 -25 -8 -33q-121 -2 -156 -34q-33 -31 -33 -152v-520q0 -68 4 -141q2 -53 29 -127q25 -70 72 -117q109 -102 243 -103q101 0 172 31q70 31 111 78q39 45 61 121q20 70 27 133q6 61 6 141v504 q0 68 -6 100.5t-33 51.5q-25 16 -53 22q-27 6 -96 12q-8 8 -8 33q0 27 8 35q57 0 114.5 -1t86 -2t36.5 -1q2 0 26 1t74 2t109 1q8 -8 8 -35q0 -25 -8 -33q-78 -10 -100 -18q-27 -10 -41 -45q-16 -39 -16 -123v-467q0 -139 -23 -252q-20 -106 -78 -194q-55 -86 -162 -133 q-102 -45 -258 -45q-78 0 -155 22q-80 25 -152 72q-80 53 -125 157q-47 106 -47 252v588q0 123 -28 152q-33 33 -130 34q-8 8 -8 33zM535 1438q0 12 6 22l110 226q15 25 56 24q27 0 53 -22q25 -22 24 -56q0 -27 -14 -39l-180 -166q-16 -14 -29 -14q-26 0 -26 25zM793 1430 q0 6 8 22l121 223q16 25 47 25q43 0 63 -25q20 -23 21 -53q0 -27 -15 -41l-202 -172q-6 -6 -17 -6q-8 0 -16 6q-10 7 -10 21z" />
<glyph unicode="&#x171;" horiz-adv-x="1073" d="M45 847.5q0 24.5 8 35.5q201 -4 209 -4q43 0 72 4q16 0 16 -13q-8 -133 -8 -211v-372q0 -120 49 -166q47 -45 115 -45q82 0 192 98q33 27 33 80v395q0 98 -24 129q-27 35 -103 37q-10 10 -10 33q0 20 10 35q201 -4 209 -4q43 0 72 4q16 0 16 -13q-8 -133 -8 -211v-393 q0 -82 26.5 -110.5t122.5 -38.5q10 -10 10.5 -28.5t-10.5 -27.5q-176 -23 -247 -81q-20 -6 -39 0q-23 78 -23 120q0 10 -8 11q-4 0 -16 -9q-151 -123 -265 -122q-141 0 -202.5 79.5t-61.5 198.5v393q0 94 -26 127q-25 31 -101 37q-8 8 -8 32.5zM332 1004q0 4 2 6l131 299 q12 29 53 28q35 0 55 -20q23 -23 23 -53q0 -18 -10 -33l-209 -248q-6 -6 -17 -6q-28 0 -28 27zM578 1010q0 6 2 8l159 285q15 25 49 24q29 0 53.5 -24.5t24.5 -51.5q0 -25 -14 -39l-234 -225q-4 -4 -12 -4q-10 0 -18 8q-10 11 -10 19z" />
<glyph unicode="&#x172;" horiz-adv-x="1351" d="M12 1290q0 27 8 35q57 0 115 -1t88.5 -2t40.5 -1t277 4q8 -8 8 -35q0 -25 -8 -33q-121 -2 -156 -34q-33 -31 -33 -152v-520q0 -68 4 -141q2 -53 29 -127q25 -70 72 -117q109 -102 243 -103q101 0 172 31q70 31 111 78q39 45 61 121q20 70 27 133q6 61 6 141v504 q0 68 -6 100.5t-33 51.5q-25 16 -53 22q-27 6 -96 12q-8 8 -8 33q0 27 8 35q57 0 114.5 -1t86 -2t36.5 -1q2 0 26 1t74 2t109 1q8 -8 8 -35q0 -25 -8 -33q-78 -10 -100 -18q-27 -10 -41 -45q-16 -39 -16 -123v-467q0 -199 -48 -340q-47 -139 -161 -211q-135 -109 -181 -164 q-47 -55 -47 -125q0 -96 103 -96q29 0 53 13q35 16 41 22l43 43q27 0 39 -22q-86 -133 -225 -134q-180 0 -181 152q0 115 187 250q-63 -12 -144 -12q-78 0 -155 22q-80 25 -152 72q-80 53 -125 157q-47 106 -47 252v588q0 123 -28 152q-33 33 -130 34q-8 8 -8 33z" />
<glyph unicode="&#x173;" horiz-adv-x="1073" d="M45 847.5q0 24.5 8 35.5q201 -4 209 -4q43 0 72 4q16 0 16 -13q-8 -133 -8 -211v-372q0 -120 49 -166q47 -45 115 -45q82 0 192 98q33 27 33 80v395q0 98 -24 129q-27 35 -103 37q-10 10 -10 33q0 20 10 35q201 -4 209 -4q43 0 72 4q16 0 16 -13q-8 -133 -8 -211v-393 q0 -82 26.5 -110.5t122.5 -38.5q10 -10 10.5 -28.5t-10.5 -27.5q-58 -6 -104 -18q-100 -29 -145 -111t-45 -168q0 -96 102 -96q29 0 53 13q29 14 39 22t45 43q27 0 39 -22q-86 -133 -225 -134q-180 0 -180 152q0 59 32 135q31 72 97 125q-16 66 -17 98q0 10 -8 11 q-4 0 -16 -9q-151 -123 -265 -122q-141 0 -202.5 79.5t-61.5 198.5v393q0 94 -26 127q-25 31 -101 37q-8 8 -8 32.5z" />
<glyph unicode="&#x174;" horiz-adv-x="1951" d="M4 1290q0 27 8 35q45 0 91.5 -1t69 -2t30.5 -1q51 0 231 4q8 -8 8 -35q0 -25 -8 -33q-49 -4 -65 -8q-23 -6 -35 -24.5t-2 -53.5l307 -944h4l258 678q14 37 14 78q0 23 -10 57l-31 95q-16 47 -59 82q-47 39 -119 40q-8 8 -8 33q0 27 8 35q43 0 92.5 -1t75 -2t37.5 -1 q16 0 49 1t92.5 2t108.5 1q8 -8 8 -35q0 -25 -8 -33q-6 0 -15.5 -1t-15.5 -2t-10 -1q-31 -8 -37 -10q-25 -10 -26 -20q0 -4 -5.5 -14.5t-7.5 -18.5q-6 -23 10 -55l295 -912h4l326 934q6 18 6 33q0 12 -4 24.5t-16 18.5q-16 8 -22.5 10t-31 6t-32.5 4q-6 0 -35 4 q-10 10 -10 33q0 25 10 35q217 -4 225 -4t29.5 1t64.5 2t84 1q8 -8 9 -35q0 -25 -9 -33q-80 -4 -118 -34q-35 -29 -58 -90l-403 -1110q-16 -47 -55 -48q-45 0 -64 50l-240 727q-18 57 -28 57t-29 -51l-285 -733q-18 -49 -57 -50q-47 0 -63 50l-373 1114q-29 78 -53 96 q-27 20 -99 22q-8 8 -8 33zM688 1456q90 70 207 199q37 22 80 0q90 -109 211 -199q-8 -33 -33 -43q-141 66 -217 125q-90 -68 -219 -125q-23 16 -29 43z" />
<glyph unicode="&#x175;" horiz-adv-x="1527" d="M12 848q0 25 11 35q143 -4 180 -4q12 0 213 4q10 -10 10 -35q0 -23 -10 -33q-70 -2 -82 -33q-12 -29 20 -104l164 -422q18 -39 21 -43q8 -12 16 0q2 4 20 47l144 363l-12 32q0 2 -3.5 7.5t-5.5 11.5q-14 35 -24 57q-12 25 -25 39q-23 27 -41 33q-25 8 -59 12 q-8 8 -8 32.5t8 35.5q41 0 84 -1t65.5 -2t30.5 -1q4 0 205 4q8 -8 8 -35q0 -25 -8 -33q-82 -6 -92 -29q-14 -27 16 -96l178 -448q12 -29 17 -33q8 -8 10 -2q3 6 12 31l6 12l172 426q12 27 17 51q4 27 0 41q-6 20 -35 33q-29 10 -86 14q-10 10 -10 33q0 20 10 35 q201 -4 213 -4q8 0 143 4q10 -10 10.5 -35t-10.5 -33q-74 -4 -108 -39q-33 -33 -66 -108l-266 -650q-16 -43 -47 -43t-49 41l-211 508l-207 -504q-20 -45 -49 -45q-31 0 -49 41l-269 662q-35 84 -61 106q-27 25 -100 31q-11 10 -11 33zM492 1063q156 170 227 287q37 10 65 0 q82 -129 224 -287q-23 -29 -47 -35q-123 78 -211 170q-115 -115 -213 -170q-27 6 -45 35z" />
<glyph unicode="&#x176;" horiz-adv-x="1175" d="M2 1290q0 27 8 35q164 -4 209 -4q16 0 234 4q10 -10 10 -35q0 -23 -10 -33q-4 0 -14.5 -1t-16.5 -1h-29q-2 0 -9 -1t-11 -1t-10.5 -1t-8.5 -1q-6 0 -10 -2q-6 -3 -6 -6l-1 -3q-1 -3 -1 -5q0 -8 2 -14q2 -4 4 -9.5t4 -9.5t12 -22l258 -455q8 -16 17 -25q4 -4 12 0.5 t17 20.5l243 459q12 27 15 30q4 14 2 21l-7 12q-2 4 -18 8q-8 2 -23 2q-2 0 -12 1t-18 1t-19.5 1t-15.5 1q-10 10 -10 33t10 33q55 -2 186 -2q129 0 170 2q10 -10 11 -33q0 -25 -11 -33q-2 0 -14 -1t-21 -1q-10 0 -20 -2l-10 -2q-4 0 -25 -4q-14 -2 -22 -10l-4 -4t-4.5 -3 t-5.5 -3t-7 -6q-12 -8 -22 -27q-2 -2 -10.5 -15.5t-12.5 -21.5l-262 -473q-27 -49 -33 -66q-2 -6 -2 -69v-299q0 -121 35 -152q31 -29 164 -35q8 -8 8 -34q0 -25 -8 -33q-274 4 -285 4q-20 0 -287 -4q-10 10 -10 33q0 25 10 34q131 4 164 33q35 31 35 154v280v27 q0 14 -2 22.5t-2 18.5q0 4 -6 14q-2 6 -5 11l-3 4l-2 3q-2 3 -4.5 8l-4.5 9q-4 6 -9 12.5t-5 8.5l-268 452q-55 92 -84 113q-29 18 -90 22q-4 0 -10.5 1t-8.5 1q-10 10 -10 33zM352 1456q90 70 207 199q37 22 80 0q90 -109 211 -199q-8 -33 -33 -43q-141 66 -217 125 q-90 -68 -219 -125q-23 16 -29 43z" />
<glyph unicode="&#x177;" horiz-adv-x="1060" d="M33 847.5q0 24.5 8 35.5q111 -4 166 -4q31 0 231 4q8 -8 8 -35q0 -25 -8 -33q-31 -2 -57 -10q-16 -4 -31 -14q-10 -8 -8 -25q2 -8 5 -18.5t3 -12.5q4 -14 17 -43q4 -8 4 -10l182 -426q25 -57 49 -2l203 469q23 51 -6 68q-31 18 -92 24q-10 10 -11 33q0 25 11 35 q41 0 85 -1t67.5 -2t33.5 -1t145 4q10 -10 10.5 -35t-10.5 -33q-55 -4 -98 -43q-43 -41 -68 -88q-120 -252 -362 -836q-41 -98 -84 -176q-82 -147 -199 -147q-41 0 -69 22q-27 20 -27 54q0 27 24.5 57.5t65.5 30.5q14 0 27 -2q25 -4 33 -4q72 0 102 59q51 106 80 188 q25 72 -29 193l-231 539q-45 102 -68 122q-29 25 -94 31q-8 8 -8 32.5zM303 1065q156 170 227 287q37 10 66 0q82 -129 223 -287q-23 -29 -47 -35q-123 78 -211 170q-115 -115 -213 -170q-27 6 -45 35z" />
</font>
</defs>
</svg>
