<?xml version="1.0" standalone="no"?>
<!DOCTYPE svg PUBLIC "-//W3C//DTD SVG 1.1//EN" "http://www.w3.org/Graphics/SVG/1.1/DTD/svg11.dtd" >
<svg xmlns="http://www.w3.org/2000/svg">
<metadata>
This is a custom SVG webfont generated by Font Squirrel.
Copyright   : LinLinux Libertine by Philipp H Poll Open Font under Terms of following Free Software LicensesGPL General Public License and OFL Open Font LicenseCreated with FontForge 10 httpfontforgesfnet Sept 2003 2004 2005 2006 2007
Designer    : Philipp H Poll
Foundry     : Philipp H Poll
Foundry URL : httplinuxlibertinesfnet
</metadata>
<defs>
<font id="webfonthLUvEvvE" horiz-adv-x="0" >
<font-face units-per-em="2048" ascent="1638" descent="-410" />
<missing-glyph horiz-adv-x="512" />
<glyph unicode=" "  horiz-adv-x="512" />
<glyph unicode="&#x09;" horiz-adv-x="512" />
<glyph unicode="&#xa0;" horiz-adv-x="512" />
<glyph unicode="!" horiz-adv-x="462" d="M121 1198q0 74 35 113q33 37 75 37q47 0 80 -39q35 -41 35 -111q0 -78 -24 -207q-20 -104 -29 -188q-12 -92 -19 -185q-2 -31 -6 -74.5t-4 -58.5q-4 -53 -4 -55q-4 -41 -29 -41q-27 0 -28 27l-10 145q-10 160 -21 242q-16 121 -29 194q-22 129 -22 201zM123 88 q0 47 30.5 78t77.5 31q45 0 76 -31q33 -33 33 -78q0 -43 -33 -75.5t-76 -32.5q-45 0 -77 32q-31 31 -31 76z" />
<glyph unicode="&#x22;" horiz-adv-x="686" d="M129 1217q0 37 30.5 69.5t73.5 32.5q72 0 72 -68l-67 -370l-56 -9q-53 333 -53 345zM387 1219q0 35 31 69q31 33 74 33q72 0 71 -68l-67 -370l-56 -9q-53 333 -53 345z" />
<glyph unicode="#" horiz-adv-x="894" d="M49 375l14 98h187l35 225h-185l17 101h184l55 348h70l-57 -348h227l53 348h68l-55 -348h186l-17 -101h-184l-37 -225h185l-15 -98h-182l-57 -348h-68l53 348h-223l-57 -348h-68l55 348h-184zM317 473h228l35 225h-226z" />
<glyph unicode="$" horiz-adv-x="894" d="M84 299l53 6q25 -100 96 -176q70 -72 170 -84v496q-59 27 -79 39q-57 31 -82 49q-49 35 -76 65q-29 31 -51.5 86.5t-22.5 108.5q0 84 51.5 147.5t118.5 93.5q63 29 141 39v115h70v-113q37 -2 125 -12q76 -8 113 -4q4 -74 41 -293l-54 -8l-10 37q-31 104 -82 156 q-53 53 -133 61v-438l82 -33q35 -14 88 -49q57 -37 88 -68q35 -35 60 -88q27 -57 26 -113q0 -20 -4 -61q-2 -16 -25 -82q-16 -47 -53 -90q-35 -41 -102 -72q-74 -33 -160 -39v-141h-70v141q-66 4 -133 25q-63 20 -84 20q-15 0 -30 -12q-12 -10 -41 -10q0 86 -31 301z M223 897q0 -117 180 -199v410q-77 -12 -129 -68q-51 -53 -51 -143zM473 45q78 12 137.5 63.5t59.5 151.5q0 55 -19 102q-20 49 -49 74q-49 41 -61 47q-18 10 -68 31v-469z" />
<glyph unicode="%" horiz-adv-x="1302" d="M121 831q0 119 82 224q80 102 186 102q37 0 80 -16q45 -16 57 -35q109 -51 219 -51q203 0 308 110l77 -14l-845 -1180l-76 19l737 1028q-92 -39 -221 -39q-90 0 -164 43q6 -25 6 -51q0 -119 -73 -242q-72 -121 -189 -121q-86 0 -135 67.5t-49 155.5zM225 803 q0 -70 29 -102.5t63 -32.5q76 0 131.5 100t55.5 201q0 68 -29 96q-27 27 -63 27q-70 0 -129 -97q-58 -94 -58 -192zM778 186q0 121 80 223.5t191 102.5q74 0 125 -43t51 -143q0 -123 -72 -244t-188 -121q-88 0 -137.5 67.5t-49.5 157.5zM885 158q0 -70 28 -105 q27 -33 64 -33q78 0 133 103q53 98 53 199q0 49 -18 79q-16 27 -37 37q-16 8 -37 8q-71 0 -129 -98q-57 -96 -57 -190z" />
<glyph unicode="&#x26;" horiz-adv-x="1441" d="M90 319q0 123 88 230q86 104 289 219q-102 176 -102 291q0 100 86 180t227 80q115 0 186 -59q74 -61 74 -156q0 -84 -84 -174q-86 -92 -219 -170l8 -17q76 -127 250 -360q209 309 209 395q0 33 -33 33h-57q-10 0 -11 14v35l3 4q143 -4 178 -4l178 4l4 -4v-33 q0 -16 -18 -16h-58q-45 0 -78 -39q-31 -37 -94 -154q-90 -178 -174 -305l70 -94q96 -133 157 -133q94 0 156 115l33 -17q-35 -106 -88 -155q-57 -53 -113 -54q-43 0 -70 7q-29 6 -73.5 38.5t-91.5 96.5l-60 76q-156 -217 -381 -218q-178 0 -284.5 82t-106.5 262zM252 319 q0 -141 67.5 -208.5t176.5 -67.5q101 0 166 49q61 47 149 170l-180 250q-92 131 -119 180q-147 -82 -205 -170q-55 -86 -55 -203zM512 1063q0 -72 78 -221q102 68 155 135q55 72 56 127q0 70 -35 108q-34 37 -98 37q-49 0 -102.5 -49t-53.5 -137z" />
<glyph unicode="'" horiz-adv-x="387" d="M109 1217q0 37 30.5 69.5t73.5 32.5q72 0 72 -68l-68 -370l-55 -9q-53 333 -53 345z" />
<glyph unicode="(" horiz-adv-x="602" d="M90 516q0 272 121 520q117 242 313 412l37 -37q-311 -352 -311 -895q0 -158 26 -293q28 -141 62 -233q33 -88 84 -178q53 -94 78 -123l61 -72l-37 -35q-131 115 -209 232q-88 131 -129 229q-39 90 -65 213q-27 117 -29 162q-2 32 -2 98z" />
<glyph unicode=")" horiz-adv-x="602" d="M45 -379q311 352 311 895q0 158 -26 293q-29 145 -62 235q-33 88 -84 179q-49 88 -78 120l-61 72l37 35q125 -109 209 -231q86 -126 129 -228q39 -90 65 -213q23 -102 27 -162q4 -66 4 -100q0 -272 -121 -520q-117 -242 -313 -412z" />
<glyph unicode="*" horiz-adv-x="884" d="M154 1245q0 23 16 43q14 18 51 19q39 0 98 -45q55 -41 99 -60q-2 39 -25 101q-23 63 -22 88q0 35 18.5 57t42.5 22q68 0 68 -71q0 -28 -19 -99q-16 -61 -20 -100q40 15 98 62q57 45 96 45t54 -21q16 -23 16 -41q0 -76 -141 -76q-70 0 -113 -8q25 -29 72 -59 q49 -33 73.5 -57.5t24.5 -61.5q0 -28 -18 -43q-20 -16 -41 -16q-33 0 -58 32q-23 31 -47 93q-27 66 -41 88q-14 -27 -39 -90q-20 -55 -47 -93q-23 -31 -57 -30q-29 0 -43 16q-16 20 -17 41q0 39 27 66q18 18 74 55q47 31 72 59q-31 8 -87 8q-165 0 -165 76z" />
<glyph unicode="+" horiz-adv-x="1077" d="M135 426v100h352v357h105v-357h352v-100h-352v-356h-105v356h-352z" />
<glyph unicode="," horiz-adv-x="448" d="M92 -221q72 18 125 71q51 51 51 91q0 55 -73 63q-90 16 -91 90q0 45 31 72q33 29 78 29q61 0 98 -55.5t37 -147.5q0 -102 -74 -174q-76 -72 -172 -90q-20 16 -10 51z" />
<glyph unicode="-" horiz-adv-x="679" d="M68 479q0 25 16 51q14 25 35 25h469q29 0 28 -37q0 -18 -18 -47q-18 -27 -37 -27h-463q-30 0 -30 35z" />
<glyph unicode="." horiz-adv-x="448" d="M117 88q0 45 33 78q31 31 75.5 31t75.5 -31q33 -33 33 -78q0 -43 -33 -75.5t-76 -32.5t-75.5 32.5t-32.5 75.5z" />
<glyph unicode="/" horiz-adv-x="593" d="M8 -43l486 1440h84l-486 -1440h-84z" />
<glyph unicode="0" horiz-adv-x="899" d="M76 569q0 272 112 445q111 170 263 170q135 0 235 -135q131 -170 131 -461q0 -309 -119 -459q-121 -152 -256 -152q-160 0 -264 175q-102 171 -102 417zM242 549q0 -53 8 -152q6 -74 24 -159q18 -84 64 -140q43 -53 106 -53q20 0 52 10q25 8 63 54q35 41 57 116 q37 135 37 400q0 176 -35 297q-35 119 -81 159q-34 31 -86 31q-28 0 -56 -12q-23 -10 -55 -49q-29 -35 -51 -97q-20 -53 -33 -163q-14 -123 -14 -242z" />
<glyph unicode="1" horiz-adv-x="899" d="M188 983q268 123 381 201q10 0 11 -10v-1016q0 -57 14 -74q14 -18 63 -21l107 -4q16 0 16 -16v-43l-4 -4l-276 4l-281 -4l-4 4v43q0 16 16 16l123 4q53 4 64 23q14 25 14 72v700q0 12 -1 28.5t-1 20.5q0 12 -4 37q-4 18 -14 27q-9 6 -25 6q-51 0 -174 -57z" />
<glyph unicode="2" horiz-adv-x="899" d="M119 0q0 100 39 180q41 86 170 217l143 142q162 162 162 342q0 125 -63.5 182t-133.5 57q-92 0 -137 -39q-43 -37 -43 -84q0 -23 8 -47t8 -45q0 -37 -22 -55q-20 -18 -51 -19q-33 0 -55.5 23t-22.5 53q0 98 90 189q88 88 238 88q137 0 241.5 -74t104.5 -221 q0 -98 -47 -170q-47 -74 -148 -170l-194 -189q-147 -147 -148 -241h348q53 0 84 31q29 29 51 116l52 -8l-41 -258h-633z" />
<glyph unicode="3" horiz-adv-x="899" d="M92 109q0 25 20.5 45t51.5 20q41 0 76 -47q55 -84 157 -84q27 0 70 16.5t82 46.5q41 33 71.5 100.5t30.5 158.5q0 254 -258 253q-23 0 -63 -8l-8 62q111 18 198 108q84 86 84 166q0 82 -47 129q-45 45 -113 45q-43 0 -75 -10q-39 -12 -82 -49t-43 -94q0 -37 -17 -70 q-14 -31 -53 -31q-23 0 -39 17q-12 12 -16 28q-2 8 -2 21q0 28 18 67q18 41 57 82t115 72q77 31 178 31q133 0 195 -64q63 -68 63 -143q0 -143 -200 -270q104 -15 184 -93q82 -78 82 -223q0 -195 -127 -303t-309 -108q-96 0 -188.5 37t-92.5 92z" />
<glyph unicode="4" horiz-adv-x="899" d="M68 395q0 2 4 6q92 100 235 351q154 264 228 422q6 10 14 10t16 -4q6 -2 29 -11q10 -4 27 -8q-129 -305 -414 -755h323v321q0 29 21 41q47 35 90 35q29 0 29 -64v-333h164q29 0 28 -31q0 -18 -18 -39q-18 -23 -37 -23h-137v-166q0 -47 12 -65.5t55 -22.5l56 -4 q14 0 14 -14v-41l-4 -4q-172 4 -213 4l-215 -4l-4 4v41q0 14 14 14l55 4q90 6 90 88v166h-380q-64 0 -82 82z" />
<glyph unicode="5" horiz-adv-x="899" d="M104 125q0 29 21 47q22 18 49 18q47 0 92 -63q59 -78 129 -78q102 0 166 82q66 84 66 215q0 154 -66 234q-68 82 -168 82q-137 0 -246 -48l66 560q127 -10 209 -11q143 0 319 21l13 -6l-31 -134q-113 -10 -203 -10q-104 0 -233 17l-39 -324q80 31 196 31q156 0 248 -113 q92 -114 92 -264q0 -172 -110.5 -286.5t-282.5 -114.5q-90 0 -190 45q-97 43 -97 100z" />
<glyph unicode="6" horiz-adv-x="899" d="M90 471q0 303 211 514q102 102 206.5 145.5t262.5 53.5l6 -54q-221 -23 -346 -143q-144 -138 -178 -393q33 43 104 72q70 29 127 28q84 0 152 -28q66 -29 100 -66q39 -43 60 -88q23 -51 28.5 -88t5.5 -74q0 -58 -18 -117q-20 -68 -53 -120q-35 -59 -111 -97 q-74 -37 -174 -36q-63 0 -123 20q-63 23 -123 70q-63 51 -100 155.5t-37 245.5zM244 465q0 -231 75 -328q78 -98 175 -98q80 0 131 74q51 72 51 223q0 41 -10.5 88t-32.5 92q-27 53 -72 82q-49 31 -119 31q-111 0 -196 -92q-2 -15 -2 -72z" />
<glyph unicode="7" horiz-adv-x="899" d="M106 905q29 176 31 279q0 6 8 6q12 -4 33 -14q25 -12 64 -13h399q88 0 150 21l30 -23q-255 -617 -442 -1179l-133 -7l-6 13q129 293 438 1054h-346q-41 0 -66 -6q-29 -6 -55 -37q-33 -37 -51 -100z" />
<glyph unicode="8" horiz-adv-x="899" d="M92 283q0 135 113 233q86 77 141 117l-35 20q-172 109 -172 262q0 117 92 193q90 76 236 76q137 0 217 -67.5t80 -176.5q0 -133 -221 -281l119 -77q152 -98 151 -269q0 -123 -100 -229q-98 -104 -275 -104q-157 0 -252 79q-94 81 -94 224zM219 283q0 -117 72 -183 q70 -63 151 -63q90 0 162 53q74 55 74 184q0 154 -172 258l-90 56q-113 -78 -154 -160q-43 -86 -43 -145zM276 952q0 -121 136 -211l59 -36q166 119 166 237q0 78 -45 135.5t-135 57.5q-86 0 -133.5 -53.5t-47.5 -129.5z" />
<glyph unicode="9" horiz-adv-x="899" d="M63 813q0 66 17 117q18 55 55 119q37 61 110.5 98t174.5 37q63 0 122.5 -20.5t123 -72t100.5 -153.5q37 -104 37 -246q0 -303 -211 -514q-98 -98 -207 -143q-111 -45 -262 -55l-6 53q221 23 346 143q144 138 178 393q-33 -43 -104 -71q-70 -29 -127 -29q-90 0 -152 27 q-63 27 -100 67q-39 43 -60 88q-23 51 -29 88t-6 74zM217 827q0 -41 10 -88q10 -51 33 -94q25 -51 72 -80q49 -31 119 -30q111 0 196 92q2 14 2 71q0 231 -76 328q-78 98 -174 98q-80 0 -131 -73q-51 -72 -51 -224z" />
<glyph unicode=":" horiz-adv-x="448" d="M131 188q0 43 33 76t76 33q45 0 77 -33q31 -31 31 -76q0 -47 -30.5 -77.5t-77.5 -30.5q-45 0 -76 31q-33 32 -33 77zM131 727q0 45 33 78q31 31 76 31q47 0 77.5 -31t30.5 -78t-30.5 -78t-77.5 -31q-45 0 -76 31q-33 33 -33 78z" />
<glyph unicode=";" horiz-adv-x="448" d="M92 -221q72 18 125 71q51 51 51 91q0 55 -73 63q-90 16 -91 90q0 45 31 72q33 29 78 29q61 0 98 -55.5t37 -147.5q0 -102 -74 -174q-76 -72 -172 -90q-20 16 -10 51zM111 727q0 45 32 78q31 31 76 31q47 0 78 -31t31 -78t-31 -78t-78 -31q-45 0 -76 31q-32 33 -32 78z " />
<glyph unicode="&#x3c;" horiz-adv-x="995" d="M100 440v99l799 288v-102l-649 -236l649 -237v-102z" />
<glyph unicode="=" horiz-adv-x="1077" d="M135 295v100h809v-100h-809zM135 551v100h809v-100h-809z" />
<glyph unicode="&#x3e;" horiz-adv-x="995" d="M100 145v103l650 235l-650 238v102l799 -291v-98z" />
<glyph unicode="?" horiz-adv-x="827" d="M59 1085q0 98 105 185q92 80 254 80q154 0 248 -84q90 -82 90 -226q0 -78 -39 -143q-37 -63 -76 -98q-33 -31 -102 -80q-86 -66 -107 -103q-37 -72 -37 -149v-90q0 -20 -26.5 -20.5t-26.5 20.5v94q0 74 4 100q6 45 39 107q35 66 94 123q66 63 94 112q29 51 29 119 q0 100 -59.5 178t-145.5 78q-84 0 -141 -34.5t-57 -82.5q0 -37 12 -53q12 -15 12 -49q0 -35 -24.5 -53.5t-55.5 -18.5q-37 0 -59 21q-25 21 -25 67zM260 88q0 45 33 78q31 31 76 31q47 0 77.5 -31t30.5 -78q0 -45 -31 -76q-33 -33 -77 -32q-43 0 -76 32.5t-33 75.5z" />
<glyph unicode="@" horiz-adv-x="1830" d="M121 457q0 330 246 563q244 231 594 231q330 0 542 -192q215 -195 215 -481q0 -94 -30 -181q-31 -88 -95 -166q-61 -78 -184 -127q-119 -49 -281 -49q-74 0 -73 84q0 34 30 129l-4 2q-63 -106 -139 -159q-72 -51 -133 -52q-74 0 -125 27q-53 29 -78 72q-23 39 -35 80 t-12 75q0 215 152 369q154 158 325 158q49 0 96.5 -24.5t61.5 -63.5l10 49l109 26l30 -10l-122 -528q-27 -115 -27 -137q0 -25 23 -25q168 0 253.5 98.5t85.5 337.5q0 152 -59 277q-58 123 -154 196q-98 76 -198 115q-102 39 -205 39q-127 0 -235.5 -41t-208.5 -125 q-96 -80 -154 -217q-57 -135 -57 -313q0 -88 20 -197q16 -90 70 -199q51 -106 123 -180q72 -76 196 -125q123 -49 275 -49q243 0 411 135l27 -37q-104 -80 -213 -125q-100 -41 -264 -41q-360 0 -584 224q-225 225 -225 557zM709 332q0 -188 159 -189q53 0 121 76 q70 80 115 191q61 147 61 237q0 55 -36.5 92t-96.5 37q-29 0 -90 -20q-53 -18 -94 -62q-139 -139 -139 -362z" />
<glyph unicode="A" horiz-adv-x="1421" d="M4 0v39q0 16 16 16q76 6 117 33t82 121l455 1065q20 45 33 57q16 16 36 17q34 0 56 -62l420 -1110q22 -58 55 -86q33 -27 96 -33l23 -2q20 -2 20 -16v-39l-6 -4q-209 4 -238 4l-272 -4l-2 4v39q0 14 14 16l58 4q92 6 92 58q0 12 -6 30l-125 347h-426q-34 0 -49 -7 q-12 -4 -23 -28l-119 -297q-6 -18 -6 -33q0 -29 23 -47q23 -20 65 -23l60 -4q16 -4 16 -16v-39l-4 -4q-61 0 -126 1t-98.5 2t-47.5 1l-185 -4zM485 598q0 -18 54 -18h356l-199 546h-4l-205 -520q-2 -4 -2 -8z" />
<glyph unicode="B" horiz-adv-x="1189" d="M35 0v39q0 16 14 16l62 4q70 4 88 19t18 67v1031q0 49 -20 65q-16 14 -86 21l-62 4q-14 0 -14 14v41l4 2q106 -2 260 -2q14 0 58 1t75 1h115q440 0 440 -313q0 -84 -53 -158t-137 -115q311 -90 311 -360q0 -71 -25 -135q-23 -61 -79 -121q-55 -57 -162 -92 q-100 -33 -250 -33q-125 0 -172 2t-121 2l-260 -4zM383 160q0 -51 35 -74q33 -20 135 -20q213 0 295 71q78 70 78 201q0 147 -95 244q-94 98 -266 98h-182v-520zM383 750h152q295 0 294 235q0 141 -81.5 204.5t-186.5 63.5q-86 0 -127 -10q-39 -10 -45 -24.5t-6 -53.5v-415z " />
<glyph unicode="C" horiz-adv-x="1316" d="M76 645q0 297 196.5 500t456.5 203q145 0 279 -45q127 -43 170 -48q8 -119 45 -317l-62 -8q-102 342 -454 342q-63 0 -140 -35q-78 -35 -147 -102q-76 -72 -119 -185q-47 -123 -47 -266q0 -157 49 -295q47 -135 160 -231q109 -94 262 -95q147 0 256 52q113 53 219 172 l47 -31q-211 -276 -520 -276q-209 0 -362 100q-152 98 -220 246q-69 151 -69 319z" />
<glyph unicode="D" horiz-adv-x="1425" d="M35 0v37q0 16 14 18l62 4q57 4 82 25q25 23 24 68v1019q0 55 -20.5 69.5t-85.5 21.5l-58 4q-18 4 -18 16v39l4 4q74 0 137.5 -1t91.5 -2l29 -1q100 0 167.5 2t168.5 2q293 0 499.5 -202.5t206.5 -491.5q0 -178 -63 -312q-61 -129 -166 -196q-106 -68 -213 -98 q-102 -29 -227 -29q-145 0 -211 2t-162 2q-139 0 -258 -4zM383 147q0 -51 39 -65q43 -16 184 -16q545 0 545 516q0 88 -21 190q-16 86 -63 182q-43 89 -111 154q-70 68 -170 106q-98 39 -231 39q-88 0 -129 -14q-43 -14 -43 -63v-1029z" />
<glyph unicode="E" horiz-adv-x="1122" d="M25 0v41q0 10 16 14l61 4q59 4 82 22.5t23 65.5v1027q0 47 -23 65q-18 16 -82 23l-61 4q-16 4 -16 14v41l4 2q137 -2 262 -2h518q55 0 94 8q8 0 8 -6q27 -145 45 -297l-59 -10q-41 123 -84 172q-45 51 -151 51h-216q-74 0 -73 -65v-435h260q53 0 74 21q23 23 28 65l6 52 q0 16 15 16h45q8 0 8 -8q-8 -96 -8 -176l8 -187l-6 -6h-47q-16 0 -17 14l-4 54q-2 45 -26 61q-23 16 -76 17h-260v-515q0 -68 73 -67h279q203 0 276 268l64 -10l-76 -342q-217 4 -262 4h-436l-262 -4z" />
<glyph unicode="F" horiz-adv-x="974" d="M25 1280v41l4 2q137 -2 262 -2h518q55 0 94 8q8 0 8 -6q27 -145 45 -297l-59 -10q-41 123 -84 172q-45 51 -151 51h-216q-74 0 -73 -65v-435h260q53 0 74 21q23 23 28 65l6 52q0 16 15 16h45q8 0 8 -8q-8 -100 -8 -180l8 -183l-6 -6h-47q-16 0 -17 14l-4 54q-2 45 -26 61 q-23 16 -76 17h-260v-515q0 -49 26 -71q23 -20 86 -21h54q16 0 16 -16v-39l-2 -4q-209 4 -258 4q-51 0 -264 -4l-4 4v39q0 16 16 16h53q111 0 111 92v1027q0 47 -23 65q-18 16 -82 23l-61 4q-16 4 -16 14z" />
<glyph unicode="G" horiz-adv-x="1417" d="M66 629q0 219 104 385q106 168 260 250q158 84 338 84q139 0 270 -48q127 -45 176 -45q18 -199 46 -315l-62 -12q-45 154 -151 250q-102 94 -308 94q-213 0 -354 -168q-141 -170 -141 -434q0 -104 37 -211q35 -100 106 -199q66 -90 178 -149q109 -57 240 -58 q197 0 301 99v313q0 47 -25 65q-23 16 -88 21l-53 4q-16 4 -16 16v54l4 4q238 -4 258 -4l190 4l4 -4v-54q0 -12 -16 -16q-47 -6 -69.5 -22.5t-22.5 -67.5v-238q0 -33 33 -57q-224 -190 -547 -190q-303 0 -497.5 188.5t-194.5 460.5z" />
<glyph unicode="H" horiz-adv-x="1431" d="M35 1282v39l4 4q238 -4 258 -4l264 4l4 -4v-39q0 -12 -16 -16l-53 -4q-59 -2 -86 -22.5t-27 -63.5v-433h668v433q0 45 -25 63q-20 16 -86 23l-53 4q-18 4 -19 16v39l4 4q238 -4 258 -4l265 4l4 -4v-39q0 -14 -17 -16l-53 -4q-59 -2 -85.5 -22.5t-26.5 -63.5v-1024 q0 -46 24 -68q25 -23 88 -25l53 -4q18 -2 19 -16v-39l-4 -4q-238 4 -258 4l-265 -4l-4 4v39q0 14 17 16l53 4q59 2 86 27q25 20 25 66v505h-668v-510q0 -47 25 -65q27 -20 88 -23l53 -4q16 -4 16 -16v-39l-4 -4q-233 4 -258 4l-262 -4l-4 4v39q0 14 14 16l55 4q61 3 87 25 q25 23 24 63v1029q0 45 -24 63q-20 16 -87 23l-55 4q-16 4 -16 16z" />
<glyph unicode="I" horiz-adv-x="598" d="M35 1282v39l4 4q55 0 116.5 -1t94.5 -2t49 -1q18 0 52 1t96.5 2t113.5 1l4 -4v-39q0 -12 -16 -16l-53 -4q-59 -2 -86 -22.5t-27 -63.5v-1031q0 -45 25 -63q27 -20 88 -23l53 -4q16 -4 16 -16v-39l-4 -4q-131 4 -260 4q-125 0 -260 -4l-4 4v39q0 14 14 16l55 4q59 2 87 23 q25 18 24 63v1031q0 45 -24 63q-20 16 -87 23l-55 4q-16 4 -16 16z" />
<glyph unicode="J" horiz-adv-x="643" d="M-121 -254q0 33 26.5 53.5t51.5 20.5q68 0 106 -56q27 -37 58 -36q172 0 172 426v991q0 72 -31 94q-31 20 -115 25l-41 2q-18 0 -18 16v39l4 4q266 -4 281 -4l243 4l5 -4v-39q0 -16 -17 -16l-35 -2q-61 -3 -86 -25q-25 -23 -24 -63v-977q0 -180 -56 -291 q-53 -104 -159 -193q-96 -80 -234 -80q-40 0 -86 31q-45 31 -45 80z" />
<glyph unicode="K" horiz-adv-x="1302" d="M35 1282v39l4 4q55 0 116.5 -1t94.5 -2t49 -1q18 0 52 1t96.5 2t113.5 1l4 -4v-39q0 -12 -16 -16l-53 -4q-59 -2 -86 -22.5t-27 -63.5v-465q94 6 164 80l344 360q47 53 47 78q0 27 -55 33l-43 4q-16 4 -17 16v39l4 4q209 -4 238 -4l197 4l10 -4v-39q0 -16 -23 -16 q-59 -6 -84 -15q-35 -10 -78 -34q-47 -27 -94 -74l-286 -309q-76 -82 -76 -101q0 -27 24 -51l449 -532q66 -78 160 -93l14 -2q18 -2 18 -16v-39l-6 -4q-205 4 -233 4l-123 -4l-4 4v12q0 84 -41 138l-334 405q-59 78 -172 78v-488q0 -45 25 -63q27 -20 88 -23l53 -4 q16 -4 16 -16v-39l-4 -4q-131 4 -260 4q-125 0 -260 -4l-4 4v39q0 14 14 16l55 4q59 2 87 23q25 18 24 63v1031q0 45 -24 63q-20 16 -87 23l-55 4q-16 4 -16 16z" />
<glyph unicode="L" horiz-adv-x="1075" d="M35 0v39q0 12 16 16l62 4q59 2 84 21q20 14 20 67v1029q0 45 -24 63q-20 16 -87 23l-55 4q-16 4 -16 16v39l4 4q238 -4 258 -4l264 4l4 -4v-39q0 -12 -16 -16l-53 -4q-61 -2 -88 -23q-25 -18 -25 -63v-994q0 -47 25 -76q25 -27 71 -26h236q106 0 164 70q61 74 94 198 l61 -10q-45 -213 -53 -342q-49 0 -107.5 1t-89 2t-47.5 1h-436l-262 -4z" />
<glyph unicode="M" horiz-adv-x="1716" d="M31 0v39q0 14 18 16l55 4q72 6 82 117l99 1000q0 4 1 11t1 9q0 33 -19 47q-18 15 -61 19l-60 4q-20 2 -20 14v37l6 6h301l420 -1042q8 -27 16 -27q6 0 19 29l434 1040h274l5 -6v-37q0 -10 -23 -14l-55 -4q-78 -6 -78 -76v-10l72 -998q2 -55 20 -86q16 -31 64 -33l55 -4 q23 -4 22 -16v-39l-4 -4q-201 4 -229 4l-219 -4l-6 4v39q0 14 18 16l55 4q68 6 68 105v14l-57 916h-5l-460 -1084q-12 -23 -29 -22q-20 0 -31 22l-424 1063h-4l-86 -897q0 -4 -1 -12t-1 -10q0 -88 72 -95l53 -4q20 -2 21 -16v-37l-4 -6q-143 4 -189 4l-184 -4z" />
<glyph unicode="N" horiz-adv-x="1421" d="M23 0v37q0 14 26 18l53 4q111 10 111 121v946q-8 45 -51 91q-43 47 -88 49q-35 4 -35 16v39l6 4h279l702 -909q86 -113 102 -113q14 0 15 62v776q0 113 -111 121l-53 4q-29 4 -29 16v39l8 4q205 -4 228 -4l227 4l4 -4v-39q0 -12 -16 -16l-55 -4q-111 -8 -111 -121v-1098 q0 -63 -43 -63q-45 0 -82 49l-715 903q-51 68 -69 67q-20 0 -21 -100v-719q0 -113 113 -121l53 -4q16 -4 16 -16v-39l-4 -4q-193 4 -227 4l-229 -4z" />
<glyph unicode="O" horiz-adv-x="1427" d="M76 635q0 303 180 508t455 205q283 0 463 -187q182 -188 182 -487q0 -307 -176 -502q-174 -193 -467 -192q-274 0 -455 180q-182 182 -182 475zM264 670q0 -285 146 -451q147 -170 344 -170q180 0 296.5 160t116.5 426q0 309 -131 477q-129 166 -352 166 q-168 0 -293 -154q-127 -155 -127 -454z" />
<glyph unicode="P" horiz-adv-x="1064" d="M35 0v39q0 12 16 16l53 4q59 2 86 22.5t27 63.5v1031q0 43 -27 63q-25 18 -63 23l-80 4q-12 0 -12 12v43l4 2q111 -2 260 -2q45 0 137 8q117 10 129 10q135 0 230 -36q98 -37 141 -91q43 -51 63 -110q18 -53 19 -107q0 -80 -23 -141q-27 -72 -75 -133q-51 -61 -150 -103 q-100 -41 -231 -40q-94 0 -156 20v-453q0 -45 25 -63q27 -20 86 -23l55 -4q16 -4 16 -16v-39l-4 -4q-238 4 -258 4l-264 -4zM383 657q41 -10 145 -10q309 0 309.5 311.5t-286.5 311.5q-100 0 -135 -23q-33 -20 -33 -71v-519z" />
<glyph unicode="Q" horiz-adv-x="1427" d="M76 635q0 303 180 508t455 205q283 0 463 -187q182 -188 182 -487q0 -274 -137.5 -456.5t-374.5 -225.5q-141 -37 -275 -137q14 2 41 2q117 0 303.5 -84t268.5 -84q115 0 178 75l35 -24q-117 -168 -295 -168q-90 0 -176 31q-96 35 -146 65q-58 37 -128.5 68t-135.5 31 q-35 0 -78 -29q-47 -31 -71 -92l-80 41q55 77 147 159q88 80 201 138q-243 28 -400 202q-157 177 -157 449zM264 670q0 -285 146 -451q147 -170 344 -170q180 0 296.5 160t116.5 426q0 309 -131 477q-129 166 -352 166q-168 0 -293 -154q-127 -155 -127 -454z" />
<glyph unicode="R" horiz-adv-x="1183" d="M35 0v39q0 12 16 16l53 4q63 2 88 24.5t25 63.5v1029q0 43 -27 63q-25 18 -63 23l-80 4q-12 0 -12 12v43l4 2q111 -2 260 -2q43 0 131 8q109 10 125 10q246 0 354.5 -102t108.5 -256q0 -141 -88 -229q-90 -90 -185 -121l259 -430q45 -74 90 -117q45 -41 106 -41l2 -49 q-27 -14 -86 -14q-160 0 -270 182l-219 356q-25 41 -74 59.5t-170 18.5v-449q0 -47 25 -65q27 -20 86 -23l55 -4q16 -4 16 -16v-39l-4 -4q-238 4 -258 4l-264 -4zM383 666h102q168 0 260.5 67.5t92.5 245.5q0 82 -27 147q-23 59 -68 91q-39 29 -88 40q-46 12 -98 13 q-98 0 -137 -23q-37 -23 -37 -71v-510z" />
<glyph unicode="S" horiz-adv-x="970" d="M70 338l63 6q61 -291 348 -291q117 0 180.5 63.5t63.5 188.5q0 123 -59 187q-59 61 -168 104q-83 34 -142 61q-53 25 -120 76q-59 45 -93 113q-33 70 -32 147q0 152 120 254q119 100 263 101q113 0 192 -25q96 -29 107 -31q35 -262 34 -264l-63 -12q-37 125 -96 194 q-57 68 -193 68q-98 0 -161.5 -65.5t-63.5 -163.5q0 -176 278 -279q74 -27 131 -55q55 -28 111 -74q59 -49 88 -113q31 -68 31 -151q0 -158 -125 -277q-127 -121 -299 -120q-86 0 -197 16q-98 14 -159 14q-2 95 -39 328z" />
<glyph unicode="T" horiz-adv-x="1159" d="M14 1061q29 125 45 315l56 -8q0 -47 43 -47h866q45 0 45 47l53 8q0 -154 27 -315l-62 -10q-27 123 -53 157q-25 33 -108 33h-135q-57 0 -78 -18.5t-21 -67.5v-1008q0 -47 25 -65q27 -18 88 -23l53 -4q18 -2 19 -16v-39l-5 -4q-242 4 -260 4l-262 -4l-4 4v39q0 12 16 16 l54 4q61 2 85.5 24.5t24.5 63.5v1014q0 47 -22.5 63.5t-77.5 16.5h-170q-84 0 -117 -32.5t-63 -157.5z" />
<glyph unicode="U" horiz-adv-x="1351" d="M0 1282v39l4 4q238 -4 258 -4l264 4l4 -4v-39q0 -12 -16 -16l-53 -4q-61 -3 -86 -25q-27 -23 -27 -66v-620q0 -106 2 -139q2 -37 31 -123q25 -72 76 -123q109 -102 243 -103q101 0 172 31q70 31 111 78q39 45 61 121q20 70 27 133q6 61 6 141v600q0 46 -24 68 q-23 20 -86 27l-56 4q-16 4 -16 16v39l4 4q193 -4 225 -4l226 4l4 -4v-39q0 -14 -17 -16l-53 -4q-61 -2 -88 -27q-25 -22 -25 -68v-563q0 -143 -22 -252q-20 -104 -78 -194q-55 -88 -156 -133q-102 -45 -258 -45q-76 0 -153 22q-80 25 -152 72q-76 51 -123 157.5t-47 251.5 v688q0 47 -24.5 65.5t-85.5 25.5l-56 4q-16 4 -16 16z" />
<glyph unicode="V" horiz-adv-x="1271" d="M0 1282v39l4 4q213 -4 240 -4l233 4l4 -4v-39q0 -12 -16 -16l-35 -4q-57 -6 -77.5 -18.5t-20.5 -33.5q0 -16 8 -39l324 -911h8l319 897q8 23 8 43q0 57 -98 64l-33 2q-16 0 -16 16v39l4 4q193 -4 225 -4l189 4l4 -4v-39q0 -16 -17 -16q-78 -4 -114 -37q-39 -35 -62 -96 l-415 -1110q-18 -47 -50 -48q-29 0 -47 48l-399 1116q-25 74 -51 96q-29 25 -103 31q-16 4 -16 16z" />
<glyph unicode="W" horiz-adv-x="1890" d="M0 1280v41l4 4q143 -4 184 -4l248 4l4 -4v-39q0 -16 -18 -16l-45 -2q-57 -2 -58 -39q0 -20 13 -54l307 -944h4l217 678q14 41 14 78q0 31 -10 57l-30 95l-23 57q-8 20 -45 47q-33 23 -84 27q-25 0 -25 14v41l5 4q152 -4 196 -4l262 4l6 -4v-41q0 -14 -18 -14l-59 -4 q-57 -2 -58 -62q0 -29 13 -65l294 -912h5l305 934q8 23 8 43q0 57 -98 64l-33 2q-16 0 -17 16v39l5 4q193 -4 225 -4l188 4l4 -4v-39q0 -16 -16 -16q-80 -4 -117 -37q-35 -33 -57 -96l-383 -1110q-16 -47 -55 -48q-45 0 -64 50l-240 727q-20 57 -28 57q-10 0 -29 -51 l-244 -733q-14 -49 -57 -50q-47 0 -63 50l-373 1114q-25 78 -51 102q-23 23 -88 25q-25 4 -25 14z" />
<glyph unicode="X" horiz-adv-x="1339" d="M6 0v41q0 10 23 14q125 6 235 158l281 383q20 27 20 47q0 27 -28 62l-295 419q-86 123 -183 142q-33 6 -32 14v39l8 6q53 0 103 -1t75 -2t31 -1l245 4q6 -6 9 -6v-39q0 -14 -11 -14l-65 -4q-45 -2 -45 -25q0 -14 35 -66l243 -360q16 -23 24.5 -23t27.5 25l264 358 q31 43 30 64q0 23 -43 27l-61 4q-14 2 -14 14v41l4 4q51 0 100 -1t72.5 -2t30.5 -1l198 4l6 -4v-41q0 -14 -18 -14q-86 -4 -129 -35t-96 -101l-269 -362q-27 -35 -26 -61q0 -23 32 -68l316 -430q102 -145 217 -154q14 0 14 -14v-41l-4 -4q-147 4 -215 4l-256 -4l-6 4v41 q0 12 12 14l41 4q63 6 64 27q0 12 -37 64l-270 385q-16 23 -29 22q-8 0 -31 -29l-270 -370q-29 -41 -29 -62q0 -31 60 -37l38 -4q12 -2 13 -14v-41l-6 -4q-55 0 -110.5 1t-83.5 2t-36 1l-172 -4z" />
<glyph unicode="Y" horiz-adv-x="1173" d="M0 1280v41l4 4q53 0 104.5 -1t77 -2t33.5 -1l234 4l4 -4v-39q0 -16 -13 -16l-59 -2q-51 -2 -51 -25q0 -14 24 -59l281 -494h4l262 494q18 33 19 53q0 25 -47 29l-62 4q-10 0 -10 14v41l4 4q45 0 90 -1t67.5 -2t28.5 -1l179 4l4 -4v-41q0 -12 -21 -14l-43 -4 q-33 -2 -57 -19q-25 -15 -37 -31q-2 -2 -33 -55l-289 -522q-14 -27 -14 -86v-402q0 -92 113 -92h55q16 0 16 -16v-39l-4 -4q-238 4 -258 4l-264 -4l-4 4v39q0 16 16 16h54q113 0 112 92v383q0 61 -16 88l-299 502q-55 90 -80 113q-28 25 -80 31l-25 2q-20 2 -20 14z" />
<glyph unicode="Z" horiz-adv-x="1234" d="M84 31q0 25 16 47l797 1108q16 23 16 37q0 16 -20 16h-473q-104 0 -150 -57q-43 -55 -84 -187l-61 11q33 156 45 342q37 -4 72 -15q41 -12 94 -12h657q33 2 76 12q39 8 53 8q47 0 47 -20q0 -40 -49 -111l-768 -1063q-16 -29 -16 -41q0 -27 51 -26h477q106 0 164 70 q59 72 92 198l64 -10q-39 -156 -56 -342q-53 0 -115.5 1t-95 2t-49.5 1h-745q-39 0 -39 31z" />
<glyph unicode="[" horiz-adv-x="727" d="M225 -225v1665h430v-62q-111 -9 -166 -18q-53 -8 -88 -37q-33 -27 -39 -63q-8 -49 -8 -111v-1083q0 -74 6 -109q6 -37 39 -63q35 -29 90 -41q33 -8 166 -19v-59h-430z" />
<glyph unicode="\" horiz-adv-x="585" d="M23 1430h90l471 -1528h-90z" />
<glyph unicode="]" horiz-adv-x="727" d="M74 -164q111 9 166 19q51 8 88 39q33 27 39 63q8 49 8 109v1083q0 76 -6 108q-6 37 -39 64q-35 29 -90 41q-33 8 -166 18v60h430v-1665h-430v61z" />
<glyph unicode="^" horiz-adv-x="1058" d="M229 709l260 622h86l259 -622h-93l-211 505l-208 -505h-93z" />
<glyph unicode="_" horiz-adv-x="993" d="M10 -225h977v-90h-977v90z" />
<glyph unicode="`" horiz-adv-x="800" d="M197 1366l4 23q66 47 133 47q10 0 31 -4l143 -258q12 -25 12 -50q0 -8 -8 -14q-12 -8 -23 -8q-14 0 -59 41z" />
<glyph unicode="a" horiz-adv-x="1099" d="M4 0v43q0 12 12 12q37 4 52 8q16 6 40.5 27t38.5 53l359 770q25 53 67 54q61 0 82 -52l299 -759q25 -59 50 -78q27 -20 77 -23q16 -4 17 -12v-43l-6 -4q-143 4 -170 4l-230 -4l-4 4v43q0 12 14 12l37 4q82 8 82 39q0 2 -1 10q-3 7 -3 13l-92 237h-350q-39 0 -45 -22 l-90 -215q-8 -18 -9 -27q0 -31 84 -37l27 -2q12 0 12 -12v-43l-4 -4q-45 0 -95 1t-75.5 2t-38.5 1l-133 -4zM381 446q0 -29 41 -28h278l-157 403h-4z" />
<glyph unicode="b" horiz-adv-x="995" d="M66 -4v47q0 12 12 12l47 4q82 8 82 88v676q0 37 -14 45q-18 12 -68 15l-47 4q-12 0 -12 8v51l208 -4q225 4 228 4q350 0 350 -225q0 -57 -43 -119q-45 -63 -104 -90q209 -45 208 -256q0 -100 -102 -180q-101 -80 -264 -80q-94 0 -155.5 2t-117.5 2zM365 147q0 -29 2 -36 q4 -12 14 -27q14 -16 39 -23q27 -6 76 -6q242 0 241 215q0 104 -51 155.5t-182 51.5h-139v-330zM365 537h139q193 0 192 182q0 101 -55 135q-53 33 -141 33q-90 0 -112.5 -12.5t-22.5 -51.5v-286z" />
<glyph unicode="c" horiz-adv-x="1005" d="M76 459q0 223 137 362q139 141 342 142q84 0 198.5 -16.5t135.5 -16.5q4 -113 24 -262l-53 -6q-39 242 -293 241q-313 0 -313 -424q0 -117 27 -205q27 -92 102 -157q76 -68 192 -68q100 0 166 35q68 35 138 117l41 -33q-74 -98 -156 -143t-199 -45q-223 0 -356 145.5 t-133 333.5z" />
<glyph unicode="d" horiz-adv-x="1146" d="M66 0v43q0 12 12 12l47 4q47 2 65 23q16 16 17 65v676q0 37 -14 47q-12 9 -68 13l-45 4q-14 2 -14 10v45l2 4q49 0 101 -1t78.5 -2t37.5 -1q55 0 128.5 2t141.5 2q248 0 379 -135q131 -133 131 -350q0 -133 -41 -223q-45 -98 -115 -146q-68 -45 -153 -72 q-80 -25 -172 -24q-125 0 -186.5 2t-112.5 2l-217 -4zM365 147q0 -49 30 -71q29 -20 140 -21q182 0 266 82q86 83 86 289q0 51 -8 129q-6 58 -31 123q-25 63 -66 108q-41 43 -114 72q-76 29 -172 29q-131 0 -131 -64v-676z" />
<glyph unicode="e" horiz-adv-x="927" d="M66 0v45q0 10 12 10l47 4q82 8 82 88v676q0 35 -16.5 45.5t-65.5 14.5l-47 4q-12 2 -12 8v47l2 4q213 -4 221 -4h301l207 4l4 -4q3 -89 30 -246l-51 -8q-10 41 -20 62q-23 45 -33 59q-23 31 -57 47q-37 16 -82 16h-164q-59 0 -59 -49v-297h153q43 0 57 15q16 16 23 51 l12 43q0 10 13 10h34q4 0 5 -6q-12 -135 -13 -152l13 -141l-5 -4h-34q-14 0 -15 10l-10 45q-12 63 -80 64h-153v-314q0 -33 16 -55t43 -22h194q147 0 187 172l51 -6l-41 -236l-4 -4q-160 4 -182 4h-359l-202 -4z" />
<glyph unicode="f" horiz-adv-x="890" d="M59 0v43q0 10 15 12l41 4q88 8 88 66v698q0 33 -15 45q-14 10 -67 15l-49 4q-12 0 -13 10v47l7 2q193 -4 206 -4h297l185 4l4 -4q2 -158 16 -242l-51 -6q-39 178 -156 178h-149q-57 0 -58 -47v-329h177q39 0 55 16q15 15 24 49l11 43q3 12 12 12h35q6 0 6 -6 q-12 -104 -12 -153l12 -142l-4 -4h-37q-8 0 -14 11l-9 45q-9 34 -24 49q-14 14 -55 14h-177v-305q0 -33 21 -45q27 -14 65 -21l37 -4q14 -2 15 -12v-43l-2 -4q-217 4 -228 4l-205 -4z" />
<glyph unicode="g" horiz-adv-x="1114" d="M78 451q0 238 149.5 375t382.5 137q55 0 182.5 -16.5t145.5 -16.5q4 -131 27 -262l-54 -6q-45 242 -327 241q-158 0 -244 -116.5t-86 -309.5q0 -92 37 -188q39 -98 123 -172q90 -78 207 -78q115 0 192 78v211q0 35 -20 47q-23 14 -68 16l-41 4q-12 2 -12 13v45l2 2 q109 -2 225 -2l154 2l4 -2v-45q0 -9 -13 -13q-39 -6 -57 -20q-16 -12 -16 -47v-154q0 -18 28 -47q-213 -147 -415 -147q-213 0 -361 137q-145 135 -145 334z" />
<glyph unicode="h" horiz-adv-x="1206" d="M66 0v43q0 10 14 12l41 4q51 2 69.5 18.5t18.5 47.5v698q0 34 -19 43q-20 10 -69 17l-41 4q-14 2 -14 12v43l4 4q205 -4 217 -4l219 4l2 -4v-43q0 -9 -12 -12l-43 -4q-45 -2 -65.5 -16.5t-20.5 -43.5v-309h477v309q0 33 -19 45q-16 10 -69 15l-41 4q-14 2 -15 12v43l5 4 q201 -4 215 -4l221 4l2 -4v-43q0 -9 -13 -12l-40 -4q-55 -6 -70 -17q-18 -12 -19 -43v-698q0 -31 18.5 -47.5t70.5 -18.5l40 -4q14 -2 15 -12v-43l-4 -4q-217 4 -223 4l-213 -4l-3 4v43q0 9 13 12l41 4q88 8 88 66v326h-477v-326q0 -31 20 -47q18 -14 66 -19l43 -4 q12 -3 12 -12v-43l-2 -4q-209 4 -219 4l-217 -4z" />
<glyph unicode="i" horiz-adv-x="569" d="M66 0v43q0 10 14 12l41 4q88 8 88 78v682q0 35 -19 47q-20 12 -69 17l-41 4q-14 2 -14 8v47l2 4q217 -4 225 -4l213 4l2 -4v-45q0 -8 -12 -10l-43 -4q-47 -4 -66 -19q-20 -16 -20 -45v-682q0 -68 86 -78l43 -4q12 -3 12 -12v-43l-2 -4q-209 4 -219 4l-217 -4z" />
<glyph unicode="j" horiz-adv-x="614" d="M-94 -256q0 27 26 49q23 20 48 21q59 0 98 -52q25 -35 53 -34q135 0 135 426v667q0 31 -20.5 45.5t-67.5 16.5l-57 4q-12 0 -12 10v45l2 4q233 -4 237 -4l201 4l4 -4v-45q0 -8 -14 -10l-27 -4q-51 -10 -68 -21q-20 -14 -20 -41v-624q0 -340 -178 -482q-90 -74 -217 -73 q-35 0 -80 28q-43 28 -43 74z" />
<glyph unicode="k" horiz-adv-x="1069" d="M66 0v43q0 10 14 12l41 4q88 8 88 78v682q0 35 -19 47q-20 14 -69 17l-41 4q-14 2 -14 8v47l2 4q225 -4 231 -4l186 4l2 -4v-45q0 -8 -12 -10l-22 -4q-51 -10 -68 -21q-18 -12 -18 -43v-309q47 0 86 27q40 28 110 104q145 162 146 205q0 33 -60 41q-12 2 -12 10v47l2 2 q221 -4 225 -4l144 4l6 -2v-47q0 -8 -17 -10l-75 -8q-25 -3 -62 -25q-39 -23 -72 -61l-176 -203q-47 -51 -47 -76q0 -14 19 -35l309 -373q29 -31 115 -49l10 -2q14 -2 14 -12v-43l-6 -2q-72 2 -166 2l-125 -2l-2 2v25q0 49 -31 81l-227 283q-37 51 -108 51v-303 q0 -59 86 -78l22 -4q12 -3 12 -12v-43l-2 -4q-172 4 -190 4l-225 -4z" />
<glyph unicode="l" horiz-adv-x="858" d="M66 0v43q0 9 12 12l47 4q47 2 68 17q16 10 16 51v692q0 35 -19 47q-20 12 -69 17l-41 4q-14 2 -14 12v43l2 4q217 -4 225 -4l213 4l2 -4v-43q0 -9 -12 -12l-43 -4q-49 -3 -68 -19q-18 -16 -18 -45v-698q0 -51 57 -51h143q84 0 127 47q45 47 72 139l51 -6 q-37 -152 -43 -250h-502h-22q-2 0 -23.5 -1t-40.5 -1q-14 0 -53 -1t-65 -1z" />
<glyph unicode="m" horiz-adv-x="1335" d="M45 0v43q0 8 16 12q57 2 82 21q20 14 27 76l78 688q0 25 -19 34q-18 8 -88 13q-16 4 -16 8v45l4 6l268 -4l277 -743l301 743l262 4l4 -4v-39q0 -12 -16 -16q-74 -6 -88 -17q-20 -14 -21 -53q0 -4 1 -13t1 -16l49 -647q4 -51 24.5 -65.5t78.5 -20.5q18 -3 18 -12v-43 l-4 -4q-156 4 -178 4l-201 -4l-4 4v43q0 10 14 12l43 4q33 2 46 19q10 14 8 47l-29 657h-4l-326 -790q-6 -16 -22 -17q-18 0 -25 17l-291 776h-4l-71 -627q0 -47 18 -65q16 -16 80 -21q14 0 14 -12v-43l-2 -4q-127 4 -157 4l-146 -4z" />
<glyph unicode="n" horiz-adv-x="1167" d="M66 0v43q0 10 20 12l41 4q88 8 88 86v668q-37 68 -125 74q-18 3 -18 12v41l4 6l276 -4l469 -637q43 -49 57.5 -49t14.5 53v486q0 37 -23 59q-27 27 -67 29l-43 4q-20 2 -21 10v45l4 4q184 -4 195 -4l182 4l6 -2v-47q0 -8 -14 -10l-41 -4q-88 -8 -88 -88v-764 q0 -55 -41 -56q-37 0 -80 45l-481 642q-40 49 -55 49q-20 0 -21 -72v-494q0 -77 92 -86l41 -4q14 -2 15 -12v-43l-2 -4q-168 4 -189 4l-190 -4z" />
<glyph unicode="o" horiz-adv-x="1150" d="M76 455q0 225 145 366q143 141 359 142q209 0 354 -133.5t145 -348.5q0 -213 -137 -356q-139 -145 -379 -145q-211 0 -348 135q-139 135 -139 340zM254 479q0 -188 94 -309q95 -123 246 -123q141 0 223 109q84 113 84 297q0 197 -100 321q-96 121 -240 121 q-127 0 -217 -108.5t-90 -307.5z" />
<glyph unicode="p" horiz-adv-x="888" d="M66 0v43q0 9 12 12l43 6q49 6 65 21q18 16 19 45v688q0 45 -23 57q-18 10 -100 15q-14 0 -14 10v47l4 2q41 0 96 -2t115 -2q51 0 100 2t115 2q197 0 270.5 -73.5t73.5 -176.5q0 -57 -15 -102q-16 -49 -51 -100q-37 -51 -108 -82q-74 -31 -176 -31q-82 0 -130 20v-274 q0 -33 19 -45q16 -10 72 -21l41 -6q14 -2 14 -12v-43l-2 -4q-217 4 -227 4l-211 -4zM362 459q47 -18 134 -19q182 0 182 232q0 123 -49 170q-47 45 -144 45q-76 0 -98 -15q-25 -16 -25 -57v-356z" />
<glyph unicode="q" horiz-adv-x="1134" d="M76 455q0 229 139 370q141 145 356 146q203 0 349 -140q143 -137 143 -350q0 -182 -100.5 -319t-284.5 -174q-90 -31 -189 -94q6 0 12.5 1t10.5 1q100 0 238 -66q141 -68 208 -68q94 0 142 60l28 -21q-92 -135 -237 -135q-92 0 -170 39l-152 80q-70 39 -133 39 q-31 0 -63 -23q-35 -25 -58 -73l-63 30q37 55 108 115q76 61 152 104q-190 15 -313 148t-123 330zM246 479q0 -186 96 -311q96 -123 244 -123q137 0 223 111q84 109 84 297q0 199 -100 323q-98 123 -240 123q-123 0 -215 -110.5t-92 -309.5z" />
<glyph unicode="r" horiz-adv-x="983" d="M66 0v43q0 9 12 12l43 4q86 9 86 68v686q0 43 -31 55.5t-92 18.5q-16 4 -16 12v43l4 4q168 -4 209 -4q63 0 108 2t88 2q154 0 246 -61.5t92 -175.5q0 -98 -65 -164q-68 -68 -160 -76v-2q45 -4 88 -45q40 -40 61 -92l70 -154q37 -80 63 -106q31 -31 80 -31l13 -43 q-49 -16 -111 -16q-109 0 -199 182l-61 123q-61 147 -217 147h-17v-297q0 -61 93 -76l24 -4q14 -2 15 -12v-43l-7 -4q-193 4 -204 4l-213 -4zM360 492h70q121 0 176.5 49t55.5 168q0 96 -39 137t-138 41q-78 0 -100 -15q-25 -15 -25 -49v-331z" />
<glyph unicode="s" horiz-adv-x="800" d="M80 287l57 4q27 -131 94 -193q70 -63 160 -63q174 0 174 184q0 80 -53 127q-57 51 -168 100q-49 23 -76 39q-37 23 -73 52q-49 39 -70 77q-25 45 -25 99q0 120 93 184q94 66 210 66q92 0 170 -22.5t86 -22.5q16 -121 23 -222l-55 -4q-20 94 -84 154q-59 57 -137 57 t-121 -43t-43 -110q0 -45 43 -91t80 -67l75 -39q35 -14 88 -41q31 -14 90 -57q53 -39 80 -84q27 -47 27 -107q0 -127 -82 -209q-80 -80 -215 -80q-102 0 -174 17q-80 18 -84 18q-14 0 -35 -6q-8 -2 -19.5 -4t-13.5 -2q1 90 -22 289z" />
<glyph unicode="t" horiz-adv-x="999" d="M49 690q16 102 17 281h51q10 -29 55 -29h657q43 0 56 29h51q0 -160 16 -281l-55 -6q-31 113 -61 150q-33 39 -95 38h-75q-43 0 -59.5 -16t-16.5 -49v-682q0 -31 20 -47q18 -15 68 -19l41 -4q14 -2 14 -12v-43l-4 -4q-213 4 -221 4l-215 -4l-2 4v43q0 9 12 12l41 4 q88 8 88 66v684q0 34 -18 49q-16 14 -60 14h-92q-70 0 -96.5 -36.5t-61.5 -151.5z" />
<glyph unicode="u" horiz-adv-x="1142" d="M55 897v45l4 4q205 -4 217 -4l211 4l5 -4v-45q0 -8 -13 -10l-41 -4q-51 -4 -69 -19q-18 -16 -19 -45v-405q0 -88 8 -140q10 -66 33 -118q25 -55 78 -88q49 -29 129 -29q76 0 131 24q49 23 82 62q25 31 41 96q12 49 16 101q2 27 2 110v387q0 33 -20.5 47.5t-67.5 16.5 l-41 4q-14 2 -14 10v45l4 4q164 -4 184 -4l170 4l5 -4v-45q0 -8 -13 -10l-35 -4q-49 -6 -63 -19q-16 -12 -16 -45v-360q0 -109 -17 -197q-16 -84 -57 -149q-41 -63 -123 -98t-203 -35q-57 0 -117 20q-72 25 -120 61q-59 45 -97 123q-37 80 -36 187v448q0 33 -18.5 45.5 t-70.5 18.5l-36 4q-13 2 -13 10z" />
<glyph unicode="v" horiz-adv-x="1071" d="M20 897v47l3 2q176 -4 192 -4l203 4l4 -2v-47q0 -8 -12 -10l-25 -4q-25 -4 -33 -6q-12 -4 -20 -7q-12 -4 -17 -10q-6 -12 -6 -14q0 -6 6 -23l248 -630q2 -12 10 -13q9 0 13 13l239 624q4 12 4 19q0 18 -20 28q-4 2 -66 19l-18 4q-14 2 -14 10v45l4 4q176 -4 192 -4l146 4 l2 -4v-45q0 -8 -19 -10q-90 -10 -121 -86l-309 -744q-18 -47 -33 -63q-15 -18 -43 -19q-49 0 -75 82l-293 748q-10 29 -19 41q-10 12 -37 26q-23 10 -67 15q-19 2 -19 10z" />
<glyph unicode="w" horiz-adv-x="1570" d="M20 897v45l5 4q111 -4 143 -4l217 4l2 -4v-43q0 -10 -14 -12l-35 -4q-43 -6 -43 -29q0 -14 8 -31l240 -649l172 473q12 37 12 53q0 23 -4 43l-31 80q-20 51 -108 64q-18 2 -19 10v45l4 4q119 -4 154 -4l219 4l4 -4v-45q0 -8 -14 -10l-47 -4q-43 -2 -43 -39q0 -16 10 -47 l235 -637l242 657q6 12 6 25q0 35 -53 41l-43 4q-12 2 -12 10v45l2 4q160 -4 186 -4l135 4l4 -2v-45q0 -9 -18 -12q-43 -4 -70 -21q-29 -18 -36 -32q-14 -23 -21 -41l-266 -736q-31 -82 -86 -82q-68 0 -94 82l-170 480q-15 43 -25 43q-6 0 -20 -37l-173 -486 q-4 -10 -11 -24.5t-7 -16.5q-6 -16 -22 -28q-14 -12 -41 -13q-35 0 -70 80l-277 754q-20 57 -88 74l-18 4q-21 2 -21 10z" />
<glyph unicode="x" horiz-adv-x="1095" d="M47 0v35q0 18 31 20q29 2 55 11q18 6 60 38q37 31 79 86l185 238q6 10 6 16q0 8 -8 19l-191 278q-47 70 -90 109q-37 35 -88 37q-31 2 -31 14v39l4 6q152 -4 174 -4l244 4l6 -6v-37q0 -12 -16 -16l-35 -4q-10 -2 -22 -2q-2 0 -15 -4q-9 -3 -12 -7q-2 -2 -2 -12 q0 -23 35 -72l131 -196q14 -20 22 -21q6 0 21 15l143 200q35 47 35 68q0 25 -43 31l-35 4q-16 4 -16 14v39l8 6q139 -4 172 -4l176 4l4 -4v-39q0 -12 -26 -16q-57 -2 -97 -29q-33 -23 -100 -102l-184 -236q-6 -12 -6 -16q0 -8 6 -17l198 -280q70 -96 105 -121q41 -29 96 -31 q31 -3 31 -18v-37l-4 -4q-160 4 -195 4l-227 -4l-4 4v39q0 12 16 16l27 4q45 6 45 31q0 23 -53 94l-130 176q-10 16 -20 17q-4 0 -20 -23l-140 -196q-35 -51 -35 -70q0 -23 43 -29l31 -4q14 -2 15 -16v-39l-3 -4q-152 4 -186 4l-164 -4z" />
<glyph unicode="y" horiz-adv-x="978" d="M25 897v45l4 4q33 0 82 -2t86 -2q141 0 206 4l3 -2v-47q0 -10 -11 -10l-45 -4q-37 -2 -37 -21q0 -12 17 -35l207 -338h4l190 338q18 33 19 41q0 10 -41 15l-47 4q-8 0 -9 10v47l4 2q35 0 80 -2t78 -2q57 0 139 4l2 -4v-45q0 -8 -14 -10l-35 -4q-47 -6 -65 -19 q-16 -10 -41 -57l-226 -397v-285q0 -31 19 -47q18 -15 68 -19l43 -4q14 -2 14 -12v-43l-4 -4q-209 4 -219 4l-217 -4l-5 4v43q0 10 15 12l41 4q88 8 88 66v276l-258 424q-35 53 -119 62q-16 4 -16 10z" />
<glyph unicode="z" horiz-adv-x="931" d="M70 20q0 14 14 35l539 774q14 20 14 29q0 14 -19 14h-309q-117 0 -172 -192l-53 6q27 150 31 279q0 6 8 6q12 -4 33 -15q29 -14 63 -14l479 -2q82 16 107 16q45 0 45 -20.5t-39 -73.5l-508 -741q-12 -18 -12 -31q0 -20 41 -20h243q80 0 121 36q39 37 80 127l27 60l55 -14 q-53 -188 -65 -279h-693q-30 0 -30 20z" />
<glyph unicode="{" horiz-adv-x="557" d="M80 528v11q137 37 137 229v362q0 156 57 220q59 68 226 69v-26q-59 -16 -101 -78q-33 -59 -32 -170v-344q0 -125 -31 -180.5t-109 -85.5q86 -35 113 -96.5t27 -192.5v-314q0 -117 34.5 -176t98.5 -78v-26q-174 2 -228 69q-55 68 -55 240v334q0 206 -137 233z" />
<glyph unicode="|" horiz-adv-x="417" d="M166 -379v1686h90v-1686h-90z" />
<glyph unicode="}" horiz-adv-x="557" d="M59 -322q57 14 103 78q31 51 31 170v344q0 125 30.5 180.5t108.5 86.5q-84 35 -111 96q-29 68 -28 192v314q0 117 -35 176t-99 78v26q176 -2 230 -69q53 -72 53 -240v-334q0 -207 137 -233v-11q-137 -37 -137 -231v-360q0 -154 -55 -220q-59 -68 -228 -69v26z" />
<glyph unicode="~" horiz-adv-x="917" d="M53 428q23 104 97 182q77 80 165 80q45 0 150 -67q100 -66 151 -66q53 0 112.5 35t90.5 102l35 -12q-27 -98 -82 -159.5t-90 -73.5q-37 -12 -74 -13q-55 0 -153 66q-102 68 -152 67q-53 0 -123 -41q-66 -39 -100 -106z" />
<glyph unicode="&#xa1;" horiz-adv-x="462" d="M121 -317q0 78 24 206q20 109 29 189q12 94 19 182q2 29 6 75t4 60q4 53 4 56q4 41 29 41q27 0 28 -27l10 -146q10 -164 21 -241q16 -121 29 -195q23 -129 22 -200q0 -74 -35 -113q-33 -37 -75 -37q-47 0 -80 39q-35 41 -35 111zM127 793q0 47 30.5 77.5t78 30.5 t78 -30.5t30.5 -77.5q0 -45 -31 -76q-33 -33 -78 -33t-77 33q-31 31 -31 76z" />
<glyph unicode="&#xa2;" horiz-adv-x="894" d="M94 571q0 201 103 328q106 131 258 150v147h69v-145q129 -6 203 -67.5t74 -141.5q0 -39 -23 -66q-20 -25 -57 -24q-80 0 -90 71l-8 49q-2 12 -15 46q-8 20 -33 38q-25 16 -51 23v-766q4 0 8.5 -1t8.5 -1q129 0 229 149l37 -28q-61 -106 -129 -156q-63 -47 -154 -53v-148 h-69v148q-164 14 -262.5 137t-98.5 311zM254 616q0 -143 55.5 -247.5t145.5 -141.5v752q-92 -18 -146 -115q-55 -98 -55 -248z" />
<glyph unicode="&#xa3;" horiz-adv-x="894" d="M35 14q0 63 98 113q23 16 33 31q106 113 106 387v53h-135v82h135v16q0 127 35 209q37 86 117 166q100 106 258 107q45 0 102 -23q53 -20 54 -68q0 -37 -20.5 -57t-59.5 -20q-29 0 -70 37q-47 45 -96 45q-72 0 -121 -86t-49 -211v-115h266v-82h-266v-10q0 -309 -129 -408 l-10 -8q4 0 10 1t8 1q133 0 217 -57q57 -39 119 -39q51 0 106.5 24.5t90.5 71.5l38 -27q-65 -172 -270 -172q-76 0 -194 66q-96 53 -152 53q-43 0 -66 -16q-20 -14 -20 -37q0 -39 -24.5 -57.5t-57.5 -18.5q-23 0 -37 15q-16 16 -16 34z" />
<glyph unicode="&#xa4;" horiz-adv-x="894" d="M53 279l111 88q-80 96 -80 223q0 133 80 225l-107 84l76 82l94 -104q100 72 219 71q127 0 224 -76l94 113l80 -84l-113 -90q78 -96 78 -221q0 -123 -76 -219l107 -90l-74 -78l-94 104q-100 -76 -226 -76q-123 0 -221 74l-88 -108zM207 592q0 -115 67.5 -195t171.5 -80 q102 0 170 80t68 193q0 115 -68 194q-66 78 -165 78q-102 0 -175 -80q-69 -77 -69 -190z" />
<glyph unicode="&#xa5;" horiz-adv-x="894" d="M-14 1137v37l2 4q33 -6 188 -7q131 0 176 7l4 -4v-35q0 -18 -14 -19h-27q-49 0 -49 -26q0 -10 21 -64l207 -436l192 436q20 43 21 66q0 27 -50 26h-32q-12 0 -13 15v37l4 4q49 -6 160 -7q89 0 148 7l2 -4v-35q0 -16 -19 -17h-12q-82 0 -125 -96l-211 -475h256v-82h-280 v-129h280v-80h-280v-113q0 -47 26 -69q23 -20 86 -21h53q16 0 17 -16v-39l-4 -4q-238 4 -258 4l-262 -4l-5 4v39q0 16 15 16h55q111 0 111 90v113h-283v80h283v129h-283v82h270l-227 475q-45 94 -109 94h-14q-20 7 -20 17z" />
<glyph unicode="&#xa6;" horiz-adv-x="417" d="M166 330h98v-742h-98v742zM166 639v741h98v-741h-98z" />
<glyph unicode="&#xa7;" horiz-adv-x="952" d="M100 565q0 176 121 275q-51 63 -51 192q0 111 96 213.5t234 102.5q115 0 205 -74q88 -74 88 -182q0 -29 -25 -53.5t-51 -24.5q-47 0 -66 28q-18 27 -18 52q0 39 14 55q8 14 8 26.5t-12 32.5q-16 27 -45 49q-35 27 -90 27q-84 0 -143 -65q-57 -63 -58 -146 q0 -68 37 -104.5t117 -73.5q80 -35 133 -68q70 -43 123 -86q63 -53 102 -129q37 -74 37 -163q0 -178 -125 -279q70 -57 70 -197q0 -104 -105 -213q-104 -106 -239 -106q-114 0 -203 74q-88 74 -88 184q0 34 24 55q27 23 50 23q49 0 67 -29q18 -27 19 -53q0 -25 -13 -49 q-14 -29 -14 -33q0 -8 12 -33q10 -20 51 -51q35 -27 91 -27q78 0 137 57.5t59 155.5q0 55 -31 103q-33 49 -79 71q-252 123 -342 220q-97 102 -97 243zM190 664q0 -100 82 -196.5t191 -150.5q132 -61 233 -116q70 57 70 149q0 84 -45 154q-47 72 -143 135q-121 78 -142 90 q-31 16 -151 72q-12 4 -25 12q-70 -57 -70 -149z" />
<glyph unicode="&#xa8;" horiz-adv-x="768" d="M113 1178q0 39 26.5 65.5t65.5 26.5q41 0 67.5 -26.5t26.5 -65.5q0 -41 -26.5 -68t-67.5 -27q-39 0 -65.5 27t-26.5 68zM440 1178q0 37 29 65q27 27 65.5 27t65.5 -26.5t27 -65.5q0 -41 -27 -68t-65.5 -27t-65.5 27q-29 29 -29 68z" />
<glyph unicode="&#xa9;" horiz-adv-x="1294" d="M70 627q0 238 170 407.5t409.5 169.5t409.5 -170q168 -168 168 -407q0 -242 -168 -410q-170 -170 -409.5 -170t-409.5 170t-170 410zM133 627q0 -213 150 -363q152 -152 366 -151q211 0 362.5 151.5t151.5 362.5q0 213 -151 364q-150 150 -363 150q-217 0 -366.5 -149.5 t-149.5 -364.5zM344 629q0 121 86 213t223 92q84 0 133.5 -14.5t77.5 -14.5l25 -160l-55 -8q-12 53 -15 64q-6 20 -24 45q-20 27 -52 35q-37 10 -88 10q-74 0 -135 -61.5t-61 -204.5q0 -106 53 -183q52 -74 154 -73q117 0 186 104l43 -29q-35 -57 -96.5 -94t-139.5 -37 q-143 0 -229 92.5t-86 223.5z" />
<glyph unicode="&#xaa;" horiz-adv-x="606" d="M55 877q0 121 211 176l119 30q0 170 -111 170q-49 0 -81 -16q-29 -14 -29 -39q0 -14 4 -26.5t4 -24.5q0 -10 -14 -29q-12 -14 -39 -14q-23 0 -37 14q-16 16 -16 37q0 57 71 105q70 45 142 45q217 0 217 -234v-153q0 -117 28 -117q10 0 25 10l20 -33q-39 -45 -96 -45 q-35 0 -57 25q-23 27 -29 55q-57 -51 -88 -63q-39 -16 -86 -17q-68 0 -113 39t-45 105zM162 883q0 -84 92 -84q53 0 131 67v162q-129 -33 -176 -65q-47 -31 -47 -80z" />
<glyph unicode="&#xab;" horiz-adv-x="1095" d="M139 401v78q213 147 451 400v-105q-145 -211 -295 -334q147 -113 295 -334v-104q-252 288 -451 399zM512 401v78q221 160 446 400v-105q-135 -201 -292 -334q152 -113 292 -334v-104q-245 284 -446 399z" />
<glyph unicode="&#xac;" horiz-adv-x="1144" d="M49 731v90h1051v-549h-111v459h-940z" />
<glyph unicode="&#xad;" horiz-adv-x="714" d="M68 479q0 25 16 51q14 25 35 25h469q29 0 28 -37q0 -18 -18 -47q-18 -27 -37 -27h-463q-30 0 -30 35z" />
<glyph unicode="&#xae;" horiz-adv-x="1294" d="M70 627q0 238 170 407.5t409.5 169.5t409.5 -170q168 -168 168 -407q0 -242 -168 -410q-170 -170 -409.5 -170t-409.5 170t-170 410zM133 627q0 -213 150 -363q152 -152 366 -151q211 0 362.5 151.5t151.5 362.5q0 213 -151 364q-150 150 -363 150q-217 0 -366.5 -149.5 t-149.5 -364.5zM424 342v25q0 10 20 10h25q16 0 16 16v457q0 23 -8 22l-33 -2q-20 2 -20 13v22q78 10 235 10q102 0 150 -47q45 -45 45 -106q0 -49 -29 -86q-27 -35 -59 -53l-29 -17l99 -168q37 -63 82 -63v-27q-25 -8 -48 -8q-90 0 -127 78l-98 162q-8 8 -55 8v-195 q0 -16 14 -16h25q23 0 22 -12v-23q-20 0 -48 1t-43 2t-23 1zM590 631q27 0 55 4q31 4 49 12q27 12 43 41q14 27 15 74q0 53 -27 86t-78 33q-27 0 -57 -7v-243z" />
<glyph unicode="&#xaf;" horiz-adv-x="811" d="M121 1114q0 16 12 39q12 20 33 21h500q29 0 28 -29q0 -16 -16 -39q-14 -20 -33 -21h-500q-24 0 -24 29z" />
<glyph unicode="&#xb0;" horiz-adv-x="544" d="M70 1075q0 84 59 144q61 61 145 61q86 0 144 -61q59 -63 59 -144q0 -84 -59.5 -143.5t-143.5 -59.5q-82 0 -145 60q-59 57 -59 143zM137 1073q0 -57 37 -100t100 -43q55 0 97 45q39 41 39 98q0 59 -35 103q-37 47 -100.5 47t-100.5 -45q-37 -48 -37 -105z" />
<glyph unicode="&#xb1;" horiz-adv-x="1077" d="M135 37v100h809v-100h-809zM135 600v100h352v357h105v-357h352v-100h-352v-356h-105v356h-352z" />
<glyph unicode="&#xb2;" horiz-adv-x="626" d="M92 745q0 117 187 261q76 61 106 106q31 47 31 125q0 63 -35 92q-37 31 -74 31q-111 0 -110 -60q0 -9 6 -24q4 -10 4 -25q0 -25 -18.5 -37t-39 -12t-37 14.5t-16.5 34.5q0 52 56 105q57 53 163 53q90 0 156 -41t66 -129q0 -66 -43 -121q-41 -53 -140 -123 q-135 -95 -135 -184h166q68 0 119 137l49 -10q-31 -106 -39 -193h-422z" />
<glyph unicode="&#xb3;" horiz-adv-x="626" d="M80 809q0 14 16 27q18 14 33 14q29 0 53 -29q27 -37 103 -37q51 0 102 37q53 37 53 131q0 51 -32.5 84t-63.5 39q-41 8 -63 8h-6.5t-8.5 -1t-11 -2t-15 -1l-4 49q71 9 110 50q39 39 39 100q0 82 -82 82q-37 0 -74 -19q-35 -18 -39 -53q-4 -59 -53 -59q-20 0 -31 8 q-12 8 -14 16q-2 6 -2 13q0 25 21 53q23 33 78 61.5t139 28.5q82 0 127 -31q47 -31 47 -90q0 -80 -105 -139q61 -6 112.5 -51t51.5 -129q0 -104 -88 -170t-211 -66q-57 0 -121 23q-61 22 -61 53z" />
<glyph unicode="&#xb4;" horiz-adv-x="696" d="M182 1135q0 25 13 47l163 258q16 4 29 4q57 0 100 -37q8 -8 13 -10l6 -23l-236 -223q-41 -41 -59 -41q-10 0 -18 8q-11 11 -11 17z" />
<glyph unicode="&#xb5;" horiz-adv-x="991" d="M90 887l168 18q6 -138 6 -203v-401q0 -233 142 -233q80 0 149 38q72 41 109 97v684l153 18v-651v-84q0 -27 6 -55q6 -25 17 -35q8 -8 30 -8q33 0 70 90l49 -23q-35 -88 -71 -125q-39 -39 -115 -39q-58 0 -98 43q-41 45 -41 105q-131 -147 -297 -148q-74 0 -117 52 q-25 0 -25 -19q0 -76 33 -198.5t33 -165.5q0 -61 -23 -90q-27 -33 -61 -33q-29 0 -72 39q-39 37 -39 94q0 41 16.5 155.5t16.5 174.5q0 39 -8 127q-10 109 -10 163v385z" />
<glyph unicode="&#xb6;" horiz-adv-x="1230" d="M55 899q0 190 109 309q106 115 307 115q129 0 205 -4q114 -6 129 -6l141 6l228 4v-43q0 -14 -13 -14h-59q-51 0 -68 -27q-14 -23 -14 -100v-1434q0 -82 16 -104q14 -20 66 -23h59q12 0 13 -14v-43h-674v43q0 14 12 14h59q51 2 65.5 24.5t14.5 104.5v758q-49 -25 -157 -25 q-55 0 -111 13q-63 14 -117 45q-61 35 -104 82t-76 133q-31 82 -31 186zM772 -293q0 -131 62 -131q41 0 53 27q12 29 12 100v1436q0 59 -8 84q-10 29 -21 32q-9 3 -30 7q-33 0 -47.5 -20.5t-18.5 -45.5q-2 -14 -2 -63v-1426z" />
<glyph unicode="&#xb7;" horiz-adv-x="512" d="M145 528q0 45 33 78q35 35 78 35t78 -35q33 -33 33 -78t-31 -77.5t-80 -32.5t-80 32.5t-31 77.5z" />
<glyph unicode="&#xb8;" horiz-adv-x="1105" d="M424 -336l20 45q80 -29 119 -28q47 0 86 22q37 23 37 61q0 31 -24 52q-23 20 -62 20q-52 0 -92 -12l-12 12l79 178h70l-49 -118q25 6 53 6q59 0 105 -35q41 -33 41 -92q0 -66 -62 -107q-59 -39 -158 -39q-69 0 -151 35z" />
<glyph unicode="&#xb9;" horiz-adv-x="626" d="M125 1294q125 45 237 115h33v-535q0 -35 14.5 -55t36.5 -20h58q12 0 12 -11v-43q-72 2 -176 3l-201 -3v43q0 10 17 11h71q27 0 45.5 22.5t18.5 52.5v312q0 51 -6 69q-6 16 -25 17q-53 0 -117 -33z" />
<glyph unicode="&#xba;" horiz-adv-x="712" d="M80 879q0 133 76 206q78 74 206 74q139 0 207 -75.5t68 -192.5q0 -111 -74 -190.5t-211 -79.5q-115 0 -194 73q-78 72 -78 185zM199 899q0 -88 45 -154q47 -68 131 -67q53 0 100 41q45 39 45 139q0 121 -47 186q-45 63 -123 64q-72 0 -112 -61q-39 -60 -39 -148z" />
<glyph unicode="&#xbb;" horiz-adv-x="1095" d="M98 2v104q139 207 293 334q-145 109 -293 334v105q246 -285 447 -400v-78q-207 -143 -447 -399zM467 2v104q145 211 295 334q-147 113 -295 334v105q248 -283 451 -400v-78q-213 -147 -451 -399z" />
<glyph unicode="&#xbc;" horiz-adv-x="1349" d="M119 1194q125 45 237 115h33v-535q0 -33 17 -55q14 -20 34 -21h58q12 0 12 -10v-43q-72 2 -176 2l-201 -2v43q0 10 17 10h71q27 0 45 21q18 22 19 55v311q0 49 -6.5 67.5t-24.5 18.5q-47 0 -117 -32zM152 -111l938 1342l86 -17l-940 -1341zM770 74q74 86 107 200 q33 123 32 222h72q0 -78 -25 -224q-23 -96 -59 -153h180v192l101 51v-243h104v-60h-104v-129q0 -33 8 -41q10 -10 37 -10h32q10 0 11 -8v-37l-144 2l-139 -2v37q0 8 10 8h37q27 0 37 10.5t10 40.5v129h-299z" />
<glyph unicode="&#xbd;" horiz-adv-x="1349" d="M123 1194q125 45 237 115h33v-535q0 -35 14.5 -55.5t36.5 -20.5h58q12 0 12 -10v-43q-72 2 -176 2l-201 -2v43q0 10 17 10h71q27 0 45 21q18 22 19 55v311q0 49 -6.5 67.5t-24.5 18.5q-47 0 -117 -32zM152 -111l938 1342l86 -17l-940 -1341zM825 -162q0 117 187 260 q76 61 106.5 106.5t30.5 125.5q0 63 -37 94q-35 29 -72 29q-111 0 -110 -60q0 -12 6 -26q4 -10 4 -23q0 -23 -20 -37q-18 -12 -37 -12q-16 0 -37 16q-16 14 -17 33q0 52 56 105q57 53 164 53q92 0 155 -39q66 -41 66 -131q0 -66 -43 -121q-41 -53 -140 -123 q-135 -95 -135 -184h166q68 0 119 137l49 -10q-31 -106 -39 -193h-422z" />
<glyph unicode="&#xbe;" horiz-adv-x="1349" d="M76 705q0 14 16 26q18 14 33 14q29 0 53 -28q27 -37 103 -37q47 0 102 39q53 37 53 129q0 55 -30 86q-33 33 -64 39t-66 6l-40 -4l-5 49q71 9 111 49q39 39 39 101q0 82 -82 81q-39 0 -76 -18q-33 -16 -37 -53q-4 -59 -53 -60q-18 0 -29 9q-14 10 -16 16t-2 12 q0 25 20 53q23 33 78.5 62t139.5 29q82 0 127 -31q47 -31 47 -90q0 -82 -105 -140q59 -6 113 -53q51 -45 51 -127q0 -104 -88 -169.5t-211 -65.5q-57 0 -121 22q-61 21 -61 54zM152 -111l938 1342l86 -17l-940 -1341zM778 78q74 86 107 201q33 123 33 221h71q0 -78 -24 -224 q-23 -96 -60 -153h180v192l101 52v-244h104v-60h-104v-129q0 -33 8 -40q10 -10 37 -11h33q10 0 10 -8v-37l-144 2l-139 -2v37q0 8 10 8h37q27 0 37 10.5t10 40.5v129h-299z" />
<glyph unicode="&#xbf;" horiz-adv-x="827" d="M76 -160q0 76 39 142q39 68 75 100q33 31 103 80q86 66 106 102q37 72 37 150v90q0 20 26.5 20t26.5 -20v-94q0 -57 -6 -101q-6 -49 -37 -106q-35 -66 -94 -123q-70 -66 -94 -111q-29 -51 -29 -121q0 -102 60 -180q57 -76 145 -76q84 0 141.5 35t57.5 82q0 37 -12 53 q-12 15 -13 50q0 33 25 51q27 20 55 20q37 0 60 -20q25 -22 24 -68q0 -101 -104 -184q-92 -80 -254 -80q-152 0 -246 84q-92 82 -92 225zM354 793q0 47 31 77.5t78 30.5q45 0 76 -31q33 -33 32 -77q0 -43 -32.5 -76t-75.5 -33q-45 0 -78 33q-31 31 -31 76z" />
<glyph unicode="&#xc0;" horiz-adv-x="1421" d="M4 0v39q0 16 16 16q76 6 117 33t82 121l455 1065q20 45 33 57q16 16 36 17q34 0 56 -62l420 -1110q22 -58 55 -86q33 -27 96 -33l23 -2q20 -2 20 -16v-39l-6 -4q-209 4 -238 4l-272 -4l-2 4v39q0 14 14 16l58 4q113 8 86 88l-125 347h-426q-34 0 -49 -7q-12 -4 -23 -28 l-119 -297q-16 -41 6 -70q23 -31 76 -33l60 -4q16 -4 16 -16v-39l-4 -4q-61 0 -126 1t-98.5 2t-47.5 1l-185 -4zM426 1583l156 92l247 -172q31 -22 31 -43q0 -31 -30.5 -30.5t-88.5 24.5zM487 606q-6 -16 5 -20q12 -6 47 -6h356l-199 546h-4z" />
<glyph unicode="&#xc1;" horiz-adv-x="1421" d="M4 0v39q0 16 16 16q76 6 117 33t82 121l455 1065q20 45 33 57q16 16 36 17q34 0 56 -62l420 -1110q22 -58 55 -86q33 -27 96 -33l23 -2q20 -2 20 -16v-39l-6 -4q-209 4 -238 4l-272 -4l-2 4v39q0 14 14 16l58 4q113 8 86 88l-125 347h-426q-34 0 -49 -7q-12 -4 -23 -28 l-119 -297q-16 -41 6 -70q23 -31 76 -33l60 -4q16 -4 16 -16v-39l-4 -4q-61 0 -126 1t-98.5 2t-47.5 1l-185 -4zM487 606q-6 -16 5 -20q12 -6 47 -6h356l-199 546h-4zM569 1460q0 22 31 43l254 176l127 -106l-295 -119q-59 -25 -88 -25t-29 31z" />
<glyph unicode="&#xc2;" horiz-adv-x="1421" d="M4 0v39q0 16 16 16q76 6 117 33t82 121l455 1065q20 45 33 57q16 16 36 17q34 0 56 -62l420 -1110q22 -58 55 -86q33 -27 96 -33l23 -2q20 -2 20 -16v-39l-6 -4q-209 4 -238 4l-272 -4l-2 4v39q0 14 14 16l58 4q113 8 86 88l-125 347h-426q-34 0 -49 -7q-12 -4 -23 -28 l-119 -297q-16 -41 6 -70q23 -31 76 -33l60 -4q16 -4 16 -16v-39l-4 -4q-61 0 -126 1t-98.5 2t-47.5 1l-185 -4zM485 1456q84 61 203 193h88q80 -96 207 -193l-33 -43q-127 59 -217 127q-94 -72 -219 -127zM487 606q-6 -16 5 -20q12 -6 47 -6h356l-199 546h-4z" />
<glyph unicode="&#xc3;" horiz-adv-x="1421" d="M4 0v39q0 16 16 16q76 6 117 33t82 121l455 1065q20 45 33 57q16 16 36 17q34 0 56 -62l420 -1110q22 -58 55 -86q33 -27 96 -33l23 -2q20 -2 20 -16v-39l-6 -4q-209 4 -238 4l-272 -4l-2 4v39q0 14 14 16l58 4q113 8 86 88l-125 347h-426q-34 0 -49 -7q-12 -4 -23 -28 l-119 -297q-16 -41 6 -70q23 -31 76 -33l60 -4q16 -4 16 -16v-39l-4 -4q-61 0 -126 1t-98.5 2t-47.5 1l-185 -4zM446 1444q20 86 62 137q37 45 102.5 45t147.5 -57q57 -45 106 -45q31 0 58 22q23 20 45 84l49 -12q-37 -184 -178 -184q-49 0 -131 53q-72 45 -111 45 q-41 0 -61 -23q-25 -29 -39 -75zM487 606q-6 -16 5 -20q12 -6 47 -6h356l-199 546h-4z" />
<glyph unicode="&#xc4;" horiz-adv-x="1421" d="M4 0v39q0 16 16 16q76 6 117 33t82 121l455 1065q20 45 33 57q16 16 36 17q34 0 56 -62l420 -1110q22 -58 55 -86q33 -27 96 -33l23 -2q20 -2 20 -16v-39l-6 -4q-209 4 -238 4l-272 -4l-2 4v39q0 14 14 16l58 4q113 8 86 88l-125 347h-426q-34 0 -49 -7q-12 -4 -23 -28 l-119 -297q-16 -41 6 -70q23 -31 76 -33l60 -4q16 -4 16 -16v-39l-4 -4q-61 0 -126 1t-98.5 2t-47.5 1l-185 -4zM406 1403q0 37 28 65q27 27 66 27t65.5 -26.5t26.5 -65.5t-26.5 -65.5t-65.5 -26.5t-66 26q-28 29 -28 66zM487 606q-6 -16 5 -20q12 -6 47 -6h356l-199 546h-4 zM860 1405q0 39 26.5 65.5t67.5 26.5q39 0 66 -26.5t27 -65.5t-27 -66q-29 -29 -66 -28q-39 0 -67 28q-27 27 -27 66z" />
<glyph unicode="&#xc5;" horiz-adv-x="1421" d="M4 0v39q0 16 16 16q76 6 117 33t82 121l455 1065l12 24q-59 12 -100 59.5t-41 108.5q0 70 51 119q55 51 123 51q72 0 125 -49q51 -49 51 -121q0 -49 -29 -94q-25 -39 -78 -61q6 -12 11 -25l420 -1110q22 -58 55 -86q33 -27 96 -33l23 -2q20 -2 20 -16v-39l-6 -4 q-209 4 -238 4l-272 -4l-2 4v39q0 14 14 16l58 4q113 8 86 88l-125 347h-426q-34 0 -49 -7q-12 -4 -23 -28l-119 -297q-16 -41 6 -70q23 -31 76 -33l60 -4q16 -4 16 -16v-39l-4 -4q-61 0 -126 1t-98.5 2t-47.5 1l-185 -4zM487 606q-6 -16 5 -20q12 -6 47 -6h356l-199 546h-4 zM610 1466q0 -46 31 -80q31 -35 80 -34q47 0 78 34q33 37 32 80q0 47 -32 80q-35 35 -78 35q-49 0 -80 -35q-31 -34 -31 -80z" />
<glyph unicode="&#xc6;" horiz-adv-x="1779" d="M0 2v39q0 16 20 16h46q43 0 69 17q25 14 53 69l547 1039q8 14 8 28q0 27 -20.5 41.5t-44.5 14.5h-66q-14 0 -14 14v41l2 2l356 -2l158 2h504l29 -287l-56 -6q-12 78 -63 144q-53 68 -125 67h-291q-74 0 -74 -65v-426h207q49 0 72 22q16 16 31 68l14 61q4 16 14 17h45 q8 0 9 -9q-16 -186 -17 -194q0 -80 17 -197l-7 -6h-47q-14 0 -16 14l-12 64q-10 49 -31 69.5t-72 20.5h-207v-533q0 -68 74 -67h311q92 0 146 67q53 70 80 191l53 -10l-51 -328h-537l-156 2l-264 -4l-4 4v37q0 18 17 18h55q111 0 110 90v398h-364l-217 -406q-27 -51 -27 -59 q0 -23 68 -23h59q12 0 12 -12v-43l-4 -4q-176 4 -211 4l-186 -4zM549 625h323v553q0 39 -2 47z" />
<glyph unicode="&#xc7;" horiz-adv-x="1316" d="M76 645q0 297 196.5 500t456.5 203q145 0 279 -45q127 -43 170 -48q8 -119 45 -317l-62 -8q-102 342 -454 342q-63 0 -140 -35q-78 -35 -147 -102q-76 -72 -119 -185q-47 -123 -47 -266q0 -157 49 -295q47 -135 160 -231q109 -94 262 -95q147 0 256 52q113 53 219 172 l47 -31q-197 -256 -479 -274l-39 -95q25 6 53 7q59 0 105 -35q41 -33 41 -92q0 -66 -62 -107q-59 -39 -157 -39q-70 0 -152 35l21 45q80 -29 118 -29q47 0 86 23q37 22 37 61q0 31 -24 51q-23 20 -62 21q-52 0 -92 -12l-12 12l67 152q-147 6 -272 65q-123 58 -197 154 q-74 94 -112 207q-39 110 -39 239z" />
<glyph unicode="&#xc8;" horiz-adv-x="1122" d="M25 0v41q0 10 16 14l61 4q59 4 82 22.5t23 65.5v1027q0 47 -23 65q-18 16 -82 23l-61 4q-16 4 -16 14v41l4 2q137 -2 262 -2h518q55 0 94 8q8 0 8 -6q27 -145 45 -297l-59 -10q-41 123 -84 172q-45 51 -151 51h-216q-74 0 -73 -65v-435h260q53 0 74 21q23 23 28 65l6 52 q0 16 15 16h45q8 0 8 -8q-8 -96 -8 -176l8 -187l-6 -6h-47q-16 0 -17 14l-4 54q-2 45 -26 61q-23 16 -76 17h-260v-515q0 -68 73 -67h279q203 0 276 268l64 -10l-76 -342q-217 4 -262 4h-436l-262 -4zM346 1581l156 92l248 -172q31 -22 30 -43q0 -31 -30 -31q-29 0 -88 25z " />
<glyph unicode="&#xc9;" horiz-adv-x="1122" d="M25 0v41q0 10 16 14l61 4q59 4 82 22.5t23 65.5v1027q0 47 -23 65q-18 16 -82 23l-61 4q-16 4 -16 14v41l4 2q137 -2 262 -2h518q55 0 94 8q8 0 8 -6q27 -145 45 -297l-59 -10q-41 123 -84 172q-45 51 -151 51h-216q-74 0 -73 -65v-435h260q53 0 74 21q23 23 28 65l6 52 q0 16 15 16h45q8 0 8 -8q-8 -96 -8 -176l8 -187l-6 -6h-47q-16 0 -17 14l-4 54q-2 45 -26 61q-23 16 -76 17h-260v-515q0 -68 73 -67h279q203 0 276 268l64 -10l-76 -342q-217 4 -262 4h-436l-262 -4zM432 1460q0 22 31 43l254 176l127 -106l-295 -119q-57 -25 -88 -24 q-29 -1 -29 30z" />
<glyph unicode="&#xca;" horiz-adv-x="1122" d="M25 0v41q0 10 16 14l61 4q59 4 82 22.5t23 65.5v1027q0 47 -23 65q-18 16 -82 23l-61 4q-16 4 -16 14v41l4 2q137 -2 262 -2h518q55 0 94 8q8 0 8 -6q27 -145 45 -297l-59 -10q-41 123 -84 172q-45 51 -151 51h-216q-74 0 -73 -65v-435h260q53 0 74 21q23 23 28 65l6 52 q0 16 15 16h45q8 0 8 -8q-8 -96 -8 -176l8 -187l-6 -6h-47q-16 0 -17 14l-4 54q-2 45 -26 61q-23 16 -76 17h-260v-515q0 -68 73 -67h279q203 0 276 268l64 -10l-76 -342q-217 4 -262 4h-436l-262 -4zM358 1456q84 61 203 193h88q80 -96 207 -193l-33 -43q-127 59 -217 127 q-94 -72 -219 -127z" />
<glyph unicode="&#xcb;" horiz-adv-x="1122" d="M25 0v41q0 10 16 14l61 4q59 4 82 22.5t23 65.5v1027q0 47 -23 65q-18 16 -82 23l-61 4q-16 4 -16 14v41l4 2q137 -2 262 -2h518q55 0 94 8q8 0 8 -6q27 -145 45 -297l-59 -10q-41 123 -84 172q-45 51 -151 51h-216q-74 0 -73 -65v-435h260q53 0 74 21q23 23 28 65l6 52 q0 16 15 16h45q8 0 8 -8q-8 -96 -8 -176l8 -187l-6 -6h-47q-16 0 -17 14l-4 54q-2 45 -26 61q-23 16 -76 17h-260v-515q0 -68 73 -67h279q203 0 276 268l64 -10l-76 -342q-217 4 -262 4h-436l-262 -4zM334 1536q0 39 26.5 65.5t65.5 26.5t65.5 -26.5t26.5 -65.5t-26.5 -65.5 t-65.5 -26.5t-65.5 26.5t-26.5 65.5zM721 1538q0 37 27 64q29 29 65.5 28.5t65 -29t28.5 -63.5q0 -37 -28.5 -65.5t-65.5 -28.5t-65 29q-27 26 -27 65z" />
<glyph unicode="&#xcc;" horiz-adv-x="598" d="M35 1282v39l4 4q55 0 116.5 -1t94.5 -2t49 -1q18 0 52 1t96.5 2t113.5 1l4 -4v-39q0 -12 -16 -16l-53 -4q-59 -2 -86 -22.5t-27 -63.5v-1031q0 -45 25 -63q27 -20 88 -23l53 -4q16 -4 16 -16v-39l-4 -4q-131 4 -260 4q-125 0 -260 -4l-4 4v39q0 14 14 16l55 4q59 2 87 23 q25 18 24 63v1031q0 45 -24 63q-20 16 -87 23l-55 4q-16 4 -16 16zM47 1581l156 92l248 -172q31 -22 30 -43q0 -31 -30 -31q-27 0 -89 25z" />
<glyph unicode="&#xcd;" horiz-adv-x="598" d="M35 1282v39l4 4q55 0 116.5 -1t94.5 -2t49 -1q18 0 52 1t96.5 2t113.5 1l4 -4v-39q0 -12 -16 -16l-53 -4q-59 -2 -86 -22.5t-27 -63.5v-1031q0 -45 25 -63q27 -20 88 -23l53 -4q16 -4 16 -16v-39l-4 -4q-131 4 -260 4q-125 0 -260 -4l-4 4v39q0 14 14 16l55 4q59 2 87 23 q25 18 24 63v1031q0 45 -24 63q-20 16 -87 23l-55 4q-16 4 -16 16zM145 1458q0 22 31 43l254 176l127 -106l-295 -119q-57 -25 -88 -25q-29 0 -29 31z" />
<glyph unicode="&#xce;" horiz-adv-x="598" d="M35 1282v39l4 4q55 0 116.5 -1t94.5 -2t49 -1q18 0 52 1t96.5 2t113.5 1l4 -4v-39q0 -12 -16 -16l-53 -4q-59 -2 -86 -22.5t-27 -63.5v-1031q0 -45 25 -63q27 -20 88 -23l53 -4q16 -4 16 -16v-39l-4 -4q-131 4 -260 4q-125 0 -260 -4l-4 4v39q0 14 14 16l55 4q59 2 87 23 q25 18 24 63v1031q0 45 -24 63q-20 16 -87 23l-55 4q-16 4 -16 16zM51 1456q84 61 203 193h88q80 -96 207 -193l-33 -43q-127 59 -217 127q-94 -72 -219 -127z" />
<glyph unicode="&#xcf;" horiz-adv-x="598" d="M14 1534q0 39 27 65.5t65.5 26.5t65.5 -26.5t27 -65.5t-27 -65.5t-65.5 -26.5t-65.5 26.5t-27 65.5zM35 1282v39l4 4q55 0 116.5 -1t94.5 -2t49 -1q18 0 52 1t96.5 2t113.5 1l4 -4v-39q0 -12 -16 -16l-53 -4q-59 -2 -86 -22.5t-27 -63.5v-1031q0 -45 25 -63 q27 -20 88 -23l53 -4q16 -4 16 -16v-39l-4 -4q-131 4 -260 4q-125 0 -260 -4l-4 4v39q0 14 14 16l55 4q59 2 87 23q25 18 24 63v1031q0 45 -24 63q-20 16 -87 23l-55 4q-16 4 -16 16zM401 1536q0 37 27 63q29 29 66 29q39 0 67 -29q27 -27 27 -63.5t-29 -65t-65.5 -28.5 t-65.5 28q-27 27 -27 66z" />
<glyph unicode="&#xd0;" horiz-adv-x="1425" d="M35 0v37q0 16 14 18l62 4q57 4 82 25q25 23 24 68v436h-182v80h182v503q0 55 -20.5 69.5t-85.5 21.5l-58 4q-18 4 -18 16v39l4 4q74 0 137.5 -1t91.5 -2l29 -1q100 0 167.5 2t168.5 2q293 0 499.5 -202.5t206.5 -491.5q0 -178 -63 -312q-61 -129 -166 -196 q-106 -68 -213 -98q-102 -29 -227 -29q-145 0 -211 2t-162 2q-139 0 -258 -4zM383 147q0 -51 39 -65q43 -16 184 -16q545 0 545 516q0 88 -21 190q-16 86 -63 182q-43 89 -111 154q-70 68 -170 106q-98 39 -231 39q-88 0 -129 -14q-43 -14 -43 -63v-508h207v-80h-207v-441z " />
<glyph unicode="&#xd1;" horiz-adv-x="1421" d="M23 0v37q0 14 26 18l53 4q111 10 111 121v946q-8 45 -51 91q-43 47 -88 49q-35 4 -35 16v39l6 4h279l702 -909q86 -113 102 -113q14 0 15 62v776q0 113 -111 121l-53 4q-29 4 -29 16v39l8 4q205 -4 228 -4l227 4l4 -4v-39q0 -12 -16 -16l-55 -4q-111 -8 -111 -121v-1098 q0 -63 -43 -63q-45 0 -82 49l-715 903q-51 68 -69 67q-20 0 -21 -100v-719q0 -113 113 -121l53 -4q16 -4 16 -16v-39l-4 -4q-193 4 -227 4l-229 -4zM436 1440q20 86 62 137q37 45 102.5 45t147.5 -57q57 -45 106 -45q33 0 59 22q20 16 43 84l50 -12q-37 -184 -179 -184 q-49 0 -131 53q-72 45 -110 45q-41 0 -61.5 -22.5t-39.5 -75.5z" />
<glyph unicode="&#xd2;" horiz-adv-x="1427" d="M76 635q0 303 180 508t455 205q283 0 463 -187q182 -188 182 -487q0 -307 -176 -502q-174 -193 -467 -192q-274 0 -455 180q-182 182 -182 475zM264 670q0 -285 146 -451q147 -170 344 -170q180 0 296.5 160t116.5 426q0 309 -131 477q-129 166 -352 166 q-168 0 -293 -154q-127 -155 -127 -454zM467 1585l156 92l247 -172q31 -22 31 -43q0 -31 -30.5 -30.5t-88.5 24.5z" />
<glyph unicode="&#xd3;" horiz-adv-x="1427" d="M76 635q0 303 180 508t455 205q283 0 463 -187q182 -188 182 -487q0 -307 -176 -502q-174 -193 -467 -192q-274 0 -455 180q-182 182 -182 475zM264 670q0 -285 146 -451q147 -170 344 -170q180 0 296.5 160t116.5 426q0 309 -131 477q-129 166 -352 166 q-168 0 -293 -154q-127 -155 -127 -454zM508 1460q0 22 31 43l254 176l127 -106l-295 -119q-59 -25 -88 -25t-29 31z" />
<glyph unicode="&#xd4;" horiz-adv-x="1427" d="M76 635q0 303 180 508t455 205q283 0 463 -187q182 -188 182 -487q0 -307 -176 -502q-174 -193 -467 -192q-274 0 -455 180q-182 182 -182 475zM264 670q0 -285 146 -451q147 -170 344 -170q180 0 296.5 160t116.5 426q0 309 -131 477q-129 166 -352 166 q-168 0 -293 -154q-127 -155 -127 -454zM463 1456q84 61 203 193h88q80 -96 207 -193l-33 -43q-127 59 -217 127q-94 -72 -219 -127z" />
<glyph unicode="&#xd5;" horiz-adv-x="1427" d="M76 635q0 303 180 508t455 205q283 0 463 -187q182 -188 182 -487q0 -307 -176 -502q-174 -193 -467 -192q-274 0 -455 180q-182 182 -182 475zM264 670q0 -285 146 -451q147 -170 344 -170q180 0 296.5 160t116.5 426q0 309 -131 477q-129 166 -352 166 q-168 0 -293 -154q-127 -155 -127 -454zM422 1440q20 86 61 137q37 45 102.5 45t147.5 -57q59 -45 107 -45q33 0 59 22q20 16 43 84l49 -12q-37 -184 -178 -184q-49 0 -131 53q-72 45 -111 45q-41 0 -61 -23q-25 -29 -39 -75z" />
<glyph unicode="&#xd6;" horiz-adv-x="1427" d="M76 635q0 303 180 508t455 205q283 0 463 -187q182 -188 182 -487q0 -307 -176 -502q-174 -193 -467 -192q-274 0 -455 180q-182 182 -182 475zM223 1409q0 37 29 66q27 27 65.5 26.5t65.5 -27t27 -65.5t-27 -65.5t-65.5 -26.5t-65.5 26q-29 29 -29 66zM264 670 q0 -285 146 -451q147 -170 344 -170q180 0 296.5 160t116.5 426q0 309 -131 477q-129 166 -352 166q-168 0 -293 -154q-127 -155 -127 -454zM1012 1403q0 39 26.5 65.5t65.5 26.5t65.5 -26.5t26.5 -65.5t-26.5 -65.5t-65.5 -26.5t-65.5 26.5t-26.5 65.5z" />
<glyph unicode="&#xd7;" horiz-adv-x="1077" d="M217 221l252 250l-252 252l74 72l250 -252l250 252l71 -72l-252 -252l252 -250l-71 -71l-250 249l-250 -249z" />
<glyph unicode="&#xd8;" horiz-adv-x="1427" d="M76 635q0 303 180 508t455 205q236 0 405 -136l129 160l60 -49l-131 -162q182 -188 182 -487q0 -307 -176 -502q-174 -193 -467 -192q-223 0 -394 126l-153 -188l-60 53l152 189q-182 182 -182 475zM264 670q0 -219 98 -383l672 827q-127 164 -350 164q-168 0 -293 -154 q-127 -155 -127 -454zM410 219q63 -78 159 -125q94 -45 185 -45q180 0 296.5 160t116.5 426q0 248 -88 412z" />
<glyph unicode="&#xd9;" horiz-adv-x="1351" d="M0 1282v39l4 4q238 -4 258 -4l264 4l4 -4v-39q0 -12 -16 -16l-53 -4q-61 -3 -86 -25q-27 -23 -27 -66v-620q0 -106 2 -139q2 -37 31 -123q25 -72 76 -123q109 -102 243 -103q101 0 172 31q70 31 111 78q39 45 61 121q20 70 27 133q6 61 6 141v600q0 46 -24 68 q-23 20 -86 27l-56 4q-16 4 -16 16v39l4 4q193 -4 225 -4l226 4l4 -4v-39q0 -14 -17 -16l-53 -4q-61 -2 -88 -27q-25 -22 -25 -68v-563q0 -143 -22 -252q-20 -104 -78 -194q-55 -88 -156 -133q-102 -45 -258 -45q-76 0 -153 22q-80 25 -152 72q-76 51 -123 157.5t-47 251.5 v688q0 47 -24.5 65.5t-85.5 25.5l-56 4q-16 4 -16 16zM410 1583l155 92l248 -172q31 -22 31 -43q0 -31 -31 -30.5t-88 24.5z" />
<glyph unicode="&#xda;" horiz-adv-x="1351" d="M0 1282v39l4 4q238 -4 258 -4l264 4l4 -4v-39q0 -12 -16 -16l-53 -4q-61 -3 -86 -25q-27 -23 -27 -66v-620q0 -106 2 -139q2 -37 31 -123q25 -72 76 -123q109 -102 243 -103q101 0 172 31q70 31 111 78q39 45 61 121q20 70 27 133q6 61 6 141v600q0 46 -24 68 q-23 20 -86 27l-56 4q-16 4 -16 16v39l4 4q193 -4 225 -4l226 4l4 -4v-39q0 -14 -17 -16l-53 -4q-61 -2 -88 -27q-25 -22 -25 -68v-563q0 -143 -22 -252q-20 -104 -78 -194q-55 -88 -156 -133q-102 -45 -258 -45q-76 0 -153 22q-80 25 -152 72q-76 51 -123 157.5t-47 251.5 v688q0 47 -24.5 65.5t-85.5 25.5l-56 4q-16 4 -16 16zM545 1458q0 22 30 43l254 176l127 -106l-294 -119q-59 -25 -88 -25t-29 31z" />
<glyph unicode="&#xdb;" horiz-adv-x="1351" d="M0 1282v39l4 4q238 -4 258 -4l264 4l4 -4v-39q0 -12 -16 -16l-53 -4q-61 -3 -86 -25q-27 -23 -27 -66v-620q0 -106 2 -139q2 -37 31 -123q25 -72 76 -123q109 -102 243 -103q101 0 172 31q70 31 111 78q39 45 61 121q20 70 27 133q6 61 6 141v600q0 46 -24 68 q-23 20 -86 27l-56 4q-16 4 -16 16v39l4 4q193 -4 225 -4l226 4l4 -4v-39q0 -14 -17 -16l-53 -4q-61 -2 -88 -27q-25 -22 -25 -68v-563q0 -143 -22 -252q-20 -104 -78 -194q-55 -88 -156 -133q-102 -45 -258 -45q-76 0 -153 22q-80 25 -152 72q-76 51 -123 157.5t-47 251.5 v688q0 47 -24.5 65.5t-85.5 25.5l-56 4q-16 4 -16 16zM467 1456q84 61 203 193h88q80 -96 207 -193l-33 -43q-127 59 -217 127q-94 -72 -219 -127z" />
<glyph unicode="&#xdc;" horiz-adv-x="1351" d="M20 1282v39l5 2q104 -2 235 -2q10 0 42 1t52 1h95q12 0 12 -20v-21q0 -16 -17 -16q-63 -10 -79 -31q-18 -25 -19 -70v-618q0 -70 4 -139q2 -41 31 -123q25 -72 76 -123q102 -102 243 -103q123 0 203 43q78 43 117 125q33 70 47 158q10 61 10 178v602q0 45 -22 68 q-20 20 -76 33q-16 0 -16 16v23q0 18 18 18h63q12 0 39 -1t41 -1l205 2l4 -2v-39q0 -16 -51 -16q-111 0 -111 -95v-571q0 -143 -22 -252q-20 -104 -78 -194q-55 -88 -157.5 -133.5t-258.5 -45.5q-84 0 -153 21q-72 20 -150 74q-76 51 -123 157.5t-47 251.5v692q0 94 -143 95 q-19 0 -19 16zM475 1407q0 39 26.5 65.5t65.5 26.5t64 -26q27 -31 26.5 -66t-26.5 -66q-25 -27 -64 -26.5t-65.5 27t-26.5 65.5zM770 1407q0 39 26.5 65.5t63.5 26.5q39 0 66 -26q29 -29 28.5 -66t-29 -65.5t-65.5 -28.5q-35 0 -63 28q-27 27 -27 66z" />
<glyph unicode="&#xdd;" horiz-adv-x="1173" d="M0 1280v41l4 4q53 0 104.5 -1t77 -2t33.5 -1l234 4l4 -4v-39q0 -16 -13 -16l-59 -2q-37 -4 -45 -13q-10 -10 -4 -24q12 -29 22 -47l281 -494h4l262 494q20 49 15 65q-6 12 -43 17l-62 4q-10 0 -10 14v41l4 4q45 0 90 -1t67.5 -2t28.5 -1l179 4l4 -4v-41q0 -12 -21 -14 l-43 -4q-33 -2 -57 -19q-25 -15 -37 -31q-2 -2 -33 -55l-289 -522q-14 -27 -14 -86v-402q0 -92 113 -92h55q16 0 16 -16v-39l-4 -4q-238 4 -258 4l-264 -4l-4 4v39q0 16 16 16h54q113 0 112 92v383q0 61 -16 88l-299 502q-55 90 -80 113q-28 25 -80 31l-25 2q-20 2 -20 14z M453 1460q0 22 30 43l254 176l127 -106l-295 -119q-57 -25 -88 -24q-28 -1 -28 30z" />
<glyph unicode="&#xde;" horiz-adv-x="1069" d="M18 0v39q0 14 17 16l53 4q63 2 88 24.5t25 63.5v1031q0 43 -25 61q-23 16 -88 23l-53 4q-16 4 -17 16v39l5 2q119 -2 258 -2l264 2l4 -2v-39q0 -14 -17 -16l-55 -4q-59 -2 -86 -23q-25 -18 -24 -61v-115q98 4 184 4q131 0 229 -35q90 -33 140 -94q43 -55 63 -115 q18 -55 18 -121q0 -63 -24 -127q-23 -61 -78 -124q-51 -61 -149 -101q-96 -39 -228 -39q-115 0 -155 15v-179q0 -47 24 -65q27 -20 86 -23l55 -4q16 -4 17 -16v-39l-4 -4q-238 4 -258 4l-264 -4zM367 385q35 -10 145 -10q131 0 219 74q90 74 90 253q0 166 -79.5 234 t-192.5 68q-98 0 -182 -23v-596z" />
<glyph unicode="&#xdf;" horiz-adv-x="1107" d="M31 0v43q0 8 10 12l35 4q78 12 78 91v337q0 227 108 353q106 123 367 123q80 0 178 -15q104 -15 166 -37v-32l-225 -320q-6 -6 -6.5 -14t10.5 -8q133 -6 202 -82q72 -78 72 -189q0 -115 -80 -200.5t-219 -85.5q-45 0 -100.5 12t-73.5 12q-2 0 -9 -1q-7 -3 -14 -3 q-25 -4 -26 -4q0 49 -25 225l53 4q23 -96 60 -139q41 -47 113 -47q70 0 114 51q47 53 47 170q0 27 -12 59q-16 47 -37 76q-31 43 -86 70t-141 27q-12 0 -27 -5l-8 37q217 287 217 328q0 14 -61.5 32.5t-110.5 18.5q-289 0 -289 -379v-374q0 -78 78 -91l25 -4q12 -3 12 -12 v-43l-2 -4q-176 4 -191 4l-200 -4z" />
<glyph unicode="&#xe0;" horiz-adv-x="1099" d="M4 0v43q0 12 12 12q37 4 52 8q16 6 40.5 27t38.5 53l361 775q10 25 30.5 39t34.5 14q61 0 82 -51l299 -764q25 -59 50 -78q27 -20 77 -23q16 -4 17 -12v-43l-6 -4q-143 4 -170 4l-230 -4l-4 4v43q0 12 14 12l37 4q82 8 82 39q0 2 -1 10q-3 7 -3 13l-92 237h-350 q-39 0 -45 -22l-90 -215q-8 -18 -9 -27q0 -31 84 -37l27 -2q12 0 12 -12v-43l-4 -4q-45 0 -95 1t-75.5 2t-38.5 1l-133 -4zM381 446q0 -29 41 -28h278l-161 403h-2zM430 1311l4 22q66 47 133 47q10 0 31 -4l143 -258q12 -25 13 -49q0 -8 -9 -14q-12 -8 -22 -8q-14 0 -59 40z " />
<glyph unicode="&#xe1;" horiz-adv-x="1099" d="M4 0v43q0 12 12 12q37 4 52 8q16 6 40.5 27t38.5 53l361 775q10 25 30.5 39t34.5 14q61 0 82 -51l299 -764q25 -59 50 -78q27 -20 77 -23q16 -4 17 -12v-43l-6 -4q-143 4 -170 4l-230 -4l-4 4v43q0 12 14 12l37 4q82 8 82 39q0 2 -1 10q-3 7 -3 13l-92 237h-350 q-39 0 -45 -22l-90 -215q-8 -18 -9 -27q0 -31 84 -37l27 -2q12 0 12 -12v-43l-4 -4q-45 0 -95 1t-75.5 2t-38.5 1l-133 -4zM381 446q0 -29 41 -28h278l-161 403h-2zM446 1059q0 27 13 47l164 258q16 4 28 4q57 0 101 -37q4 -4 8 -7l4 -3l6 -23l-235 -223q-41 -41 -60 -41 q-8 0 -20 8q-9 7 -9 17z" />
<glyph unicode="&#xe2;" horiz-adv-x="1099" d="M4 0v43q0 12 12 12q37 4 52 8q16 6 40.5 27t38.5 53l361 775q10 25 30.5 39t34.5 14q61 0 82 -51l299 -764q25 -59 50 -78q27 -20 77 -23q16 -4 17 -12v-43l-6 -4q-143 4 -170 4l-230 -4l-4 4v43q0 12 14 12l37 4q82 8 82 39q0 2 -1 10q-3 7 -3 13l-92 237h-350 q-39 0 -45 -22l-90 -215q-8 -18 -9 -27q0 -31 84 -37l27 -2q12 0 12 -12v-43l-4 -4q-45 0 -95 1t-75.5 2t-38.5 1l-133 -4zM328 1069q143 160 211 264h102q72 -115 207 -264l-43 -29q-158 119 -217 185q-86 -90 -219 -185zM381 446q0 -29 41 -28h278l-161 403h-2z" />
<glyph unicode="&#xe3;" horiz-adv-x="1099" d="M4 0v43q0 12 12 12q37 4 52 8q16 6 40.5 27t38.5 53l361 775q10 25 30.5 39t34.5 14q61 0 82 -51l299 -764q25 -59 50 -78q27 -20 77 -23q16 -4 17 -12v-43l-6 -4q-143 4 -170 4l-230 -4l-4 4v43q0 12 14 12l37 4q82 8 82 39q0 2 -1 10q-3 7 -3 13l-92 237h-350 q-39 0 -45 -22l-90 -215q-8 -18 -9 -27q0 -31 84 -37l27 -2q12 0 12 -12v-43l-4 -4q-45 0 -95 1t-75.5 2t-38.5 1l-133 -4zM307 1090q20 86 62 137q37 45 102 45q70 0 147 -58q59 -45 107 -45q33 0 59 23q20 16 43 84l50 -12q-37 -184 -179 -185q-53 0 -131 54 q-72 45 -110 45q-40 0 -62 -25q-23 -25 -39 -74zM381 446q0 -29 41 -28h278l-161 403h-2z" />
<glyph unicode="&#xe4;" horiz-adv-x="1099" d="M4 0v43q0 12 12 12q37 4 52 8q16 6 40.5 27t38.5 53l361 775q10 25 30.5 39t34.5 14q61 0 82 -51l299 -764q25 -59 50 -78q27 -20 77 -23q16 -4 17 -12v-43l-6 -4q-143 4 -170 4l-230 -4l-4 4v43q0 12 14 12l37 4q82 8 82 39q0 2 -1 10q-3 7 -3 13l-92 237h-350 q-39 0 -45 -22l-90 -215q-8 -18 -9 -27q0 -31 84 -37l27 -2q12 0 12 -12v-43l-4 -4q-45 0 -95 1t-75.5 2t-38.5 1l-133 -4zM332 1173.5q0 38.5 26.5 65.5t65.5 27q41 0 67.5 -27t26.5 -65.5t-26 -65.5q-29 -29 -68 -29q-37 0 -66 29q-26 27 -26 65.5zM381 446q0 -29 41 -28 h278l-161 403h-2zM659 1173.5q0 38.5 27 65.5t68 27q39 0 65.5 -27t26.5 -65.5t-27 -65.5q-29 -29 -65 -29q-39 0 -68 29q-27 27 -27 65.5z" />
<glyph unicode="&#xe5;" horiz-adv-x="1099" d="M4 0v43q0 12 12 12q37 4 52 8q16 6 40.5 27t38.5 53l361 775q10 25 30.5 39t34.5 14q61 0 82 -51l299 -764q25 -59 50 -78q27 -20 77 -23q16 -4 17 -12v-43l-6 -4q-143 4 -170 4l-230 -4l-4 4v43q0 12 14 12l37 4q82 8 82 39q0 2 -1 10q-3 7 -3 13l-92 237h-350 q-39 0 -45 -22l-90 -215q-8 -18 -9 -27q0 -31 84 -37l27 -2q12 0 12 -12v-43l-4 -4q-45 0 -95 1t-75.5 2t-38.5 1l-133 -4zM381 446q0 -29 41 -28h278l-161 403h-2zM412 1190q0 72 51 121q52 49 122.5 49t123.5 -49t53 -121t-51.5 -121t-124.5 -49q-71 0 -123 49 q-51 49 -51 121zM477 1190q0 -43 33 -80q31 -35 78 -35t78 35q33 37 32 80q0 49 -32.5 82t-77.5 33q-47 0 -78 -33q-33 -37 -33 -82z" />
<glyph unicode="&#xe6;" horiz-adv-x="1353" d="M10 0v43q0 9 13 12q90 10 122 70q76 123 199 362q150 297 150 357q0 34 -68 43q-12 2 -12 8v47l4 4q242 -4 336 -4h280l207 4l4 -4q3 -89 31 -246l-51 -8q-10 41 -21 62q-23 45 -33 59q-23 31 -57 47q-37 16 -82 16h-143q-59 0 -60 -47v-319h125q39 0 56 16q15 15 24 49 l10 43q3 12 13 13h35q6 0 6 -6q-12 -141 -13 -154q0 -43 13 -141l-4 -4h-37q-8 0 -15 10l-8 45q-9 34 -24 49q-14 14 -56 14h-125v-319q0 -51 60 -51h145q84 0 131 49q45 47 72 135l53 -6q-41 -166 -43 -248h-491l-203 -4l-2 4v45q0 6 10 10l35 4q49 6 66 21q18 14 18 45 v317h-229q-43 0 -60 -26l-147 -295q-14 -31 18 -45l49 -17l21 -4q12 -3 12 -12v-43l-2 -4q-45 0 -94 1t-75 2t-38 1l-123 -4zM440 516q0 -10 41 -10h199v295q0 86 -45 86q-33 0 -70 -82l-121 -279q-2 -2 -2 -6z" />
<glyph unicode="&#xe7;" horiz-adv-x="1005" d="M76 459q0 225 137 368.5t342 143.5q92 0 199 -19q108 -18 135 -18q4 -113 24 -262l-53 -6q-43 246 -293 245q-137 0 -229 -98q-94 -100 -94 -334q0 -172 82 -305q80 -129 249 -129q100 0 166 35q68 35 138 117l41 -33q-76 -100 -150 -141q-82 -45 -188 -48l-33 -79 q25 6 53 6q59 0 105 -35q41 -33 41 -92q0 -66 -62 -107q-59 -39 -158 -39q-70 0 -151 35l20 45q80 -29 119 -28q47 0 86 22q37 23 37 61q0 31 -25 52q-23 20 -61 20q-52 0 -92 -12l-12 12l63 141q-201 18 -319 162q-117 142 -117 320z" />
<glyph unicode="&#xe8;" horiz-adv-x="927" d="M66 0v45q0 10 12 10l47 4q47 4 65 19q16 14 17 45v698q0 35 -19 47q-20 14 -63 17l-47 4q-12 4 -12 8v45l2 4l204 -4h148h381q2 -94 28 -246l-51 -6q-14 45 -30 82q-16 35 -57.5 67.5t-102.5 32.5h-164q-59 0 -59 -43v-303h153q43 0 57 15q16 16 23 51l12 43q0 10 13 10 h34q4 0 5 -6q-12 -135 -13 -152l13 -141l-5 -4h-34q-14 0 -15 10l-10 45q-12 63 -80 64h-153v-342q0 -49 59 -49h176q86 0 129 49q49 55 74 137l51 -6q-37 -152 -43 -250h-541l-202 -4zM301 1331l4 23q66 47 133 47q10 0 31 -4l143 -258q12 -25 13 -49q0 -8 -9 -15 q-12 -8 -22 -8q-14 0 -59 41z" />
<glyph unicode="&#xe9;" horiz-adv-x="927" d="M66 0v45q0 10 12 10l47 4q47 4 65 19q16 14 17 45v698q0 35 -19 47q-20 14 -63 17l-47 4q-12 4 -12 8v45l2 4l204 -4h148h381q2 -94 28 -246l-51 -6q-14 45 -30 82q-16 35 -57.5 67.5t-102.5 32.5h-164q-59 0 -59 -43v-303h153q43 0 57 15q16 16 23 51l12 43q0 10 13 10 h34q4 0 5 -6q-12 -135 -13 -152l13 -141l-5 -4h-34q-14 0 -15 10l-10 45q-12 63 -80 64h-153v-342q0 -49 59 -49h176q86 0 129 49q49 55 74 137l51 -6q-37 -152 -43 -250h-541l-202 -4zM354 1053q0 25 13 47l163 258q16 4 29 4q57 0 100 -37q8 -8 13 -10l6 -23l-236 -223 q-41 -41 -59 -41q-10 0 -21 6q-8 7 -8 19z" />
<glyph unicode="&#xea;" horiz-adv-x="927" d="M66 0v45q0 10 12 10l47 4q47 4 65 19q16 14 17 45v698q0 35 -19 47q-20 14 -63 17l-47 4q-12 4 -12 8v45l2 4l204 -4h148h381q2 -94 28 -246l-51 -6q-14 45 -30 82q-16 35 -57.5 67.5t-102.5 32.5h-164q-59 0 -59 -43v-303h153q43 0 57 15q16 16 23 51l12 43q0 10 13 10 h34q4 0 5 -6q-12 -135 -13 -152l13 -141l-5 -4h-34q-14 0 -15 10l-10 45q-12 63 -80 64h-153v-342q0 -49 59 -49h176q86 0 129 49q49 55 74 137l51 -6q-37 -152 -43 -250h-541l-202 -4zM240 1067q143 160 211 264h102q72 -115 207 -264l-43 -29q-158 119 -217 185 q-86 -90 -219 -185z" />
<glyph unicode="&#xeb;" horiz-adv-x="927" d="M66 0v45q0 10 12 10l47 4q47 4 65 19q16 14 17 45v698q0 35 -19 47q-20 14 -63 17l-47 4q-12 4 -12 8v45l2 4l204 -4h148h381q2 -94 28 -246l-51 -6q-14 45 -30 82q-16 35 -57.5 67.5t-102.5 32.5h-164q-59 0 -59 -43v-303h153q43 0 57 15q16 16 23 51l12 43q0 10 13 10 h34q4 0 5 -6q-12 -135 -13 -152l13 -141l-5 -4h-34q-14 0 -15 10l-10 45q-12 63 -80 64h-153v-342q0 -49 59 -49h176q86 0 129 49q49 55 74 137l51 -6q-37 -152 -43 -250h-541l-202 -4zM246 1175.5q0 38.5 26.5 65.5t65.5 27q41 0 67.5 -27t26.5 -65.5t-26 -65.5 q-29 -29 -68 -29q-37 0 -66 29q-26 27 -26 65.5zM573 1175.5q0 38.5 27 65.5t68 27q39 0 65.5 -27t26.5 -65.5t-27 -65.5q-29 -29 -65 -29q-39 0 -68 29q-27 27 -27 65.5z" />
<glyph unicode="&#xec;" horiz-adv-x="569" d="M61 1296l5 23q66 47 133 47q10 0 30 -4l144 -258q12 -25 12 -49q0 -8 -8 -15q-12 -8 -23 -8q-14 0 -59 41zM66 0v43q0 12 14 12l41 4q88 8 88 78v682q0 33 -18.5 47.5t-69.5 18.5l-41 4q-14 0 -14 8v45l2 4q217 -4 225 -4l213 4l2 -4v-43q0 -10 -12 -10l-43 -4 q-47 -4 -66 -19q-20 -16 -20 -47v-682q0 -68 86 -78l43 -4q12 0 12 -12v-43l-2 -4q-209 4 -219 4l-217 -4z" />
<glyph unicode="&#xed;" horiz-adv-x="569" d="M66 0v43q0 12 14 12l41 4q88 8 88 78v682q0 33 -18.5 47.5t-69.5 18.5l-41 4q-14 0 -14 8v45l2 4q217 -4 225 -4l213 4l2 -4v-43q0 -10 -12 -10l-43 -4q-47 -4 -66 -19q-20 -16 -20 -47v-682q0 -68 86 -78l43 -4q12 0 12 -12v-43l-2 -4q-209 4 -219 4l-217 -4zM178 1053 q0 25 12 47l164 258q16 4 29 4q57 0 100 -37q8 -8 13 -10l6 -23l-236 -223q-41 -41 -59 -41q-9 0 -19 6q-10 7 -10 19z" />
<glyph unicode="&#xee;" horiz-adv-x="569" d="M27 1069q143 160 211 264h102q72 -115 207 -264l-43 -29q-158 119 -217 185q-86 -90 -219 -185zM66 0v43q0 12 14 12l41 4q88 8 88 78v682q0 33 -18.5 47.5t-69.5 18.5l-41 4q-14 0 -14 8v45l2 4q217 -4 225 -4l213 4l2 -4v-43q0 -10 -12 -10l-43 -4q-47 -4 -66 -19 q-20 -16 -20 -47v-682q0 -68 86 -78l43 -4q12 0 12 -12v-43l-2 -4q-209 4 -219 4l-217 -4z" />
<glyph unicode="&#xef;" horiz-adv-x="569" d="M20 1175.5q0 38.5 27 65.5t66 27q41 0 67.5 -27t26.5 -65.5t-27 -65.5q-29 -29 -67 -29q-37 0 -66 29q-27 27 -27 65.5zM66 0v43q0 12 14 12l41 4q88 8 88 78v682q0 33 -18.5 47.5t-69.5 18.5l-41 4q-14 0 -14 8v45l2 4q217 -4 225 -4l213 4l2 -4v-43q0 -10 -12 -10 l-43 -4q-47 -4 -66 -19q-20 -16 -20 -47v-682q0 -68 86 -78l43 -4q12 0 12 -12v-43l-2 -4q-209 4 -219 4l-217 -4zM348 1175.5q0 38.5 26.5 65.5t67.5 27q39 0 66 -27t27 -65.5t-27 -65.5q-29 -29 -66 -29q-39 0 -67 29q-27 27 -27 65.5z" />
<glyph unicode="&#xf0;" horiz-adv-x="1146" d="M61 426v80h146v313q0 39 -14 51q-14 10 -68 15l-45 4q-14 0 -14 10v43l2 4l200 -4q55 0 124 1t106 2t57 1q225 0 369 -139q141 -139 141 -346q0 -133 -41 -223q-45 -98 -115 -146q-68 -45 -153 -72q-80 -25 -172 -24q-131 0 -199 2t-117 2l-200 -4l-2 4v43q0 12 12 12 l47 4q47 2 65 23q16 16 17 68v276h-146zM365 145q0 -51 30 -71q29 -20 140 -21q178 0 272 84q92 83 92 289q0 463 -403 463q-68 0 -99 -12q-33 -12 -32 -46v-325h124v-80h-124v-281z" />
<glyph unicode="&#xf1;" horiz-adv-x="1167" d="M66 0v43q0 12 20 12l41 4q88 8 88 86v668q-39 70 -125 76q-18 0 -18 12v39l4 6l276 -4l469 -637q43 -49 57.5 -49t14.5 53v486q0 35 -23 59q-25 28 -67 31l-43 4q-20 0 -21 10v43l4 4q184 -4 195 -4l182 4l6 -2v-45q0 -10 -14 -10l-41 -4q-88 -8 -88 -90v-764 q0 -55 -41 -56q-37 0 -80 45l-481 642q-40 49 -55 49q-20 0 -21 -72v-494q0 -77 92 -86l41 -4q14 0 15 -12v-43l-2 -4q-168 4 -189 4l-190 -4zM350 1090q20 86 62 137q37 45 102.5 45t147.5 -58q57 -45 106 -45q33 0 59 23q20 16 43 84l50 -12q-37 -184 -179 -185 q-53 0 -131 54q-72 45 -110 45q-40 0 -62 -25q-23 -25 -39 -74z" />
<glyph unicode="&#xf2;" horiz-adv-x="1134" d="M76 455q0 229 139 370q141 145 356 146q203 0 349 -140q143 -137 143 -350q0 -215 -133 -360.5t-375 -145.5q-207 0 -342 136q-137 137 -137 344zM246 479q0 -186 96 -311q96 -123 244 -123q137 0 223 111q84 109 84 297q0 199 -100 323q-98 123 -240 123 q-123 0 -215 -110.5t-92 -309.5zM375 1303l4 22q66 47 133 47q10 0 31 -4l143 -258q12 -25 12 -49q0 -10 -10 -17q-8 -6 -20 -6q-14 0 -60 41z" />
<glyph unicode="&#xf3;" horiz-adv-x="1134" d="M76 455q0 229 139 370q141 145 356 146q203 0 349 -140q143 -137 143 -350q0 -215 -133 -360.5t-375 -145.5q-207 0 -342 136q-137 137 -137 344zM246 479q0 -186 96 -311q96 -123 244 -123q137 0 223 111q84 109 84 297q0 199 -100 323q-98 123 -240 123 q-123 0 -215 -110.5t-92 -309.5zM457 1053q0 25 12 47l164 258q16 4 29 4q57 0 100 -37q4 -4 8 -7l4 -3l6 -23l-235 -223q-41 -41 -60 -41q-9 0 -18 6q-10 7 -10 19z" />
<glyph unicode="&#xf4;" horiz-adv-x="1134" d="M76 455q0 229 139 370q141 145 356 146q203 0 349 -140q143 -137 143 -350q0 -215 -133 -360.5t-375 -145.5q-207 0 -342 136q-137 137 -137 344zM246 479q0 -186 96 -311q96 -123 244 -123q137 0 223 111q84 109 84 297q0 199 -100 323q-98 123 -240 123 q-123 0 -215 -110.5t-92 -309.5zM319 1061q143 160 211 264h103q72 -115 207 -264l-43 -29q-158 119 -217 185q-86 -90 -220 -185z" />
<glyph unicode="&#xf5;" horiz-adv-x="1134" d="M76 455q0 229 139 370q141 145 356 146q203 0 349 -140q143 -137 143 -350q0 -215 -133 -360.5t-375 -145.5q-207 0 -342 136q-137 137 -137 344zM246 479q0 -186 96 -311q96 -123 244 -123q137 0 223 111q84 109 84 297q0 199 -100 323q-98 123 -240 123 q-123 0 -215 -110.5t-92 -309.5zM276 1090q20 86 62 137q37 45 102.5 45t147.5 -58q57 -45 106 -45q31 0 58 23q23 20 45 84l49 -12q-37 -184 -178 -185q-53 0 -131 54q-72 45 -111 45q-40 0 -61 -25q-27 -29 -39 -74z" />
<glyph unicode="&#xf6;" horiz-adv-x="1134" d="M76 455q0 229 139 370q141 145 356 146q203 0 349 -140q143 -137 143 -350q0 -215 -133 -360.5t-375 -145.5q-207 0 -342 136q-137 137 -137 344zM246 479q0 -186 96 -311q96 -123 244 -123q137 0 223 111q84 109 84 297q0 199 -100 323q-98 123 -240 123 q-123 0 -215 -110.5t-92 -309.5zM319 1173.5q0 38.5 27 65.5t66 27q41 0 67.5 -27t26.5 -65.5t-27 -65.5q-29 -29 -67 -29q-37 0 -66 29q-27 27 -27 65.5zM647 1173.5q0 38.5 26.5 65.5t67.5 27q39 0 66 -27t27 -65.5t-27 -65.5q-29 -29 -66 -29q-39 0 -67 29 q-27 27 -27 65.5z" />
<glyph unicode="&#xf7;" horiz-adv-x="1077" d="M135 426v100h809v-100h-809zM453 201q0 37 26 63q29 29 64 29t63.5 -28.5t28.5 -63.5t-29 -64q-27 -27 -63.5 -26.5t-63 27t-26.5 63.5zM453 749.5q0 36.5 26 63.5q29 29 64 29t63.5 -29t28.5 -63.5t-29 -63.5q-27 -27 -63.5 -27t-63 27t-26.5 63.5z" />
<glyph unicode="&#xf8;" horiz-adv-x="1134" d="M76 455q0 229 139 370q141 145 356 146q150 0 269 -74l80 113l59 -39l-82 -117q166 -141 166 -373q0 -215 -133 -360.5t-375 -145.5q-133 0 -242 60l-90 -129l-59 39l92 129q-88 66 -133 162q-47 100 -47 219zM246 479q0 -180 86 -299l440 621q-92 98 -219 98 q-123 0 -215 -110.5t-92 -309.5zM379 127q92 -82 207 -82q137 0 223 111q84 109 84 297q0 172 -76 290z" />
<glyph unicode="&#xf9;" horiz-adv-x="1142" d="M55 899v43l2 4q209 -4 219 -4l213 4l3 -4v-43q0 -10 -13 -10l-41 -4q-51 -4 -69.5 -18.5t-18.5 -47.5v-405q0 -88 8 -140q10 -66 33 -118q25 -55 78 -88q49 -29 129 -29q76 0 131 24q49 23 82 62q25 31 41 96q12 49 16 101q2 27 2 110v387q0 33 -20 47q-22 15 -68 19 l-41 4q-14 0 -14 10v43l4 4q164 -4 184 -4l172 4l3 -4v-43q0 -10 -13 -10l-35 -4q-49 -6 -63 -21q-16 -16 -16 -45v-360q0 -109 -17 -197q-16 -84 -57 -149q-41 -63 -123 -98t-203 -35q-57 0 -117 20q-72 25 -120 61q-59 45 -97 123q-37 80 -36 187v448q0 35 -18.5 47.5 t-70.5 18.5l-36 4q-13 0 -13 10zM381 1303l4 22q66 47 133 47q10 0 31 -4l143 -258q12 -25 13 -49q0 -10 -8.5 -16.5t-23 -6.5t-59.5 41z" />
<glyph unicode="&#xfa;" horiz-adv-x="1142" d="M55 899v43l2 4q209 -4 219 -4l213 4l3 -4v-43q0 -10 -13 -10l-41 -4q-51 -4 -69.5 -18.5t-18.5 -47.5v-405q0 -88 8 -140q10 -66 33 -118q25 -55 78 -88q49 -29 129 -29q76 0 131 24q49 23 82 62q25 31 41 96q12 49 16 101q2 27 2 110v387q0 33 -20 47q-22 15 -68 19 l-41 4q-14 0 -14 10v43l4 4q164 -4 184 -4l172 4l3 -4v-43q0 -10 -13 -10l-35 -4q-49 -6 -63 -21q-16 -16 -16 -45v-360q0 -109 -17 -197q-16 -84 -57 -149q-41 -63 -123 -98t-203 -35q-57 0 -117 20q-72 25 -120 61q-59 45 -97 123q-37 80 -36 187v448q0 35 -18.5 47.5 t-70.5 18.5l-36 4q-13 0 -13 10zM526 1053q0 25 13 47l163 258q16 4 29 4q57 0 100 -37q8 -8 13 -10l6 -23l-236 -223q-41 -41 -59 -41q-10 0 -20 6q-9 7 -9 19z" />
<glyph unicode="&#xfb;" horiz-adv-x="1142" d="M55 899v43l2 4q209 -4 219 -4l213 4l3 -4v-43q0 -10 -13 -10l-41 -4q-51 -4 -69.5 -18.5t-18.5 -47.5v-405q0 -88 8 -140q10 -66 33 -118q25 -55 78 -88q49 -29 129 -29q76 0 131 24q49 23 82 62q25 31 41 96q12 49 16 101q2 27 2 110v387q0 33 -20 47q-22 15 -68 19 l-41 4q-14 0 -14 10v43l4 4q164 -4 184 -4l172 4l3 -4v-43q0 -10 -13 -10l-35 -4q-49 -6 -63 -21q-16 -16 -16 -45v-360q0 -109 -17 -197q-16 -84 -57 -149q-41 -63 -123 -98t-203 -35q-57 0 -117 20q-72 25 -120 61q-59 45 -97 123q-37 80 -36 187v448q0 35 -18.5 47.5 t-70.5 18.5l-36 4q-13 0 -13 10zM348 1059q143 160 211 264h103q72 -115 206 -264l-43 -29q-152 113 -217 184q-86 -90 -219 -184z" />
<glyph unicode="&#xfc;" horiz-adv-x="1142" d="M55 899v43l2 4q209 -4 219 -4l213 4l3 -4v-43q0 -10 -13 -10l-41 -4q-51 -4 -69.5 -18.5t-18.5 -47.5v-405q0 -88 8 -140q10 -66 33 -118q25 -55 78 -88q49 -29 129 -29q76 0 131 24q49 23 82 62q25 31 41 96q12 49 16 101q2 27 2 110v387q0 33 -20 47q-22 15 -68 19 l-41 4q-14 0 -14 10v43l4 4q164 -4 184 -4l172 4l3 -4v-43q0 -10 -13 -10l-35 -4q-49 -6 -63 -21q-16 -16 -16 -45v-360q0 -109 -17 -197q-16 -84 -57 -149q-41 -63 -123 -98t-203 -35q-57 0 -117 20q-72 25 -120 61q-59 45 -97 123q-37 80 -36 187v448q0 35 -18.5 47.5 t-70.5 18.5l-36 4q-13 0 -13 10zM362 1173.5q0 38.5 27 65.5t66 27q41 0 67.5 -27t26.5 -65.5t-27 -65.5q-29 -29 -67 -29q-37 0 -66 29q-27 27 -27 65.5zM690 1173.5q0 38.5 26.5 65.5t67.5 27q39 0 66 -27t27 -65.5t-27 -65.5q-29 -29 -66 -29q-39 0 -67 29 q-27 27 -27 65.5z" />
<glyph unicode="&#xfd;" horiz-adv-x="978" d="M25 899v43l4 4q33 0 82 -2t86 -2q141 0 206 4l3 -2v-45q0 -10 -11 -10l-45 -4q-34 -3 -37 -19q-2 -14 17 -39l207 -338h4l190 338q20 35 16 45.5t-38 12.5l-47 4q-8 0 -9 10v45l4 2q35 0 80 -2t78 -2q57 0 139 4l2 -4v-43q0 -8 -14 -10l-35 -4q-47 -6 -65 -19 q-14 -10 -41 -59l-226 -397v-285q0 -31 19 -47q18 -15 68 -19l43 -4q14 0 14 -12v-43l-4 -4q-209 4 -219 4l-217 -4l-5 4v43q0 12 15 12l41 4q88 8 88 66v276l-258 424q-33 53 -119 64q-16 0 -16 10zM438 1065q0 25 13 47l163 258q16 4 29 4q57 0 100 -37q8 -8 13 -10l6 -22 l-236 -224q-41 -41 -59 -41q-10 0 -18 9q-11 10 -11 16z" />
<glyph unicode="&#xfe;" horiz-adv-x="919" d="M59 0v43q2 12 15 12l49 4q37 2 51 17q12 12 12 53v688q0 39 -12 51q-10 12 -51 15l-49 4q-14 2 -15 10v45l4 4q168 -4 199 -4l205 4l2 -4v-45q0 -10 -12 -10l-51 -4q-27 -4 -35 -6q-10 -4 -19 -17q-8 -14 -8 -43v-57q143 4 152 4q113 0 186 -27q76 -27 113 -73 q35 -45 51 -89q14 -41 14 -88q0 -43 -20 -94q-18 -46 -62 -92q-43 -47 -121 -74q-82 -29 -184 -28q-92 0 -129 10v-80q0 -43 12.5 -55.5t49.5 -14.5l49 -4q14 0 14 -12v-43l-2 -4q-39 0 -87 1t-74.5 2t-41.5 1q-102 0 -201 -4zM344 270q18 -8 121 -8q117 0 174 53.5 t57 173.5q0 211 -202 211q-72 0 -150 -16v-414z" />
<glyph unicode="&#xff;" horiz-adv-x="978" d="M25 899v43l4 4q33 0 82 -2t86 -2q141 0 206 4l3 -2v-45q0 -10 -11 -10l-45 -4q-34 -3 -37 -19q-2 -14 17 -39l207 -338h4l190 338q20 35 16 45.5t-38 12.5l-47 4q-8 0 -9 10v45l4 2q35 0 80 -2t78 -2q57 0 139 4l2 -4v-43q0 -8 -14 -10l-35 -4q-47 -6 -65 -19 q-14 -10 -41 -59l-226 -397v-285q0 -31 19 -47q18 -15 68 -19l43 -4q14 0 14 -12v-43l-4 -4q-209 4 -219 4l-217 -4l-5 4v43q0 12 15 12l41 4q88 8 88 66v276l-258 424q-33 53 -119 64q-16 0 -16 10zM272 1173.5q0 38.5 27 65.5t65.5 27t65.5 -27q29 -29 29 -65.5t-29 -65.5 t-65.5 -29t-65.5 29q-27 27 -27 65.5zM600 1173.5q0 38.5 26.5 65.5t67.5 27q39 0 65.5 -27t26.5 -65.5t-26 -65.5q-29 -29 -66 -29q-39 0 -67 29q-27 27 -27 65.5z" />
<glyph unicode="&#x100;" horiz-adv-x="1421" d="M4 0v39q0 16 16 16q76 6 117 33t82 121l455 1065q20 45 33 57q16 16 36 17q34 0 56 -62l420 -1110q22 -58 55 -86q33 -27 96 -33l23 -2q20 -2 20 -16v-39l-6 -4q-209 4 -238 4l-272 -4l-2 4v39q0 14 14 16l58 4q113 8 86 88l-125 347h-426q-34 0 -49 -7q-12 -4 -23 -28 l-119 -297q-16 -41 6 -70q23 -31 76 -33l60 -4q16 -4 16 -16v-39l-4 -4q-61 0 -126 1t-98.5 2t-47.5 1l-185 -4zM440 1518q0 18 14.5 38.5t30.5 20.5h502q29 0 29 -29q0 -20 -14.5 -40.5t-34.5 -20.5h-500q-27 0 -27 31zM487 606q-6 -16 5 -20q12 -6 47 -6h356l-199 546h-4z " />
<glyph unicode="&#x101;" horiz-adv-x="1099" d="M4 0v43q0 12 12 12q37 4 52 8q16 6 40.5 27t38.5 53l359 770q25 53 67 54q61 0 82 -52l299 -759q25 -59 50 -78q27 -20 77 -23q16 -4 17 -12v-43l-6 -4q-143 4 -170 4l-230 -4l-4 4v43q0 12 14 12l37 4q82 8 82 39q0 2 -1 10q-3 7 -3 13l-92 237h-350q-39 0 -45 -22 l-90 -215q-8 -18 -9 -27q0 -31 84 -37l27 -2q12 0 12 -12v-43l-4 -4q-45 0 -95 1t-75.5 2t-38.5 1l-133 -4zM301 1081q0 18 14.5 39t30.5 21h502q29 0 29 -29q0 -18 -17 -41q-14 -20 -33 -20h-499q-27 -1 -27 30zM381 446q0 -29 41 -28h278l-157 403h-4z" />
<glyph unicode="&#x102;" horiz-adv-x="1421" d="M4 0v39q0 16 16 16q76 6 117 33t82 121l455 1065q20 45 33 57q16 16 36 17q34 0 56 -62l420 -1110q22 -58 55 -86q33 -27 96 -33l23 -2q20 -2 20 -16v-39l-6 -4q-209 4 -238 4l-272 -4l-2 4v39q0 14 14 16l58 4q113 8 86 88l-125 347h-426q-34 0 -49 -7q-12 -4 -23 -28 l-119 -297q-16 -41 6 -70q23 -31 76 -33l60 -4q16 -4 16 -16v-39l-4 -4q-61 0 -126 1t-98.5 2t-47.5 1l-185 -4zM455 1647h57q12 -55 74 -91q63 -35 147 -34q80 0 146 34q68 35 75 91h56q-8 -104 -88 -168q-78 -63 -189 -64q-115 0 -192 62q-76 61 -86 170zM487 606 q-6 -16 5 -20q12 -6 47 -6h356l-199 546h-4z" />
<glyph unicode="&#x103;" horiz-adv-x="1099" d="M4 0v43q0 12 12 12q37 4 52 8q16 6 40.5 27t38.5 53l361 775q10 25 30.5 39t34.5 14q61 0 82 -51l299 -764q25 -59 50 -78q27 -20 77 -23q16 -4 17 -12v-43l-6 -4q-143 4 -170 4l-230 -4l-4 4v43q0 12 14 12l37 4q82 8 82 39q0 2 -1 10q-3 7 -3 13l-92 237h-350 q-39 0 -45 -22l-90 -215q-8 -18 -9 -27q0 -31 84 -37l27 -2q12 0 12 -12v-43l-4 -4q-45 0 -95 1t-75.5 2t-38.5 1l-133 -4zM313 1327l54 29q3 -80 67 -135q61 -53 156 -54q78 0 149 50q68 47 72 139l55 -29q-15 -141 -98 -208.5t-178 -67.5q-117 0 -191 77.5t-86 198.5z M381 446q0 -29 41 -28h278l-161 403h-2z" />
<glyph unicode="&#x104;" horiz-adv-x="1421" d="M4 0v39q0 16 16 16q76 6 117 33t82 121l455 1065q20 45 33 57q16 16 36 17q34 0 56 -62l420 -1110q22 -58 55 -86q33 -27 96 -33l23 -2q20 -2 20 -16v-39l-6 -4l-29 2q-104 -12 -178 -94q-72 -80 -72 -164q0 -53 33 -86q35 -35 86 -35q76 0 144 74l30 -17 q-33 -68 -100 -102q-66 -35 -125 -35q-86 0 -137 45q-53 47 -53 129q0 74 59 156q57 80 149 131h-45l-272 -4l-2 4v39q0 14 14 16l58 4q113 8 86 88l-125 347h-426q-34 0 -49 -7q-12 -4 -23 -28l-119 -297q-16 -41 6 -70q23 -31 76 -33l60 -4q16 -4 16 -16v-39l-4 -4 q-61 0 -126 1t-98.5 2t-47.5 1l-185 -4zM487 606q-6 -16 5 -20q12 -6 47 -6h356l-199 546h-4z" />
<glyph unicode="&#x105;" horiz-adv-x="1099" d="M4 0v43q0 12 12 12q37 4 52 8q16 6 40.5 27t38.5 53l361 775q10 25 30.5 39t34.5 14q61 0 82 -51l299 -764q25 -59 50 -78q27 -20 77 -23q16 -4 17 -12v-43l-6 -4q-27 0 -88 4q-106 -12 -177 -94q-72 -84 -71 -164q0 -53 32 -86q35 -35 86 -35q74 0 142 74l31 -17 q-35 -70 -97 -102q-66 -35 -127 -35q-86 0 -137 45q-53 47 -53 129q0 74 55 154q53 78 146 131q0 -2 -142 -4l-4 4v43q0 12 14 12l37 4q82 8 82 39q0 2 -1 10q-3 7 -3 13l-92 237h-350q-39 0 -45 -22l-90 -215q-8 -18 -9 -27q0 -31 84 -37l27 -2q12 0 12 -12v-43l-4 -4 q-45 0 -95 1t-75.5 2t-38.5 1l-133 -4zM381 446q0 -29 41 -28h278l-161 403h-2z" />
<glyph unicode="&#x106;" horiz-adv-x="1316" d="M76 645q0 297 196.5 500t456.5 203q145 0 279 -45q127 -43 170 -48q8 -119 45 -317l-62 -8q-102 342 -454 342q-63 0 -140 -35q-78 -35 -147 -102q-76 -72 -119 -185q-47 -123 -47 -266q0 -157 49 -295q47 -135 160 -231q109 -94 262 -95q147 0 256 52q113 53 219 172 l47 -31q-211 -276 -520 -276q-209 0 -362 100q-152 98 -220 246q-69 151 -69 319zM518 1458q0 22 31 43l254 176l127 -106l-295 -119q-57 -25 -88 -25q-29 0 -29 31z" />
<glyph unicode="&#x107;" horiz-adv-x="1005" d="M76 459q0 225 137 368.5t342 143.5q92 0 199 -19q108 -18 135 -18q4 -113 24 -262l-53 -6q-43 246 -293 245q-137 0 -229 -98q-94 -100 -94 -334q0 -172 82 -305q80 -129 249 -129q100 0 166 35q68 35 138 117l41 -33q-74 -98 -156 -143.5t-199 -45.5q-225 0 -356 146 q-133 150 -133 338zM403 1075q0 27 13 47l164 258q16 4 28 4q57 0 101 -36l8 -8l4 -3l6 -22l-235 -223q-41 -41 -60 -41q-8 0 -20 8q-9 6 -9 16z" />
<glyph unicode="&#x108;" horiz-adv-x="1316" d="M76 645q0 297 196.5 500t456.5 203q145 0 279 -45q127 -43 170 -48q8 -119 45 -317l-62 -8q-102 342 -454 342q-63 0 -140 -35q-78 -35 -147 -102q-76 -72 -119 -185q-47 -123 -47 -266q0 -157 49 -295q47 -135 160 -231q109 -94 262 -95q147 0 256 52q113 53 219 172 l47 -31q-211 -276 -520 -276q-209 0 -362 100q-152 98 -220 246q-69 151 -69 319zM483 1458q84 61 203 193h88q80 -96 207 -193l-33 -43q-127 59 -217 127q-94 -72 -219 -127z" />
<glyph unicode="&#x109;" horiz-adv-x="1005" d="M76 459q0 223 137 362q139 141 342 142q84 0 198.5 -16.5t135.5 -16.5q4 -113 24 -262l-53 -6q-39 242 -293 241q-313 0 -313 -424q0 -117 27 -205q27 -92 102 -157q76 -68 192 -68q100 0 166 35q68 35 138 117l41 -33q-74 -98 -156 -143t-199 -45q-223 0 -356 145.5 t-133 333.5zM315 1081q143 160 211 265h103q66 -104 207 -265l-43 -28q-141 104 -218 184q-86 -90 -219 -184z" />
<glyph unicode="&#x10a;" horiz-adv-x="1316" d="M76 645q0 297 196.5 500t456.5 203q145 0 279 -45q127 -43 170 -48q8 -119 45 -317l-62 -8q-102 342 -454 342q-63 0 -140 -35q-78 -35 -147 -102q-76 -72 -119 -185q-47 -123 -47 -266q0 -157 49 -295q47 -135 160 -231q109 -94 262 -95q147 0 256 52q113 53 219 172 l47 -31q-211 -276 -520 -276q-209 0 -362 100q-152 98 -220 246q-69 151 -69 319zM633 1534q0 41 28.5 69.5t69.5 28.5t69.5 -28.5t28.5 -69.5q0 -39 -28.5 -67.5t-69.5 -28.5t-69.5 28.5t-28.5 67.5z" />
<glyph unicode="&#x10b;" horiz-adv-x="1005" d="M76 459q0 223 137 362q139 141 342 142q84 0 198.5 -16.5t135.5 -16.5q4 -113 24 -262l-53 -6q-39 242 -293 241q-313 0 -313 -424q0 -117 27 -205q27 -92 102 -157q76 -68 192 -68q100 0 166 35q68 35 138 117l41 -33q-74 -98 -156 -143t-199 -45q-223 0 -356 145.5 t-133 333.5zM459 1149q0 41 28.5 69.5t69.5 28.5t69.5 -28.5t28.5 -69.5q0 -39 -28.5 -67.5t-69.5 -28.5t-69.5 28.5t-28.5 67.5z" />
<glyph unicode="&#x10c;" horiz-adv-x="1316" d="M76 645q0 297 196.5 500t456.5 203q145 0 279 -45q127 -43 170 -48q8 -119 45 -317l-62 -8q-102 342 -454 342q-63 0 -140 -35q-78 -35 -147 -102q-76 -72 -119 -185q-47 -123 -47 -266q0 -157 49 -295q47 -135 160 -231q109 -94 262 -95q147 0 256 52q113 53 219 172 l47 -31q-211 -276 -520 -276q-209 0 -362 100q-152 98 -220 246q-69 151 -69 319zM475 1622l33 41q115 -49 217 -125q113 80 219 125l31 -41q-96 -72 -205 -195h-88q-68 84 -207 195z" />
<glyph unicode="&#x10d;" horiz-adv-x="1005" d="M76 459q0 225 137 368.5t342 143.5q92 0 199 -19q108 -18 135 -18q4 -113 24 -262l-53 -6q-43 246 -293 245q-137 0 -229 -98q-94 -100 -94 -334q0 -172 82 -305q80 -129 249 -129q100 0 166 35q68 35 138 117l41 -33q-74 -98 -156 -143.5t-199 -45.5q-225 0 -356 146 q-133 150 -133 338zM295 1317l41 26q152 -113 217 -184q77 80 221 184l39 -26q-133 -150 -209 -266h-102q-78 129 -207 266z" />
<glyph unicode="&#x10e;" horiz-adv-x="1425" d="M35 0v37q0 16 14 18l62 4q57 4 82 25q25 23 24 68v1019q0 55 -20.5 69.5t-85.5 21.5l-58 4q-18 4 -18 16v39l4 4q74 0 137.5 -1t91.5 -2l29 -1q100 0 167.5 2t168.5 2q293 0 499.5 -202.5t206.5 -491.5q0 -178 -63 -312q-61 -129 -166 -196q-106 -68 -213 -98 q-102 -29 -227 -29q-145 0 -211 2t-162 2q-139 0 -258 -4zM383 147q0 -51 39 -65q43 -16 184 -16q545 0 545 516q0 88 -21 190q-16 86 -63 182q-43 89 -111 154q-70 68 -170 106q-98 39 -231 39q-88 0 -129 -14q-43 -14 -43 -63v-1029zM389 1622l33 41q115 -49 217 -125 q113 80 219 125l31 -41q-96 -72 -205 -195h-88q-68 84 -207 195z" />
<glyph unicode="&#x10f;" horiz-adv-x="1146" d="M66 0v43q0 12 12 12l47 4q47 2 65 23q16 16 17 68v669q0 39 -14 51q-14 10 -68 15l-45 4q-14 0 -14 10v43l2 4l200 -4q55 0 124 1t106 2t57 1q225 0 369 -139q141 -139 141 -346q0 -133 -41 -223q-45 -98 -115 -146q-68 -45 -153 -72q-80 -25 -172 -24q-131 0 -199 2 t-117 2l-200 -4zM297 1317l41 26q152 -113 217 -184q77 80 221 184l39 -26q-133 -150 -209 -266h-102q-78 129 -207 266zM365 145q0 -51 30 -71q29 -20 140 -21q178 0 272 84q92 83 92 289q0 463 -403 463q-68 0 -99 -12q-33 -12 -32 -46v-686z" />
<glyph unicode="&#x110;" horiz-adv-x="1425" d="M35 0v37q0 16 14 18l62 4q57 4 82 25q25 23 24 68v436h-182v82h182v501q0 55 -20.5 69.5t-85.5 21.5l-58 4q-18 4 -18 16v39l4 4q74 0 137.5 -1t91.5 -2l29 -1q100 0 167.5 2t168.5 2q293 0 499.5 -202.5t206.5 -491.5q0 -178 -63 -312q-61 -129 -166 -196 q-106 -68 -213 -98q-102 -29 -227 -29q-145 0 -211 2t-162 2q-139 0 -258 -4zM383 147q0 -51 39 -65q43 -16 184 -16q545 0 545 516q0 88 -21 190q-16 86 -63 182q-43 89 -111 154q-70 68 -170 106q-98 39 -231 39q-88 0 -129 -14q-43 -14 -43 -63v-506h322v-82h-322v-441z " />
<glyph unicode="&#x111;" horiz-adv-x="1126" d="M61 426v80h146v313q0 39 -14 51q-14 10 -68 15l-45 4q-14 0 -14 10v43l2 4l200 -4q55 0 124 1t106 2t57 1q225 0 369 -139q141 -139 141 -346q0 -133 -41 -223q-45 -98 -115 -146q-68 -45 -153 -72q-80 -25 -172 -24q-131 0 -199 2t-117 2l-200 -4l-2 4v43q0 12 12 12 l47 4q47 2 65 23q16 16 17 68v276h-146zM365 145q0 -51 30 -71q29 -20 140 -21q178 0 272 84q92 83 92 289q0 463 -403 463q-68 0 -99 -12q-33 -12 -32 -46v-325h124v-80h-124v-281z" />
<glyph unicode="&#x112;" horiz-adv-x="1122" d="M25 0v41q0 10 16 14l61 4q59 4 82 22.5t23 65.5v1027q0 47 -23 65q-18 16 -82 23l-61 4q-16 4 -16 14v41l4 2q137 -2 262 -2h518q55 0 94 8q8 0 8 -6q27 -145 45 -297l-59 -10q-41 123 -84 172q-45 51 -151 51h-216q-74 0 -73 -65v-435h260q53 0 74 21q23 23 28 65l6 52 q0 16 15 16h45q8 0 8 -8q-8 -96 -8 -176l8 -187l-6 -6h-47q-16 0 -17 14l-4 54q-2 45 -26 61q-23 16 -76 17h-260v-515q0 -68 73 -67h279q203 0 276 268l64 -10l-76 -342q-217 4 -262 4h-436l-262 -4zM262 1532q0 18 14.5 38.5t30.5 20.5h502q29 0 29 -28q0 -18 -17 -41 q-14 -20 -33 -21h-499q-27 0 -27 31z" />
<glyph unicode="&#x113;" horiz-adv-x="927" d="M66 0v45q0 10 12 10l47 4q82 8 82 88v676q0 35 -16.5 45.5t-65.5 14.5l-47 4q-12 2 -12 8v47l2 4q213 -4 221 -4h301l207 4l4 -4q3 -89 30 -246l-51 -8q-10 41 -20 62q-23 45 -33 59q-23 31 -57 47q-37 16 -82 16h-164q-59 0 -59 -49v-297h153q43 0 57 15q16 16 23 51 l12 43q0 10 13 10h34q4 0 5 -6q-12 -135 -13 -152l13 -141l-5 -4h-34q-14 0 -15 10l-10 45q-12 63 -80 64h-153v-314q0 -33 16 -55t43 -22h194q147 0 187 172l51 -6l-41 -236l-4 -4q-160 4 -182 4h-359l-202 -4zM205 1073q0 18 14 39t31 21h502q29 0 28 -29q0 -18 -16 -41 q-14 -20 -33 -21h-500q-26 0 -26 31z" />
<glyph unicode="&#x114;" horiz-adv-x="1122" d="M25 0v41q0 10 16 14l61 4q59 4 82 22.5t23 65.5v1027q0 47 -23 65q-18 16 -82 23l-61 4q-16 4 -16 14v41l4 2q137 -2 262 -2h518q55 0 94 8q8 0 8 -6q27 -145 45 -297l-59 -10q-41 123 -84 172q-45 51 -151 51h-216q-74 0 -73 -65v-435h260q53 0 74 21q23 23 28 65l6 52 q0 16 15 16h45q8 0 8 -8q-8 -96 -8 -176l8 -187l-6 -6h-47q-16 0 -17 14l-4 54q-2 45 -26 61q-23 16 -76 17h-260v-515q0 -68 73 -67h279q203 0 276 268l64 -10l-76 -342q-217 4 -262 4h-436l-262 -4zM295 1645h57q12 -55 74 -91q63 -35 147 -34q80 0 146 34q63 33 76 91h55 q-8 -104 -88 -168q-78 -63 -189 -64q-115 0 -192 62q-76 61 -86 170z" />
<glyph unicode="&#x115;" horiz-adv-x="927" d="M66 0v45q0 10 12 10l47 4q82 8 82 88v676q0 35 -16.5 45.5t-65.5 14.5l-47 4q-12 2 -12 8v47l2 4q213 -4 221 -4h301l207 4l4 -4q3 -89 30 -246l-51 -8q-10 41 -20 62q-23 45 -33 59q-23 31 -57 47q-37 16 -82 16h-164q-59 0 -59 -49v-297h153q43 0 57 15q16 16 23 51 l12 43q0 10 13 10h34q4 0 5 -6q-12 -135 -13 -152l13 -141l-5 -4h-34q-14 0 -15 10l-10 45q-12 63 -80 64h-153v-314q0 -33 16 -55t43 -22h194q147 0 187 172l51 -6l-41 -236l-4 -4q-160 4 -182 4h-359l-202 -4zM225 1319l54 29q2 -78 67 -134q63 -55 156 -55q76 0 149 51 q68 47 72 138l55 -29q-15 -141 -98 -209t-178 -68q-117 0 -191 76t-86 201z" />
<glyph unicode="&#x116;" horiz-adv-x="1122" d="M25 0v41q0 10 16 14l61 4q59 4 82 22.5t23 65.5v1027q0 47 -23 65q-18 16 -82 23l-61 4q-16 4 -16 14v41l4 2q137 -2 262 -2h518q55 0 94 8q8 0 8 -6q27 -145 45 -297l-59 -10q-41 123 -84 172q-45 51 -151 51h-216q-74 0 -73 -65v-435h260q53 0 74 21q23 23 28 65l6 52 q0 16 15 16h45q8 0 8 -8q-8 -96 -8 -176l8 -187l-6 -6h-47q-16 0 -17 14l-4 54q-2 45 -26 61q-23 16 -76 17h-260v-515q0 -68 73 -67h279q203 0 276 268l64 -10l-76 -342q-217 4 -262 4h-436l-262 -4zM475 1516q0 41 28.5 69.5t69.5 28.5t70 -29t29 -69q0 -39 -29 -68 t-70 -29t-69.5 29t-28.5 68z" />
<glyph unicode="&#x117;" horiz-adv-x="927" d="M66 0v45q0 10 12 10l47 4q82 8 82 88v676q0 35 -16.5 45.5t-65.5 14.5l-47 4q-12 2 -12 8v47l2 4q213 -4 221 -4h301l207 4l4 -4q3 -89 30 -246l-51 -8q-10 41 -20 62q-23 45 -33 59q-23 31 -57 47q-37 16 -82 16h-164q-59 0 -59 -49v-297h153q43 0 57 15q16 16 23 51 l12 43q0 10 13 10h34q4 0 5 -6q-12 -135 -13 -152l13 -141l-5 -4h-34q-14 0 -15 10l-10 45q-12 63 -80 64h-153v-314q0 -33 16 -55t43 -22h194q147 0 187 172l51 -6l-41 -236l-4 -4q-160 4 -182 4h-359l-202 -4zM428 1171q0 41 28.5 70t69.5 29t70 -29t29 -70 q0 -39 -29 -67.5t-70 -28.5q-43 0 -69 27q-29 28 -29 69z" />
<glyph unicode="&#x118;" horiz-adv-x="1122" d="M25 0v41q0 10 16 14l61 4q59 4 82 22.5t23 65.5v1027q0 47 -23 65q-18 16 -82 23l-61 4q-16 4 -16 14v41l4 2q137 -2 262 -2h518q55 0 94 8q8 0 8 -6q27 -145 45 -297l-59 -10q-41 123 -84 172q-45 51 -151 51h-216q-74 0 -73 -65v-435h260q53 0 74 21q23 23 28 65l6 52 q0 16 15 16h45q8 0 8 -8q-8 -96 -8 -176l8 -187l-6 -6h-47q-16 0 -17 14l-4 54q-2 45 -26 61q-23 16 -76 17h-260v-515q0 -68 73 -67h279q203 0 276 268l64 -10l-66 -295l37 -43q-117 0 -196.5 -86t-79.5 -172q0 -53 33 -86q35 -35 86 -35q76 0 143 74l31 -17 q-33 -68 -101 -102q-66 -35 -125 -35q-86 0 -137 45q-53 47 -53 129q0 72 57 154q53 78 146 131h-113h-436l-262 -4z" />
<glyph unicode="&#x119;" horiz-adv-x="927" d="M66 0v45q0 10 12 10l47 4q82 8 82 88v676q0 35 -16.5 45.5t-65.5 14.5l-47 4q-12 2 -12 8v47l2 4q213 -4 221 -4h301l207 4l4 -4q3 -89 30 -246l-51 -8q-10 41 -20 62q-23 45 -33 59q-23 31 -57 47q-37 16 -82 16h-164q-59 0 -59 -49v-297h153q43 0 57 15q16 16 23 51 l12 43q0 10 13 10h34q4 0 5 -6q-12 -135 -13 -152l13 -141l-5 -4h-34q-14 0 -15 10l-10 45q-12 63 -80 64h-153v-314q0 -33 16 -55t43 -22h194q147 0 187 172l51 -6l-37 -216l17 -20h-23l-2 -4l-18 2q-98 -18 -166 -98t-68 -158q0 -53 33 -86q35 -35 88 -35q74 0 141 74 l31 -17q-35 -70 -98 -102q-66 -35 -125 -35q-88 0 -140 45q-53 47 -53 129q0 76 58 154q59 82 147 131h-12h-359l-202 -4z" />
<glyph unicode="&#x11a;" horiz-adv-x="1122" d="M25 0v41q0 10 16 14l61 4q59 4 82 22.5t23 65.5v1027q0 47 -23 65q-18 16 -82 23l-61 4q-16 4 -16 14v41l4 2q137 -2 262 -2h518q55 0 94 8q8 0 8 -6q27 -145 45 -297l-59 -10q-41 123 -84 172q-45 51 -151 51h-216q-74 0 -73 -65v-435h260q53 0 74 21q23 23 28 65l6 52 q0 16 15 16h45q8 0 8 -8q-8 -96 -8 -176l8 -187l-6 -6h-47q-16 0 -17 14l-4 54q-2 45 -26 61q-23 16 -76 17h-260v-515q0 -68 73 -67h279q203 0 276 268l64 -10l-76 -342q-217 4 -262 4h-436l-262 -4zM342 1622l33 41q115 -49 217 -125q113 80 219 125l31 -41 q-96 -72 -205 -195h-88q-68 84 -207 195z" />
<glyph unicode="&#x11b;" horiz-adv-x="927" d="M66 0v45q0 10 12 10l47 4q47 4 65 19q16 14 17 45v698q0 35 -19 47q-20 14 -63 17l-47 4q-12 4 -12 8v45l2 4l204 -4h148h381q2 -94 28 -246l-51 -6q-14 45 -30 82q-16 35 -57.5 67.5t-102.5 32.5h-164q-59 0 -59 -43v-303h153q43 0 57 15q16 16 23 51l12 43q0 10 13 10 h34q4 0 5 -6q-12 -135 -13 -152l13 -141l-5 -4h-34q-14 0 -15 10l-10 45q-12 63 -80 64h-153v-342q0 -49 59 -49h176q86 0 129 49q49 55 74 137l51 -6q-37 -152 -43 -250h-541l-202 -4zM248 1309l41 26q152 -113 217 -184q77 80 221 184l39 -26q-141 -156 -209 -267h-102 q-74 120 -207 267z" />
<glyph unicode="&#x11c;" horiz-adv-x="1417" d="M66 629q0 219 104 385q106 168 260 250q158 84 338 84q139 0 270 -48q127 -45 176 -45q18 -199 46 -315l-62 -12q-45 154 -151 250q-102 94 -308 94q-213 0 -354 -168q-141 -170 -141 -434q0 -104 37 -211q35 -100 106 -199q66 -90 178 -149q109 -57 240 -58 q197 0 301 99v313q0 47 -25 65q-23 16 -88 21l-53 4q-16 4 -16 16v54l4 4q238 -4 258 -4l190 4l4 -4v-54q0 -12 -16 -16q-47 -6 -69.5 -22.5t-22.5 -67.5v-238q0 -33 33 -57q-224 -190 -547 -190q-303 0 -497.5 188.5t-194.5 460.5zM498 1456q84 61 202 193h88 q80 -96 207 -193l-32 -43q-119 55 -218 127q-94 -72 -219 -127z" />
<glyph unicode="&#x11d;" horiz-adv-x="1114" d="M78 451q0 238 149.5 375t382.5 137q55 0 182.5 -16.5t145.5 -16.5q4 -131 27 -262l-54 -6q-45 242 -327 241q-158 0 -244 -116.5t-86 -309.5q0 -92 37 -188q39 -98 123 -172q90 -78 207 -78q115 0 192 78v211q0 35 -20 47q-23 14 -68 16l-41 4q-12 2 -12 13v45l2 2 q109 -2 225 -2l154 2l4 -2v-45q0 -9 -13 -13q-39 -6 -57 -20q-16 -12 -16 -47v-154q0 -18 28 -47q-213 -147 -415 -147q-213 0 -361 137q-145 135 -145 334zM338 1071q143 160 211 264h102q72 -115 207 -264l-43 -29q-158 119 -217 185q-86 -90 -219 -185z" />
<glyph unicode="&#x11e;" horiz-adv-x="1417" d="M66 629q0 219 104 385q106 168 260 250q158 84 338 84q139 0 270 -48q127 -45 176 -45q18 -199 46 -315l-62 -12q-45 154 -151 250q-102 94 -308 94q-213 0 -354 -168q-141 -170 -141 -434q0 -104 37 -211q35 -100 106 -199q66 -90 178 -149q109 -57 240 -58 q197 0 301 99v313q0 47 -25 65q-23 16 -88 21l-53 4q-16 4 -16 16v54l4 4q238 -4 258 -4l190 4l4 -4v-54q0 -12 -16 -16q-47 -6 -69.5 -22.5t-22.5 -67.5v-238q0 -33 33 -57q-224 -190 -547 -190q-303 0 -497.5 188.5t-194.5 460.5zM483 1651h58q12 -55 75.5 -90t145.5 -35 t145 33q68 35 76 92h55q-8 -102 -90 -168q-78 -63 -186 -64q-115 0 -193 62q-76 61 -86 170z" />
<glyph unicode="&#x11f;" horiz-adv-x="1114" d="M78 451q0 240 151 380q147 139 381 140q61 0 182 -18.5t146 -18.5q4 -131 27 -262l-54 -6q-47 250 -327 249q-158 0 -248 -122q-90 -125 -90 -316q0 -86 39 -190q35 -96 127 -174q90 -78 209 -78q113 0 192 82v211q0 35 -20 47q-23 14 -68 16l-41 4q-12 0 -12 13v45l2 2 q109 -2 225 -2l154 2l4 -2v-45q0 -9 -13 -13q-39 -6 -57 -20q-16 -12 -16 -47v-154q0 -18 28 -47q-213 -147 -415 -147q-213 0 -361 137q-145 135 -145 334zM313 1327l54 29q3 -80 67 -135q61 -53 156 -54q78 0 149 50q68 47 72 139l55 -29q-15 -141 -98 -208.5t-178 -67.5 q-117 0 -191 77.5t-86 198.5z" />
<glyph unicode="&#x120;" horiz-adv-x="1417" d="M66 629q0 219 104 385q106 168 260 250q158 84 338 84q139 0 270 -48q127 -45 176 -45q18 -199 46 -315l-62 -12q-45 154 -151 250q-102 94 -308 94q-213 0 -354 -168q-141 -170 -141 -434q0 -104 37 -211q35 -100 106 -199q66 -90 178 -149q109 -57 240 -58 q197 0 301 99v313q0 47 -25 65q-23 16 -88 21l-53 4q-16 4 -16 16v54l4 4q238 -4 258 -4l190 4l4 -4v-54q0 -12 -16 -16q-47 -6 -69.5 -22.5t-22.5 -67.5v-238q0 -33 33 -57q-224 -190 -547 -190q-303 0 -497.5 188.5t-194.5 460.5zM670 1542q0 41 28.5 69.5t69.5 28.5 t69.5 -28.5t28.5 -69.5q0 -39 -28.5 -67.5t-69.5 -28.5q-43 0 -70 27q-28 28 -28 69z" />
<glyph unicode="&#x121;" horiz-adv-x="1114" d="M78 451q0 238 149.5 375t382.5 137q55 0 182.5 -16.5t145.5 -16.5q4 -131 27 -262l-54 -6q-45 242 -327 241q-158 0 -244 -116.5t-86 -309.5q0 -92 37 -188q39 -98 123 -172q90 -78 207 -78q115 0 192 78v211q0 35 -20 47q-23 14 -68 16l-41 4q-12 2 -12 13v45l2 2 q109 -2 225 -2l154 2l4 -2v-45q0 -9 -13 -13q-39 -6 -57 -20q-16 -12 -16 -47v-154q0 -18 28 -47q-213 -147 -415 -147q-213 0 -361 137q-145 135 -145 334zM502 1141q0 41 28.5 69.5t69.5 28.5t69.5 -28.5t28.5 -69.5q0 -39 -28.5 -68t-69.5 -29q-43 0 -70 27 q-28 29 -28 70z" />
<glyph unicode="&#x122;" horiz-adv-x="1417" d="M66 629q0 219 104 385q106 168 260 250q158 84 338 84q139 0 270 -48q127 -45 176 -45q18 -199 46 -315l-62 -12q-45 154 -151 250q-102 94 -308 94q-213 0 -354 -168q-141 -170 -141 -434q0 -104 37 -211q35 -100 106 -199q66 -90 178 -149q109 -57 240 -58 q197 0 301 99v313q0 47 -25 65q-23 16 -88 21l-53 4q-16 4 -16 16v54l4 4q238 -4 258 -4l190 4l4 -4v-54q0 -12 -16 -16q-47 -6 -69.5 -22.5t-22.5 -67.5v-238q0 -33 33 -57q-224 -190 -547 -190q-303 0 -497.5 188.5t-194.5 460.5zM664 -190q0 31 26 55q31 27 78 26 q59 0 92 -45q35 -47 35 -102q0 -39 -14.5 -80t-67.5 -88q-51 -45 -137 -49l-8 35q39 8 75 28q27 14 48 39q14 16 24 41q10 23 12 33q2 8 2 21q0 4 -4 20q-35 -18 -59 -18q-51 0 -78 26q-24 25 -24 58z" />
<glyph unicode="&#x123;" horiz-adv-x="1114" d="M78 451q0 238 149.5 375t382.5 137q55 0 182.5 -16.5t145.5 -16.5q4 -131 27 -262l-54 -6q-45 242 -327 241q-158 0 -244 -116.5t-86 -309.5q0 -92 37 -188q39 -98 123 -172q90 -78 207 -78q115 0 192 78v211q0 35 -20 47q-23 14 -68 16l-41 4q-12 2 -12 13v45l2 2 q109 -2 225 -2l154 2l4 -2v-45q0 -9 -13 -13q-39 -6 -57 -20q-16 -12 -16 -47v-154q0 -18 28 -47q-213 -147 -415 -147q-213 0 -361 137q-145 135 -145 334zM485 1200q0 29 9 55q9 31 30 68q23 39 68 63q53 29 110 31l9 -35q-57 -12 -90 -57t-33 -84q0 -37 22 -37 q94 0 95 -84q0 -70 -97 -69q-57 0 -90 45t-33 104z" />
<glyph unicode="&#x124;" horiz-adv-x="1431" d="M35 1282v39l4 4q238 -4 258 -4l264 4l4 -4v-39q0 -12 -16 -16l-53 -4q-59 -2 -86 -22.5t-27 -63.5v-433h668v433q0 45 -25 63q-20 16 -86 23l-53 4q-18 4 -19 16v39l4 4q238 -4 258 -4l265 4l4 -4v-39q0 -14 -17 -16l-53 -4q-59 -2 -85.5 -22.5t-26.5 -63.5v-1024 q0 -46 24 -68q25 -23 88 -25l53 -4q18 -2 19 -16v-39l-4 -4q-238 4 -258 4l-265 -4l-4 4v39q0 14 17 16l53 4q59 2 86 27q25 20 25 66v505h-668v-510q0 -47 25 -65q27 -20 88 -23l53 -4q16 -4 16 -16v-39l-4 -4q-233 4 -258 4l-262 -4l-4 4v39q0 14 14 16l55 4q61 3 87 25 q25 23 24 63v1029q0 45 -24 63q-20 16 -87 23l-55 4q-16 4 -16 16zM463 1452q84 61 203 193h88q80 -96 207 -193l-33 -43q-127 59 -217 127q-94 -72 -219 -127z" />
<glyph unicode="&#x125;" horiz-adv-x="1206" d="M66 0v43q0 10 14 12l41 4q51 2 69.5 18.5t18.5 47.5v698q0 34 -19 43q-20 10 -69 17l-41 4q-14 2 -14 12v43l4 4q205 -4 217 -4l219 4l2 -4v-43q0 -9 -12 -12l-43 -4q-45 -2 -65.5 -16.5t-20.5 -43.5v-309h477v309q0 33 -19 45q-16 10 -69 15l-41 4q-14 2 -15 12v43l5 4 q201 -4 215 -4l221 4l2 -4v-43q0 -9 -13 -12l-40 -4q-55 -6 -70 -17q-18 -12 -19 -43v-698q0 -31 18.5 -47.5t70.5 -18.5l40 -4q14 -2 15 -12v-43l-4 -4q-217 4 -223 4l-213 -4l-3 4v43q0 9 13 12l41 4q88 8 88 66v326h-477v-326q0 -31 20 -47q18 -14 66 -19l43 -4 q12 -3 12 -12v-43l-2 -4q-209 4 -219 4l-217 -4zM344 1071q143 160 211 264h102q72 -115 207 -264l-43 -29q-158 119 -217 185q-86 -90 -219 -185z" />
<glyph unicode="&#x126;" horiz-adv-x="1431" d="M35 1282v39l4 4q238 -4 258 -4l264 4l4 -4v-39q0 -12 -16 -16l-53 -4q-59 -2 -86 -22.5t-27 -63.5v-52h668v52q0 45 -25 63q-20 16 -86 23l-53 4q-18 4 -19 16v39l4 4q238 -4 258 -4l265 4l4 -4v-39q0 -14 -17 -16l-53 -4q-59 -2 -85.5 -22.5t-26.5 -63.5v-52h126v-80 h-126v-892q0 -46 24 -68q25 -23 88 -25l53 -4q18 -2 19 -16v-39l-4 -4q-238 4 -258 4l-265 -4l-4 4v39q0 14 17 16l53 4q59 2 86 27q25 20 25 66v505h-668v-510q0 -47 25 -65q27 -20 88 -23l53 -4q16 -4 16 -16v-39l-4 -4q-233 4 -258 4l-262 -4l-4 4v39q0 14 14 16l55 4 q61 3 87 25q25 23 24 63v897h-133v80h133v52q0 45 -24 63q-20 16 -87 23l-55 4q-16 4 -16 16zM383 743h668v301h-668v-301z" />
<glyph unicode="&#x127;" horiz-adv-x="1206" d="M66 0v43q0 10 14 12l41 4q51 2 69.5 18.5t18.5 47.5v584h-127v65h127v49q0 34 -19 43q-20 10 -69 17l-41 4q-14 2 -14 12v43l4 4q205 -4 217 -4l219 4l2 -4v-43q0 -9 -12 -12l-43 -4q-45 -2 -65.5 -16.5t-20.5 -43.5v-49h477v49q0 33 -19 45q-16 10 -69 15l-41 4 q-14 2 -15 12v43l5 4q201 -4 215 -4l221 4l2 -4v-43q0 -9 -13 -12l-40 -4q-55 -6 -70 -17q-18 -12 -19 -43v-49h132v-65h-132v-584q0 -31 18.5 -47.5t70.5 -18.5l40 -4q14 -2 15 -12v-43l-4 -4q-217 4 -223 4l-213 -4l-3 4v43q0 9 13 12l41 4q88 8 88 66v326h-477v-326 q0 -31 20 -47q18 -14 66 -19l43 -4q12 -3 12 -12v-43l-2 -4q-209 4 -219 4l-217 -4zM367 514h477v195h-477v-195z" />
<glyph unicode="&#x128;" horiz-adv-x="598" d="M18 1438q20 86 62 137q37 45 102.5 45t147.5 -57q57 -45 106 -45q31 0 58 22q23 20 45 84l49 -12q-37 -184 -178 -185q-53 0 -131 54q-72 45 -111 45q-41 0 -62 -23q-25 -29 -38 -76zM35 1282v39l4 4q55 0 116.5 -1t94.5 -2t49 -1q18 0 52 1t96.5 2t113.5 1l4 -4v-39 q0 -12 -16 -16l-53 -4q-59 -2 -86 -22.5t-27 -63.5v-1031q0 -45 25 -63q27 -20 88 -23l53 -4q16 -4 16 -16v-39l-4 -4q-131 4 -260 4q-125 0 -260 -4l-4 4v39q0 14 14 16l55 4q59 2 87 23q25 18 24 63v1031q0 45 -24 63q-20 16 -87 23l-55 4q-16 4 -16 16z" />
<glyph unicode="&#x129;" horiz-adv-x="569" d="M-6 1055q20 86 61 137q37 45 102.5 45t147.5 -57q59 -45 107 -45q33 0 59 22q20 16 43 84l49 -12q-37 -184 -178 -185q-53 0 -131 54q-72 45 -111 45q-41 0 -61 -23q-25 -29 -39 -76zM66 0v43q0 10 14 12l41 4q88 8 88 78v682q0 35 -19 47q-20 12 -69 17l-41 4 q-14 2 -14 8v47l2 4q217 -4 225 -4l213 4l2 -4v-45q0 -8 -12 -10l-43 -4q-47 -4 -66 -19q-20 -16 -20 -45v-682q0 -68 86 -78l43 -4q12 -3 12 -12v-43l-2 -4q-209 4 -219 4l-217 -4z" />
<glyph unicode="&#x12a;" horiz-adv-x="598" d="M16 1532q0 18 14.5 38.5t30.5 20.5h502q29 0 29 -28q0 -18 -17 -41q-14 -20 -32 -21h-500q-27 0 -27 31zM35 1282v39l4 4q55 0 116.5 -1t94.5 -2t49 -1q18 0 52 1t96.5 2t113.5 1l4 -4v-39q0 -12 -16 -16l-53 -4q-59 -2 -86 -22.5t-27 -63.5v-1031q0 -45 25 -63 q27 -20 88 -23l53 -4q16 -4 16 -16v-39l-4 -4q-131 4 -260 4q-125 0 -260 -4l-4 4v39q0 14 14 16l55 4q59 2 87 23q25 18 24 63v1031q0 45 -24 63q-20 16 -87 23l-55 4q-16 4 -16 16z" />
<glyph unicode="&#x12b;" horiz-adv-x="569" d="M-8 1073q0 18 14 39t31 21h502q29 0 28 -29q0 -18 -16 -41q-14 -20 -33 -21h-500q-26 0 -26 31zM66 0v43q0 10 14 12l41 4q88 8 88 78v682q0 35 -19 47q-20 12 -69 17l-41 4q-14 2 -14 8v47l2 4q217 -4 225 -4l213 4l2 -4v-45q0 -8 -12 -10l-43 -4q-47 -4 -66 -19 q-20 -16 -20 -45v-682q0 -68 86 -78l43 -4q12 -3 12 -12v-43l-2 -4q-209 4 -219 4l-217 -4z" />
<glyph unicode="&#x12c;" horiz-adv-x="598" d="M27 1649h57q12 -55 74 -90q63 -35 147 -35q82 0 146 32q68 35 75 93h56q-8 -104 -88 -168q-78 -63 -189 -64q-117 0 -192.5 61.5t-85.5 170.5zM35 1282v39l4 4q55 0 116.5 -1t94.5 -2t49 -1q18 0 52 1t96.5 2t113.5 1l4 -4v-39q0 -12 -16 -16l-53 -4q-59 -2 -86 -22.5 t-27 -63.5v-1031q0 -45 25 -63q27 -20 88 -23l53 -4q16 -4 16 -16v-39l-4 -4q-131 4 -260 4q-125 0 -260 -4l-4 4v39q0 14 14 16l55 4q59 2 87 23q25 18 24 63v1031q0 45 -24 63q-20 16 -87 23l-55 4q-16 4 -16 16z" />
<glyph unicode="&#x12d;" horiz-adv-x="569" d="M2 1319l53 29q2 -78 67.5 -133.5t156.5 -55.5q76 0 149 51q68 47 72 138l55 -29q-15 -141 -98 -209t-178 -68q-119 0 -193 76q-76 78 -84 201zM66 0v43q0 10 14 12l41 4q88 8 88 78v682q0 35 -19 47q-20 12 -69 17l-41 4q-14 2 -14 8v47l2 4q217 -4 225 -4l213 4l2 -4 v-45q0 -8 -12 -10l-43 -4q-47 -4 -66 -19q-20 -16 -20 -45v-682q0 -68 86 -78l43 -4q12 -3 12 -12v-43l-2 -4q-209 4 -219 4l-217 -4z" />
<glyph unicode="&#x12e;" horiz-adv-x="598" d="M35 1282v39l4 4q55 0 116.5 -1t94.5 -2t49 -1q18 0 52 1t96.5 2t113.5 1l4 -4v-39q0 -12 -16 -16l-53 -4q-59 -2 -86 -22.5t-27 -63.5v-1031q0 -45 25 -63q27 -20 88 -23l53 -4q16 -4 16 -16v-39l-4 -4q-8 0 -16 1l-8 1q-102 -8 -179 -94q-74 -84 -73 -164q0 -53 32 -86 q35 -35 86 -35q76 0 144 74l31 -17q-33 -68 -101 -102q-66 -35 -125 -35q-86 0 -137 45q-53 47 -53 129q0 74 59 156q57 80 150 131h-70q-125 0 -260 -4l-4 4v39q0 14 14 16l55 4q59 2 87 23q25 18 24 63v1031q0 45 -24 63q-20 16 -87 23l-55 4q-16 4 -16 16z" />
<glyph unicode="&#x12f;" horiz-adv-x="569" d="M66 0v43q0 10 14 12l41 4q88 8 88 78v682q0 35 -19 47q-20 12 -69 17l-41 4q-14 2 -14 8v47l2 4q217 -4 225 -4l213 4l2 -4v-45q0 -8 -12 -10l-43 -4q-47 -4 -66 -19q-20 -16 -20 -45v-682q0 -68 86 -78l43 -4q12 -3 12 -12v-43l-2 -4q-10 0 -33.5 1t-38.5 1 q-104 -16 -172 -94q-70 -82 -69 -162q0 -53 32 -86q35 -35 86 -35q74 0 142 74l32 -17q-33 -68 -100 -102q-66 -35 -125 -35q-86 0 -137 45q-53 47 -53 129q0 72 57 154q53 78 147 131l-204 -4z" />
<glyph unicode="&#x130;" horiz-adv-x="598" d="M35 1282v39l4 4q55 0 116.5 -1t94.5 -2t49 -1q18 0 52 1t96.5 2t113.5 1l4 -4v-39q0 -12 -16 -16l-53 -4q-59 -2 -86 -22.5t-27 -63.5v-1031q0 -45 25 -63q27 -20 88 -23l53 -4q16 -4 16 -16v-39l-4 -4q-131 4 -260 4q-125 0 -260 -4l-4 4v39q0 14 14 16l55 4q59 2 87 23 q25 18 24 63v1031q0 45 -24 63q-20 16 -87 23l-55 4q-16 4 -16 16zM201 1536q0 41 28.5 69.5t69.5 28.5t69.5 -28.5t28.5 -69.5q0 -39 -28.5 -67.5t-69.5 -28.5t-69.5 28.5t-28.5 67.5z" />
<glyph unicode="&#x131;" horiz-adv-x="569" d="M66 0v43q0 10 14 12l41 4q88 8 88 78v682q0 35 -19 47q-20 12 -69 17l-41 4q-14 2 -14 8v47l2 4q217 -4 225 -4l213 4l2 -4v-45q0 -8 -12 -10l-43 -4q-47 -4 -66 -19q-20 -16 -20 -45v-682q0 -68 86 -78l43 -4q12 -3 12 -12v-43l-2 -4q-209 4 -219 4l-217 -4zM182 1223 q0 41 29 69.5t70 28.5t69.5 -28.5t28.5 -69.5q0 -39 -28.5 -68t-69.5 -29q-43 0 -70 27q-29 29 -29 70z" />
<glyph unicode="&#x132;" horiz-adv-x="1202" d="M35 1282v39l4 4q55 0 116.5 -1t94.5 -2t49 -1q18 0 52 1t96.5 2t113.5 1l4 -4v-39q0 -12 -16 -16l-53 -4q-59 -2 -86 -22.5t-27 -63.5v-1031q0 -45 25 -63q27 -20 88 -23l53 -4q16 -4 16 -16v-39l-4 -4q-131 4 -260 4q-125 0 -260 -4l-4 4v39q0 14 14 16l55 4q59 2 87 23 q25 18 24 63v1031q0 45 -24 63q-20 16 -87 23l-55 4q-16 4 -16 16zM438 -254q0 33 27 53.5t51 20.5q66 0 107 -56q25 -37 57 -36q172 0 172 426v991q0 72 -31 94q-31 20 -114 25l-41 2q-18 0 -19 16v39l4 4q266 -4 281 -4l244 4l4 -4v-39q0 -16 -17 -16l-35 -2 q-61 -3 -86 -25q-25 -23 -24 -63v-977q0 -176 -57 -291q-53 -106 -158 -193q-94 -80 -234 -80q-40 0 -86 31q-45 31 -45 80z" />
<glyph unicode="&#x133;" horiz-adv-x="1103" d="M63 0v43q0 12 15 12l41 4q88 8 88 78v682q0 33 -18.5 47.5t-69.5 18.5l-41 4q-14 0 -15 8v45l3 4q217 -4 225 -4l213 4l2 -4v-43q0 -10 -12 -10l-43 -4q-47 -4 -66 -19q-20 -16 -20 -47v-682q0 -68 86 -78l43 -4q12 0 12 -12v-43l-2 -4q-209 4 -219 4l-217 -4zM385 -256 q0 28 25 49q23 20 49 21q59 0 98 -52q25 -35 53 -34q156 0 156 426v667q0 35 -18 47q-20 12 -70 17l-57 4q-12 0 -13 10v43l2 4q233 -4 238 -4l201 4l4 -4v-43q0 -8 -15 -10l-26 -4q-51 -10 -68 -21q-18 -12 -18 -43v-624q0 -322 -201 -482q-90 -74 -217 -73q-37 0 -82 28 q-41 27 -41 74z" />
<glyph unicode="&#x134;" horiz-adv-x="643" d="M-121 -254q0 33 26.5 53.5t51.5 20.5q68 0 106 -56q27 -37 58 -36q172 0 172 426v991q0 72 -31 94q-31 20 -115 25l-41 2q-18 0 -18 16v39l4 4q266 -4 281 -4l243 4l5 -4v-39q0 -16 -17 -16l-35 -2q-61 -3 -86 -25q-25 -23 -24 -63v-977q0 -180 -56 -291 q-53 -104 -159 -193q-96 -80 -234 -80q-40 0 -86 31q-45 31 -45 80zM117 1456q84 61 202 193h89q80 -96 206 -193l-32 -43q-127 59 -217 127q-94 -72 -220 -127z" />
<glyph unicode="&#x135;" horiz-adv-x="614" d="M-94 -256q0 27 26 49q23 20 48 21q59 0 98 -52q25 -35 53 -34q135 0 135 426v667q0 31 -20.5 45.5t-67.5 16.5l-57 4q-12 0 -12 10v45l2 4q233 -4 237 -4l201 4l4 -4v-45q0 -8 -14 -10l-27 -4q-51 -10 -68 -21q-20 -14 -20 -41v-624q0 -340 -178 -482q-90 -74 -217 -73 q-35 0 -80 28q-43 28 -43 74zM61 1071q143 160 211 264h103q72 -115 207 -264l-43 -29q-158 119 -217 185q-86 -90 -220 -185z" />
<glyph unicode="&#x136;" horiz-adv-x="1302" d="M35 1282v39l4 4q55 0 116.5 -1t94.5 -2t49 -1q18 0 52 1t96.5 2t113.5 1l4 -4v-39q0 -12 -16 -16l-53 -4q-59 -2 -86 -22.5t-27 -63.5v-465q94 6 164 80l344 360q33 37 41 55q9 22 0 37q-8 12 -49 19l-43 4q-16 4 -17 16v39l4 4q209 -4 238 -4l197 4l10 -4v-39 q0 -16 -23 -16q-59 -6 -84 -15q-35 -10 -78 -34q-47 -27 -94 -74l-286 -309q-76 -82 -76 -101q0 -27 24 -51l449 -532q66 -78 160 -93l14 -2q18 -2 18 -16v-39l-6 -4q-205 4 -233 4l-123 -4l-4 4v12q0 84 -41 138l-334 405q-59 78 -172 78v-488q0 -45 25 -63q27 -20 88 -23 l53 -4q16 -4 16 -16v-39l-4 -4q-131 4 -260 4q-125 0 -260 -4l-4 4v39q0 14 14 16l55 4q59 2 87 23q25 18 24 63v1031q0 45 -24 63q-20 16 -87 23l-55 4q-16 4 -16 16zM623 -143q0 29 26.5 55.5t77.5 26.5q59 0 92 -45q35 -47 35 -103q0 -39 -14.5 -80t-67.5 -88 q-51 -45 -137 -49l-8 35q39 8 75 29q27 14 48 38q14 16 24 41q10 23 12 33q2 8 2 21q0 4 -4 20q-35 -18 -59 -18q-51 0 -78 26q-24 25 -24 58z" />
<glyph unicode="&#x137;" horiz-adv-x="1069" d="M66 0v43q0 10 14 12l41 4q88 8 88 78v682q0 35 -19 47q-20 14 -69 17l-41 4q-14 2 -14 8v47l2 4q225 -4 231 -4l186 4l2 -4v-45q0 -8 -12 -10l-22 -4q-51 -10 -68 -21q-18 -12 -18 -43v-309q47 0 86 27q40 28 110 104q145 162 146 205q0 33 -60 41q-12 2 -12 10v47l2 2 q221 -4 225 -4l144 4l6 -2v-47q0 -8 -17 -10l-75 -8q-25 -3 -62 -25q-39 -23 -72 -61l-176 -203q-47 -51 -47 -76q0 -14 19 -35l309 -373q29 -31 115 -49l10 -2q14 -2 14 -12v-43l-6 -2q-72 2 -166 2l-125 -2l-2 2v25q0 49 -31 81l-227 283q-37 51 -108 51v-303 q0 -59 86 -78l22 -4q12 -3 12 -12v-43l-2 -4q-172 4 -190 4l-225 -4zM475 -164q0 29 26.5 55.5t78.5 26.5q59 0 92 -45q35 -47 35 -102q0 -39 -14.5 -80t-67.5 -88q-51 -45 -138 -49l-8 34q45 10 76 27q27 14 47 39q12 14 25 43q10 23 12 33q2 8 2 20q0 4 -4 21 q-35 -18 -59 -19q-53 0 -78 24.5t-25 59.5z" />
<glyph unicode="&#x138;" horiz-adv-x="1069" d="M66 0v43q0 12 14 12l41 4q88 8 88 78v682q0 33 -18.5 47.5t-69.5 18.5l-41 4q-14 0 -14 8v45l2 4q225 -4 231 -4l186 4l2 -4v-43q0 -6 -12 -10l-22 -4q-47 -8 -68 -23q-18 -12 -18 -43v-309q47 0 86 27q40 28 110 104q145 162 146 205q0 35 -60 43q-12 4 -12 10v45l2 2 q221 -4 225 -4l144 4l6 -2v-45q0 -10 -17 -10q-68 -6 -114 -23q-41 -14 -95 -73l-176 -203q-47 -51 -47 -76q0 -14 19 -35l309 -373q29 -31 115 -49l10 -2q14 -2 14 -12v-43l-6 -2q-72 2 -166 2l-125 -2l-2 2v25q0 49 -31 81l-227 283q-37 51 -108 51v-303q0 -59 86 -78 l22 -4q12 -3 12 -12v-43l-2 -4q-172 4 -190 4l-225 -4z" />
<glyph unicode="&#x139;" horiz-adv-x="1075" d="M35 0v39q0 12 16 16l62 4q59 2 84 21q20 14 20 67v1029q0 45 -24 63q-20 16 -87 23l-55 4q-16 4 -16 16v39l4 4q238 -4 258 -4l264 4l4 -4v-39q0 -12 -16 -16l-53 -4q-61 -2 -88 -23q-25 -18 -25 -63v-994q0 -47 25 -76q25 -27 71 -26h236q106 0 164 70q61 74 94 198 l61 -10q-45 -213 -53 -342q-49 0 -107.5 1t-89 2t-47.5 1h-436l-262 -4zM109 1458q0 22 30 43l254 176l127 -106l-295 -119q-57 -25 -88 -25q-28 0 -28 31z" />
<glyph unicode="&#x13a;" horiz-adv-x="878" d="M66 0v43q0 12 12 12l47 4q51 2 68 17q16 12 16 51v692q0 33 -18.5 47.5t-69.5 18.5l-41 4q-14 0 -14 12v41l2 4q217 -4 225 -4l213 4l2 -4v-41q0 -12 -12 -12l-43 -4q-49 -3 -68 -19q-18 -14 -18 -47v-698q0 -51 57 -51h143q84 0 127 47q45 47 72 139l51 -6 q-37 -152 -43 -250h-502h-22q-2 0 -23.5 -1t-40.5 -1q-14 0 -53 -1t-65 -1zM250 1067q0 27 12 47l164 258q16 4 29 4q57 0 100 -37q4 -4 8 -7l4 -3l6 -22l-235 -224q-41 -41 -59 -41q-9 0 -19 7q-10 6 -10 18z" />
<glyph unicode="&#x13b;" horiz-adv-x="1075" d="M35 0v39q0 12 16 16l62 4q59 2 84 21q20 14 20 67v1029q0 45 -24 63q-20 16 -87 23l-55 4q-16 4 -16 16v39l4 4q238 -4 258 -4l264 4l4 -4v-39q0 -12 -16 -16l-53 -4q-61 -2 -88 -23q-25 -18 -25 -63v-994q0 -47 25 -76q25 -27 71 -26h236q106 0 164 70q61 74 94 198 l61 -10q-45 -213 -53 -342q-49 0 -107.5 1t-89 2t-47.5 1h-436l-262 -4zM442 -152q0 29 27 55.5t78 26.5q59 0 92 -45q35 -47 35 -102q0 -39 -14.5 -80t-67.5 -88q-51 -45 -137 -49l-9 35q39 8 76 28q31 16 49 39q14 16 25 41q4 8 10 35q2 8 2 18q0 4 -4 21q-35 -18 -59 -19 q-53 0 -78 24.5t-25 59.5z" />
<glyph unicode="&#x13c;" horiz-adv-x="858" d="M66 0v43q0 9 12 12l47 4q47 2 68 17q16 10 16 51v692q0 35 -19 47q-20 12 -69 17l-41 4q-14 2 -14 12v43l2 4q217 -4 225 -4l213 4l2 -4v-43q0 -9 -12 -12l-43 -4q-49 -3 -68 -19q-18 -16 -18 -45v-698q0 -51 57 -51h143q84 0 127 47q45 47 72 139l51 -6 q-37 -152 -43 -250h-502h-22q-2 0 -23.5 -1t-40.5 -1q-14 0 -53 -1t-65 -1zM307 -166q0 29 26.5 55.5t78.5 26.5q59 0 92 -45q35 -47 35 -102q0 -39 -14.5 -80t-67.5 -88q-49 -43 -138 -50l-8 35q45 10 76 26.5t49 39.5q12 14 25 43q4 12 10 33q2 8 2 20q0 4 -4 21 q-35 -18 -59 -19q-53 0 -78 24.5t-25 59.5z" />
<glyph unicode="&#x13d;" horiz-adv-x="1075" d="M35 0v39q0 12 16 16l62 4q59 2 84 21q20 14 20 67v1029q0 45 -24 63q-20 16 -87 23l-55 4q-16 4 -16 16v39l4 4q238 -4 258 -4l264 4l4 -4v-39q0 -12 -16 -16l-53 -4q-61 -2 -88 -23q-25 -18 -25 -63v-994q0 -47 25 -76q25 -27 71 -26h236q106 0 164 70q61 74 94 198 l61 -10q-45 -213 -53 -342q-49 0 -107.5 1t-89 2t-47.5 1h-436l-262 -4zM717 1098q61 12 92 55t31 86q0 37 -23 37q-94 0 -94 84q0 70 96 70q55 0 88 -46q35 -47 35 -104q0 -29 -8 -55q-12 -43 -29 -70q-23 -39 -67 -63q-47 -25 -113 -29z" />
<glyph unicode="&#x13e;" horiz-adv-x="878" d="M66 0v43q0 12 12 12l47 4q51 2 68 17q16 12 16 51v692q0 33 -18.5 47.5t-69.5 18.5l-41 4q-14 0 -14 12v41l2 4q217 -4 225 -4l213 4l2 -4v-41q0 -12 -12 -12l-43 -4q-49 -3 -68 -19q-18 -14 -18 -47v-698q0 -51 57 -51h143q84 0 127 47q45 47 72 139l51 -6 q-37 -152 -43 -250h-502h-22q-2 0 -23.5 -1t-40.5 -1q-14 0 -53 -1t-65 -1zM592 795q57 12 90 57t33 84q0 37 -23 37q-94 0 -94 84q0 70 96 69q55 0 88 -45q35 -47 35 -104q0 -29 -8 -55q-12 -39 -29 -68q-25 -43 -67 -66q-47 -25 -113 -28z" />
<glyph unicode="&#x13f;" horiz-adv-x="1075" d="M35 0v39q0 12 16 16l62 4q59 2 84 21q20 14 20 67v1029q0 45 -24 63q-20 16 -87 23l-55 4q-16 4 -16 16v39l4 4q238 -4 258 -4l264 4l4 -4v-39q0 -12 -16 -16l-53 -4q-61 -2 -88 -23q-25 -18 -25 -63v-994q0 -47 25 -76q25 -27 71 -26h236q106 0 164 70q61 74 94 198 l61 -10q-45 -213 -53 -342q-49 0 -107.5 1t-89 2t-47.5 1h-436l-262 -4zM588 688q0 45 33 78q35 35 77.5 35t75.5 -33q35 -35 35 -80q0 -41 -33 -78q-31 -33 -78 -32q-49 0 -79.5 32.5t-30.5 77.5z" />
<glyph unicode="&#x140;" horiz-adv-x="858" d="M66 0v43q0 9 12 12l47 4q47 2 68 17q16 10 16 51v692q0 35 -19 47q-20 12 -69 17l-41 4q-14 2 -14 12v43l2 4q217 -4 225 -4l213 4l2 -4v-43q0 -9 -12 -12l-43 -4q-49 -3 -68 -19q-18 -16 -18 -45v-698q0 -51 57 -51h143q84 0 127 47q45 47 72 139l51 -6 q-37 -152 -43 -250h-502h-22q-2 0 -23.5 -1t-40.5 -1q-14 0 -53 -1t-65 -1zM588 625q0 37 28 69q27 29 68 29q35 0 68 -29q31 -27 30 -69q0 -39 -28.5 -68t-69.5 -29t-70 29q-26 27 -26 68z" />
<glyph unicode="&#x141;" horiz-adv-x="1075" d="M10 563l207 119v494q0 45 -24 63q-20 16 -87 23l-55 4q-16 4 -16 16v39l4 4q238 -4 258 -4l264 4l4 -4v-39q0 -12 -16 -16l-53 -4q-61 -2 -88 -23q-25 -18 -25 -63v-400l252 144l37 -62l-289 -166v-510q0 -47 25 -76q25 -27 71 -26h236q106 0 164 70q61 74 94 198l61 -10 q-45 -213 -53 -342q-49 0 -107.5 1t-89 2t-47.5 1h-436l-262 -4l-4 4v39q0 12 16 16l62 4q59 2 84 21q20 14 20 67v451l-170 -98z" />
<glyph unicode="&#x142;" horiz-adv-x="858" d="M14 397l195 115v307q0 33 -18.5 47.5t-69.5 18.5l-41 4q-14 0 -14 12v41l2 4q217 -4 225 -4l213 4l2 -4v-41q0 -12 -12 -12l-43 -4q-49 -3 -68 -19q-18 -14 -18 -47v-215l133 78l35 -61l-168 -99v-401q0 -51 57 -51h143q84 0 127 47q45 47 72 139l51 -6 q-37 -152 -43 -250h-502h-22q-2 0 -23.5 -1t-40.5 -1q-14 0 -53 -1t-65 -1l-2 4v43q0 12 12 12l47 4q51 2 68 17q16 12 16 51v301l-160 -92z" />
<glyph unicode="&#x143;" horiz-adv-x="1421" d="M23 0v37q0 14 26 18l53 4q111 10 111 121v946q-8 45 -51 91q-43 47 -88 49q-35 4 -35 16v39l6 4h279l702 -909q86 -113 102 -113q14 0 15 62v776q0 113 -111 121l-53 4q-29 4 -29 16v39l8 4q205 -4 228 -4l227 4l4 -4v-39q0 -12 -16 -16l-55 -4q-111 -8 -111 -121v-1098 q0 -63 -43 -63q-45 0 -82 49l-715 903q-51 68 -69 67q-20 0 -21 -100v-719q0 -113 113 -121l53 -4q16 -4 16 -16v-39l-4 -4q-193 4 -227 4l-229 -4zM500 1460q0 22 30 43l254 176l127 -106l-295 -119q-59 -25 -87.5 -25t-28.5 31z" />
<glyph unicode="&#x144;" horiz-adv-x="1167" d="M66 0v43q0 12 20 12l41 4q88 8 88 86v668q-39 70 -125 76q-18 0 -18 12v39l4 6l276 -4l469 -637q43 -49 57.5 -49t14.5 53v486q0 35 -23 59q-25 28 -67 31l-43 4q-20 0 -21 10v43l4 4q184 -4 195 -4l182 4l6 -2v-45q0 -10 -14 -10l-41 -4q-88 -8 -88 -90v-764 q0 -55 -41 -56q-37 0 -80 45l-481 642q-40 49 -55 49q-20 0 -21 -72v-494q0 -77 92 -86l41 -4q14 0 15 -12v-43l-2 -4q-168 4 -189 4l-190 -4zM598 1069q0 25 12 47l164 258q16 4 29 4q57 0 100 -37q4 -4 8 -7l4 -3l7 -22l-236 -224q-41 -41 -59 -41q-10 0 -19 9 q-10 10 -10 16z" />
<glyph unicode="&#x145;" horiz-adv-x="1421" d="M23 0v37q0 14 26 18l53 4q111 10 111 121v946q-8 45 -51 91q-43 47 -88 49q-35 4 -35 16v39l6 4h279l702 -909q86 -113 102 -113q14 0 15 62v776q0 113 -111 121l-53 4q-29 4 -29 16v39l8 4q205 -4 228 -4l227 4l4 -4v-39q0 -12 -16 -16l-55 -4q-111 -8 -111 -121v-1098 q0 -63 -43 -63q-45 0 -82 49l-715 903q-51 68 -69 67q-20 0 -21 -100v-719q0 -113 113 -121l53 -4q16 -4 16 -16v-39l-4 -4q-193 4 -227 4l-229 -4zM629 -141q0 29 26.5 55.5t77.5 26.5q59 0 92 -45q35 -47 35 -103q0 -39 -14.5 -80t-67.5 -88q-51 -45 -137 -49l-8 35 q45 10 76 27q25 12 47 40q18 23 26 41l11 33q2 8 2 21q0 4 -4 20q-33 -18 -60 -18q-51 0 -78 26q-24 25 -24 58z" />
<glyph unicode="&#x146;" horiz-adv-x="1167" d="M66 0v43q0 10 20 12l41 4q88 8 88 86v668q-37 68 -125 74q-18 3 -18 12v41l4 6l276 -4l469 -637q43 -49 57.5 -49t14.5 53v486q0 37 -23 59q-27 27 -67 29l-43 4q-20 2 -21 10v45l4 4q184 -4 195 -4l182 4l6 -2v-47q0 -8 -14 -10l-41 -4q-88 -8 -88 -88v-764 q0 -55 -41 -56q-37 0 -80 45l-481 642q-40 49 -55 49q-20 0 -21 -72v-494q0 -77 92 -86l41 -4q14 -2 15 -12v-43l-2 -4q-168 4 -189 4l-190 -4zM522 -147q0 31 27 55q31 27 78 26q59 0 92 -45q35 -47 35 -102q0 -39 -14.5 -80t-67.5 -88q-51 -45 -137 -49l-9 35q39 8 76 28 q31 16 49 39q14 16 25 41q4 12 10 33q2 8 2 21q0 4 -4 20q-33 -18 -59 -18q-51 0 -78 26q-25 25 -25 58z" />
<glyph unicode="&#x147;" horiz-adv-x="1421" d="M23 0v37q0 14 26 18l53 4q111 10 111 121v946q-8 45 -51 91q-43 47 -88 49q-35 4 -35 16v39l6 4h279l702 -909q86 -113 102 -113q14 0 15 62v776q0 113 -111 121l-53 4q-29 4 -29 16v39l8 4q205 -4 228 -4l227 4l4 -4v-39q0 -12 -16 -16l-55 -4q-111 -8 -111 -121v-1098 q0 -63 -43 -63q-45 0 -82 49l-715 903q-51 68 -69 67q-20 0 -21 -100v-719q0 -113 113 -121l53 -4q16 -4 16 -16v-39l-4 -4q-193 4 -227 4l-229 -4zM471 1622l33 41q115 -49 217 -125q113 80 219 125l31 -41q-96 -72 -205 -195h-88q-68 84 -207 195z" />
<glyph unicode="&#x148;" horiz-adv-x="1167" d="M66 0v43q0 12 20 12l41 4q88 8 88 86v668q-39 70 -125 76q-18 0 -18 12v39l4 6l276 -4l469 -637q43 -49 57.5 -49t14.5 53v486q0 35 -23 59q-25 28 -67 31l-43 4q-20 0 -21 10v43l4 4q184 -4 195 -4l182 4l6 -2v-45q0 -10 -14 -10l-41 -4q-88 -8 -88 -90v-764 q0 -55 -41 -56q-37 0 -80 45l-481 642q-40 49 -55 49q-20 0 -21 -72v-494q0 -77 92 -86l41 -4q14 0 15 -12v-43l-2 -4q-168 4 -189 4l-190 -4zM369 1309l41 26q152 -113 217 -184q77 80 221 184l39 -26q-141 -156 -209 -267h-103q-73 120 -206 267z" />
<glyph unicode="&#x149;" horiz-adv-x="1384" d="M4 1024q59 12 90 55q33 45 33 86q0 37 -23 37q-94 0 -94 84q0 70 96 70q55 0 89 -45q35 -47 34 -105q0 -29 -8 -55q-12 -43 -28 -70q-23 -39 -68 -63q-47 -25 -113 -29zM197 0v43q0 10 20 12l41 4q88 8 88 86v668q-37 68 -125 74q-18 3 -18 12v41l4 6l276 -4l469 -637 q43 -49 57.5 -49t14.5 53v486q0 37 -23 59q-27 27 -67 29l-43 4q-20 2 -21 10v45l4 4q184 -4 195 -4l182 4l6 -2v-47q0 -8 -14 -10l-41 -4q-88 -8 -88 -88v-764q0 -55 -41 -56q-37 0 -80 45l-481 642q-40 49 -55 49q-20 0 -21 -72v-494q0 -77 92 -86l41 -4q14 -2 15 -12v-43 l-2 -4q-168 4 -189 4l-190 -4z" />
<glyph unicode="&#x14a;" horiz-adv-x="1421" d="M23 0v39q0 16 26 16h53q57 0 84 37q27 35 27 88v946q-8 43 -51 93q-41 47 -88 47h-11q-25 0 -24 16v33l4 10h268q422 -512 715 -905q20 -25 31 -41q6 -8 15 -21.5t11 -17.5l10.5 -14.5t10.5 -12.5q12 -16 16 -20q6 -6 13 -6q12 0 12 30l-2 48v776q0 53 -27 88 q-27 37 -84 37h-53q-29 0 -29 16v39l17 4q143 -6 219 -6l227 6l4 -4v-39q0 -16 -16 -16h-55q-55 0 -82 -37q-29 -39 -29 -88v-963v-2q-2 -178 -35 -293q-31 -113 -117 -200q-88 -88 -182 -89q-74 0 -143.5 31t-69.5 105q0 61 66 61q57 0 77 -80q0 -6 9 -26q3 -9 18 -19 q14 -8 43 -8q78 0 121 96q45 98 47 326l-674 852q-51 68 -69 67q-20 0 -21 -100v-719q0 -53 27 -88q28 -37 86 -37h53q16 0 16 -16v-39l-4 -2q-193 4 -227 4l-219 -4z" />
<glyph unicode="&#x14b;" horiz-adv-x="1222" d="M59 0v43q0 12 23 12l41 4q45 2 67 29q20 23 21 59v660q-16 53 -111 78l-8 2q-18 2 -18 10v45l4 4h256l528 -647q53 -59 58 -59q10 0 10 16v524q0 94 -88 103l-41 4q-23 0 -23 10v45l13 4q172 -4 186 -4l186 4l2 -2v-45q0 -12 -12 -12l-43 -4q-86 -10 -86 -103v-581v-2 q0 -340 -178 -482q-88 -74 -217 -73q-35 0 -80 28q-43 28 -43 74q0 27 26 49q23 20 48 21q59 0 98 -52q25 -35 53 -34q53 0 104.5 63.5t65.5 224.5l-526 650q-39 49 -53 49q-16 0 -17 -72v-496q0 -78 86 -88l43 -4q14 0 15 -12v-43l-5 -4q-168 4 -188 4l-188 -4z" />
<glyph unicode="&#x14c;" horiz-adv-x="1427" d="M76 635q0 303 180 508t455 205q283 0 463 -187q182 -188 182 -487q0 -307 -176 -502q-174 -193 -467 -192q-274 0 -455 180q-182 182 -182 475zM264 670q0 -285 146 -451q147 -170 344 -170q180 0 296.5 160t116.5 426q0 309 -131 477q-129 166 -352 166 q-168 0 -293 -154q-127 -155 -127 -454zM432 1532q0 18 14.5 38.5t30.5 20.5h502q29 0 29 -28q0 -18 -17 -41q-14 -20 -33 -21h-499q-27 0 -27 31z" />
<glyph unicode="&#x14d;" horiz-adv-x="1150" d="M76 455q0 225 145 366q143 141 359 142q209 0 354 -133.5t145 -348.5q0 -213 -137 -356q-139 -145 -379 -145q-211 0 -348 135q-139 135 -139 340zM254 479q0 -188 94 -309q95 -123 246 -123q141 0 223 109q84 113 84 297q0 197 -100 321q-96 121 -240 121 q-127 0 -217 -108.5t-90 -307.5zM287 1073q0 18 14 39t31 21h502q29 0 28 -29q0 -18 -16 -41q-14 -20 -33 -21h-500q-26 0 -26 31z" />
<glyph unicode="&#x14e;" horiz-adv-x="1427" d="M76 635q0 303 180 508t455 205q283 0 463 -187q182 -188 182 -487q0 -307 -176 -502q-174 -193 -467 -192q-274 0 -455 180q-182 182 -182 475zM264 670q0 -285 146 -451q147 -170 344 -170q180 0 296.5 160t116.5 426q0 309 -131 477q-129 166 -352 166 q-168 0 -293 -154q-127 -155 -127 -454zM446 1649h58q12 -55 74 -90q63 -35 147 -35q82 0 145 32q68 35 76 93h55q-8 -102 -90 -168q-78 -63 -186 -64q-115 0 -193 62q-76 61 -86 170z" />
<glyph unicode="&#x14f;" horiz-adv-x="1150" d="M76 455q0 225 145 366q143 141 359 142q209 0 354 -133.5t145 -348.5q0 -213 -137 -356q-139 -145 -379 -145q-211 0 -348 135q-139 135 -139 340zM254 479q0 -188 94 -309q95 -123 246 -123q141 0 223 109q84 113 84 297q0 197 -100 321q-96 121 -240 121 q-127 0 -217 -108.5t-90 -307.5zM299 1319l53 29q2 -78 68 -134q63 -55 155 -55q76 0 150 51q68 47 72 138l55 -29q-15 -141 -98 -209t-179 -68q-119 0 -192 76q-76 78 -84 201z" />
<glyph unicode="&#x150;" horiz-adv-x="1427" d="M76 635q0 303 180 508t455 205q283 0 463 -187q182 -188 182 -487q0 -307 -176 -502q-174 -193 -467 -192q-274 0 -455 180q-182 182 -182 475zM264 670q0 -285 146 -451q147 -170 344 -170q180 0 296.5 160t116.5 426q0 309 -131 477q-129 166 -352 166 q-168 0 -293 -154q-127 -155 -127 -454zM510 1442q0 6 2 8l117 236q15 25 55 24q25 0 47 -18q31 -20 31 -60q0 -27 -14 -39l-193 -176l-16 -4q-4 0 -17 6q-12 11 -12 23zM770 1431.5q0 8.5 2 10.5l127 233q14 25 47 25q35 0 58 -21q27 -20 26 -57q0 -27 -14 -41l-203 -172 q-4 -4 -14.5 -4t-18.5 8q-10 10 -10 18.5z" />
<glyph unicode="&#x151;" horiz-adv-x="1134" d="M76 455q0 229 139 370q141 145 356 146q203 0 349 -140q143 -137 143 -350q0 -215 -133 -360.5t-375 -145.5q-207 0 -342 136q-137 137 -137 344zM246 479q0 -186 96 -311q96 -123 244 -123q137 0 223 111q84 109 84 297q0 199 -100 323q-98 123 -240 123 q-123 0 -215 -110.5t-92 -309.5zM356 1069q0 4 2 6l131 299q12 29 54 29q22 0 43 -12q35 -23 35 -62q0 -23 -11 -33l-209 -247q-6 -6 -16 -7q-29 0 -29 27zM602 1075q0 6 2 8l160 285q15 25 49 25q28 0 49 -19q29 -23 29 -57q0 -25 -14 -39l-234 -225q-4 -4 -12 -4 q-10 0 -19 8q-10 10 -10 18z" />
<glyph unicode="&#x152;" horiz-adv-x="1736" d="M86 651q0 289 154 479q156 193 430 193q94 -2 233 -2h160h526l29 -285l-55 -6q-12 78 -63.5 143.5t-127.5 65.5h-313q-74 0 -74 -65v-424h215q51 0 71.5 20.5t33.5 69.5l14 61q0 16 14 17h45q6 0 6 -9l-10 -90q-6 -65 -6 -104q0 -10 16 -197l-4 -6h-47q-16 0 -16 14 l-12 64q-10 45 -33 69q-20 20 -72 21h-215v-533q0 -68 74 -67h321q168 0 224 258l55 -10l-53 -328h-705l-209 -4q-283 4 -444.5 186t-161.5 469zM272 670q0 -295 121 -451q120 -154 295 -153h27q59 0 81.5 18t22.5 63v1029q0 45 -22 61q-20 14 -82 14h-72q-168 0 -268 -137 q-103 -139 -103 -444z" />
<glyph unicode="&#x153;" horiz-adv-x="1388" d="M59 455q0 217 135.5 354t350.5 137h4q4 0 12 -1t18.5 -1t38 -1t44.5 -1h79h346l207 4l4 -4q3 -89 31 -246l-51 -8q-10 41 -21 62q-16 33 -34 59q-23 33 -56 47q-37 16 -82 16h-206q-63 0 -64 -47v-309h164q39 0 55 16q15 15 25 50l10 43q3 12 12 12h35q6 0 6 -6 q-12 -141 -12 -154q0 -43 12 -141l-4 -4h-37q-8 0 -14 10l-8 45q-12 63 -80 64h-164v-332q0 -49 64 -49h229q137 0 176 172l51 -6l-41 -236l-4 -4q-160 4 -182 4h-360q-68 0 -115 -2t-86 -2q-209 0 -350 125q-138 123 -138 334zM233 479q0 -213 91 -317q92 -106 254 -107 q53 0 67 15q16 16 17 53v698q0 41 -31 53.5t-107 12.5q-131 0 -211 -96q-80 -95 -80 -312z" />
<glyph unicode="&#x154;" horiz-adv-x="1183" d="M35 0v39q0 12 16 16l53 4q63 2 88 24.5t25 63.5v1029q0 43 -27 63q-25 18 -63 23l-80 4q-12 0 -12 12v43l4 2q111 -2 260 -2q43 0 131 8q109 10 125 10q246 0 354.5 -102t108.5 -256q0 -141 -88 -229q-90 -90 -185 -121l259 -430q45 -74 90 -117q45 -41 106 -41l2 -49 q-27 -14 -86 -14q-160 0 -270 182l-219 356q-25 41 -74 59.5t-170 18.5v-449q0 -47 25 -65q27 -20 86 -23l55 -4q16 -4 16 -16v-39l-4 -4q-238 4 -258 4l-264 -4zM354 1460q0 22 31 43l254 176l127 -106l-295 -119q-57 -25 -88 -24q-29 -1 -29 30zM383 666h102 q168 0 260.5 67.5t92.5 245.5q0 82 -27 147q-23 59 -68 91q-39 29 -88 40q-46 12 -98 13q-98 0 -137 -23q-37 -23 -37 -71v-510z" />
<glyph unicode="&#x155;" horiz-adv-x="983" d="M66 0v43q0 12 12 12l43 4q86 9 86 68v686q0 28 -19 43q-23 18 -38 21l-66 8q-16 0 -16 12v45l4 4q168 -4 209 -4q63 0 108 2t88 2q154 0 246 -61.5t92 -175.5q0 -98 -65 -164q-68 -68 -160 -76v-2q45 -4 88 -45q40 -40 61 -92l70 -154q29 -68 63 -108q27 -33 80 -33 l13 -43q-49 -16 -111 -17q-111 0 -199 187l-61 123q-61 147 -217 147h-17v-297q0 -57 93 -76l24 -4q14 -2 15 -12v-43l-7 -4q-193 4 -204 4l-213 -4zM360 492h70q121 0 176.5 49t55.5 168q0 96 -39 135q-41 41 -138 41q-78 0 -100 -15q-25 -14 -25 -47v-331zM492 1067 q0 27 12 47l164 258q16 4 28 4q57 0 101 -37q4 -4 8 -7l4 -3l6 -22l-235 -224q-41 -41 -60 -41q-9 0 -18 7q-10 6 -10 18z" />
<glyph unicode="&#x156;" horiz-adv-x="1183" d="M35 0v39q0 12 16 16l53 4q63 2 88 24.5t25 63.5v1029q0 43 -27 63q-25 18 -63 23l-80 4q-12 0 -12 12v43l4 2q111 -2 260 -2q43 0 131 8q109 10 125 10q246 0 354.5 -102t108.5 -256q0 -141 -88 -229q-90 -90 -185 -121l259 -430q45 -74 90 -117q45 -41 106 -41l2 -49 q-27 -14 -86 -14q-160 0 -270 182l-219 356q-25 41 -74 59.5t-170 18.5v-449q0 -47 25 -65q27 -20 86 -23l55 -4q16 -4 16 -16v-39l-4 -4q-238 4 -258 4l-264 -4zM383 666h102q168 0 260.5 67.5t92.5 245.5q0 82 -27 147q-23 59 -68 91q-39 29 -88 40q-46 12 -98 13 q-98 0 -137 -23q-37 -23 -37 -71v-510zM489 -152q0 29 27 55.5t78 26.5q59 0 92 -45q35 -47 35 -102q0 -39 -14.5 -80t-67.5 -88q-51 -45 -137 -49l-8 35q39 8 75 28q31 16 49 39q10 12 23 41q8 20 12 35q2 8 2 18q0 4 -4 21q-33 -18 -59 -19q-55 0 -80 25q-23 22 -23 59z " />
<glyph unicode="&#x157;" horiz-adv-x="983" d="M66 0v43q0 9 12 12l43 4q86 9 86 68v686q0 43 -31 55.5t-92 18.5q-16 4 -16 12v43l4 4q168 -4 209 -4q63 0 108 2t88 2q154 0 246 -61.5t92 -175.5q0 -98 -65 -164q-68 -68 -160 -76v-2q45 -4 88 -45q40 -40 61 -92l70 -154q37 -80 63 -106q31 -31 80 -31l13 -43 q-49 -16 -111 -16q-109 0 -199 182l-61 123q-61 147 -217 147h-17v-297q0 -61 93 -76l24 -4q14 -2 15 -12v-43l-7 -4q-193 4 -204 4l-213 -4zM360 492h70q121 0 176.5 49t55.5 168q0 96 -39 137t-138 41q-78 0 -100 -15q-25 -15 -25 -49v-331zM504 -154q0 29 26.5 55.5 t77.5 26.5q59 0 92 -45q35 -47 35 -102q0 -39 -14 -80t-68 -88q-51 -45 -137 -49l-8 35q39 8 76 28q27 14 47 39q18 23 26 41q4 8 11 35q2 8 2 18q0 4 -4 21q-35 -18 -60 -19q-53 0 -77.5 24.5t-24.5 59.5z" />
<glyph unicode="&#x158;" horiz-adv-x="1183" d="M35 0v39q0 12 16 16l53 4q63 2 88 24.5t25 63.5v1029q0 43 -27 63q-25 18 -63 23l-80 4q-12 0 -12 12v43l4 2q111 -2 260 -2q43 0 131 8q109 10 125 10q246 0 354.5 -102t108.5 -256q0 -141 -88 -229q-90 -90 -185 -121l259 -430q45 -74 90 -117q45 -41 106 -41l2 -49 q-27 -14 -86 -14q-160 0 -270 182l-219 356q-25 41 -74 59.5t-170 18.5v-449q0 -47 25 -65q27 -20 86 -23l55 -4q16 -4 16 -16v-39l-4 -4q-238 4 -258 4l-264 -4zM293 1622l33 41q115 -49 217 -125q113 80 219 125l31 -41q-96 -72 -205 -195h-88q-68 84 -207 195zM383 666 h102q168 0 260.5 67.5t92.5 245.5q0 82 -27 147q-23 59 -68 91q-39 29 -88 40q-46 12 -98 13q-98 0 -137 -23q-37 -23 -37 -71v-510z" />
<glyph unicode="&#x159;" horiz-adv-x="983" d="M66 0v43q0 12 12 12l43 4q86 9 86 68v686q0 28 -19 43q-23 18 -38 21l-66 8q-16 0 -16 12v45l4 4q168 -4 209 -4q63 0 108 2t88 2q154 0 246 -61.5t92 -175.5q0 -98 -65 -164q-68 -68 -160 -76v-2q45 -4 88 -45q40 -40 61 -92l70 -154q29 -68 63 -108q27 -33 80 -33 l13 -43q-49 -16 -111 -17q-111 0 -199 187l-61 123q-61 147 -217 147h-17v-297q0 -57 93 -76l24 -4q14 -2 15 -12v-43l-7 -4q-193 4 -204 4l-213 -4zM217 1309l41 26q152 -113 217 -184q77 80 221 184l39 -26q-141 -156 -209 -267h-102q-74 120 -207 267zM360 492h70 q121 0 176.5 49t55.5 168q0 96 -39 135q-41 41 -138 41q-78 0 -100 -15q-25 -14 -25 -47v-331z" />
<glyph unicode="&#x15a;" horiz-adv-x="970" d="M70 338l63 6q61 -291 348 -291q117 0 180.5 63.5t63.5 188.5q0 123 -59 187q-59 61 -168 104q-83 34 -142 61q-53 25 -120 76q-59 45 -93 113q-33 70 -32 147q0 152 120 254q119 100 263 101q113 0 192 -25q96 -29 107 -31q35 -262 34 -264l-63 -12q-37 125 -96 194 q-57 68 -193 68q-98 0 -161.5 -65.5t-63.5 -163.5q0 -176 278 -279q74 -27 131 -55q55 -28 111 -74q59 -49 88 -113q31 -68 31 -151q0 -158 -125 -277q-127 -121 -299 -120q-86 0 -197 16q-98 14 -159 14q-2 95 -39 328zM293 1460q0 22 31 43l254 176l127 -106l-295 -119 q-57 -25 -88 -24q-29 -1 -29 30z" />
<glyph unicode="&#x15b;" horiz-adv-x="800" d="M80 287l57 4q27 -131 94 -193q70 -63 160 -63q174 0 174 184q0 80 -53 127q-57 51 -168 100q-244 115 -244 273q0 119 93 186q90 66 210 66q98 0 170 -26.5t86 -26.5q16 -121 23 -222l-55 -4q-23 98 -84 158q-63 59 -137 59q-78 0 -121 -43t-43 -110q0 -46 43 -92 q45 -47 80 -70q47 -29 75 -41q35 -14 88 -41q31 -14 90 -57q53 -39 80 -84q27 -47 27 -107q0 -127 -82 -209q-80 -80 -215 -80q-102 0 -174 17q-80 18 -84 18q-14 0 -35 -6q-8 -2 -19.5 -4t-13.5 -2q1 90 -22 289zM297 1067q0 27 12 47l164 258q16 4 29 4q57 0 100 -37 q4 -4 8 -7l4 -3l7 -22l-236 -224q-41 -41 -59 -41q-9 0 -19 7q-10 6 -10 18z" />
<glyph unicode="&#x15c;" horiz-adv-x="970" d="M70 338l63 6q61 -291 348 -291q117 0 180.5 63.5t63.5 188.5q0 123 -59 187q-59 61 -168 104q-83 34 -142 61q-53 25 -120 76q-59 45 -93 113q-33 70 -32 147q0 152 120 254q119 100 263 101q113 0 192 -25q96 -29 107 -31q35 -262 34 -264l-63 -12q-37 125 -96 194 q-57 68 -193 68q-98 0 -161.5 -65.5t-63.5 -163.5q0 -176 278 -279q74 -27 131 -55q55 -28 111 -74q59 -49 88 -113q31 -68 31 -151q0 -158 -125 -277q-127 -121 -299 -120q-86 0 -197 16q-98 14 -159 14q-2 95 -39 328zM221 1470q84 61 203 193h88q80 -96 207 -193l-33 -43 q-127 59 -217 127q-94 -72 -219 -127z" />
<glyph unicode="&#x15d;" horiz-adv-x="800" d="M80 287l57 4q27 -131 94 -193q70 -63 160 -63q174 0 174 184q0 80 -53 127q-57 51 -168 100q-49 23 -76 39q-37 23 -73 52q-49 39 -70 77q-25 45 -25 99q0 120 93 184q94 66 210 66q92 0 170 -22.5t86 -22.5q16 -121 23 -222l-55 -4q-20 94 -84 154q-59 57 -137 57 t-121 -43t-43 -110q0 -45 43 -91t80 -67l75 -39q35 -14 88 -41q31 -14 90 -57q53 -39 80 -84q27 -47 27 -107q0 -127 -82 -209q-80 -80 -215 -80q-102 0 -174 17q-80 18 -84 18q-14 0 -35 -6q-8 -2 -19.5 -4t-13.5 -2q1 90 -22 289zM133 1079q143 160 211 264h102 q72 -115 207 -264l-43 -28q-152 113 -217 184q-86 -90 -219 -184z" />
<glyph unicode="&#x15e;" horiz-adv-x="970" d="M70 338l63 6q61 -291 348 -291q117 0 180.5 63.5t63.5 188.5q0 123 -59 187q-59 61 -168 104q-83 34 -142 61q-53 25 -120 76q-59 45 -93 113q-33 70 -32 147q0 152 120 254q119 100 263 101q113 0 192 -25q96 -29 107 -31q35 -262 34 -264l-63 -12q-37 125 -96 194 q-57 68 -193 68q-98 0 -161.5 -65.5t-63.5 -163.5q0 -176 278 -279q74 -27 131 -55q55 -28 111 -74q59 -49 88 -113q31 -68 31 -151q0 -147 -107 -260q-109 -115 -264 -133l-47 -115q25 6 53 6q59 0 105 -35q41 -33 41 -92q0 -68 -62 -106q-59 -39 -157 -39q-70 0 -152 35 l20 45q80 -29 119 -29q47 0 86 22q37 22 37 62q0 29 -24 51q-23 20 -62 21q-52 0 -92 -13l-12 13l75 170q-74 0 -182 16q-94 14 -155 14q-2 95 -39 328z" />
<glyph unicode="&#x15f;" horiz-adv-x="800" d="M80 287l57 4q27 -131 94 -193q70 -63 160 -63q174 0 174 184q0 80 -53 127q-57 51 -168 100q-49 23 -76 39q-37 23 -73 52q-49 39 -70 77q-25 45 -25 99q0 120 93 184q94 66 210 66q92 0 170 -22.5t86 -22.5q16 -121 23 -222l-55 -4q-20 94 -84 154q-59 57 -137 57 t-121 -43t-43 -110q0 -45 43 -91t80 -67l75 -39q35 -14 88 -41q31 -14 90 -57q53 -39 80 -84q27 -47 27 -107q0 -119 -76 -200.5t-200 -88.5l-41 -100q25 6 53 6q63 0 104 -34.5t41 -92.5q0 -66 -63 -106q-59 -39 -156 -39q-70 0 -151 35l20 45q80 -29 119 -29q47 0 86 23 q37 22 37 61q0 31 -25 51q-23 20 -61 21q-52 0 -93 -13l-12 13l72 161q-71 3 -135 19q-59 14 -73.5 14t-35.5 -6q-8 -2 -19.5 -4t-13.5 -2q1 90 -22 289z" />
<glyph unicode="&#x160;" horiz-adv-x="970" d="M70 338l63 6q61 -291 348 -291q117 0 180.5 63.5t63.5 188.5q0 123 -59 187q-59 61 -168 104q-83 34 -142 61q-53 25 -120 76q-59 45 -93 113q-33 70 -32 147q0 152 120 254q119 100 263 101q113 0 192 -25q96 -29 107 -31q35 -262 34 -264l-63 -12q-37 125 -96 194 q-57 68 -193 68q-98 0 -161.5 -65.5t-63.5 -163.5q0 -176 278 -279q74 -27 131 -55q55 -28 111 -74q59 -49 88 -113q31 -68 31 -151q0 -158 -125 -277q-127 -121 -299 -120q-86 0 -197 16q-98 14 -159 14q-2 95 -39 328zM233 1622l33 41q115 -49 217 -125q113 80 219 125 l31 -41q-96 -72 -205 -195h-88q-68 84 -207 195z" />
<glyph unicode="&#x161;" horiz-adv-x="800" d="M80 287l57 4q27 -131 94 -193q70 -63 160 -63q174 0 174 184q0 80 -53 127q-57 51 -168 100q-244 115 -244 273q0 119 93 186q90 66 210 66q98 0 170 -26.5t86 -26.5q16 -121 23 -222l-55 -4q-23 98 -84 158q-63 59 -137 59q-78 0 -121 -43t-43 -110q0 -46 43 -92 q45 -47 80 -70q47 -29 75 -41q35 -14 88 -41q31 -14 90 -57q53 -39 80 -84q27 -47 27 -107q0 -127 -82 -209q-80 -80 -215 -80q-102 0 -174 17q-80 18 -84 18q-14 0 -35 -6q-8 -2 -19.5 -4t-13.5 -2q1 90 -22 289zM139 1307l41 26q152 -113 217 -184q77 80 221 184l39 -26 q-141 -156 -208 -267h-103q-74 120 -207 267z" />
<glyph unicode="&#x162;" horiz-adv-x="1159" d="M14 1061q29 125 45 315l56 -8q0 -47 43 -47h866q45 0 45 47l53 8q0 -154 27 -315l-62 -10q-27 123 -53 157q-25 33 -108 33h-135q-57 0 -78 -18.5t-21 -67.5v-1008q0 -47 25 -65q27 -18 88 -23l53 -4q18 -2 19 -16v-39l-5 -4q-164 4 -210 4l-39 -96q25 6 53 6 q63 0 104 -35t41 -92q0 -63 -63.5 -104t-155.5 -41q-70 0 -151 34l20 45q80 -29 119 -28q47 0 86 22q37 22 37 62q0 31 -25 51q-23 20 -61 20q-52 0 -92 -12l-13 12l70 156q-242 -2 -242 -4l-4 4v39q0 12 16 16l54 4q61 2 85.5 24.5t24.5 63.5v1014q0 47 -22.5 63.5 t-77.5 16.5h-170q-84 0 -117 -32.5t-63 -157.5z" />
<glyph unicode="&#x163;" horiz-adv-x="999" d="M49 690q16 102 17 281h51q10 -29 55 -29h657q43 0 56 29h51q0 -160 16 -281l-55 -6q-31 113 -61 150q-33 39 -95 38h-75q-43 0 -59.5 -16t-16.5 -49v-682q0 -31 20 -47q18 -15 68 -19l41 -4q14 0 14 -12v-43l-4 -4q-188 4 -211 4l-43 -106q25 6 53 6q59 0 105 -35 q41 -33 41 -92q0 -68 -62 -107q-59 -39 -157 -39q-70 0 -152 35l21 45q80 -29 118 -29q47 0 86 23q37 20 37 61q0 29 -24 52q-23 20 -62 20q-52 0 -92 -12l-12 12l74 166q0 -2 -156 -4l-2 4v43q0 12 12 12l41 4q88 8 88 66v684q0 34 -18 49q-16 14 -60 14h-92 q-70 0 -96.5 -36.5t-61.5 -151.5z" />
<glyph unicode="&#x164;" horiz-adv-x="1159" d="M14 1061q29 125 45 315l56 -8q0 -47 43 -47h866q45 0 45 47l53 8q0 -154 27 -315l-62 -10q-27 123 -53 157q-25 33 -108 33h-135q-57 0 -78 -18.5t-21 -67.5v-1008q0 -47 25 -65q27 -18 88 -23l53 -4q18 -2 19 -16v-39l-5 -4q-242 4 -260 4l-262 -4l-4 4v39q0 12 16 16 l54 4q61 2 85.5 24.5t24.5 63.5v1014q0 47 -22.5 63.5t-77.5 16.5h-170q-84 0 -117 -32.5t-63 -157.5zM367 1622l32 41q115 -49 217 -125q117 82 220 125l30 -41q-104 -80 -204 -195h-89q-67 84 -206 195z" />
<glyph unicode="&#x165;" horiz-adv-x="999" d="M49 690q16 102 17 281h51q10 -29 55 -29h657q43 0 56 29h51q0 -160 16 -281l-55 -6q-31 113 -61 150q-33 39 -95 38h-75q-43 0 -59.5 -16t-16.5 -49v-682q0 -31 20 -47q18 -15 68 -19l41 -4q14 0 14 -12v-43l-4 -4q-213 4 -221 4l-215 -4l-2 4v43q0 12 12 12l41 4 q88 8 88 66v684q0 34 -18 49q-16 14 -60 14h-92q-70 0 -96.5 -36.5t-61.5 -151.5zM258 1307l41 26q152 -113 217 -184q77 80 221 184l39 -26q-141 -156 -209 -267h-102q-74 120 -207 267z" />
<glyph unicode="&#x166;" horiz-adv-x="1159" d="M14 1061q29 125 45 315l56 -8q0 -47 43 -47h866q45 0 45 47l53 8q0 -154 27 -315l-62 -10q-27 123 -53 157q-25 33 -108 33h-135q-57 0 -78 -18.5t-21 -67.5v-401h281v-80h-281v-527q0 -47 25 -65q27 -18 88 -23l53 -4q18 -2 19 -16v-39l-5 -4q-242 4 -260 4l-262 -4 l-4 4v39q0 12 16 16l54 4q61 2 85.5 24.5t24.5 63.5v527h-264v80h264v407q0 47 -22.5 63.5t-77.5 16.5h-170q-84 0 -117 -32.5t-63 -157.5z" />
<glyph unicode="&#x167;" horiz-adv-x="999" d="M49 690q16 102 17 281h51q10 -29 55 -29h657q43 0 56 29h51q0 -160 16 -281l-55 -6q-31 113 -61 150q-33 39 -95 38h-75q-43 0 -59.5 -16t-16.5 -49v-225h184v-80h-184v-377q0 -31 20 -47q18 -15 68 -19l41 -4q14 0 14 -12v-43l-4 -4q-213 4 -221 4l-215 -4l-2 4v43 q0 12 12 12l41 4q88 8 88 66v377h-176v80h176v227q0 34 -18 49q-16 14 -60 14h-92q-70 0 -96.5 -36.5t-61.5 -151.5z" />
<glyph unicode="&#x168;" horiz-adv-x="1351" d="M0 1282v39l4 4q238 -4 258 -4l264 4l4 -4v-39q0 -12 -16 -16l-53 -4q-61 -3 -86 -25q-27 -23 -27 -66v-620q0 -106 2 -139q2 -37 31 -123q25 -72 76 -123q109 -102 243 -103q101 0 172 31q70 31 111 78q39 45 61 121q20 70 27 133q6 61 6 141v600q0 46 -24 68 q-23 20 -86 27l-56 4q-16 4 -16 16v39l4 4q193 -4 225 -4l226 4l4 -4v-39q0 -14 -17 -16l-53 -4q-61 -2 -88 -27q-25 -22 -25 -68v-563q0 -143 -22 -252q-20 -104 -78 -194q-55 -88 -156 -133q-102 -45 -258 -45q-76 0 -153 22q-80 25 -152 72q-76 51 -123 157.5t-47 251.5 v688q0 47 -24.5 65.5t-85.5 25.5l-56 4q-16 4 -16 16zM428 1440q20 86 61 137q37 45 102.5 45t147.5 -57q59 -45 107 -45q33 0 59 22q20 16 43 84l49 -12q-37 -184 -178 -184q-49 0 -131 53q-72 45 -110 45q-41 0 -61.5 -22.5t-39.5 -75.5z" />
<glyph unicode="&#x169;" horiz-adv-x="1142" d="M55 897v45l4 4q205 -4 217 -4l211 4l5 -4v-45q0 -8 -13 -10l-41 -4q-51 -4 -69 -19q-18 -16 -19 -45v-405q0 -88 8 -140q10 -66 33 -118q25 -55 78 -88q49 -29 129 -29q76 0 131 24q49 23 82 62q25 31 41 96q12 49 16 101q2 27 2 110v387q0 33 -20.5 47.5t-67.5 16.5 l-41 4q-14 2 -14 10v45l4 4q164 -4 184 -4l170 4l5 -4v-45q0 -8 -13 -10l-35 -4q-49 -6 -63 -19q-16 -12 -16 -45v-360q0 -109 -17 -197q-16 -84 -57 -149q-41 -63 -123 -98t-203 -35q-57 0 -117 20q-72 25 -120 61q-59 45 -97 123q-37 80 -36 187v448q0 33 -18.5 45.5 t-70.5 18.5l-36 4q-13 2 -13 10zM305 1055q20 88 60 137q37 45 104 45q70 0 147 -57q59 -45 107 -45q33 0 59 22q20 16 43 84l49 -12q-37 -184 -178 -185q-53 0 -131 54q-72 45 -110 45q-41 0 -61.5 -22.5t-39.5 -76.5z" />
<glyph unicode="&#x16a;" horiz-adv-x="1351" d="M0 1282v39l4 4q238 -4 258 -4l264 4l4 -4v-39q0 -12 -16 -16l-53 -4q-61 -3 -86 -25q-27 -23 -27 -66v-620q0 -106 2 -139q2 -37 31 -123q25 -72 76 -123q109 -102 243 -103q101 0 172 31q70 31 111 78q39 45 61 121q20 70 27 133q6 61 6 141v600q0 46 -24 68 q-23 20 -86 27l-56 4q-16 4 -16 16v39l4 4q193 -4 225 -4l226 4l4 -4v-39q0 -14 -17 -16l-53 -4q-61 -2 -88 -27q-25 -22 -25 -68v-563q0 -143 -22 -252q-20 -104 -78 -194q-55 -88 -156 -133q-102 -45 -258 -45q-76 0 -153 22q-80 25 -152 72q-76 51 -123 157.5t-47 251.5 v688q0 47 -24.5 65.5t-85.5 25.5l-56 4q-16 4 -16 16zM422 1530q0 18 14.5 38.5t30.5 20.5h502q29 0 28 -28q0 -18 -16 -41q-14 -20 -33 -21h-499q-27 0 -27 31z" />
<glyph unicode="&#x16b;" horiz-adv-x="1142" d="M55 897v45l4 4q205 -4 217 -4l211 4l5 -4v-45q0 -8 -13 -10l-41 -4q-51 -4 -69 -19q-18 -16 -19 -45v-405q0 -88 8 -140q10 -66 33 -118q25 -55 78 -88q49 -29 129 -29q76 0 131 24q49 23 82 62q25 31 41 96q12 49 16 101q2 27 2 110v387q0 33 -20.5 47.5t-67.5 16.5 l-41 4q-14 2 -14 10v45l4 4q164 -4 184 -4l170 4l5 -4v-45q0 -8 -13 -10l-35 -4q-49 -6 -63 -19q-16 -12 -16 -45v-360q0 -109 -17 -197q-16 -84 -57 -149q-41 -63 -123 -98t-203 -35q-57 0 -117 20q-72 25 -120 61q-59 45 -97 123q-37 80 -36 187v448q0 33 -18.5 45.5 t-70.5 18.5l-36 4q-13 2 -13 10zM301 1073q0 18 14.5 39t30.5 21h502q29 0 29 -29q0 -18 -17 -41q-14 -20 -33 -21h-499q-27 0 -27 31z" />
<glyph unicode="&#x16c;" horiz-adv-x="1351" d="M0 1282v39l4 4q238 -4 258 -4l264 4l4 -4v-39q0 -12 -16 -16l-53 -4q-61 -3 -86 -25q-27 -23 -27 -66v-620q0 -106 2 -139q2 -37 31 -123q25 -72 76 -123q109 -102 243 -103q101 0 172 31q70 31 111 78q39 45 61 121q20 70 27 133q6 61 6 141v600q0 46 -24 68 q-23 20 -86 27l-56 4q-16 4 -16 16v39l4 4q193 -4 225 -4l226 4l4 -4v-39q0 -14 -17 -16l-53 -4q-61 -2 -88 -27q-25 -22 -25 -68v-563q0 -143 -22 -252q-20 -104 -78 -194q-55 -88 -156 -133q-102 -45 -258 -45q-76 0 -153 22q-80 25 -152 72q-76 51 -123 157.5t-47 251.5 v688q0 47 -24.5 65.5t-85.5 25.5l-56 4q-16 4 -16 16zM434 1647h58q12 -55 75.5 -90t145.5 -35q80 0 145 34q68 35 76 91h55q-8 -102 -90 -168q-78 -63 -186 -64q-115 0 -193 62q-76 61 -86 170z" />
<glyph unicode="&#x16d;" horiz-adv-x="1142" d="M55 897v45l4 4q205 -4 217 -4l211 4l5 -4v-45q0 -8 -13 -10l-41 -4q-51 -4 -69 -19q-18 -16 -19 -45v-405q0 -88 8 -140q10 -66 33 -118q25 -55 78 -88q49 -29 129 -29q76 0 131 24q49 23 82 62q25 31 41 96q12 49 16 101q2 27 2 110v387q0 33 -20.5 47.5t-67.5 16.5 l-41 4q-14 2 -14 10v45l4 4q164 -4 184 -4l170 4l5 -4v-45q0 -8 -13 -10l-35 -4q-49 -6 -63 -19q-16 -12 -16 -45v-360q0 -109 -17 -197q-16 -84 -57 -149q-41 -63 -123 -98t-203 -35q-57 0 -117 20q-72 25 -120 61q-59 45 -97 123q-37 80 -36 187v448q0 33 -18.5 45.5 t-70.5 18.5l-36 4q-13 2 -13 10zM313 1319l54 29q2 -78 67.5 -133.5t155.5 -55.5q76 0 149 51q68 47 72 138l55 -29q-15 -141 -98 -209t-178 -68q-117 0 -191 76t-86 201z" />
<glyph unicode="&#x16e;" horiz-adv-x="1351" d="M0 1282v39l4 4q238 -4 258 -4l264 4l4 -4v-39q0 -12 -16 -16l-53 -4q-61 -3 -86 -25q-27 -23 -27 -66v-620q0 -106 2 -139q2 -37 31 -123q25 -72 76 -123q109 -102 243 -103q101 0 172 31q70 31 111 78q39 45 61 121q20 70 27 133q6 61 6 141v600q0 46 -24 68 q-23 20 -86 27l-56 4q-16 4 -16 16v39l4 4q193 -4 225 -4l226 4l4 -4v-39q0 -14 -17 -16l-53 -4q-61 -2 -88 -27q-25 -22 -25 -68v-563q0 -143 -22 -252q-20 -104 -78 -194q-55 -88 -156 -133q-102 -45 -258 -45q-76 0 -153 22q-80 25 -152 72q-76 51 -123 157.5t-47 251.5 v688q0 47 -24.5 65.5t-85.5 25.5l-56 4q-16 4 -16 16zM535 1480.5q0 69.5 51 118.5q55 51 123 52q71 0 122 -49q53 -49 54 -121q0 -70 -51 -119q-55 -51 -125 -51q-68 0 -123 51q-51 49 -51 118.5zM600 1481q0 -43 33 -80q31 -35 78 -35t77 35q33 37 33 80q0 47 -33 80 q-35 35 -77 34q-47 0 -78 -34q-33 -37 -33 -80z" />
<glyph unicode="&#x16f;" horiz-adv-x="1142" d="M55 899v43l2 4q209 -4 219 -4l213 4l3 -4v-43q0 -10 -13 -10l-41 -4q-51 -4 -69.5 -18.5t-18.5 -47.5v-405q0 -88 8 -140q10 -66 33 -118q25 -55 78 -88q49 -29 129 -29q76 0 131 24q49 23 82 62q25 31 41 96q12 49 16 101q2 27 2 110v387q0 33 -20 47q-22 15 -68 19 l-41 4q-14 0 -14 10v43l4 4q164 -4 184 -4l172 4l3 -4v-43q0 -10 -13 -10l-35 -4q-49 -6 -63 -21q-16 -16 -16 -45v-360q0 -109 -17 -197q-16 -84 -57 -149q-41 -63 -123 -98t-203 -35q-57 0 -117 20q-72 25 -120 61q-59 45 -97 123q-37 80 -36 187v448q0 35 -18.5 47.5 t-70.5 18.5l-36 4q-13 0 -13 10zM414 1212q0 70 51 119q55 51 123 51q71 0 123 -49q53 -49 53 -120.5t-51 -120.5q-53 -49 -125 -50q-71 0 -123 50q-51 48 -51 120zM479 1212q0 -43 33 -79q31 -35 78 -35t78 35q33 37 32 79q0 47 -32 80q-35 35 -78 35q-47 0 -78 -33 q-33 -37 -33 -82z" />
<glyph unicode="&#x170;" horiz-adv-x="1351" d="M0 1282v39l4 4q238 -4 258 -4l264 4l4 -4v-39q0 -12 -16 -16l-53 -4q-61 -3 -86 -25q-27 -23 -27 -66v-620q0 -106 2 -139q2 -37 31 -123q25 -72 76 -123q109 -102 243 -103q101 0 172 31q70 31 111 78q39 45 61 121q20 70 27 133q6 61 6 141v600q0 46 -24 68 q-23 20 -86 27l-56 4q-16 4 -16 16v39l4 4q193 -4 225 -4l226 4l4 -4v-39q0 -14 -17 -16l-53 -4q-61 -2 -88 -27q-25 -22 -25 -68v-563q0 -143 -22 -252q-20 -104 -78 -194q-55 -88 -156 -133q-102 -45 -258 -45q-76 0 -153 22q-80 25 -152 72q-76 51 -123 157.5t-47 251.5 v688q0 47 -24.5 65.5t-85.5 25.5l-56 4q-16 4 -16 16zM532 1442q0 6 3 8l116 236q15 25 56 24q27 0 47 -18q31 -20 30 -60q0 -27 -14 -39l-192 -176l-17 -4q-4 0 -16 6q-13 11 -13 23zM793 1431.5q0 8.5 2 10.5l127 233q16 25 47 25q35 0 57 -21q27 -20 27 -57 q0 -27 -15 -41l-202 -172q-4 -4 -14.5 -4t-18.5 8q-10 10 -10 18.5z" />
<glyph unicode="&#x171;" horiz-adv-x="1142" d="M55 899v43l2 4q209 -4 219 -4l213 4l3 -4v-43q0 -10 -13 -10l-41 -4q-51 -4 -69.5 -18.5t-18.5 -47.5v-405q0 -88 8 -140q10 -66 33 -118q25 -55 78 -88q49 -29 129 -29q76 0 131 24q49 23 82 62q25 31 41 96q12 49 16 101q2 27 2 110v387q0 33 -20 47q-22 15 -68 19 l-41 4q-14 0 -14 10v43l4 4q164 -4 184 -4l172 4l3 -4v-43q0 -10 -13 -10l-35 -4q-49 -6 -63 -21q-16 -16 -16 -45v-360q0 -109 -17 -197q-16 -84 -57 -149q-41 -63 -123 -98t-203 -35q-57 0 -117 20q-72 25 -120 61q-59 45 -97 123q-37 80 -36 187v448q0 35 -18.5 47.5 t-70.5 18.5l-36 4q-13 0 -13 10zM440 1069q0 4 2 6l131 299q12 29 54 29q22 0 43 -12q35 -23 35 -62q0 -23 -11 -33l-209 -247q-6 -6 -16 -7q-29 0 -29 27zM686 1075q0 6 2 8l160 285q15 25 49 25q28 0 49 -19q29 -23 29 -57q0 -25 -14 -39l-234 -225q-4 -4 -12 -4 q-10 0 -19 8q-10 10 -10 18z" />
<glyph unicode="&#x172;" horiz-adv-x="1351" d="M0 1282v39l4 4q238 -4 258 -4l264 4l4 -4v-39q0 -12 -16 -16l-53 -4q-61 -3 -86 -25q-27 -23 -27 -66v-620q0 -106 2 -139q2 -37 31 -123q25 -72 76 -123q109 -102 243 -103q101 0 172 31q70 31 111 78q39 45 61 121q20 70 27 133q6 61 6 141v600q0 46 -24 68 q-23 20 -86 27l-56 4q-16 4 -16 16v39l4 4q193 -4 225 -4l226 4l4 -4v-39q0 -14 -17 -16l-53 -4q-61 -2 -88 -27q-25 -22 -25 -68v-563q0 -381 -163 -520l2 -2q-80 -76 -97 -94q-41 -45 -67 -97q-35 -66 -35 -127q0 -45 35 -75.5t88 -30.5q63 0 137 74l33 -15 q-88 -137 -219 -137q-88 0 -142 45q-55 47 -55 127q0 115 135 244q-78 -16 -166 -16q-76 0 -153 22q-80 25 -152 72q-76 51 -123 157.5t-47 251.5v688q0 47 -24.5 65.5t-85.5 25.5l-56 4q-16 4 -16 16z" />
<glyph unicode="&#x173;" horiz-adv-x="1142" d="M55 897v45l4 4q205 -4 217 -4l211 4l5 -4v-45q0 -8 -13 -10l-41 -4q-51 -4 -69 -19q-18 -16 -19 -45v-405q0 -88 8 -140q10 -66 33 -118q25 -55 78 -88q49 -29 129 -29q76 0 131 24q49 23 82 62q25 31 41 96q12 49 16 101q2 27 2 110v387q0 33 -20.5 47.5t-67.5 16.5 l-41 4q-14 2 -14 10v45l4 4q164 -4 184 -4l170 4l5 -4v-45q0 -8 -13 -10l-35 -4q-49 -6 -63 -19q-16 -12 -16 -45v-360q0 -244 -80 -355l6 -6l-98 -94q-35 -39 -66 -96q-35 -66 -35 -127q0 -45 35 -76q33 -31 88 -31q63 0 137 74l33 -14q-88 -137 -219 -137q-88 0 -141 45 q-55 47 -56 127q0 104 113 221q-57 -10 -117 -10q-57 0 -117 20q-72 25 -120 61q-59 45 -97 123q-37 80 -36 187v448q0 33 -18.5 45.5t-70.5 18.5l-36 4q-13 2 -13 10z" />
<glyph unicode="&#x174;" horiz-adv-x="1890" d="M0 1280v41l4 4q143 -4 184 -4l248 4l4 -4v-39q0 -16 -18 -16l-45 -2q-57 -2 -58 -39q0 -20 13 -54l307 -944h4l217 678q14 41 14 78q0 31 -10 57l-30 95l-23 57q-8 20 -45 47q-33 23 -84 27q-25 0 -25 14v41l5 4q152 -4 196 -4l262 4l6 -4v-41q0 -14 -18 -14l-59 -4 q-86 -6 -45 -127l294 -912h5l305 934q18 58 -6 80q-27 25 -84 27l-33 2q-16 0 -17 16v39l5 4q193 -4 225 -4l188 4l4 -4v-39q0 -16 -16 -16q-80 -4 -117 -37q-35 -33 -57 -96l-383 -1110q-16 -47 -55 -48q-45 0 -64 50l-240 727q-20 57 -28 57q-10 0 -29 -51l-244 -733 q-14 -49 -57 -50q-47 0 -63 50l-373 1114q-25 78 -51 102q-23 23 -88 25q-25 4 -25 14zM688 1456q84 61 203 193h88q80 -96 207 -193l-33 -43q-127 59 -217 127q-94 -72 -219 -127z" />
<glyph unicode="&#x175;" horiz-adv-x="1570" d="M20 897v45l5 4q111 -4 143 -4l217 4l2 -4v-43q0 -10 -14 -12l-35 -4q-55 -6 -35 -60l240 -649l172 473q12 37 12 53q0 23 -4 43l-31 80q-20 51 -108 64q-18 2 -19 10v45l4 4q119 -4 154 -4l219 4l4 -4v-45q0 -8 -14 -10l-47 -4q-63 -6 -33 -86l235 -637l242 657 q27 57 -47 66l-43 4q-12 2 -12 10v45l2 4q160 -4 186 -4l135 4l4 -2v-45q0 -9 -18 -12q-43 -4 -70 -21q-29 -18 -36 -32q-14 -23 -21 -41l-266 -736q-31 -82 -86 -82q-68 0 -94 82l-170 480q-15 43 -25 43q-6 0 -20 -37l-173 -486q-4 -10 -11 -24.5t-7 -16.5q-6 -16 -22 -28 q-14 -12 -41 -13q-35 0 -70 80l-277 754q-20 57 -88 74l-18 4q-21 2 -21 10zM526 1071q143 160 211 264h103q72 -115 207 -264l-43 -29q-150 113 -218 185q-86 -90 -219 -185z" />
<glyph unicode="&#x176;" horiz-adv-x="1173" d="M0 1280v41l4 4q53 0 104.5 -1t77 -2t33.5 -1l234 4l4 -4v-39q0 -16 -13 -16l-59 -2q-37 -4 -45 -13q-10 -10 -4 -24q12 -29 22 -47l281 -494h4l262 494q20 49 15 65q-6 12 -43 17l-62 4q-10 0 -10 14v41l4 4q45 0 90 -1t67.5 -2t28.5 -1l179 4l4 -4v-41q0 -12 -21 -14 l-43 -4q-33 -2 -57 -19q-25 -15 -37 -31q-2 -2 -33 -55l-289 -522q-14 -27 -14 -86v-402q0 -92 113 -92h55q16 0 16 -16v-39l-4 -4q-238 4 -258 4l-264 -4l-4 4v39q0 16 16 16h54q113 0 112 92v383q0 61 -16 88l-299 502q-55 90 -80 113q-28 25 -80 31l-25 2q-20 2 -20 14z M352 1456q84 61 203 193h88q80 -96 207 -193l-33 -43q-127 59 -217 127q-94 -72 -219 -127z" />
<glyph unicode="&#x177;" horiz-adv-x="978" d="M25 897v45l4 4q33 0 82 -2t86 -2q141 0 206 4l3 -2v-47q0 -10 -11 -10l-45 -4q-33 -2 -37 -17q-4 -12 17 -39l207 -338h4l190 338q20 37 16 45.5t-38 10.5l-47 4q-8 0 -9 10v47l4 2q35 0 80 -2t78 -2q57 0 139 4l2 -4v-45q0 -8 -14 -10l-35 -4q-47 -6 -65 -19 q-16 -10 -41 -57l-226 -397v-285q0 -31 19 -47q18 -15 68 -19l43 -4q14 -2 14 -12v-43l-4 -4q-209 4 -219 4l-217 -4l-5 4v43q0 10 15 12l41 4q88 8 88 66v276l-258 424q-35 53 -119 62q-16 4 -16 10zM225 1071q143 160 211 264h103q72 -115 206 -264l-43 -29 q-158 119 -217 185q-86 -90 -219 -185z" />
<glyph unicode="&#x178;" horiz-adv-x="1173" d="M0 1280v41l4 4q53 0 104.5 -1t77 -2t33.5 -1l234 4l4 -4v-39q0 -16 -13 -16l-59 -2q-37 -4 -45 -13q-10 -10 -4 -24q12 -29 22 -47l281 -494h4l262 494q20 49 15 65q-6 12 -43 17l-62 4q-10 0 -10 14v41l4 4q45 0 90 -1t67.5 -2t28.5 -1l179 4l4 -4v-41q0 -12 -21 -14 l-43 -4q-33 -2 -57 -19q-25 -15 -37 -31q-2 -2 -33 -55l-289 -522q-14 -27 -14 -86v-402q0 -92 113 -92h55q16 0 16 -16v-39l-4 -4q-238 4 -258 4l-264 -4l-4 4v39q0 16 16 16h54q113 0 112 92v383q0 61 -16 88l-299 502q-55 90 -80 113q-28 25 -80 31l-25 2q-20 2 -20 14z M369 1538q0 39 26.5 65.5t65.5 26.5q41 0 67.5 -26.5t26.5 -65.5t-27 -65q-29 -29 -67 -29q-37 0 -66 29q-26 26 -26 65zM696 1538q0 37 29 66q27 27 65.5 26.5t65.5 -27t27 -65.5t-27 -65q-29 -29 -65.5 -29t-65.5 28.5t-29 65.5z" />
<glyph unicode="&#x179;" horiz-adv-x="1234" d="M84 31q0 25 16 47l797 1108q16 23 16 37q0 16 -20 16h-473q-104 0 -150 -57q-43 -55 -84 -187l-61 11q33 156 45 342q37 -4 72 -15q41 -12 94 -12h657q33 2 76 12q39 8 53 8q47 0 47 -20q0 -40 -49 -111l-768 -1063q-16 -29 -16 -41q0 -27 51 -26h477q106 0 164 70 q59 72 92 198l64 -10q-39 -156 -56 -342q-53 0 -115.5 1t-95 2t-49.5 1h-745q-39 0 -39 31zM428 1460q0 22 31 43l254 176l127 -106l-295 -119q-57 -25 -88 -24q-29 -1 -29 30z" />
<glyph unicode="&#x17a;" horiz-adv-x="931" d="M70 20q0 14 14 35l539 774q14 20 14 29q0 14 -19 14h-309q-117 0 -172 -192l-53 6q27 150 31 279q0 6 8 6q12 -4 33 -15q25 -12 63 -12l479 -2q66 14 107 14q45 0 45 -20.5t-39 -73.5l-508 -741q-12 -18 -12 -31q0 -20 41 -20h243q80 0 121 36q39 37 80 127l27 60l55 -14 q-53 -188 -65 -279h-693q-30 0 -30 20zM342 1075q0 27 12 47l164 258q16 4 29 4q57 0 100 -36l8 -8l4 -3l7 -22l-236 -223q-41 -41 -59 -41q-6 0 -19 8q-10 6 -10 16z" />
<glyph unicode="&#x17b;" horiz-adv-x="1234" d="M84 31q0 25 16 47l797 1108q16 23 16 37q0 16 -20 16h-473q-104 0 -150 -57q-43 -55 -84 -187l-61 11q33 156 45 342q37 -4 72 -15q41 -12 94 -12h657q33 2 76 12q39 8 53 8q47 0 47 -20q0 -40 -49 -111l-768 -1063q-16 -29 -16 -41q0 -27 51 -26h477q106 0 164 70 q59 72 92 198l64 -10q-39 -156 -56 -342q-53 0 -115.5 1t-95 2t-49.5 1h-745q-39 0 -39 31zM537 1536q0 41 28.5 69.5t69.5 28.5t69.5 -28.5t28.5 -69.5q0 -39 -28.5 -67.5t-69.5 -28.5t-69.5 28.5t-28.5 67.5z" />
<glyph unicode="&#x17c;" horiz-adv-x="931" d="M70 20q0 14 14 35l539 774q14 20 14 29q0 14 -19 14h-309q-117 0 -172 -192l-53 6q27 150 31 279q0 6 8 6q12 -4 33 -15q25 -12 63 -12l479 -2q66 14 107 14q45 0 45 -20.5t-39 -73.5l-508 -741q-12 -18 -12 -31q0 -20 41 -20h243q80 0 121 36q39 37 80 127l27 60l55 -14 q-53 -188 -65 -279h-693q-30 0 -30 20zM387 1133q0 41 28.5 69.5t69.5 28.5t70 -28.5t29 -69.5q0 -39 -29 -68t-70 -29t-69.5 29t-28.5 68z" />
<glyph unicode="&#x17d;" horiz-adv-x="1234" d="M84 31q0 25 16 47l797 1108q16 23 16 37q0 16 -20 16h-473q-104 0 -150 -57q-43 -55 -84 -187l-61 11q33 156 45 342q37 -4 72 -15q41 -12 94 -12h657q33 2 76 12q39 8 53 8q47 0 47 -20q0 -40 -49 -111l-768 -1063q-16 -29 -16 -41q0 -27 51 -26h477q106 0 164 70 q59 72 92 198l64 -10q-39 -156 -56 -342q-53 0 -115.5 1t-95 2t-49.5 1h-745q-39 0 -39 31zM367 1624l32 41q115 -49 217 -125q117 82 220 125l30 -41q-104 -80 -204 -194h-89q-73 92 -206 194z" />
<glyph unicode="&#x17e;" horiz-adv-x="931" d="M70 20q0 14 14 35l539 774q14 20 14 29q0 14 -19 14h-309q-117 0 -172 -192l-53 6q27 150 31 279q0 6 8 6q12 -4 33 -15q25 -12 63 -12l479 -2q66 14 107 14q45 0 45 -20.5t-39 -73.5l-508 -741q-12 -18 -12 -31q0 -20 41 -20h243q80 0 121 36q39 37 80 127l27 60l55 -14 q-53 -188 -65 -279h-693q-30 0 -30 20zM233 1317l41 26q141 -104 218 -184q77 80 221 184l39 -26q-133 -150 -209 -266h-103q-78 129 -207 266z" />
<glyph unicode="&#x17f;" horiz-adv-x="800" d="M80 287l57 4q27 -131 94 -193q70 -63 160 -63q174 0 174 184q0 80 -53 127q-57 51 -168 100q-49 23 -76 39q-37 23 -73 52q-49 39 -70 77q-25 45 -25 99q0 120 93 184q94 66 210 66q92 0 170 -22.5t86 -22.5q16 -121 23 -222l-55 -4q-20 94 -84 154q-59 57 -137 57 t-121 -43t-43 -110q0 -45 43 -91t80 -67l75 -39q35 -14 88 -41q31 -14 90 -57q53 -39 80 -84q27 -47 27 -107q0 -127 -82 -209q-80 -80 -215 -80q-102 0 -174 17q-80 18 -84 18q-14 0 -35 -6q-8 -2 -19.5 -4t-13.5 -2q1 90 -22 289z" />
<glyph unicode="&#x1a0;" horiz-adv-x="1427" d="M76 635q0 303 180 508t455 205q174 0 319 -78q31 -8 68 -8q31 0 71.5 22.5t40.5 65.5q0 16 -20 32q-18 15 -43 19q-47 6 -72 33q-25 29 -24 63q0 80 94 80q53 0 98 -57q43 -55 43 -129q0 -174 -160 -187q109 -90 170 -225q59 -131 60 -305q0 -307 -176 -502 q-174 -193 -467 -192q-274 0 -455 180q-182 182 -182 475zM264 670q0 -285 146 -451q147 -170 344 -170q180 0 296.5 160t116.5 426q0 309 -131 477q-129 166 -352 166q-168 0 -293 -154q-127 -155 -127 -454z" />
<glyph unicode="&#x1a1;" horiz-adv-x="1150" d="M76 455q0 225 145 366q143 141 359 142q160 0 284 -82h13q10 0 38 4q14 2 46 24q23 16 22 49q0 39 -55 46q-51 6 -74 32q-25 28 -25 62q0 80 95 80q57 0 94 -54q37 -51 37 -127q0 -68 -33 -108q-35 -43 -94 -55q152 -139 151.5 -352.5t-137.5 -356.5q-139 -145 -379 -145 q-211 0 -348 135q-139 135 -139 340zM254 479q0 -188 94 -309q95 -123 246 -123q141 0 223 109q84 113 84 297q0 197 -100 321q-96 121 -240 121q-127 0 -217 -108.5t-90 -307.5z" />
<glyph unicode="&#x1af;" horiz-adv-x="1411" d="M0 1282v39l4 2q119 -2 258 -2l264 2l4 -2v-39q0 -16 -16 -16h-53q-113 0 -113 -90v-629q0 -106 2 -139q2 -37 31 -123q25 -72 76 -123q109 -102 243 -103q101 0 172 31q66 29 111 80q41 47 61.5 116.5t26.5 133.5q6 61 6 143v613q0 47 -26 69q-23 20 -84 21h-56 q-16 0 -16 16v39l4 2q96 -2 225 -2q123 0 164 10q39 10 39 43q0 39 -61 39q-47 0 -72 24.5t-25 59.5q0 39 27 59.5t74 20.5q57 0 96 -49q39 -47 39 -123q0 -66 -39 -102.5t-106 -36.5q-88 0 -89 -90v-576q0 -143 -22 -252q-20 -104 -78 -194q-55 -88 -156 -134 q-102 -45 -258 -45q-84 0 -153 21q-76 23 -152 74t-123 157.5t-47 251.5v697q0 47 -26 69q-23 20 -84 21h-56q-16 0 -16 16z" />
<glyph unicode="&#x1b0;" horiz-adv-x="1282" d="M55 897v45l4 4q205 -4 217 -4l211 4l5 -4v-45q0 -8 -13 -10l-41 -4q-51 -4 -69 -19q-18 -16 -19 -45v-405q0 -88 8 -140q10 -66 33 -118q25 -55 78 -88q49 -29 129 -29q76 0 131 24q49 23 82 62q25 31 41 96q12 49 16 101q2 27 2 110v387q0 33 -20.5 47.5t-67.5 16.5 l-41 4q-14 2 -14 10v45l4 4q164 -4 184 -4l170 4q27 2 54 21q29 18 28 34q0 40 -55 43q-49 2 -72 29q-25 28 -24 62q0 80 94 79q55 0 92 -53q37 -52 37 -129q0 -49 -41 -96t-113 -47l-3 -1q-3 -1 -5 -1l-35 -4q-49 -6 -63 -19q-16 -12 -16 -45v-360q0 -109 -17 -197 q-16 -84 -57 -149q-41 -63 -123 -98t-203 -35q-57 0 -117 20q-72 25 -120 61q-59 45 -97 123q-37 80 -36 187v448q0 33 -18.5 45.5t-70.5 18.5l-36 4q-13 2 -13 10z" />
<glyph unicode="&#x1b7;" horiz-adv-x="1243" d="M86 -225q0 102 90 102q92 0 139 -72q106 -162 281 -161q131 0 254 147.5t123 294.5q0 115 -37 205q-35 82 -100 135q-57 47 -121 72q-61 25 -119 24q-55 0 -84 -6l401 723h-510q-100 -2 -155 -88q-53 -84 -64 -174l-53 4l43 385q33 -8 76 -23q68 -23 92 -22h727 q57 0 57 -29q0 -31 -30 -84l-344 -618q197 -40 301 -172q102 -129 102 -314q0 -219 -176 -376q-178 -160 -422 -160q-86 0 -195 22q-102 20 -190 72q-86 50 -86 113z" />
<glyph unicode="&#x1c0;" horiz-adv-x="378" d="M150 0v1430h81v-1430h-81z" />
<glyph unicode="&#x1c1;" horiz-adv-x="567" d="M123 0v1430h82v-1430h-82zM332 0v1430h82v-1430h-82z" />
<glyph unicode="&#x1c2;" horiz-adv-x="677" d="M51 592v80h228v129h-228v80h228v549h81v-549h236v-80h-236v-129h236v-80h-236v-592h-81v592h-228z" />
<glyph unicode="&#x1c3;" horiz-adv-x="462" d="M121 1198q0 74 35 113q33 37 75 37q47 0 80 -39q35 -41 35 -111q0 -78 -24 -207q-20 -104 -29 -188q-12 -92 -19 -185q-2 -31 -6 -74.5t-4 -58.5q-4 -53 -4 -55q-4 -41 -29 -41q-27 0 -28 27l-10 145q-10 160 -21 242q-16 121 -29 194q-22 129 -22 201zM123 88 q0 47 30.5 78t77.5 31q45 0 76 -31q33 -33 33 -78q0 -43 -33 -75.5t-76 -32.5q-45 0 -77 32q-31 31 -31 76z" />
<glyph unicode="&#x1c4;" horiz-adv-x="2590" d="M35 0v37q0 16 14 18l62 4q57 4 82 25q25 23 24 68v1019q0 55 -20.5 69.5t-85.5 21.5l-58 4q-18 4 -18 16v39l4 4q74 0 137.5 -1t91.5 -2l29 -1q100 0 167.5 2t168.5 2q293 0 499.5 -202.5t206.5 -491.5q0 -178 -63 -312q-61 -129 -166 -196q-106 -68 -213 -98 q-102 -29 -227 -29q-145 0 -211 2t-162 2q-139 0 -258 -4zM383 147q0 -51 39 -65q43 -16 184 -16q545 0 545 516q0 88 -21 190q-16 86 -63 182q-43 89 -111 154q-70 68 -170 106q-98 39 -231 39q-88 0 -129 -14q-43 -14 -43 -63v-1029zM1442 31q0 25 16 47l797 1108 q16 23 16 37q0 16 -20 16h-473q-104 0 -150 -57q-43 -55 -84 -187l-61 11q33 156 45 342q37 -4 71 -15q39 -12 95 -12h657q35 4 78 12q39 8 51 8q47 0 47 -20q0 -40 -49 -111l-768 -1063q-16 -29 -16 -41q0 -27 51 -26h477q106 0 164 70q59 72 92 198l64 -10 q-39 -156 -56 -342q-53 0 -115.5 1t-95 2t-49.5 1h-745q-39 0 -39 31zM1724 1624l33 41q115 -49 217 -125q113 80 219 125l31 -41q-96 -72 -205 -194h-88q-74 92 -207 194z" />
<glyph unicode="&#x1c5;" horiz-adv-x="2359" d="M35 0v37q0 16 14 18l62 4q57 4 82 25q25 23 24 68v1019q0 55 -20.5 69.5t-85.5 21.5l-58 4q-18 4 -18 16v39l4 4q74 0 137.5 -1t91.5 -2l29 -1q100 0 167.5 2t168.5 2q293 0 499.5 -202.5t206.5 -491.5q0 -178 -63 -312q-61 -129 -166 -196q-106 -68 -213 -98 q-102 -29 -227 -29q-145 0 -211 2t-162 2q-139 0 -258 -4zM383 147q0 -51 39 -65q43 -16 184 -16q545 0 545 516q0 88 -21 190q-16 86 -63 182q-43 89 -111 154q-70 68 -170 106q-98 39 -231 39q-88 0 -129 -14q-43 -14 -43 -63v-1029zM1454 20q0 14 14 35l539 774 q14 20 14 29q0 14 -18 14h-309q-117 0 -172 -192l-54 6q27 150 31 279q0 6 8 6q12 -4 33 -15q25 -12 64 -12l479 -2q66 14 106 14q45 0 45 -20.5t-39 -73.5l-507 -741q-12 -18 -13 -31q0 -20 41 -20h244q83 0 123 36q35 33 78 127l26 60l56 -14q-53 -188 -66 -279h-692 q-31 0 -31 20zM1618 1317l41 26q152 -113 217 -184q77 80 221 184l39 -26q-133 -150 -209 -266h-102q-78 129 -207 266z" />
<glyph unicode="&#x1c6;" horiz-adv-x="2056" d="M66 0v43q0 12 12 12l47 4q47 2 65 23q16 16 17 65v676q0 37 -14 47q-12 9 -68 13l-45 4q-14 2 -14 10v45l2 4q49 0 101 -1t78.5 -2t37.5 -1q55 0 128.5 2t141.5 2q248 0 379 -135q131 -133 131 -350q0 -133 -41 -223q-45 -98 -115 -146q-68 -45 -153 -72 q-80 -25 -172 -24q-125 0 -186.5 2t-112.5 2l-217 -4zM365 147q0 -49 30 -71q29 -20 140 -21q182 0 266 82q86 83 86 289q0 51 -8 129q-6 58 -31 123q-25 63 -66 108q-41 43 -114 72q-76 29 -172 29q-131 0 -131 -64v-676zM1161 20q0 14 15 35l538 774q14 20 15 29 q0 14 -19 14h-309q-117 0 -172 -192l-53 6q31 168 30 279q0 6 8 6q12 -4 33 -15q25 -12 64 -12l479 -2q66 14 106 14q45 0 45.5 -20.5t-38.5 -73.5l-508 -741q-12 -18 -13 -31q0 -20 41 -20h244q83 0 123 36q35 33 78 127l26 60l56 -14q-53 -188 -66 -279h-692q-31 0 -31 20 zM1325 1317l41 26q152 -113 217 -184q77 80 221 184l39 -26q-133 -150 -209 -266h-102q-78 129 -207 266z" />
<glyph unicode="&#x1c7;" horiz-adv-x="1570" d="M35 0v39q0 12 16 16l62 4q59 2 84 21q20 14 20 67v1029q0 45 -24 63q-20 16 -87 23l-55 4q-16 4 -16 16v39l4 4q238 -4 258 -4l264 4l4 -4v-39q0 -12 -16 -16l-53 -4q-61 -2 -88 -23q-25 -18 -25 -63v-994q0 -47 25 -76q25 -27 71 -26h236q106 0 164 70q61 74 94 198 l61 -10q-45 -213 -53 -342q-49 0 -107.5 1t-89 2t-47.5 1h-436l-262 -4zM805 -250q0 33 26.5 53.5t51.5 20.5q68 0 106 -55q27 -37 58 -37q172 0 172 426v991q0 72 -31 94q-31 20 -115 25l-41 2q-18 0 -18 16v39l4 4q266 -4 280 -4l244 4l4 -4v-39q0 -16 -16 -16l-35 -2 q-61 -3 -86 -25q-25 -23 -25 -63v-977q0 -176 -57 -291q-55 -111 -158 -193q-95 -80 -233 -79q-40 0 -86 30q-45 31 -45 80z" />
<glyph unicode="&#x1c8;" horiz-adv-x="1550" d="M35 0v39q0 12 16 16l62 4q59 2 84 21q20 14 20 67v1029q0 45 -24 63q-20 16 -87 23l-55 4q-16 4 -16 16v39l4 4q238 -4 258 -4l264 4l4 -4v-39q0 -12 -16 -16l-53 -4q-61 -2 -88 -23q-25 -18 -25 -63v-994q0 -47 25 -76q25 -27 71 -26h236q106 0 164 70q61 74 94 198 l61 -10q-45 -213 -53 -342q-49 0 -107.5 1t-89 2t-47.5 1h-436l-262 -4zM848 -246q0 27 26 49q23 20 48 21q59 0 98 -51q25 -35 53 -35q135 0 135 426v667q0 31 -20.5 45.5t-67.5 16.5l-57 4q-12 0 -12 10v45l2 4q233 -4 237 -4l201 4l4 -4v-45q0 -8 -14 -10l-27 -4 q-51 -10 -68 -21q-20 -14 -20 -41v-624q0 -340 -178 -481q-90 -74 -217 -74q-35 0 -80 29q-43 27 -43 73z" />
<glyph unicode="&#x1c9;" horiz-adv-x="1304" d="M66 0v43q0 9 12 12l47 4q47 2 68 17q16 10 16 51v692q0 35 -19 47q-20 12 -69 17l-41 4q-14 2 -14 12v43l2 4q217 -4 225 -4l213 4l2 -4v-43q0 -9 -12 -12l-43 -4q-49 -3 -68 -19q-18 -16 -18 -45v-698q0 -51 57 -51h143q84 0 127 47q45 47 72 139l51 -6 q-37 -152 -43 -250h-502h-22q-2 0 -23.5 -1t-40.5 -1q-14 0 -53 -1t-65 -1zM602 -256q0 28 25 49q23 20 49 21q59 0 98 -52q25 -35 53 -34q135 0 136 426v667q0 33 -19 45q-20 12 -70 17l-57 4q-12 0 -12 10v45l2 4q233 -4 237 -4l201 4l4 -4v-45q0 -8 -14 -10l-27 -4 q-53 -10 -69 -21q-18 -12 -19 -41v-624q0 -340 -178 -482q-90 -74 -217 -73q-37 0 -82 28q-41 27 -41 74z" />
<glyph unicode="&#x1ca;" horiz-adv-x="2082" d="M23 0v37q0 14 26 18l53 4q111 10 111 121v946q-8 45 -51 91q-43 47 -88 49q-35 4 -35 16v39l6 4h279l702 -909q86 -113 102 -113q14 0 15 62v776q0 113 -111 121l-53 4q-29 4 -29 16v39l8 4q205 -4 228 -4l227 4l4 -4v-39q0 -12 -16 -16l-55 -4q-111 -8 -111 -121v-1098 q0 -63 -43 -63q-45 0 -82 49l-715 903q-51 68 -69 67q-20 0 -21 -100v-719q0 -113 113 -121l53 -4q16 -4 16 -16v-39l-4 -4q-193 4 -227 4l-229 -4zM1317 -254q0 33 26.5 53.5t51.5 20.5q68 0 106 -56q27 -37 58 -36q172 0 172 426v991q0 72 -31 94q-31 20 -115 25l-41 2 q-18 0 -18 16v39l4 4q266 -4 280 -4l244 4l4 -4v-39q0 -16 -16 -16l-35 -2q-61 -3 -86 -25q-25 -23 -25 -63v-977q0 -176 -57 -291q-55 -111 -158 -193q-95 -80 -233 -80q-40 0 -86 31q-45 31 -45 80z" />
<glyph unicode="&#x1cb;" horiz-adv-x="1914" d="M23 0v37q0 14 26 18l53 4q111 10 111 121v946q-8 45 -51 91q-43 47 -88 49q-35 4 -35 16v39l6 4h279l702 -909q86 -113 102 -113q14 0 15 62v776q0 113 -111 121l-53 4q-29 4 -29 16v39l8 4q205 -4 228 -4l227 4l4 -4v-39q0 -12 -16 -16l-55 -4q-111 -8 -111 -121v-1098 q0 -63 -43 -63q-45 0 -82 49l-715 903q-51 68 -69 67q-20 0 -21 -100v-719q0 -113 113 -121l53 -4q16 -4 16 -16v-39l-4 -4q-193 4 -227 4l-229 -4zM1225 -256q0 27 26 49q23 20 47 21q59 0 99 -52q25 -35 53 -34q135 0 135 426v667q0 31 -20.5 45.5t-67.5 16.5l-57 4 q-12 0 -13 10v45l3 4q233 -4 237 -4l201 4l4 -4v-45q0 -8 -14 -10l-27 -4q-51 -10 -68 -21q-20 -14 -20 -41v-624q0 -340 -178 -482q-90 -74 -217 -73q-35 0 -80 28q-43 28 -43 74z" />
<glyph unicode="&#x1cc;" horiz-adv-x="1738" d="M66 0v43q0 10 20 12l41 4q88 8 88 86v668q-37 68 -125 74q-18 3 -18 12v41l4 6l276 -4l469 -637q43 -49 57.5 -49t14.5 53v486q0 37 -23 59q-27 27 -67 29l-43 4q-20 2 -21 10v45l4 4q184 -4 195 -4l182 4l6 -2v-47q0 -8 -14 -10l-41 -4q-88 -8 -88 -88v-764 q0 -55 -41 -56q-37 0 -80 45l-481 642q-40 49 -55 49q-20 0 -21 -72v-494q0 -77 92 -86l41 -4q14 -2 15 -12v-43l-2 -4q-168 4 -189 4l-190 -4zM1055 -256q0 27 26 49q23 20 47 21q59 0 99 -52q25 -35 53 -34q135 0 135 426v667q0 31 -20.5 45.5t-67.5 16.5l-57 4 q-12 0 -13 10v45l3 4q233 -4 237 -4l201 4l4 -4v-45q0 -8 -14 -10l-27 -4q-51 -10 -68 -21q-20 -14 -20 -41v-624q0 -340 -178 -482q-88 -74 -217 -73q-35 0 -80 28q-43 28 -43 74z" />
<glyph unicode="&#x1cd;" horiz-adv-x="1421" d="M4 0v39q0 16 16 16q76 6 117 33t82 121l455 1065q20 45 33 57q16 16 36 17q34 0 56 -62l420 -1110q22 -58 55 -86q33 -27 96 -33l23 -2q20 -2 20 -16v-39l-6 -4q-209 4 -238 4l-272 -4l-2 4v39q0 14 14 16l58 4q113 8 86 88l-125 347h-426q-34 0 -49 -7q-12 -4 -23 -28 l-119 -297q-16 -41 6 -70q23 -31 76 -33l60 -4q16 -4 16 -16v-39l-4 -4q-61 0 -126 1t-98.5 2t-47.5 1l-185 -4zM481 1622l33 41q115 -49 217 -125q113 80 219 125l31 -41q-96 -72 -205 -195h-88q-68 84 -207 195zM487 606q-6 -16 5 -20q12 -6 47 -6h356l-199 546h-4z" />
<glyph unicode="&#x1ce;" horiz-adv-x="1099" d="M4 0v43q0 12 12 12q37 4 52 8q16 6 40.5 27t38.5 53l359 770q25 53 67 54q61 0 82 -52l299 -759q25 -59 50 -78q27 -20 77 -23q16 -4 17 -12v-43l-6 -4q-143 4 -170 4l-230 -4l-4 4v43q0 12 14 12l37 4q82 8 82 39q0 2 -1 10q-3 7 -3 13l-92 237h-350q-39 0 -45 -22 l-90 -215q-8 -18 -9 -27q0 -31 84 -37l27 -2q12 0 12 -12v-43l-4 -4q-45 0 -95 1t-75.5 2t-38.5 1l-133 -4zM330 1317l41 26q152 -113 217 -184q77 80 221 184l39 -26q-133 -150 -209 -266h-102q-78 129 -207 266zM381 446q0 -29 41 -28h278l-157 403h-4z" />
<glyph unicode="&#x1cf;" horiz-adv-x="598" d="M35 1282v39l4 4q55 0 116.5 -1t94.5 -2t49 -1q18 0 52 1t96.5 2t113.5 1l4 -4v-39q0 -12 -16 -16l-53 -4q-59 -2 -86 -22.5t-27 -63.5v-1031q0 -45 25 -63q27 -20 88 -23l53 -4q16 -4 16 -16v-39l-4 -4q-131 4 -260 4q-125 0 -260 -4l-4 4v39q0 14 14 16l55 4q59 2 87 23 q25 18 24 63v1031q0 45 -24 63q-20 16 -87 23l-55 4q-16 4 -16 16zM43 1622l33 41q115 -49 217 -125q113 80 219 125l31 -41q-96 -72 -205 -195h-88q-68 84 -207 195z" />
<glyph unicode="&#x1d0;" horiz-adv-x="569" d="M18 1309l41 26q152 -113 217 -184q77 80 222 184l39 -26q-141 -156 -209 -267h-103q-74 120 -207 267zM66 0v43q0 10 14 12l41 4q88 8 88 78v682q0 35 -19 47q-20 12 -69 17l-41 4q-14 2 -14 8v47l2 4q217 -4 225 -4l213 4l2 -4v-45q0 -8 -12 -10l-43 -4q-47 -4 -66 -19 q-20 -16 -20 -45v-682q0 -68 86 -78l43 -4q12 -3 12 -12v-43l-2 -4q-209 4 -219 4l-217 -4z" />
<glyph unicode="&#x1d1;" horiz-adv-x="1427" d="M76 635q0 303 180 508t455 205q283 0 463 -187q182 -188 182 -487q0 -307 -176 -502q-174 -193 -467 -192q-274 0 -455 180q-182 182 -182 475zM264 670q0 -285 146 -451q147 -170 344 -170q180 0 296.5 160t116.5 426q0 309 -131 477q-129 166 -352 166 q-168 0 -293 -154q-127 -155 -127 -454zM461 1622l33 41q115 -49 217 -125q113 80 219 125l31 -41q-96 -72 -205 -195h-88q-68 84 -207 195z" />
<glyph unicode="&#x1d2;" horiz-adv-x="1150" d="M76 455q0 225 145 366q143 141 359 142q209 0 354 -133.5t145 -348.5q0 -213 -137 -356q-139 -145 -379 -145q-211 0 -348 135q-139 135 -139 340zM254 479q0 -188 94 -309q95 -123 246 -123q141 0 223 109q84 113 84 297q0 197 -100 321q-96 121 -240 121 q-127 0 -217 -108.5t-90 -307.5zM315 1309l41 26q152 -113 217 -184q77 80 222 184l39 -26q-141 -156 -209 -267h-103q-74 120 -207 267z" />
<glyph unicode="&#x1d3;" horiz-adv-x="1351" d="M0 1282v39l4 4q238 -4 258 -4l264 4l4 -4v-39q0 -12 -16 -16l-53 -4q-61 -3 -86 -25q-27 -23 -27 -66v-620q0 -106 2 -139q2 -37 31 -123q25 -72 76 -123q109 -102 243 -103q101 0 172 31q70 31 111 78q39 45 61 121q20 70 27 133q6 61 6 141v600q0 46 -24 68 q-23 20 -86 27l-56 4q-16 4 -16 16v39l4 4q193 -4 225 -4l226 4l4 -4v-39q0 -14 -17 -16l-53 -4q-61 -2 -88 -27q-25 -22 -25 -68v-563q0 -143 -22 -252q-20 -104 -78 -194q-55 -88 -156 -133q-102 -45 -258 -45q-76 0 -153 22q-80 25 -152 72q-76 51 -123 157.5t-47 251.5 v688q0 47 -24.5 65.5t-85.5 25.5l-56 4q-16 4 -16 16zM461 1622l33 41q115 -49 217 -125q113 80 219 125l31 -41q-96 -72 -205 -195h-88q-68 84 -207 195z" />
<glyph unicode="&#x1d4;" horiz-adv-x="1142" d="M55 897v45l4 4q205 -4 217 -4l211 4l5 -4v-45q0 -8 -13 -10l-41 -4q-51 -4 -69 -19q-18 -16 -19 -45v-405q0 -88 8 -140q10 -66 33 -118q25 -55 78 -88q49 -29 129 -29q76 0 131 24q49 23 82 62q25 31 41 96q12 49 16 101q2 27 2 110v387q0 33 -20.5 47.5t-67.5 16.5 l-41 4q-14 2 -14 10v45l4 4q164 -4 184 -4l170 4l5 -4v-45q0 -8 -13 -10l-35 -4q-49 -6 -63 -19q-16 -12 -16 -45v-360q0 -109 -17 -197q-16 -84 -57 -149q-41 -63 -123 -98t-203 -35q-57 0 -117 20q-72 25 -120 61q-59 45 -97 123q-37 80 -36 187v448q0 33 -18.5 45.5 t-70.5 18.5l-36 4q-13 2 -13 10zM330 1309l41 26q152 -113 217 -184q77 80 221 184l39 -26q-141 -156 -209 -267h-102q-74 120 -207 267z" />
<glyph unicode="&#x1d5;" horiz-adv-x="1351" d="M20 1282v39l5 2q104 -2 235 -2q10 0 42 1t52 1h95q12 0 12 -20v-21q0 -16 -17 -16q-63 -10 -79 -31q-18 -25 -19 -70v-618q0 -70 4 -139q2 -41 31 -123q25 -72 76 -123q102 -102 243 -103q123 0 203 43q78 43 117 125q33 70 47 158q10 61 10 178v602q0 45 -22 68 q-20 20 -76 33q-16 0 -16 16v23q0 18 18 18h63q12 0 39 -1t41 -1l205 2l4 -2v-39q0 -16 -51 -16q-111 0 -111 -95v-571q0 -143 -22 -252q-20 -104 -78 -194q-55 -88 -157.5 -133.5t-258.5 -45.5q-84 0 -153 21q-72 20 -150 74q-76 51 -123 157.5t-47 251.5v692q0 94 -143 95 q-19 0 -19 16zM408 1579q0 18 14 38.5t31 20.5h501q29 0 29 -28q0 -18 -16 -41q-14 -20 -33 -21h-500q-26 0 -26 31zM475 1407q0 39 26.5 65.5t65.5 26.5t64 -26q27 -31 26.5 -66t-26.5 -66q-25 -27 -64 -26.5t-65.5 27t-26.5 65.5zM770 1407q0 39 26.5 65.5t63.5 26.5 q39 0 66 -26q29 -29 28.5 -66t-29 -65.5t-65.5 -28.5q-35 0 -63 28q-27 27 -27 66z" />
<glyph unicode="&#x1d6;" horiz-adv-x="1161" d="M55 899v43l2 4q209 -4 219 -4l213 4l3 -4v-43q0 -10 -13 -10l-41 -4q-51 -4 -69.5 -18.5t-18.5 -47.5v-405q0 -88 8 -140q10 -66 33 -118q25 -55 78 -88q49 -29 129 -29q76 0 131 24q49 23 82 62q25 31 41 96q12 49 16 101q2 27 2 110v387q0 33 -20 47q-22 15 -68 19 l-41 4q-14 0 -14 10v43l4 4q164 -4 184 -4l172 4l3 -4v-43q0 -10 -13 -10l-35 -4q-49 -6 -63 -21q-16 -16 -16 -45v-360q0 -109 -17 -197q-16 -84 -57 -149q-41 -63 -123 -98t-203 -35q-57 0 -117 20q-72 25 -120 61q-59 45 -97 123q-37 80 -36 187v448q0 35 -18.5 47.5 t-70.5 18.5l-36 4q-13 0 -13 10zM350 1364q0 18 14.5 38.5t30.5 20.5h502q29 0 29 -28q0 -20 -14.5 -41t-34.5 -21h-500q-27 0 -27 31zM362 1173.5q0 38.5 27 65.5t66 27q41 0 67.5 -27t26.5 -65.5t-27 -65.5q-29 -29 -67 -29q-37 0 -66 29q-27 27 -27 65.5zM690 1173.5 q0 38.5 26.5 65.5t67.5 27q39 0 66 -27t27 -65.5t-27 -65.5q-29 -29 -66 -29q-39 0 -67 29q-27 27 -27 65.5z" />
<glyph unicode="&#x1d7;" horiz-adv-x="1351" d="M20 1282v39l5 2q104 -2 235 -2q10 0 42 1t52 1h95q12 0 12 -20v-21q0 -16 -17 -16q-63 -10 -79 -31q-18 -25 -19 -70v-618q0 -70 4 -139q2 -41 31 -123q25 -72 76 -123q102 -102 243 -103q123 0 203 43q78 43 117 125q33 70 47 158q10 61 10 178v602q0 45 -22 68 q-20 20 -76 33q-16 0 -16 16v23q0 18 18 18h63q12 0 39 -1t41 -1l205 2l4 -2v-39q0 -16 -51 -16q-111 0 -111 -95v-571q0 -143 -22 -252q-20 -104 -78 -194q-55 -88 -157.5 -133.5t-258.5 -45.5q-84 0 -153 21q-72 20 -150 74q-76 51 -123 157.5t-47 251.5v692q0 94 -143 95 q-19 0 -19 16zM475 1407q0 39 26.5 65.5t65.5 26.5t64 -26q27 -31 26.5 -66t-26.5 -66q-25 -27 -64 -26.5t-65.5 27t-26.5 65.5zM647 1530q0 18 25 37l194 155l99 -94l-228 -104q-45 -23 -67.5 -23t-22.5 29zM770 1407q0 39 26.5 65.5t63.5 26.5q39 0 66 -26 q29 -29 28.5 -66t-29 -65.5t-65.5 -28.5q-35 0 -63 28q-27 27 -27 66z" />
<glyph unicode="&#x1d8;" horiz-adv-x="1161" d="M55 899v43l2 4q209 -4 219 -4l213 4l3 -4v-43q0 -10 -13 -10l-41 -4q-51 -4 -69.5 -18.5t-18.5 -47.5v-405q0 -88 8 -140q10 -66 33 -118q25 -55 78 -88q49 -29 129 -29q76 0 131 24q49 23 82 62q25 31 41 96q12 49 16 101q2 27 2 110v387q0 33 -20 47q-22 15 -68 19 l-41 4q-14 0 -14 10v43l4 4q164 -4 184 -4l172 4l3 -4v-43q0 -10 -13 -10l-35 -4q-49 -6 -63 -21q-16 -16 -16 -45v-360q0 -109 -17 -197q-16 -84 -57 -149q-41 -63 -123 -98t-203 -35q-57 0 -117 20q-72 25 -120 61q-59 45 -97 123q-37 80 -36 187v448q0 35 -18.5 47.5 t-70.5 18.5l-36 4q-13 0 -13 10zM362 1173.5q0 38.5 27 65.5t66 27q41 0 67.5 -27t26.5 -65.5t-27 -65.5q-29 -29 -67 -29q-37 0 -66 29q-27 27 -27 65.5zM586 1253q0 25 12 47l164 259q16 4 29 4q57 0 100 -37q4 -4 8 -7l4 -3l6 -23l-235 -223q-41 -41 -60 -41q-10 0 -18 8 q-10 10 -10 16zM690 1173.5q0 38.5 26.5 65.5t67.5 27q39 0 66 -27t27 -65.5t-27 -65.5q-29 -29 -66 -29q-39 0 -67 29q-27 27 -27 65.5z" />
<glyph unicode="&#x1d9;" horiz-adv-x="1351" d="M20 1282v39l5 2q104 -2 235 -2q10 0 42 1t52 1h95q12 0 12 -20v-21q0 -16 -17 -16q-63 -10 -79 -31q-18 -25 -19 -70v-618q0 -70 4 -139q2 -41 31 -123q25 -72 76 -123q102 -102 243 -103q123 0 203 43q78 43 117 125q33 70 47 158q10 61 10 178v602q0 45 -22 68 q-20 20 -76 33q-16 0 -16 16v23q0 18 18 18h63q12 0 39 -1t41 -1l205 2l4 -2v-39q0 -16 -51 -16q-111 0 -111 -95v-571q0 -143 -22 -252q-20 -104 -78 -194q-55 -88 -157.5 -133.5t-258.5 -45.5q-84 0 -153 21q-72 20 -150 74q-76 51 -123 157.5t-47 251.5v692q0 94 -143 95 q-19 0 -19 16zM475 1407q0 39 26.5 65.5t65.5 26.5t64 -26q27 -31 26.5 -66t-26.5 -66q-25 -27 -64 -26.5t-65.5 27t-26.5 65.5zM502 1681l24 35q100 -49 166 -108q90 72 170 108l23 -35q-80 -70 -158 -172h-68q-61 86 -157 172zM770 1407q0 39 26.5 65.5t63.5 26.5 q39 0 66 -26q29 -29 28.5 -66t-29 -65.5t-65.5 -28.5q-35 0 -63 28q-27 27 -27 66z" />
<glyph unicode="&#x1da;" horiz-adv-x="1142" d="M55 899v43l2 4q209 -4 219 -4l213 4l3 -4v-43q0 -10 -13 -10l-41 -4q-51 -4 -69.5 -18.5t-18.5 -47.5v-405q0 -88 8 -140q10 -66 33 -118q25 -55 78 -88q49 -29 129 -29q76 0 131 24q49 23 82 62q25 31 41 96q12 49 16 101q2 27 2 110v387q0 33 -20 47q-22 15 -68 19 l-41 4q-14 0 -14 10v43l4 4q164 -4 184 -4l172 4l3 -4v-43q0 -10 -13 -10l-35 -4q-49 -6 -63 -21q-16 -16 -16 -45v-360q0 -109 -17 -197q-16 -84 -57 -149q-41 -63 -123 -98t-203 -35q-57 0 -117 20q-72 25 -120 61q-59 45 -97 123q-37 80 -36 187v448q0 35 -18.5 47.5 t-70.5 18.5l-36 4q-13 0 -13 10zM358 1577l41 27q158 -119 217 -185q77 80 222 185l39 -27q-133 -150 -209 -266h-103q-78 129 -207 266zM362 1173.5q0 38.5 27 65.5t66 27q41 0 67.5 -27t26.5 -65.5t-27 -65.5q-29 -29 -67 -29q-37 0 -66 29q-27 27 -27 65.5zM690 1173.5 q0 38.5 26.5 65.5t67.5 27q39 0 66 -27t27 -65.5t-27 -65.5q-29 -29 -66 -29q-39 0 -67 29q-27 27 -27 65.5z" />
<glyph unicode="&#x1db;" horiz-adv-x="1351" d="M20 1282v39l5 2q104 -2 235 -2q10 0 42 1t52 1h95q12 0 12 -20v-21q0 -16 -17 -16q-63 -10 -79 -31q-18 -25 -19 -70v-618q0 -70 4 -139q2 -41 31 -123q25 -72 76 -123q102 -102 243 -103q123 0 203 43q78 43 117 125q33 70 47 158q10 61 10 178v602q0 45 -22 68 q-20 20 -76 33q-16 0 -16 16v23q0 18 18 18h63q12 0 39 -1t41 -1l205 2l4 -2v-39q0 -16 -51 -16q-111 0 -111 -95v-571q0 -143 -22 -252q-20 -104 -78 -194q-55 -88 -157.5 -133.5t-258.5 -45.5q-84 0 -153 21q-72 20 -150 74q-76 51 -123 157.5t-47 251.5v692q0 94 -143 95 q-19 0 -19 16zM391 1649l121 80l190 -152q23 -16 23 -39q0 -27 -23 -27q-18 0 -67 23zM475 1407q0 39 26.5 65.5t65.5 26.5t64 -26q27 -31 26.5 -66t-26.5 -66q-25 -27 -64 -26.5t-65.5 27t-26.5 65.5zM770 1407q0 39 26.5 65.5t63.5 26.5q39 0 66 -26q29 -29 28.5 -66 t-29 -65.5t-65.5 -28.5q-35 0 -63 28q-27 27 -27 66z" />
<glyph unicode="&#x1dc;" horiz-adv-x="1161" d="M55 899v43l2 4q209 -4 219 -4l213 4l3 -4v-43q0 -10 -13 -10l-41 -4q-51 -4 -69.5 -18.5t-18.5 -47.5v-405q0 -88 8 -140q10 -66 33 -118q25 -55 78 -88q49 -29 129 -29q76 0 131 24q49 23 82 62q25 31 41 96q12 49 16 101q2 27 2 110v387q0 33 -20 47q-22 15 -68 19 l-41 4q-14 0 -14 10v43l4 4q164 -4 184 -4l172 4l3 -4v-43q0 -10 -13 -10l-35 -4q-49 -6 -63 -21q-16 -16 -16 -45v-360q0 -109 -17 -197q-16 -84 -57 -149q-41 -63 -123 -98t-203 -35q-57 0 -117 20q-72 25 -120 61q-59 45 -97 123q-37 80 -36 187v448q0 35 -18.5 47.5 t-70.5 18.5l-36 4q-13 0 -13 10zM356 1536l4 23q66 47 134 47q10 0 30 -4l144 -259q12 -25 12 -49q0 -8 -8 -14q-12 -8 -23 -8q-14 0 -59 41zM362 1173.5q0 38.5 27 65.5t66 27q41 0 67.5 -27t26.5 -65.5t-27 -65.5q-29 -29 -67 -29q-37 0 -66 29q-27 27 -27 65.5z M690 1173.5q0 38.5 26.5 65.5t67.5 27q39 0 66 -27t27 -65.5t-27 -65.5q-29 -29 -66 -29q-39 0 -67 29q-27 27 -27 65.5z" />
<glyph unicode="&#x1dd;" horiz-adv-x="927" d="M88 711l41 235l4 4q160 -4 182 -4h359l203 4l2 -4v-45q0 -10 -13 -10l-47 -4q-82 -8 -82 -88v-676q0 -33 17 -43q14 -10 65 -17l47 -4q12 -2 13 -8v-47l-2 -4q-213 4 -222 4h-301l-207 -4l-4 4q-3 89 -30 246l51 8q8 -37 22 -63q18 -37 33 -58q23 -33 55 -47 q37 -16 82 -16h164q59 0 60 49v297h-154q-43 0 -57 -14q-16 -16 -23 -52l-12 -43q0 -10 -12 -10h-35q-4 0 -4 6q12 135 12 152q0 33 -2 47q-2 8 -3 24.5t-1 24.5q-4 33 -6 45l4 4h35q14 0 14 -10l10 -45q12 -63 80 -64h154v314q0 29 -17 55q-14 23 -43 23h-194 q-145 0 -187 -172z" />
<glyph unicode="&#x1de;" horiz-adv-x="1421" d="M4 0v39q0 16 16 16q76 6 117 33t82 121l455 1065q20 45 33 57q16 16 36 17q34 0 56 -62l420 -1110q22 -58 55 -86q33 -27 96 -33l23 -2q20 -2 20 -16v-39l-6 -4q-209 4 -238 4l-272 -4l-2 4v39q0 14 14 16l58 4q113 8 86 88l-125 347h-426q-34 0 -49 -7q-12 -4 -23 -28 l-119 -297q-16 -41 6 -70q23 -31 76 -33l60 -4q16 -4 16 -16v-39l-4 -4q-61 0 -126 1t-98.5 2t-47.5 1l-185 -4zM406 1403q0 37 28 65q27 27 66 27t65.5 -26.5t26.5 -65.5t-26.5 -65.5t-65.5 -26.5t-66 26q-28 29 -28 66zM440 1587q0 18 14.5 39t30.5 21h502q29 0 29 -29 q0 -20 -14.5 -41t-34.5 -21h-500q-27 0 -27 31zM487 606q-6 -16 5 -20q12 -6 47 -6h356l-199 546h-4zM860 1405q0 39 26.5 65.5t67.5 26.5q39 0 66 -26.5t27 -65.5t-27 -66q-29 -29 -66 -28q-39 0 -67 28q-27 27 -27 66z" />
<glyph unicode="&#x1df;" horiz-adv-x="1099" d="M4 0v43q0 12 12 12q37 4 52 8q16 6 40.5 27t38.5 53l361 775q10 25 30.5 39t34.5 14q61 0 82 -51l299 -764q25 -59 50 -78q27 -20 77 -23q16 -4 17 -12v-43l-6 -4q-143 4 -170 4l-230 -4l-4 4v43q0 12 14 12l37 4q82 8 82 39q0 2 -1 10q-3 7 -3 13l-92 237h-350 q-39 0 -45 -22l-90 -215q-8 -18 -9 -27q0 -31 84 -37l27 -2q12 0 12 -12v-43l-4 -4q-45 0 -95 1t-75.5 2t-38.5 1l-133 -4zM293 1376q0 18 14.5 39t30.5 21h502q29 0 28 -29q0 -18 -16 -41q-14 -20 -33 -20h-500q-26 -1 -26 30zM332 1173.5q0 38.5 26.5 65.5t65.5 27 q41 0 67.5 -27t26.5 -65.5t-26 -65.5q-29 -29 -68 -29q-37 0 -66 29q-26 27 -26 65.5zM381 446q0 -29 41 -28h278l-161 403h-2zM659 1173.5q0 38.5 27 65.5t68 27q39 0 65.5 -27t26.5 -65.5t-27 -65.5q-29 -29 -65 -29q-39 0 -68 29q-27 27 -27 65.5z" />
<glyph unicode="&#x1e0;" horiz-adv-x="1421" d="M4 0v39q0 16 16 16q76 6 117 33t82 121l455 1065q20 45 33 57q16 16 36 17q34 0 56 -62l420 -1110q22 -58 55 -86q33 -27 96 -33l23 -2q20 -2 20 -16v-39l-6 -4q-209 4 -238 4l-272 -4l-2 4v39q0 14 14 16l58 4q113 8 86 88l-125 347h-426q-34 0 -49 -7q-12 -4 -23 -28 l-119 -297q-16 -41 6 -70q23 -31 76 -33l60 -4q16 -4 16 -16v-39l-4 -4q-61 0 -126 1t-98.5 2t-47.5 1l-185 -4zM362 1532q0 18 14.5 38.5t31.5 20.5h172l-19 -90h-174q-25 0 -25 31zM487 606q-6 -16 5 -20q12 -6 47 -6h356l-199 546h-4zM635 1538q0 41 28.5 69.5t69.5 28.5 t69.5 -28.5t28.5 -69.5q0 -39 -28.5 -67.5t-69.5 -28.5t-69.5 28.5t-28.5 67.5zM887 1501l16 90h172q29 0 29 -30q0 -18 -14.5 -39t-32.5 -21h-170z" />
<glyph unicode="&#x1e1;" horiz-adv-x="1146" d="M4 0v43q0 12 12 12q37 4 52 8q16 6 40.5 27t38.5 53l359 770q25 53 67 54q61 0 82 -52l299 -759q25 -59 50 -78q27 -20 77 -23q16 -4 17 -12v-43l-6 -4q-143 4 -170 4l-230 -4l-4 4v43q0 12 14 12l37 4q82 8 82 39q0 2 -1 10q-3 7 -3 13l-92 237h-350q-39 0 -45 -22 l-90 -215q-8 -18 -9 -27q0 -31 84 -37l27 -2q12 0 12 -12v-43l-4 -4q-45 0 -95 1t-75.5 2t-38.5 1l-133 -4zM313 1368q0 18 14.5 38.5t30.5 20.5h502q29 0 29 -28q0 -20 -14.5 -41t-34.5 -21h-500q-27 0 -27 31zM381 446q0 -29 41 -28h278l-157 403h-4zM494 1167 q0 41 28.5 70t69.5 29t69.5 -29t28.5 -70q0 -39 -28.5 -67.5t-69.5 -28.5q-43 0 -70 27q-28 28 -28 69z" />
<glyph unicode="&#x1e2;" horiz-adv-x="1779" d="M0 2v39q0 16 20 16h46q43 0 69 17q25 14 53 69l547 1039q8 14 8 28q0 27 -20.5 41.5t-44.5 14.5h-66q-14 0 -14 14v41l2 2l356 -2l158 2h504l29 -287l-56 -6q-12 78 -63 144q-53 68 -125 67h-291q-74 0 -74 -65v-426h207q49 0 72 22q16 16 31 68l14 61q4 16 14 17h45 q8 0 9 -9q-16 -186 -17 -194q0 -80 17 -197l-7 -6h-47q-14 0 -16 14l-12 64q-10 49 -31 69.5t-72 20.5h-207v-533q0 -68 74 -67h311q92 0 146 67q53 70 80 191l53 -10l-51 -328h-537l-156 2l-264 -4l-4 4v37q0 18 17 18h55q111 0 110 90v398h-364l-217 -406q-27 -51 -27 -59 q0 -23 68 -23h59q12 0 12 -12v-43l-4 -4q-176 4 -211 4l-186 -4zM549 625h323v553q0 39 -2 47zM856 1532q0 18 14.5 38.5t30.5 20.5h502q29 0 29 -28q0 -18 -17 -41q-14 -20 -33 -21h-499q-27 0 -27 31z" />
<glyph unicode="&#x1e3;" horiz-adv-x="1472" d="M10 0v43q0 9 13 12q90 10 122 70q76 123 199 362q150 297 150 357q0 34 -68 43q-12 2 -12 8v47l4 4q242 -4 336 -4h280l207 4l4 -4q3 -89 31 -246l-51 -8q-10 41 -21 62q-23 45 -33 59q-23 31 -57 47q-37 16 -82 16h-143q-59 0 -60 -47v-319h125q39 0 56 16q15 15 24 49 l10 43q3 12 13 13h35q6 0 6 -6q-12 -141 -13 -154q0 -43 13 -141l-4 -4h-37q-8 0 -15 10l-8 45q-9 34 -24 49q-14 14 -56 14h-125v-319q0 -51 60 -51h145q84 0 131 49q45 47 72 135l53 -6q-41 -166 -43 -248h-491l-203 -4l-2 4v45q0 6 10 10l35 4q49 6 66 21q18 14 18 45 v317h-229q-43 0 -60 -26l-147 -295q-14 -31 18 -45l49 -17l21 -4q12 -3 12 -12v-43l-2 -4q-45 0 -94 1t-75 2t-38 1l-123 -4zM440 516q0 -10 41 -10h199v295q0 86 -45 86q-33 0 -70 -82l-121 -279q-2 -2 -2 -6zM594 1114q0 18 14.5 39t30.5 21h502q29 0 28 -29 q0 -18 -16 -41q-14 -20 -33 -21h-499q-27 0 -27 31z" />
<glyph unicode="&#x1e4;" horiz-adv-x="1417" d="M66 629q0 219 104 385q106 168 260 250q158 84 338 84q139 0 270 -48q127 -45 176 -45q18 -199 46 -315l-62 -12q-45 154 -151 250q-102 94 -308 94q-213 0 -354 -168q-141 -170 -141 -434q0 -104 37 -211q35 -100 106 -199q66 -90 178 -149q109 -57 240 -58 q197 0 301 99v184h-291v80h291v49q0 47 -25 65q-23 16 -88 21l-53 4q-16 4 -16 16v54l4 4q238 -4 258 -4l190 4l4 -4v-54q0 -12 -16 -16q-47 -6 -69.5 -22.5t-22.5 -67.5v-49h123v-80h-123v-109q0 -33 33 -57q-224 -190 -547 -190q-303 0 -497.5 188.5t-194.5 460.5z" />
<glyph unicode="&#x1e5;" horiz-adv-x="1114" d="M78 451q0 238 149.5 375t382.5 137q55 0 182.5 -16.5t145.5 -16.5q4 -131 27 -262l-54 -6q-45 242 -327 241q-158 0 -244 -116.5t-86 -309.5q0 -92 37 -188q39 -98 123 -172q90 -78 207 -78q115 0 192 78v100h-195v80h195v31q0 35 -20 47q-23 14 -68 16l-41 4 q-12 2 -12 13v45l2 2q109 -2 225 -2l154 2l4 -2v-45q0 -9 -13 -13q-39 -6 -57 -20q-16 -12 -16 -47v-31h80v-80h-80v-43q0 -18 28 -47q-213 -147 -415 -147q-213 0 -361 137q-145 135 -145 334z" />
<glyph unicode="&#x1e6;" horiz-adv-x="1417" d="M66 629q0 219 104 385q106 168 260 250q158 84 338 84q139 0 270 -48q127 -45 176 -45q18 -199 46 -315l-62 -12q-45 154 -151 250q-102 94 -308 94q-213 0 -354 -168q-141 -170 -141 -434q0 -104 37 -211q35 -100 106 -199q66 -90 178 -149q109 -57 240 -58 q197 0 301 99v313q0 47 -25 65q-23 16 -88 21l-53 4q-16 4 -16 16v54l4 4q238 -4 258 -4l190 4l4 -4v-54q0 -12 -16 -16q-47 -6 -69.5 -22.5t-22.5 -67.5v-238q0 -33 33 -57q-224 -190 -547 -190q-303 0 -497.5 188.5t-194.5 460.5zM494 1622l32 41q115 -49 217 -125 q117 82 220 125l30 -41q-96 -72 -205 -195h-88q-67 84 -206 195z" />
<glyph unicode="&#x1e7;" horiz-adv-x="1114" d="M78 451q0 238 149.5 375t382.5 137q55 0 182.5 -16.5t145.5 -16.5q4 -131 27 -262l-54 -6q-45 242 -327 241q-158 0 -244 -116.5t-86 -309.5q0 -92 37 -188q39 -98 123 -172q90 -78 207 -78q115 0 192 78v211q0 35 -20 47q-23 14 -68 16l-41 4q-12 2 -12 13v45l2 2 q109 -2 225 -2l154 2l4 -2v-45q0 -9 -13 -13q-39 -6 -57 -20q-16 -12 -16 -47v-154q0 -18 28 -47q-213 -147 -415 -147q-213 0 -361 137q-145 135 -145 334zM322 1305l40 26q141 -104 218 -184q77 80 221 184l39 -26q-141 -156 -209 -267h-103q-73 120 -206 267z" />
<glyph unicode="&#x1e8;" horiz-adv-x="1302" d="M35 1282v39l4 4q55 0 116.5 -1t94.5 -2t49 -1q18 0 52 1t96.5 2t113.5 1l4 -4v-39q0 -12 -16 -16l-53 -4q-59 -2 -86 -22.5t-27 -63.5v-465q94 6 164 80l344 360q33 37 41 55q9 22 0 37q-8 12 -49 19l-43 4q-16 4 -17 16v39l4 4q209 -4 238 -4l197 4l10 -4v-39 q0 -16 -23 -16q-59 -6 -84 -15q-35 -10 -78 -34q-47 -27 -94 -74l-286 -309q-76 -82 -76 -101q0 -27 24 -51l449 -532q66 -78 160 -93l14 -2q18 -2 18 -16v-39l-6 -4q-205 4 -233 4l-123 -4l-4 4v12q0 84 -41 138l-334 405q-59 78 -172 78v-488q0 -45 25 -63q27 -20 88 -23 l53 -4q16 -4 16 -16v-39l-4 -4q-131 4 -260 4q-125 0 -260 -4l-4 4v39q0 14 14 16l55 4q59 2 87 23q25 18 24 63v1031q0 45 -24 63q-20 16 -87 23l-55 4q-16 4 -16 16zM459 1622l33 41q115 -49 217 -125q113 80 219 125l30 -41q-104 -80 -204 -195h-88q-68 84 -207 195z" />
<glyph unicode="&#x1e9;" horiz-adv-x="1069" d="M66 0v43q0 10 14 12l41 4q88 8 88 78v682q0 35 -19 47q-20 14 -69 17l-41 4q-14 2 -14 8v47l2 4q225 -4 231 -4l186 4l2 -4v-45q0 -8 -12 -10l-22 -4q-51 -10 -68 -21q-18 -12 -18 -43v-309q47 0 86 27q40 28 110 104q145 162 146 205q0 33 -60 41q-12 2 -12 10v47l2 2 q221 -4 225 -4l144 4l6 -2v-47q0 -8 -17 -10l-75 -8q-25 -3 -62 -25q-39 -23 -72 -61l-176 -203q-47 -51 -47 -76q0 -14 19 -35l309 -373q29 -31 115 -49l10 -2q14 -2 14 -12v-43l-6 -2q-72 2 -166 2l-125 -2l-2 2v25q0 49 -31 81l-227 283q-37 51 -108 51v-303 q0 -59 86 -78l22 -4q12 -3 12 -12v-43l-2 -4q-172 4 -190 4l-225 -4zM319 1294l41 27q141 -104 218 -184q77 80 221 184l39 -27q-133 -150 -209 -266h-103q-78 129 -207 266z" />
<glyph unicode="&#x1ea;" horiz-adv-x="1427" d="M76 635q0 303 180 508t455 205q283 0 463 -187q182 -188 182 -487q0 -199 -78 -359q-78 -158 -219 -243l2 -2q-104 -74 -160 -150q-53 -72 -53 -164q0 -39 35 -73q33 -33 88 -33q66 0 139 74l31 -15q-88 -137 -217 -137q-88 0 -142 45q-55 47 -55 127q0 121 147 254 q-76 -18 -161 -18q-274 0 -455 180q-182 182 -182 475zM264 670q0 -285 146 -451q147 -170 344 -170q180 0 296.5 160t116.5 426q0 309 -131 477q-129 166 -352 166q-168 0 -293 -154q-127 -155 -127 -454z" />
<glyph unicode="&#x1eb;" horiz-adv-x="1150" d="M76 455q0 225 145 366q143 141 359 142q209 0 354 -133.5t145 -348.5q0 -143 -65 -262q-61 -113 -191 -180q-76 -76 -112 -135q-41 -66 -41 -142q0 -45 35 -75q33 -31 88 -31q63 0 137 74l33 -15q-88 -137 -220 -137q-88 0 -141 45q-55 45 -55 127q0 113 131 240 q-61 -10 -115 -10q-211 0 -348 135q-139 135 -139 340zM254 479q0 -188 94 -309q95 -123 246 -123q141 0 223 109q84 113 84 297q0 197 -100 321q-96 121 -240 121q-127 0 -217 -108.5t-90 -307.5z" />
<glyph unicode="&#x1ec;" horiz-adv-x="1427" d="M76 635q0 303 180 508t455 205q283 0 463 -187q182 -188 182 -487q0 -199 -78 -359q-78 -158 -219 -243l2 -2q-104 -74 -160 -150q-53 -72 -53 -164q0 -39 35 -73q33 -33 88 -33q66 0 139 74l31 -15q-88 -137 -217 -137q-88 0 -142 45q-55 47 -55 127q0 121 147 254 q-76 -18 -161 -18q-274 0 -455 180q-182 182 -182 475zM264 670q0 -285 146 -451q147 -170 344 -170q180 0 296.5 160t116.5 426q0 309 -131 477q-129 166 -352 166q-168 0 -293 -154q-127 -155 -127 -454zM428 1532q0 18 14.5 38.5t30.5 20.5h502q29 0 29 -28 q0 -18 -17 -41q-14 -20 -33 -21h-499q-27 0 -27 31z" />
<glyph unicode="&#x1ed;" horiz-adv-x="1150" d="M76 455q0 225 145 366q143 141 359 142q209 0 354 -133.5t145 -348.5q0 -143 -65 -262q-61 -113 -191 -180q-76 -76 -112 -135q-41 -66 -41 -142q0 -45 35 -75q33 -31 88 -31q63 0 137 74l33 -15q-88 -137 -220 -137q-88 0 -141 45q-55 45 -55 127q0 113 131 240 q-61 -10 -115 -10q-211 0 -348 135q-139 135 -139 340zM254 479q0 -188 94 -309q95 -123 246 -123q141 0 223 109q84 113 84 297q0 197 -100 321q-96 121 -240 121q-127 0 -217 -108.5t-90 -307.5zM274 1104q0 18 14.5 38.5t30.5 20.5h502q29 0 29 -28q0 -18 -16 -41 q-14 -20 -33 -21h-500q-27 0 -27 31z" />
<glyph unicode="&#x1ee;" horiz-adv-x="1243" d="M86 -225q0 102 90 102q92 0 139 -72q106 -162 281 -161q131 0 254 147.5t123 294.5q0 115 -37 205q-33 80 -98 135q-53 45 -121 72q-61 25 -119 24q-55 0 -86 -6l401 725h-510q-100 -2 -155 -92q-53 -88 -64 -184l-53 4l43 397q31 -6 78 -23q59 -20 90 -20h727 q57 0 57 -29q0 -23 -32 -84l-342 -620q197 -40 301 -172q102 -129 102 -314q0 -219 -176 -376q-178 -160 -422 -160q-86 0 -195 22q-102 20 -190 72q-86 50 -86 113zM356 1622l33 41q115 -49 217 -125q113 80 219 125l31 -41q-96 -72 -205 -195h-88q-68 84 -207 195z" />
<glyph unicode="&#x1ef;" horiz-adv-x="849" d="M78 686q28 175 31 283h51q8 -27 53 -27h457q37 0 59 2q34 3 55 6l23 4q27 0 27 -12q0 -20 -46 -86l-366 -555q158 0 270.5 -94t112.5 -252q0 -182 -121 -309t-305 -127q-121 0 -207 67.5t-86 122.5q0 31 16 53q14 20 50 21q70 0 90 -70q14 -41 57 -84q39 -39 96 -39 q88 0 162 90.5t74 241.5q0 309 -236 309q-12 0 -121 -22l-43 31l402 632h-330q-119 0 -172 -192zM145 1290l41 27q152 -113 217 -184q77 80 222 184l39 -27q-133 -150 -209 -266h-103q-78 129 -207 266z" />
<glyph unicode="&#x1f0;" horiz-adv-x="614" d="M-94 -256q0 27 26 49q23 20 48 21q59 0 98 -52q25 -35 53 -34q135 0 135 426v667q0 31 -20.5 45.5t-67.5 16.5l-57 4q-12 0 -12 10v45l2 4q233 -4 237 -4l201 4l4 -4v-45q0 -8 -14 -10l-27 -4q-51 -10 -68 -21q-20 -14 -20 -41v-624q0 -340 -178 -482q-90 -74 -217 -73 q-35 0 -80 28q-43 28 -43 74zM84 1309l41 26q152 -113 217 -184q77 80 221 184l39 -26q-141 -156 -209 -267h-102q-74 120 -207 267z" />
<glyph unicode="&#x1f1;" horiz-adv-x="2699" d="M35 0v37q0 16 14 18l62 4q57 4 82 25q25 23 24 68v1019q0 55 -20.5 69.5t-85.5 21.5l-58 4q-18 4 -18 16v39l4 4q74 0 137.5 -1t91.5 -2l29 -1q100 0 167.5 2t168.5 2q293 0 499.5 -202.5t206.5 -491.5q0 -178 -63 -312q-61 -129 -166 -196q-106 -68 -213 -98 q-102 -29 -227 -29q-145 0 -211 2t-162 2q-139 0 -258 -4zM383 147q0 -51 39 -65q43 -16 184 -16q545 0 545 516q0 88 -21 190q-16 86 -63 182q-43 89 -111 154q-70 68 -170 106q-98 39 -231 39q-88 0 -129 -14q-43 -14 -43 -63v-1029zM1550 31q0 29 17 47l796 1108 q16 23 17 37q0 16 -21 16h-473q-104 0 -149 -57q-43 -55 -84 -187l-62 11q33 156 45 342q37 -4 72 -15q41 -12 94 -12h658q35 4 77 12q39 8 52 8q47 0 47 -20q0 -40 -49 -111l-768 -1063q-16 -29 -17 -41q0 -27 51 -26h478q106 0 163 70q59 72 93 198l63 -10 q-41 -176 -55 -342q-53 0 -115.5 1t-95.5 2t-49 1h-746q-39 0 -39 31z" />
<glyph unicode="&#x1f2;" horiz-adv-x="2463" d="M35 0v37q0 16 14 18l62 4q57 4 82 25q25 23 24 68v1019q0 55 -20.5 69.5t-85.5 21.5l-58 4q-18 4 -18 16v39l4 4q74 0 137.5 -1t91.5 -2l29 -1q100 0 167.5 2t168.5 2q293 0 499.5 -202.5t206.5 -491.5q0 -178 -63 -312q-61 -129 -166 -196q-106 -68 -213 -98 q-102 -29 -227 -29q-145 0 -211 2t-162 2q-139 0 -258 -4zM383 147q0 -51 39 -65q43 -16 184 -16q545 0 545 516q0 88 -21 190q-16 86 -63 182q-43 89 -111 154q-70 68 -170 106q-98 39 -231 39q-88 0 -129 -14q-43 -14 -43 -63v-1029zM1536 20q0 14 14 35l539 774 q14 20 14 29q0 14 -18 14h-309q-117 0 -172 -192l-54 6q27 150 31 279q0 6 8 6q12 -4 33 -15q29 -14 64 -14l479 -2q82 16 106 16q45 0 45 -20.5t-39 -73.5l-508 -741q-12 -18 -12 -31q0 -20 41 -20h244q83 0 123 36q35 33 78 127l26 60l55 -14q-53 -188 -65 -279h-692 q-31 0 -31 20z" />
<glyph unicode="&#x1f3;" horiz-adv-x="2015" d="M66 0v43q0 12 12 12l47 4q47 2 65 23q16 16 17 65v676q0 37 -14 47q-12 9 -68 13l-45 4q-14 2 -14 10v45l2 4q49 0 101 -1t78.5 -2t37.5 -1q55 0 128.5 2t141.5 2q248 0 379 -135q131 -133 131 -350q0 -133 -41 -223q-45 -98 -115 -146q-68 -45 -153 -72 q-80 -25 -172 -24q-125 0 -186.5 2t-112.5 2l-217 -4zM365 147q0 -49 30 -71q29 -20 140 -21q182 0 266 82q86 83 86 289q0 51 -8 129q-6 58 -31 123q-25 63 -66 108q-41 43 -114 72q-76 29 -172 29q-131 0 -131 -64v-676zM1104 20q0 14 14 35l539 774q14 20 14 29 q0 14 -18 14h-310q-117 0 -172 -192l-53 6q27 150 31 279q0 6 8 6q12 -4 33 -15q29 -14 63 -14l480 -2q82 16 106 16q45 0 45 -20.5t-39 -73.5l-508 -741q-12 -18 -12 -31q0 -20 41 -20h244q83 0 123 36q41 37 77 127l27 60l55 -14q-53 -188 -65 -279h-692q-31 0 -31 20z " />
<glyph unicode="&#x1f4;" horiz-adv-x="1417" d="M66 629q0 219 104 385q106 168 260 250q158 84 338 84q139 0 270 -48q127 -45 176 -45q18 -199 46 -315l-62 -12q-45 154 -151 250q-102 94 -308 94q-213 0 -354 -168q-141 -170 -141 -434q0 -104 37 -211q35 -100 106 -199q66 -90 178 -149q109 -57 240 -58 q197 0 301 99v313q0 47 -25 65q-23 16 -88 21l-53 4q-16 4 -16 16v54l4 4q238 -4 258 -4l190 4l4 -4v-54q0 -12 -16 -16q-47 -6 -69.5 -22.5t-22.5 -67.5v-238q0 -33 33 -57q-224 -190 -547 -190q-303 0 -497.5 188.5t-194.5 460.5zM594 1460q0 22 31 43l254 176l127 -106 l-295 -119q-59 -25 -88 -25t-29 31z" />
<glyph unicode="&#x1f5;" horiz-adv-x="1114" d="M78 451q0 238 149.5 375t382.5 137q55 0 182.5 -16.5t145.5 -16.5q4 -131 27 -262l-54 -6q-45 242 -327 241q-158 0 -244 -116.5t-86 -309.5q0 -92 37 -188q39 -98 123 -172q90 -78 207 -78q115 0 192 78v211q0 35 -20 47q-23 14 -68 16l-41 4q-12 2 -12 13v45l2 2 q109 -2 225 -2l154 2l4 -2v-45q0 -9 -13 -13q-39 -6 -57 -20q-16 -12 -16 -47v-154q0 -18 28 -47q-213 -147 -415 -147q-213 0 -361 137q-145 135 -145 334zM403 1057q0 25 13 47l164 258q16 4 28 4q57 0 101 -37q4 -4 8 -7l4 -3l6 -23l-235 -223q-41 -41 -60 -41 q-12 0 -20.5 8.5t-8.5 16.5z" />
<glyph unicode="&#x1f8;" horiz-adv-x="1421" d="M23 0v37q0 14 26 18l53 4q111 10 111 121v946q-8 45 -51 91q-43 47 -88 49q-35 4 -35 16v39l6 4h279l702 -909q86 -113 102 -113q14 0 15 62v776q0 113 -111 121l-53 4q-29 4 -29 16v39l8 4q205 -4 228 -4l227 4l4 -4v-39q0 -12 -16 -16l-55 -4q-111 -8 -111 -121v-1098 q0 -63 -43 -63q-45 0 -82 49l-715 903q-51 68 -69 67q-20 0 -21 -100v-719q0 -113 113 -121l53 -4q16 -4 16 -16v-39l-4 -4q-193 4 -227 4l-229 -4zM444 1581l156 92l248 -172q31 -22 31 -43q0 -31 -31 -31q-29 0 -88 25z" />
<glyph unicode="&#x1f9;" horiz-adv-x="1167" d="M66 0v43q0 10 20 12l41 4q88 8 88 86v668q-37 68 -125 74q-18 3 -18 12v41l4 6l276 -4l469 -637q43 -49 57.5 -49t14.5 53v486q0 37 -23 59q-27 27 -67 29l-43 4q-20 2 -21 10v45l4 4q184 -4 195 -4l182 4l6 -2v-47q0 -8 -14 -10l-41 -4q-88 -8 -88 -88v-764 q0 -55 -41 -56q-37 0 -80 45l-481 642q-40 49 -55 49q-20 0 -21 -72v-494q0 -77 92 -86l41 -4q14 -2 15 -12v-43l-2 -4q-168 4 -189 4l-190 -4zM387 1307l4 22q66 47 133 47q10 0 31 -4l143 -258q12 -25 13 -49q0 -10 -9 -16q-10 -6 -22 -7q-14 0 -59 41z" />
<glyph unicode="&#x1fa;" horiz-adv-x="1421" d="M4 0v39q0 16 16 16q76 6 117 33t82 121l455 1065l12 24q-59 12 -100 59.5t-41 108.5q0 70 51 119q55 51 123 51q51 0 98 -30q45 -31 66 -76l250 172l127 -107l-295 -118q-35 -14 -70 -23q-2 -43 -33 -86q-25 -37 -74 -57q6 -12 11 -25l420 -1110q22 -58 55 -86 q33 -27 96 -33l23 -2q20 -2 20 -16v-39l-6 -4q-209 4 -238 4l-272 -4l-2 4v39q0 14 14 16l58 4q113 8 86 88l-125 347h-426q-34 0 -49 -7q-12 -4 -23 -28l-119 -297q-16 -41 6 -70q23 -31 76 -33l60 -4q16 -4 16 -16v-39l-4 -4q-61 0 -126 1t-98.5 2t-47.5 1l-185 -4z M487 606q-6 -16 5 -20q12 -6 47 -6h356l-199 546h-4zM610 1466q0 -46 31 -80q31 -35 80 -34q47 0 78 34q33 37 32 80q0 47 -32 80q-35 35 -78 35q-49 0 -80 -35q-31 -34 -31 -80z" />
<glyph unicode="&#x1fb;" horiz-adv-x="1099" d="M4 0v43q0 12 12 12q37 4 52 8q16 6 40.5 27t38.5 53l361 775q10 25 30.5 39t34.5 14q61 0 82 -51l299 -764q25 -59 50 -78q27 -20 77 -23q16 -4 17 -12v-43l-6 -4q-143 4 -170 4l-230 -4l-4 4v43q0 12 14 12l37 4q82 8 82 39q0 2 -1 10q-3 7 -3 13l-92 237h-350 q-39 0 -45 -22l-90 -215q-8 -18 -9 -27q0 -31 84 -37l27 -2q12 0 12 -12v-43l-4 -4q-45 0 -95 1t-75.5 2t-38.5 1l-133 -4zM381 446q0 -29 41 -28h278l-161 403h-2zM412 1190q0 55 36.5 102t90.5 62q4 16 10 26l164 258q16 4 28 4q57 0 101 -36l8 -8l4 -3l6 -22l-229 -219 q59 -16 94 -60q37 -46 37 -104q0 -72 -51.5 -121t-124.5 -49q-71 0 -123 49q-51 49 -51 121zM477 1190q0 -43 33 -80q31 -35 78 -35t78 35q33 37 32 80q0 49 -32.5 82t-77.5 33q-47 0 -78 -33q-33 -37 -33 -82z" />
</font>
</defs>
</svg>
